<?xml version="1.0" standalone="yes"?>
<svg xmlns="http://www.w3.org/2000/svg" width="800" height="450">
<path style="fill:#89d077; stroke:none;" d="M0 0L0 142L144 142C148.763 128.037 166.053 137.043 159.106 146.811C152.185 156.542 147.875 145.104 141.787 143.318C135.994 141.619 128.018 143 122 143L0 143L0 333C21.9192 325.023 1.74383 296.186 23 284.09C29.6405 280.31 38.648 281 46 281C60.8446 281 76.2085 282.153 91 280.942C97.4585 280.413 102.983 275.19 109 273L109 272C87.054 272 65.0181 271 43 271C32.5313 271 22.4337 271.579 15.6489 261.996C10.5735 254.827 12 245.292 12 237L12 189C12 181.44 10.5949 172.229 13.1088 165C16.1448 156.269 24.0937 151.408 33 151L33 152C12.4655 153.548 18.8404 190.261 19.0039 204C19.195 220.068 14.3671 254.431 28.0432 265.606C34.0368 270.503 42.7743 269 50 269C67.3473 269 84.6302 268.203 102 267.996C108.112 267.923 120.09 268.681 124.895 264.682C133.619 257.423 131 243.004 131 233L132 233L131 260C142.143 253.819 141 247.757 141 236L142 236L143 269L144 269L192 219L159 218L159 217C173.829 217 193.801 220.45 208 216.011C230.848 208.868 249.605 189.476 272 181L272 195L273 195L273 174L274 174L274 198L275 198L274 168L275 168L275 172L276 172L275 163L276 163L276 166L277 166L276 160L278 161L278 160L277 156L278 156L278 158L279 158L278 153C280.916 152.595 280.467 150.692 280 148L282 149L282 148L281 146L281 145L283 146L282 143L284 144L283 141C285.964 140.612 286.16 138.853 286 136L289 131C293.395 128.632 297.259 123.943 298 119L314 106.426L340 92.0417L354 86L362 87L362 86L360 86L360 85L387 85C382.557 98.365 374.758 109.701 372.438 124C365.136 169.011 386.082 213.954 427 235.216C442.843 243.448 458.363 243.039 475 247L477 227L461 227L462 225L456 226L457 224L456 224L452 223L449 222C446.05 222.983 445.378 223.487 446 221L443 222L444 220L441 221L439 220L439 218L437 219L437 217L435 218L435 216L433 217L430 215L427 213L426 210L424 211L408 195L405 191L403 188L402 186L400 183L399 181L400 179L398 179L399 176L397 177L398 174L396 174L397 171L395 172L395 171L396 169L396 168L394 169L394 168L395 165L393 165L394 160C390.915 160 392.55 157.442 393 155L391 133L393 134L392 127L394 128L393 123L395 123L394 119L396 120L396 119L395 117L395 116L397 117L397 116L396 114L396 113L398 114L397 111L399 112L398 109L399 107L401 107L400 105L403 104L402 101L404 102L405 97L407 94C415.568 89.4263 421.681 79.8749 430 74.3557C448.523 62.0669 467.693 61.085 489 62L489 61L484 61L484 60L537 32L537 0L0 0z"/>
<path style="fill:#57b987; stroke:none;" d="M537 0L537 32C518.469 35.5734 501.446 52.6982 484 60L484 61L489 61L489 62L486 62L486 63L494 62L494 63L491 63L491 64L498 63L498 64L496 64L496 65L501 64L501 65L499 65L499 66L504 65L504 66L502 66L502 67L506 66L505 68L508 67C508.594 71.5079 519.221 75.3646 523 78.1435C533.093 85.5656 542.043 95.7607 547.667 107C573.714 159.055 535.847 226 476 226C478.421 263.608 476 301.378 476 339L476 370C476 374.242 476.973 380.048 474.821 383.892C469.805 392.851 448.6 389 440 389L351 389C342.499 389 324.803 392.359 318.434 385.606C308.347 374.911 322.237 351.292 314.062 339.148C307.348 329.176 286.812 341.718 278.318 331.867C274.634 327.594 276 320.238 276 315L276 282C276 277.065 276.964 270.691 274.427 266.214C268.247 255.304 243.076 269.567 243.213 250C243.251 244.516 248.114 239.329 251 235C257.636 225.046 264.993 215.296 271.07 205C276.212 196.29 274 183.775 274 174L273 174L273 195L272 195L272 181C249.066 186.387 230.097 207.512 208 215.671C194.381 220.699 173.486 217 159 217L159 218L192 219L160 251L144 269L143 269L142 236L141 236C141 248.345 141.046 252.333 131 260L132 233L131 233C131 243.266 133.206 256.059 124.895 263.852C119.97 268.47 109.476 267.677 103 267.961C85.7503 268.716 68.2471 269 51 269C43.6967 269 35.1181 270.45 29.0154 265.606C14.3115 253.933 19.2058 219.979 19.0039 203C18.8356 188.857 12.9644 155.092 33 152L33 151C24.5126 151.181 16.8723 154.71 13.483 163C10.5614 170.146 12 179.425 12 187L12 237C12 245.491 10.3833 255.669 15.6489 262.985C22.0571 271.887 32.2793 271 42 271C64.3547 271 86.7155 272 109 272L109 273C102.266 274.541 96.9016 280.377 90 280.942C74.8802 282.18 59.1742 281 44 281C36.6226 281 27.4337 280.423 21.0008 284.703C5.89504 294.754 14.5922 310.83 10.6821 324.895C9.21688 330.166 1.8252 329.924 0.317901 335.185C-2.64312 345.521 0 360.239 0 371L0 450L800 450L800 0L764 0C764 35.4886 760.805 72.6354 764.059 107.957C764.552 113.307 770.266 115.41 770.891 121C773.394 143.353 771.154 167.495 770.999 190C770.95 197.208 765.183 199.066 764.148 205.104C761.729 219.217 764 235.668 764 250L764 338C764 352.593 765.831 368.579 763.561 383C757.371 422.327 722.41 426 690 426C686.028 426 681.052 425.206 677.209 426.318C671.613 427.936 662.844 439.283 658.786 426.985C657.036 421.681 662.832 416.375 667.996 417.478C671.982 418.329 673.496 422.608 677.209 423.682C683.867 425.608 693.083 424 700 424C727.276 424 756.353 418.405 761.56 386C765.391 362.159 762 335.158 762 311C762 276.497 765.105 240.383 761.941 206.043C761.42 200.386 755.429 198.151 755.044 192C753.667 170.003 751.264 141.652 755.228 120.001C756.15 114.966 761.475 113.018 761.941 107.957C765.195 72.6353 762 35.4887 762 0L640 0L604 0C598.847 0 591.89 -1.19974 587 0.603394C574.47 5.22333 561.41 24.5903 552 34L552 20L550 21L551 0L537 0z"/>
<path style="fill:#89d077; stroke:none;" d="M550 21L552 20L552 34C563.893 25.622 577.622 11.8934 586 0L560 0L551.028 1.60339L550 21M762 0L762 112L763 112L763 34L762 0z"/>
<path style="fill:#f9fafa; stroke:none;" d="M763 0L763 112L764 112L764 34L763 0z"/>
<path style="fill:#89d077; stroke:none;" d="M536 34L536 46L537 46L536 34z"/>
<path style="fill:#57b987; stroke:none;" d="M473 59L473 60L483 60L473 59M461.667 60.3333L462.333 60.6667L461.667 60.3333M455.667 61.3333L456.333 61.6667L455.667 61.3333M465 61L465 62L484 62L465 61M452.667 62.3333L453.333 62.6667L452.667 62.3333M459 62L459 63L463 63L459 62z"/>
<path style="fill:#27303f; stroke:none;" d="M463 62.4283C451.264 64.1096 440.117 68.2889 430 74.4637C421.253 79.8026 413.162 87.5756 407.348 96C368.035 152.963 414.032 235.739 485 225.572C497.416 223.793 509.534 219.659 520 212.641C577.713 173.943 562.976 78.5446 493 63.804C483.354 61.7721 472.815 61.0222 463 62.4283z"/>
<path style="fill:#89d077; stroke:none;" d="M490 62L490 63L494 63L490 62z"/>
<path style="fill:#57b987; stroke:none;" d="M448.667 63.3333L449.333 63.6667L448.667 63.3333M454 63L454 64L457 64L454 63z"/>
<path style="fill:#89d077; stroke:none;" d="M495 63L495 64L498 64L495 63z"/>
<path style="fill:#57b987; stroke:none;" d="M446 64L447 65L446 64M451.667 64.3333L452.333 64.6667L451.667 64.3333z"/>
<path style="fill:#89d077; stroke:none;" d="M498 64L498 65L501 65L498 64z"/>
<path style="fill:#57b987; stroke:none;" d="M443 65L444 66L443 65M448.667 65.3333L449.333 65.6667L448.667 65.3333z"/>
<path style="fill:#89d077; stroke:none;" d="M501 65L501 66L504 66L501 65z"/>
<path style="fill:#57b987; stroke:none;" d="M441 66L442 67L441 66M445.667 66.3333L446.333 66.6667L445.667 66.3333z"/>
<path style="fill:#89d077; stroke:none;" d="M504.667 66.3333L505.333 66.6667L504.667 66.3333z"/>
<path style="fill:#57b987; stroke:none;" d="M442.667 67.3333L443.333 67.6667L442.667 67.3333z"/>
<path style="fill:#89d077; stroke:none;" d="M506.667 67.3333L507.333 67.6667L506.667 67.3333z"/>
<path style="fill:#57b987; stroke:none;" d="M437 68L438 69L437 68M440.667 68.3333L441.333 68.6667L440.667 68.3333z"/>
<path style="fill:#89d077; stroke:none;" d="M509 68L510 69L509 68z"/>
<path style="fill:#57b987; stroke:none;" d="M435 69L436 70L435 69M438 69L439 70L438 69z"/>
<path style="fill:#89d077; stroke:none;" d="M511 69L512 70L511 69z"/>
<path style="fill:#57b987; stroke:none;" d="M433 70L434 71L433 70M436.667 70.3333L437.333 70.6667L436.667 70.3333z"/>
<path style="fill:#89d077; stroke:none;" d="M513 70L514 71L513 70z"/>
<path style="fill:#57b987; stroke:none;" d="M431 71L432 72L431 71M434.667 71.3333L435.333 71.6667L434.667 71.3333z"/>
<path style="fill:#89d077; stroke:none;" d="M515 71L516 72L515 71z"/>
<path style="fill:#57b987; stroke:none;" d="M432.667 72.3333L433.333 72.6667L432.667 72.3333z"/>
<path style="fill:#89d077; stroke:none;" d="M517 72L519 74L517 72z"/>
<path style="fill:#57b987; stroke:none;" d="M428 73L429 74L428 73M431 73L432 74L431 73M429 74L430 75L429 74z"/>
<path style="fill:#89d077; stroke:none;" d="M520 74L522 76L520 74z"/>
<path style="fill:#57b987; stroke:none;" d="M425 75L424 77L425 75M428 75L429 76L428 75M426 76L427 77L426 76z"/>
<path style="fill:#89d077; stroke:none;" d="M523 76L526 79L523 76z"/>
<path style="fill:#57b987; stroke:none;" d="M425 77L426 78L425 77M421 78L418 82L421 78M424 78L425 79L424 78M422 79L423 80L422 79M421 80L422 81L421 80M420 81L421 82L420 81z"/>
<path style="fill:#89d077; stroke:none;" d="M529 81L536 88L529 81z"/>
<path style="fill:#57b987; stroke:none;" d="M419 82L420 83L419 82M418 83L419 84L418 83M369 84L369 85L380 85L369 84M417 84L418 85L417 84M360 85L360 86L365 86L360 85M383 85L383 86L387 86L383 85M416 85L417 86L416 85M354.667 86.3333L355.333 86.6667L354.667 86.3333z"/>
<path style="fill:#f9fafa; stroke:none;" d="M476 229L475 229L475 247C458.264 242.053 442.14 243.122 426 234.138C386.887 212.366 365.258 169.264 372.438 125C374.703 111.04 381.525 99.705 387 87C342.01 73.7016 292.84 113.988 279.515 154C274.482 169.115 279.068 186.863 273.387 201C268.569 212.991 258.164 224.25 251 235C247.533 240.202 242.504 246.284 244.033 252.999C247.721 269.192 270.119 254.806 275.258 268.005C282.461 286.507 269.382 311.522 276.894 329.956C281.935 342.326 305.045 329.341 313.427 338.394C323.306 349.064 310.334 371.731 317.179 383.891C320.739 390.215 331.949 388 338 388L397 388L454 388C459.776 388 470.275 390.042 474.258 384.772C476.839 381.356 476 376.01 476 372L476 343L476 229z"/>
<path style="fill:#57b987; stroke:none;" d="M393.667 86.3333L394.333 86.6667L393.667 86.3333M415 86L416 87L415 86M349 87L350 88L349 87z"/>
<path style="fill:#f9fafa; stroke:none;" d="M390 87L391 88L390 87z"/>
<path style="fill:#57b987; stroke:none;" d="M396 87L397 88L396 87M398.667 87.3333L399.333 87.6667L398.667 87.3333M346 88L347 89L346 88z"/>
<path style="fill:#f9fafa; stroke:none;" d="M393.667 88.3333L394.333 88.6667L393.667 88.3333z"/>
<path style="fill:#57b987; stroke:none;" d="M401.667 88.3333L402.333 88.6667L401.667 88.3333M411 88L405 89L405 90C407.614 90.54 410.468 91.0728 411 88M413 88L414 89L413 88M343 89L344 90L343 89z"/>
<path style="fill:#f9fafa; stroke:none;" d="M399 89L400 90L399 89z"/>
<path style="fill:#57b987; stroke:none;" d="M412 89L413 90L412 89M473.667 89.3333L474.333 89.6667L473.667 89.3333z"/>
<path style="fill:#89d077; stroke:none;" d="M537 89L538 90L537 89z"/>
<path style="fill:#57b987; stroke:none;" d="M340 90L341 91L340 90z"/>
<path style="fill:#f9fafa; stroke:none;" d="M401 90L402 91L401 90z"/>
<path style="fill:#57b987; stroke:none;" d="M411 90L412 91L411 90z"/>
<path style="fill:#f9fafa; stroke:none;" d="M472 90L472 103C478.974 101.836 478.974 91.1639 472 90z"/>
<path style="fill:#89d077; stroke:none;" d="M476 90L477 91L476 90z"/>
<path style="fill:#57b987; stroke:none;" d="M337 91L338 92L337 91z"/>
<path style="fill:#f9fafa; stroke:none;" d="M405 91L406 92L405 91z"/>
<path style="fill:#57b987; stroke:none;" d="M410 91L411 92L410 91M471 91L472 92L471 91M335 92L336 93L335 92z"/>
<path style="fill:#f9fafa; stroke:none;" d="M408 92L409 93L408 92z"/>
<path style="fill:#89d077; stroke:none;" d="M471 92L471 101L472 101L471 92z"/>
<path style="fill:#57b987; stroke:none;" d="M477 92L477 102L478 102L477 92z"/>
<path style="fill:#89d077; stroke:none;" d="M539 92L540 93L539 92z"/>
<path style="fill:#f9fafa; stroke:none;" d="M407 94L408 95L407 94z"/>
<path style="fill:#57b987; stroke:none;" d="M408 94L409 95L408 94z"/>
<path style="fill:#f9fafa; stroke:none;" d="M406 95L407 96L406 95z"/>
<path style="fill:#57b987; stroke:none;" d="M501 96L502 97L501 96z"/>
<path style="fill:#f9fafa; stroke:none;" d="M405 97L406 98L405 97z"/>
<path style="fill:#57b987; stroke:none;" d="M406 97L407 98L406 97M445 97L444 99L445 97z"/>
<path style="fill:#f9fafa; stroke:none;" d="M454 108C453.494 106.248 453.018 104.606 452.16 102.98C445.315 90.0168 441.729 110.761 454 108z"/>
<path style="fill:#57b987; stroke:none;" d="M448 97L449 98L448 97M499 97L500 98L499 97z"/>
<path style="fill:#f9fafa; stroke:none;" d="M500.309 98.1759C497.351 99.4892 492.972 109.889 498.85 108.248C503.28 107.012 506.018 95.6409 500.309 98.1759z"/>
<path style="fill:#89d077; stroke:none;" d="M503 97L504 98L503 97z"/>
<path style="fill:#57b987; stroke:none;" d="M323 98L324 99L323 98z"/>
<path style="fill:#f9fafa; stroke:none;" d="M404 98L405 99L404 98z"/>
<path style="fill:#89d077; stroke:none;" d="M449 98L450 99L449 98M504 98L505 99L504 98z"/>
<path style="fill:#57b987; stroke:none;" d="M450 99L451 100L450 99z"/>
<path style="fill:#89d077; stroke:none;" d="M498 99L499 100L498 99z"/>
<path style="fill:#0448ca; stroke:none;" d="M543 99L544 100L543 99z"/>
<path style="fill:#f9fafa; stroke:none;" d="M403 100L404 101L403 100z"/>
<path style="fill:#57b987; stroke:none;" d="M404 100L405 101L404 100M497 100L498 101L497 100M318 101L319 102L318 101z"/>
<path style="fill:#f9fafa; stroke:none;" d="M402.333 101.667L402.667 102.333L402.333 101.667z"/>
<path style="fill:#89d077; stroke:none;" d="M444 101L445 102L444 101z"/>
<path style="fill:#57b987; stroke:none;" d="M451 101L452 102L451 101M471 101L472 102L471 101M504 101L505 102L504 101z"/>
<path style="fill:#89d077; stroke:none;" d="M476 102L477 103L476 102z"/>
<path style="fill:#57b987; stroke:none;" d="M496 102L497 103L496 102z"/>
<path style="fill:#f9fafa; stroke:none;" d="M401 103L402 104L401 103z"/>
<path style="fill:#89d077; stroke:none;" d="M445 103L446 104L445 103M452 103L453 104L452 103z"/>
<path style="fill:#57b987; stroke:none;" d="M473 103L474 104L473 103z"/>
<path style="fill:#89d077; stroke:none;" d="M474 103L475 104L474 103z"/>
<path style="fill:#57b987; stroke:none;" d="M475 103L476 104L475 103M503 103L504 104L503 103z"/>
<path style="fill:#89d077; stroke:none;" d="M495 104L496 105L495 104M502 104L503 105L502 104z"/>
<path style="fill:#0448ca; stroke:none;" d="M546 104L547 105L546 104z"/>
<path style="fill:#f9fafa; stroke:none;" d="M400 105L401 106L400 105z"/>
<path style="fill:#57b987; stroke:none;" d="M401 105L402 106L401 105M446 105L447 106L446 105z"/>
<path style="fill:#89d077; stroke:none;" d="M453 105L454 106L453 105M447 106L448 107L447 106z"/>
<path style="fill:#57b987; stroke:none;" d="M494 106L495 107L494 106z"/>
<path style="fill:#89d077; stroke:none;" d="M501 106L502 107L501 106z"/>
<path style="fill:#0448ca; stroke:none;" d="M547 106L548 107L547 106z"/>
<path style="fill:#57b987; stroke:none;" d="M310 107L309 109L310 107z"/>
<path style="fill:#f9fafa; stroke:none;" d="M399 107L400 108L399 107z"/>
<path style="fill:#57b987; stroke:none;" d="M400 107L401 108L400 107M448 108L449 109L448 108M453 108L454 109L453 108z"/>
<path style="fill:#89d077; stroke:none;" d="M495 108L496 109L495 108z"/>
<path style="fill:#57b987; stroke:none;" d="M500 108L501 109L500 108z"/>
<path style="fill:#f9fafa; stroke:none;" d="M398 109L399 110L398 109z"/>
<path style="fill:#57b987; stroke:none;" d="M399 109L400 110L399 109M449 109L450 110L449 109z"/>
<path style="fill:#89d077; stroke:none;" d="M450.667 109.333L451.333 109.667L450.667 109.333z"/>
<path style="fill:#57b987; stroke:none;" d="M452 109L453 110L452 109M496 109L497 110L496 109z"/>
<path style="fill:#89d077; stroke:none;" d="M497.667 109.333L498.333 109.667L497.667 109.333z"/>
<path style="fill:#57b987; stroke:none;" d="M499 109L500 110L499 109z"/>
<path style="fill:#f9fafa; stroke:none;" d="M397.333 111.667L397.667 112.333L397.333 111.667z"/>
<path style="fill:#57b987; stroke:none;" d="M468 111L469 112L468 111z"/>
<path style="fill:#89d077; stroke:none;" d="M469.667 111.333L470.333 111.667L469.667 111.333z"/>
<path style="fill:#f9fafa; stroke:none;" d="M491 178C491.012 162.605 506.696 155.218 504.826 138C500.337 96.6578 436.731 107.991 444.468 149C445.848 156.319 450.128 160.936 454.697 166.424C457.359 169.623 455.757 176.378 460.148 177.682C469.006 180.312 481.753 178 491 178z"/>
<path style="fill:#89d077; stroke:none;" d="M478.667 111.333L479.333 111.667L478.667 111.333z"/>
<path style="fill:#57b987; stroke:none;" d="M480 111L481 112L480 111M464 112L465 113L464 112z"/>
<path style="fill:#89d077; stroke:none;" d="M465 112L466 113L465 112M483 112L484 113L483 112z"/>
<path style="fill:#57b987; stroke:none;" d="M484 112L485 113L484 112z"/>
<path style="fill:#0448ca; stroke:none;" d="M760.044 112.746C752.794 115.593 755 126.87 755 133C755 152.875 753.801 173.167 755.044 193C755.402 198.721 759.864 203.607 765.981 201.254C773.134 198.502 771 188.055 771 182C771 162.032 771.611 141.957 770.985 122C770.799 116.089 766.802 110.093 760.044 112.746z"/>
<path style="fill:#f9fafa; stroke:none;" d="M396.333 113.667L396.667 114.333L396.333 113.667z"/>
<path style="fill:#89d077; stroke:none;" d="M462 113L463 114L462 113z"/>
<path style="fill:#57b987; stroke:none;" d="M486 113L487 114L486 113M397 114L398 115L397 114z"/>
<path style="fill:#89d077; stroke:none;" d="M460 114L461 115L460 114M488 114L489 115L488 114M458 115L459 116L458 115z"/>
<path style="fill:#57b987; stroke:none;" d="M490 115L491 116L490 115z"/>
<path style="fill:#f9fafa; stroke:none;" d="M395.333 116.667L395.667 117.333L395.333 116.667z"/>
<path style="fill:#57b987; stroke:none;" d="M456 116L457 117L456 116M396 117L397 118L396 117M455 117L456 118L455 117z"/>
<path style="fill:#89d077; stroke:none;" d="M454 118L455 119L454 118z"/>
<path style="fill:#57b987; stroke:none;" d="M494 118L495 119L494 118M298 119L299 120L298 119z"/>
<path style="fill:#f9fafa; stroke:none;" d="M394.333 119.667L394.667 120.333L394.333 119.667z"/>
<path style="fill:#89d077; stroke:none;" d="M453 119L454 120L453 119M495 119L496 120L495 119z"/>
<path style="fill:#57b987; stroke:none;" d="M297 120L295 123L297 120M395 120L396 121L395 120z"/>
<path style="fill:#89d077; stroke:none;" d="M496 120L497 121L496 120M451 121L452 122L451 121z"/>
<path style="fill:#57b987; stroke:none;" d="M497 121L498 122L497 121z"/>
<path style="fill:#0448ca; stroke:none;" d="M553 121L554 122L553 121z"/>
<path style="fill:#89d077; stroke:none;" d="M450 122L451 123L450 122z"/>
<path style="fill:#57b987; stroke:none;" d="M498 122L499 123L498 122z"/>
<path style="fill:#f9fafa; stroke:none;" d="M393.333 123.667L393.667 124.333L393.333 123.667z"/>
<path style="fill:#57b987; stroke:none;" d="M394.333 123.667L394.667 124.333L394.333 123.667M449 123L450 124L449 123M293 125L292 127L293 125z"/>
<path style="fill:#89d077; stroke:none;" d="M500 125L501 126L500 125z"/>
<path style="fill:#0448ca; stroke:none;" d="M554 125L555 126L554 125z"/>
<path style="fill:#57b987; stroke:none;" d="M447 126L448 127L447 126z"/>
<path style="fill:#f9fafa; stroke:none;" d="M392 127L392 130L393 130L392 127z"/>
<path style="fill:#57b987; stroke:none;" d="M393 128L394 129L393 128z"/>
<path style="fill:#89d077; stroke:none;" d="M446 128L447 129L446 128z"/>
<path style="fill:#57b987; stroke:none;" d="M502 128L503 129L502 128M290 129L291 130L290 129z"/>
<path style="fill:#89d077; stroke:none;" d="M502 129L503 130L502 129z"/>
<path style="fill:#57b987; stroke:none;" d="M445 130L446 131L445 130z"/>
<path style="fill:#0448ca; stroke:none;" d="M555 130L556 131L555 130z"/>
<path style="fill:#57b987; stroke:none;" d="M289 131L290 132L289 131z"/>
<path style="fill:#89d077; stroke:none;" d="M503 131L504 132L503 131z"/>
<path style="fill:#57b987; stroke:none;" d="M288 132L289 133L288 132M151 133L151 134L154 134L151 133z"/>
<path style="fill:#f9fafa; stroke:none;" d="M391 133L391 138L392 138L391 133z"/>
<path style="fill:#57b987; stroke:none;" d="M444 133L445 134L444 133M145 138L150 135L145 138z"/>
<path style="fill:#0448ca; stroke:none;" d="M150.019 134.758C141.046 138.046 145.547 153.427 154.956 149.948C164.39 146.459 159.599 131.247 150.019 134.758z"/>
<path style="fill:#57b987; stroke:none;" d="M155.667 134.333L156.333 134.667L155.667 134.333M287 134L288 135L287 134M392 134L392 137L393 137L392 134z"/>
<path style="fill:#89d077; stroke:none;" d="M444 134L445 135L444 134z"/>
<path style="fill:#57b987; stroke:none;" d="M504 134L505 135L504 134M157 135L158 136L157 135z"/>
<path style="fill:#89d077; stroke:none;" d="M504 135L505 136L504 135z"/>
<path style="fill:#57b987; stroke:none;" d="M158 136L159 137L158 136M286 136L287 137L286 136M159 137L160 138L159 137M285 137L286 138L285 137M443.333 137.667L443.667 138.333L443.333 137.667M144 139L144 145L145 145L144 139M160.333 139.667L160.667 140.333L160.333 139.667M284 139L285 140L284 139z"/>
<path style="fill:#89d077; stroke:none;" d="M443 139L443 145L444 145L443 139z"/>
<path style="fill:#57b987; stroke:none;" d="M505 139L505 145L506 145L505 139z"/>
<path style="fill:#0448ca; stroke:none;" d="M556 139L557 140L556 139z"/>
<path style="fill:#57b987; stroke:none;" d="M283.333 141.667L283.667 142.333L283.333 141.667z"/>
<path style="fill:#f9fafa; stroke:none;" d="M0 142L0 143L144 143C132.782 138.293 113.206 142 101 142L0 142z"/>
<path style="fill:#57b987; stroke:none;" d="M160 143L160 146L161 146L160 143M282.333 143.667L282.667 144.333L282.333 143.667M281.333 145.667L281.667 146.333L281.333 145.667M443.333 145.667L443.667 146.333L443.333 145.667M145 146L146 147L145 146M159 146L160 147L159 146z"/>
<path style="fill:#0448ca; stroke:none;" d="M556 146L556 149L557 149L556 146z"/>
<path style="fill:#57b987; stroke:none;" d="M146 148L147 149L146 148M158 148L159 149L158 148M280.333 148.667L280.667 149.333L280.333 148.667z"/>
<path style="fill:#89d077; stroke:none;" d="M504 148L505 149L504 148z"/>
<path style="fill:#57b987; stroke:none;" d="M148 149L149 150L148 149M156 149L157 150L156 149z"/>
<path style="fill:#89d077; stroke:none;" d="M444 149L445 150L444 149z"/>
<path style="fill:#57b987; stroke:none;" d="M504 149L505 150L504 149M149.667 150.333L150.333 150.667L149.667 150.333M154.667 150.333L155.333 150.667L154.667 150.333M279.333 150.667L279.667 151.333L279.333 150.667z"/>
<path style="fill:#f9fafa; stroke:none;" d="M391 150L391 156L392 156L391 150z"/>
<path style="fill:#57b987; stroke:none;" d="M392 150L392 155L393 155L392 150M444 150L445 151L444 150z"/>
<path style="fill:#89d077; stroke:none;" d="M503 152L504 153L503 152z"/>
<path style="fill:#57b987; stroke:none;" d="M278.333 153.667L278.667 154.333L278.333 153.667M445 153L446 154L445 153z"/>
<path style="fill:#89d077; stroke:none;" d="M446 155L447 156L446 155z"/>
<path style="fill:#57b987; stroke:none;" d="M502 155L503 156L502 155M277 156L277 159L278 159L277 156z"/>
<path style="fill:#f9fafa; stroke:none;" d="M392 157L392 161L393 161L392 157z"/>
<path style="fill:#89d077; stroke:none;" d="M447 157L448 158L447 157z"/>
<path style="fill:#57b987; stroke:none;" d="M501 157L502 158L501 157z"/>
<path style="fill:#0448ca; stroke:none;" d="M555 157L556 158L555 157z"/>
<path style="fill:#57b987; stroke:none;" d="M393.333 158.667L393.667 159.333L393.333 158.667z"/>
<path style="fill:#89d077; stroke:none;" d="M500 158L501 159L500 158z"/>
<path style="fill:#57b987; stroke:none;" d="M448 159L449 160L448 159M276.333 160.667L276.667 161.333L276.333 160.667z"/>
<path style="fill:#89d077; stroke:none;" d="M449 160L450 161L449 160z"/>
<path style="fill:#57b987; stroke:none;" d="M499 160L500 161L499 160z"/>
<path style="fill:#89d077; stroke:none;" d="M498 161L499 162L498 161M497 162L498 163L497 162z"/>
<path style="fill:#57b987; stroke:none;" d="M275 163L275 168L276 168L275 163z"/>
<path style="fill:#f9fafa; stroke:none;" d="M393.333 163.667L393.667 164.333L393.333 163.667z"/>
<path style="fill:#89d077; stroke:none;" d="M496 163L497 164L496 163z"/>
<path style="fill:#57b987; stroke:none;" d="M394 164L395 165L394 164z"/>
<path style="fill:#89d077; stroke:none;" d="M495 164L496 165L495 164M494 165L495 166L494 165M455 166L456 167L455 166z"/>
<path style="fill:#57b987; stroke:none;" d="M493 166L494 167L493 166z"/>
<path style="fill:#f9fafa; stroke:none;" d="M394.333 167.667L394.667 168.333L394.333 167.667z"/>
<path style="fill:#57b987; stroke:none;" d="M395 167L396 168L395 167M456 167L457 168L456 167M492 167L493 168L492 167M274 168L274 174L275 174L274 168z"/>
<path style="fill:#89d077; stroke:none;" d="M491 168L491 177L492 177L491 168z"/>
<path style="fill:#0448ca; stroke:none;" d="M552 169L553 170L552 169z"/>
<path style="fill:#f9fafa; stroke:none;" d="M395.333 170.667L395.667 171.333L395.333 170.667z"/>
<path style="fill:#57b987; stroke:none;" d="M396 170L397 171L396 170z"/>
<path style="fill:#0448ca; stroke:none;" d="M551 172L552 173L551 172z"/>
<path style="fill:#f9fafa; stroke:none;" d="M396 173L397 174L396 173z"/>
<path style="fill:#57b987; stroke:none;" d="M397 173L398 174L397 173z"/>
<path style="fill:#f9fafa; stroke:none;" d="M397.333 175.667L397.667 176.333L397.333 175.667z"/>
<path style="fill:#57b987; stroke:none;" d="M398 175L399 176L398 175M457 177L458 178L457 177z"/>
<path style="fill:#f9fafa; stroke:none;" d="M398 178L399 179L398 178z"/>
<path style="fill:#57b987; stroke:none;" d="M399 178L400 179L399 178M459 178L459 179L488 179L459 178z"/>
<path style="fill:#89d077; stroke:none;" d="M488 178L489 179L488 178z"/>
<path style="fill:#57b987; stroke:none;" d="M489 178L490 179L489 178z"/>
<path style="fill:#0448ca; stroke:none;" d="M548 179L549 180L548 179z"/>
<path style="fill:#f9fafa; stroke:none;" d="M399 180L400 181L399 180z"/>
<path style="fill:#57b987; stroke:none;" d="M400 180L401 181L400 180z"/>
<path style="fill:#f9fafa; stroke:none;" d="M400 182L401 183L400 182z"/>
<path style="fill:#57b987; stroke:none;" d="M401 182L402 183L401 182z"/>
<path style="fill:#0448ca; stroke:none;" d="M546 183L547 184L546 183z"/>
<path style="fill:#f9fafa; stroke:none;" d="M401 184L402 185L401 184M402 185L403 186L402 185z"/>
<path style="fill:#89d077; stroke:none;" d="M459 186L459 187L490 187L459 186z"/>
<path style="fill:#f9fafa; stroke:none;" d="M403 187L404 188L403 187z"/>
<path style="fill:#57b987; stroke:none;" d="M404 187L405 188L404 187z"/>
<path style="fill:#f9fafa; stroke:none;" d="M458.851 188.008C456.306 190.305 460.304 191.78 462.045 191.941C467.496 192.448 486.039 194.699 490.149 190.992C492.694 188.695 488.696 187.22 486.955 187.059C481.504 186.552 462.96 184.301 458.851 188.008z"/>
<path style="fill:#89d077; stroke:none;" d="M457 188L458 189L457 188M491 188L492 189L491 188z"/>
<path style="fill:#f9fafa; stroke:none;" d="M404 189L405 190L404 189M405 190L406 191L405 190z"/>
<path style="fill:#57b987; stroke:none;" d="M406 190L407 191L406 190z"/>
<path style="fill:#89d077; stroke:none;" d="M457 190L458 191L457 190M491 190L492 191L491 190z"/>
<path style="fill:#0448ca; stroke:none;" d="M541 191L542 192L541 191z"/>
<path style="fill:#f9fafa; stroke:none;" d="M406 192L408 194L406 192z"/>
<path style="fill:#57b987; stroke:none;" d="M459 192L460 193L459 192z"/>
<path style="fill:#89d077; stroke:none;" d="M460 192L460 193L489 193L460 192z"/>
<path style="fill:#57b987; stroke:none;" d="M489 192L490 193L489 192z"/>
<path style="fill:#f9fafa; stroke:none;" d="M408 194L409 195L408 194z"/>
<path style="fill:#57b987; stroke:none;" d="M409 194L410 195L409 194z"/>
<path style="fill:#0448ca; stroke:none;" d="M538 195L539 196L538 195z"/>
<path style="fill:#f9fafa; stroke:none;" d="M410 197L411 198L410 197z"/>
<path style="fill:#89d077; stroke:none;" d="M272 198L273 199L272 198z"/>
<path style="fill:#f9fafa; stroke:none;" d="M411 198L419 206L411 198z"/>
<path style="fill:#57b987; stroke:none;" d="M412 198L413 199L412 198M413 199L414 200L413 199z"/>
<path style="fill:#89d077; stroke:none;" d="M273.333 200.667L273.667 201.333L273.333 200.667z"/>
<path style="fill:#57b987; stroke:none;" d="M414 200L415 201L414 200M415 201L416 202L415 201z"/>
<path style="fill:#89d077; stroke:none;" d="M272.333 202.667L272.667 203.333L272.333 202.667z"/>
<path style="fill:#57b987; stroke:none;" d="M416 202L417 203L416 202z"/>
<path style="fill:#89d077; stroke:none;" d="M762 202L762 324C762 342.918 758.617 365.588 763 384L764 384L763 255L763 219L762 202z"/>
<path style="fill:#f9fafa; stroke:none;" d="M763 202L763 377L764 377L764 254L764 219L763 202z"/>
<path style="fill:#57b987; stroke:none;" d="M417 203L418 204L417 203z"/>
<path style="fill:#89d077; stroke:none;" d="M271 204L272 205L271 204z"/>
<path style="fill:#57b987; stroke:none;" d="M418 204L419 205L418 204z"/>
<path style="fill:#89d077; stroke:none;" d="M270 206L271 207L270 206z"/>
<path style="fill:#f9fafa; stroke:none;" d="M419 206L421 208L419 206z"/>
<path style="fill:#89d077; stroke:none;" d="M269 207L270 208L269 207z"/>
<path style="fill:#0448ca; stroke:none;" d="M526 207L527 208L526 207z"/>
<path style="fill:#89d077; stroke:none;" d="M268.333 208.667L268.667 209.333L268.333 208.667z"/>
<path style="fill:#f9fafa; stroke:none;" d="M423 209L425 211L423 209z"/>
<path style="fill:#57b987; stroke:none;" d="M424 209L425 210L424 209z"/>
<path style="fill:#89d077; stroke:none;" d="M267 210L268 211L267 210M266.333 211.667L266.667 212.333L266.333 211.667z"/>
<path style="fill:#f9fafa; stroke:none;" d="M425 211L426 212L425 211z"/>
<path style="fill:#57b987; stroke:none;" d="M427 211L428 212L427 211z"/>
<path style="fill:#f9fafa; stroke:none;" d="M427 212L428 213L427 212z"/>
<path style="fill:#89d077; stroke:none;" d="M265 213L266 214L265 213z"/>
<path style="fill:#f9fafa; stroke:none;" d="M428 213L429 214L428 213z"/>
<path style="fill:#57b987; stroke:none;" d="M430 213L431 214L430 213z"/>
<path style="fill:#89d077; stroke:none;" d="M264 214L265 215L264 214z"/>
<path style="fill:#f9fafa; stroke:none;" d="M430 214L431 215L430 214M431 215L432 216L431 215z"/>
<path style="fill:#57b987; stroke:none;" d="M433 215L434 216L433 215z"/>
<path style="fill:#89d077; stroke:none;" d="M263 216L264 217L263 216z"/>
<path style="fill:#f9fafa; stroke:none;" d="M433 216L434 217L433 216z"/>
<path style="fill:#57b987; stroke:none;" d="M435 216L436 217L435 216z"/>
<path style="fill:#89d077; stroke:none;" d="M262 217L263 218L262 217z"/>
<path style="fill:#f9fafa; stroke:none;" d="M435 217L436 218L435 217z"/>
<path style="fill:#57b987; stroke:none;" d="M437 217L438 218L437 217M142 236L143 236C144.254 227.669 149.926 221.398 158 219C148.947 216.518 142.388 228.545 142 236z"/>
<path style="fill:#f9fafa; stroke:none;" d="M437 218L438 219L437 218z"/>
<path style="fill:#57b987; stroke:none;" d="M439 218L440 219L439 218z"/>
<path style="fill:#89d077; stroke:none;" d="M261 219L262 220L261 219z"/>
<path style="fill:#f9fafa; stroke:none;" d="M439 219L440 220L439 219z"/>
<path style="fill:#57b987; stroke:none;" d="M441 219L442 220L441 219z"/>
<path style="fill:#89d077; stroke:none;" d="M260 220L261 221L260 220z"/>
<path style="fill:#f9fafa; stroke:none;" d="M441 220L442 221L441 220M443.667 221.333L444.333 221.667L443.667 221.333z"/>
<path style="fill:#57b987; stroke:none;" d="M446 221L447 222L446 221z"/>
<path style="fill:#89d077; stroke:none;" d="M259 222L260 223L259 222z"/>
<path style="fill:#f9fafa; stroke:none;" d="M445 222L445 223L448 223L445 222z"/>
<path style="fill:#57b987; stroke:none;" d="M449.667 222.333L450.333 222.667L449.667 222.333z"/>
<path style="fill:#89d077; stroke:none;" d="M258.333 223.667L258.667 224.333L258.333 223.667z"/>
<path style="fill:#f9fafa; stroke:none;" d="M449.667 223.333L450.333 223.667L449.667 223.333z"/>
<path style="fill:#57b987; stroke:none;" d="M452.667 223.333L453.333 223.667L452.667 223.333z"/>
<path style="fill:#f9fafa; stroke:none;" d="M452 224L452 225L455 225L452 224z"/>
<path style="fill:#57b987; stroke:none;" d="M457.667 224.333L458.333 224.667L457.667 224.333z"/>
<path style="fill:#89d077; stroke:none;" d="M257 225L258 226L257 225z"/>
<path style="fill:#f9fafa; stroke:none;" d="M456.667 225.333L457.333 225.667L456.667 225.333z"/>
<path style="fill:#57b987; stroke:none;" d="M462 225L462 226L465 226L462 225z"/>
<path style="fill:#0448ca; stroke:none;" d="M485 225L486 226L485 225z"/>
<path style="fill:#89d077; stroke:none;" d="M256 226L257 227L256 226z"/>
<path style="fill:#f9fafa; stroke:none;" d="M461 226L461 227L466 227L461 226M468 227L468 228L476 228L468 227z"/>
<path style="fill:#89d077; stroke:none;" d="M255 228L256 229L255 228M254 229L255 230L254 229M253 231L254 232L253 231M252 232L253 233L252 232M251 234L252 235L251 234M250 235L251 236L250 235M249 237L250 238L249 237M248 238L249 239L248 238M247 240L248 241L247 240M246 241L247 242L246 241M245 243L246 244L245 243M244.333 244.667L244.667 245.333L244.333 244.667M243 246L243 250L244 250L243 246M476 247L476 318L477 318L477 269L476 247M243 251L243 254L244 254L243 251M244 255L245 256L244 255M245 257L246 258L245 257M246 258L247 259L246 258M247 259L248 260L247 259M249 260L250 261L249 260M251 261L251 262L254 262L251 261M270.667 262.333L271.333 262.667L270.667 262.333M272 263L273 264L272 263M274 265L275 266L274 265M275.333 267.667L275.667 268.333L275.333 267.667M105 280L106 281L105 280M24 337L25 337L25 321L26 321L26 349L57 319L88 287C76.467 287 64.5162 286.698 53 285.91C42.4096 285.186 31.394 282.967 25.0895 294.001C19.5204 303.747 24 325.664 24 337M10 329L10 335L11 335L10 329M276.333 329.667L276.667 330.333L276.333 329.667M280 334L281 335L280 334M283 335L283 336L310 336L283 335M313 337L314 338L313 337M24 338L24 351L25 351L24 338M315 340L315 343L316 343L315 340z"/>
<path style="fill:#f9fafa; stroke:none;" d="M763 378L763 381L764 381L763 378M762 382C761.298 398.111 749.443 413.467 735 420.099C729.894 422.443 719.404 422.103 716 426C733.896 422.666 748.803 417.086 758.1 400C760.823 394.994 764.284 387.599 762 382z"/>
<path style="fill:#89d077; stroke:none;" d="M316 383L317 384L316 383M475 383L476 384L475 383M317 385L318 386L317 385M474 385L475 386L474 385M318 386L319 387L318 386M473 386L474 387L473 386M761.333 386.667L761.667 387.333L761.333 386.667M320 387L321 388L320 387M471 387L472 388L471 387M322 388L322 389L469 389C457.544 384.193 437.468 388 425 388L322 388M762 388L763 389L762 388M760 391L761 392L760 391M759 393L760 394L759 393M760 394L761 395L760 394M758 396L759 397L758 396M757 398L758 399L757 398M758 399L759 400L758 399M756 400L757 401L756 400M756 402L757 403L756 402M754 403L755 404L754 403M755 404L756 405L755 404M754 405L755 406L754 405M752 406L753 407L752 406M751 407L752 408L751 407M752 408L753 409L752 408M751 409L752 410L751 409M750 410L751 411L750 410M749 411L750 412L749 411M748 412L749 413L748 412M745 413L746 414L745 413M747 413L748 414L747 413M744 414L745 415L744 414M746 414L747 415L746 414M741 416L742 417L741 416M743 416L744 417L743 416z"/>
<path style="fill:#0448ca; stroke:none;" d="M663.044 417.743C653.06 421.755 660.206 436.175 669.956 432.257C679.94 428.245 672.794 413.825 663.044 417.743z"/>
<path style="fill:#89d077; stroke:none;" d="M742 417L743 418L742 417M738 418L739 419L738 418M740 418L741 419L740 418M736 419L737 420L736 419M734 420L735 421L734 420M731 421L732 422L731 421M728 422L729 423L728 422M732 422L733 423L732 422M724 423L725 424L724 423M729 423L730 424L729 423M675.333 424.667L675.667 425.333L675.333 424.667z"/>
<path style="fill:#f9fafa; stroke:none;" d="M676 424L676 426L714 426L714 424L676 424z"/>
<path style="fill:#89d077; stroke:none;" d="M714 424L714 426L716 426L716 424L714 424M725.667 424.333L726.333 424.667L725.667 424.333M718 425L718 426L721 426L718 425z"/>
</svg>
