<?xml version="1.0" standalone="yes"?>
<svg xmlns="http://www.w3.org/2000/svg" width="800" height="450">
<path style="fill:#fdcde2; stroke:none;" d="M0 0L0 330L10 325L10 338L11 338C11 324.364 7.21168 304.08 14.6127 292.015C27.3043 271.323 66.8643 283.575 86.9105 280.867C93.1727 280.021 99.3245 274.65 105 272L105 271L47 271C37.9859 271 27.5582 272.632 20.0154 266.606C11.4051 259.729 11.9879 250.902 12 241L12 183C12 171.806 11.0739 161.969 21.0039 154.419C28.4318 148.771 39.3024 151 48 151C70.4949 151 99.5073 146.187 121 153L121 154C101.015 149.242 74.6033 152.008 54 152C46.0666 151.997 36.8525 150.744 30.0147 155.649C21.2904 161.907 22 171.433 22 181C22 199.699 23 218.355 23 237C23 245.665 21.4659 256.048 28.2137 262.786C35.2281 269.79 47.04 267 56 267C79.2126 267 115.205 272.48 129.397 250C131.899 246.037 131 240.48 131 236L131 204L132 204L132 256C141.629 251.96 141 246.42 141 237L142 237L143 283L176 251L208 218L159 218L159 217C172.13 217 188.208 219.423 201 216.471C216.894 212.803 237.849 198.554 251 189L252 192L250 191C258.979 203.697 278.977 212.548 294 215.079C298.185 215.785 306.577 217.763 310.298 214.972C316.342 210.439 319.518 194.671 324.209 188C337.432 169.195 357.547 155.194 380 150L380 149L377 129L378 129L378 131L379 131L378 127L377 129L376 129L375 122L376 122L376 124L377 124C376.795 117.534 381.966 115.715 387 112.908C396.023 107.878 404.95 102.677 414 97.6944C454.835 75.2155 495.752 52.5141 536 29L536 43L537 43L537 0L0 0z"/>
<path style="fill:#f19cd0; stroke:none;" d="M537 0L537 43L536 43L536 29C521.378 35.0895 507.815 44.4266 494 52.1381C466.957 67.2332 440.13 82.7601 413 97.6944C403.95 102.677 395.022 107.878 386 112.908C380.957 115.72 375.927 117.465 377 124L376 124L376 122L375 122L376 129L377 129L378 127L379 131L378 131L378 129L377 129C377.121 134.877 375.958 147.571 382 150L389 149L389 148L386 148L386 147L413 147L413 148L411 148L411 149L419 148L418 150L423 151C413.887 112.723 453.267 75.5504 489 73.0895C525.873 70.55 558.423 99.3599 564.246 135C566.212 147.034 564.326 159.797 559.572 171C554.338 183.334 545.783 194.218 535 202.239C521.405 212.351 505.633 216 489 216C492.43 232.628 492.43 247.372 489 264C505.983 264 522.4 267.971 536 278.669C546.66 287.055 555.636 298.18 560.305 311C564.484 322.474 565.681 333.971 563.866 346C558.824 379.411 527.347 407.657 493 406.741C456.231 405.76 413.46 369.071 423 329C408.111 333.184 391.889 333.184 377 329C386.534 369.047 344.427 404.845 308 406.907C268.595 409.136 235.758 372.723 235.015 335C234.769 322.499 239.106 309.641 245.453 299C254.236 284.277 268.794 272.805 285 267.356C291.324 265.229 307.022 266.552 311 262L309 263L309 262L307 227L308 227L308 229L309 229L309 217L311 218C307.34 213.812 293.75 215.187 288 213.572C274.098 209.666 260.143 201.164 250 191L252 192L251 189L201 216.211L159 217L159 218L208 218L143 283L142 237L141 237C141 246.687 140.75 250.811 132 256L132 204L131 204L131 235C131 239.48 131.899 245.037 129.397 249C114.952 271.88 80.6495 267 57 267C48.0402 267 36.2192 269.443 29.1049 262.786C21.5772 255.743 23 245.337 23 236C23 218.013 22.0012 200.027 22 182C21.9993 171.327 21.7421 161.354 31.9969 154.998C40.9507 149.449 55.1077 151.889 65 152.83C83.4839 154.589 102.684 150.6 121 154L121 153C113.05 149.645 103.486 151 95 151L45 151C36.1405 150.997 26.389 148.805 19.0401 155.225C10.7464 162.47 12 172.024 12 182C12 201.666 12.0865 221.334 11.9992 241C11.9571 250.493 10.8083 259.835 19.0432 266.606C26.4519 272.698 37.0819 271 46 271L105 271L105 272C98.5102 274.054 92.6965 279.981 85.9606 280.867C71.1526 282.816 54.9427 280.976 40 281C30.8533 281.015 20.9745 282.024 15.2492 290.09C6.78918 302.01 11 324.086 11 338L10 338L10 325C-4.06703 331.568 0 345.352 0 359L0 450L800 450L800 0L764 0C764 35.488 760.802 72.6363 764.059 107.957C764.533 113.098 770.048 114.86 770.852 120.001C773.027 133.918 771.151 149.893 771.151 164C771.151 173.488 773.011 185.815 770.682 194.996C769.608 199.229 764.878 200.843 764.148 205.104C761.729 219.217 764 235.668 764 250L764 338C764 352.593 765.831 368.579 763.561 383C757.21 423.351 720.896 426 688 426C684.512 426 679.632 425.148 676.375 426.603C670.859 429.067 664.182 438.075 659.198 427.956C656.583 422.648 662.522 416.388 667.996 417.488C672.264 418.346 673.868 423.127 678.104 423.852C710.056 429.318 756.052 424.193 761.7 385C765.252 360.349 762 332.92 762 308C762 274.483 765.015 239.402 761.941 206.043C761.42 200.386 755.429 198.151 755.044 192C753.667 170.003 751.264 141.652 755.228 120.001C756.15 114.966 761.475 113.018 761.941 107.957C765.195 72.6353 762 35.4887 762 0L629 0L590 0L572 0.603394L552 18L553 0L537 0z"/>
<path style="fill:#fdcde2; stroke:none;" d="M552 1L552 18C559.333 14.5802 566.375 6.56512 571 0L552 1M762 0L762 112L764 112L764 0L762 0M480 72L480 73L483 73L480 72M475 73L475 74L478 74L475 73M485 73.4283C457.076 77.4286 432.777 96.384 424.86 124C423.128 130.042 419.006 143.762 423.028 149.49C425.658 153.236 433.966 154.311 438 156.258C447.954 161.065 457.143 167.173 464.985 175.015C472.276 182.305 478.152 190.8 482.752 200C484.738 203.973 486.143 212.303 489.702 214.972C492.383 216.983 497.906 216.085 501 215.715C512.132 214.383 522.455 210.872 532 204.934C594.584 166.005 558.522 62.8958 485 73.4283z"/>
<path style="fill:#f19cd0; stroke:none;" d="M323 74L324 75L323 74z"/>
<path style="fill:#fdcde2; stroke:none;" d="M472.667 74.3333L473.333 74.6667L472.667 74.3333M469.667 75.3333L470.333 75.6667L469.667 75.3333M464 77L464 78L468 77L464 77M462 78L463 79L462 78M460 79L461 80L460 79M458 80L457 82L458 80z"/>
<path style="fill:#f19cd0; stroke:none;" d="M342 82L343 83L342 82z"/>
<path style="fill:#fdcde2; stroke:none;" d="M455 82L451 86L456 83L455 82z"/>
<path style="fill:#f19cd0; stroke:none;" d="M344 83L345 84L344 83M347 85L349 87L347 85z"/>
<path style="fill:#fdcde2; stroke:none;" d="M449 86L447 89L449 86z"/>
<path style="fill:#f19cd0; stroke:none;" d="M351 88L354 91L351 88z"/>
<path style="fill:#fdcde2; stroke:none;" d="M444 90L438 97L444 90z"/>
<path style="fill:#f19cd0; stroke:none;" d="M360 97L364 101L360 97M364 102L367 105L364 102M367 106L370 112L371 112L367 106z"/>
<path style="fill:#6a6b78; stroke:none;" d="M760 112L761 113L760 112z"/>
<path style="fill:#4440fa; stroke:none;" d="M761.015 112.785C753.507 115.3 755 124.85 755 131L755 187C755.002 192.981 756.039 203.622 764.985 201.303C772.883 199.256 771 189.159 771 183L771 127C771 121.105 770.408 109.64 761.015 112.785z"/>
<path style="fill:#6a6b78; stroke:none;" d="M765 112L766 113L765 112z"/>
<path style="fill:#f19cd0; stroke:none;" d="M302 119C289.906 116.054 283.321 131.399 287.92 140.996C291.888 149.277 300.239 149.735 307.999 152.171C311.13 153.153 315.158 155.167 315.248 159C315.429 166.652 302.556 167.497 298.302 163.567C296.194 161.62 295.671 157.846 292.773 156.801C285.29 154.102 285.806 165.171 288.09 168.957C299.083 187.182 333.197 174.278 324.852 153C321.049 143.303 311.365 143.279 303.004 140.235C300.059 139.163 295.978 136.808 297.256 133.015C299.15 127.395 309.486 126.226 313.698 129.603C315.783 131.275 316.149 134.364 318.428 135.806C320.857 137.342 324.078 136.369 325.254 133.772C330.281 122.672 305.068 107.631 302 119M371 113L372 114L371 113z"/>
<path style="fill:#6a6b78; stroke:none;" d="M758 113L759 114L758 113M767 113L768 114L767 113z"/>
<path style="fill:#f19cd0; stroke:none;" d="M511 171C516.162 177.688 524.764 169.46 523.652 162.715C522.251 154.218 511.199 148.513 506.318 142C500.694 134.496 506.117 117.627 492 117C490.474 115.114 484.889 112.386 483.752 116.322C481.629 123.663 496.815 128.444 489.258 137.686C484.098 143.998 477.444 138.79 473 135.144C471.093 133.58 467.235 130.873 465.618 134.323C457.805 150.986 486.032 151.146 492 155.357C498.382 159.86 503.026 169.638 511 171z"/>
<path style="fill:#6a6b78; stroke:none;" d="M757 114L758 115L757 114z"/>
<path style="fill:#f19cd0; stroke:none;" d="M372 115L374 122L375 122L372 115z"/>
<path style="fill:#6a6b78; stroke:none;" d="M756 115L757 116L756 115M492 116L493 117L492 116M770 116L771 117L770 116M755 117L756 118L755 117M301 118L302 119L301 118z"/>
<path style="fill:#f19cd0; stroke:none;" d="M236 127L237 128L236 127z"/>
<path style="fill:#6a6b78; stroke:none;" d="M503 131L504 132L503 131z"/>
<path style="fill:#f19cd0; stroke:none;" d="M150 133L150 134L155 134L150 133M148 134L145 138L148 134z"/>
<path style="fill:#6a6b78; stroke:none;" d="M149 134L150 135L149 134z"/>
<path style="fill:#4440fa; stroke:none;" d="M150.044 134.758C140.655 138.271 146.043 153.436 155.891 149.257C164.036 145.801 158.722 131.51 150.044 134.758z"/>
<path style="fill:#6a6b78; stroke:none;" d="M155 134L156 135L155 134z"/>
<path style="fill:#f19cd0; stroke:none;" d="M156 134L157 135L156 134M157 135L158 136L157 135M158 136L159 137L158 136M159 137L160 138L159 137z"/>
<path style="fill:#6a6b78; stroke:none;" d="M145 138L146 139L145 138M159 138L160 139L159 138z"/>
<path style="fill:#f19cd0; stroke:none;" d="M144.333 139.667L144.667 140.333L144.333 139.667M160 139L161 140L160 139M234 139L234 144L235 144L234 139z"/>
<path style="fill:#6a6b78; stroke:none;" d="M160 140L160 144L161 144L160 140M144 141L145 142L144 141z"/>
<path style="fill:#f19cd0; stroke:none;" d="M144 142L145 143L144 142z"/>
<path style="fill:#6a6b78; stroke:none;" d="M144 143L145 144L144 143z"/>
<path style="fill:#f19cd0; stroke:none;" d="M144.333 144.667L144.667 145.333L144.333 144.667M160.333 144.667L160.667 145.333L160.333 144.667M234 145L234 151L235 151L234 145M145 146L146 147L145 146z"/>
<path style="fill:#6a6b78; stroke:none;" d="M159 146L160 147L159 146z"/>
<path style="fill:#fdcde2; stroke:none;" d="M399.667 146.333L400.333 146.667L399.667 146.333z"/>
<path style="fill:#6a6b78; stroke:none;" d="M146 147L147 148L146 147z"/>
<path style="fill:#f19cd0; stroke:none;" d="M159 147L160 148L159 147z"/>
<path style="fill:#fdcde2; stroke:none;" d="M386 147L386 148L394 148L386 147M407 147L407 148L413 148L407 147z"/>
<path style="fill:#f19cd0; stroke:none;" d="M146 148L147 149L146 148M158 148L159 149L158 148z"/>
<path style="fill:#fdcde2; stroke:none;" d="M381 148L381 149L385 149L381 148z"/>
<path style="fill:#6a6b78; stroke:none;" d="M389 148L389 149L394 149L389 148z"/>
<path style="fill:#272f3f; stroke:none;" d="M394 148.424C354.286 153.703 320.777 177.528 310.898 218C297.005 274.917 344.574 339.061 406 331.715C447.937 326.699 482.751 298.813 490.385 256C500.185 201.039 452.68 140.625 394 148.424z"/>
<path style="fill:#6a6b78; stroke:none;" d="M407 148L407 149L411 149L407 148z"/>
<path style="fill:#fdcde2; stroke:none;" d="M415 148L415 149L419 149L415 148z"/>
<path style="fill:#6a6b78; stroke:none;" d="M148 149L149 150L148 149M156 149L157 150L156 149z"/>
<path style="fill:#f19cd0; stroke:none;" d="M157 149L158 150L157 149z"/>
<path style="fill:#6a6b78; stroke:none;" d="M382 149L382 150L386 150L382 149M414 149L414 150L418 150L414 149z"/>
<path style="fill:#f19cd0; stroke:none;" d="M149.667 150.333L150.333 150.667L149.667 150.333z"/>
<path style="fill:#6a6b78; stroke:none;" d="M151 150L151 151L154 151L151 150z"/>
<path style="fill:#f19cd0; stroke:none;" d="M154.667 150.333L155.333 150.667L154.667 150.333M377 150L378 151L377 150z"/>
<path style="fill:#6a6b78; stroke:none;" d="M378.667 150.333L379.333 150.667L378.667 150.333M420.667 150.333L421.333 150.667L420.667 150.333z"/>
<path style="fill:#f19cd0; stroke:none;" d="M374 151L375 152L374 151z"/>
<path style="fill:#6a6b78; stroke:none;" d="M375.667 151.333L376.333 151.667L375.667 151.333M423.667 151.333L424.333 151.667L423.667 151.333z"/>
<path style="fill:#f19cd0; stroke:none;" d="M425 151L426 152L425 151z"/>
<path style="fill:#6a6b78; stroke:none;" d="M371.667 152.333L372.333 152.667L371.667 152.333M427.667 152.333L428.333 152.667L427.667 152.333z"/>
<path style="fill:#f19cd0; stroke:none;" d="M368 153L369 154L368 153z"/>
<path style="fill:#6a6b78; stroke:none;" d="M369 153L370 154L369 153M430 153L431 154L430 153z"/>
<path style="fill:#f19cd0; stroke:none;" d="M431 153L432 154L431 153M235 154L235 159L236 159L235 154M365 154L366 155L365 154z"/>
<path style="fill:#6a6b78; stroke:none;" d="M366 154L367 155L366 154M433 154L434 155L433 154z"/>
<path style="fill:#f19cd0; stroke:none;" d="M434 154L435 155L434 154z"/>
<path style="fill:#6a6b78; stroke:none;" d="M363 155L364 156L363 155M436 155L437 156L436 155M361 156L362 157L361 156M438 156L439 157L438 156M359 157L360 158L359 157M440 157L441 158L440 157M357 158L358 159L357 158M442 158L443 159L442 158M355 159L356 160L355 159M444 159L445 160L444 159z"/>
<path style="fill:#f19cd0; stroke:none;" d="M353 160L354 161L353 160M446 160L447 161L446 160M236.333 161.667L236.667 162.333L236.333 161.667z"/>
<path style="fill:#6a6b78; stroke:none;" d="M352 161L353 162L352 161M447 161L448 162L447 161M350 162L351 163L350 162M449 162L450 163L449 162M349 163L350 164L349 163z"/>
<path style="fill:#f19cd0; stroke:none;" d="M451 163L452 164L451 163z"/>
<path style="fill:#6a6b78; stroke:none;" d="M771.333 163.667L771.667 164.333L771.333 163.667z"/>
<path style="fill:#f19cd0; stroke:none;" d="M237 164L237 167L238 167L237 164z"/>
<path style="fill:#6a6b78; stroke:none;" d="M347 164L348 165L347 164M452 164L453 165L452 164M523 164L524 165L523 164M346 165L347 166L346 165M453 165L454 166L453 165z"/>
<path style="fill:#f19cd0; stroke:none;" d="M344 166L345 167L344 166M455 166L456 167L455 166z"/>
<path style="fill:#6a6b78; stroke:none;" d="M343 167L344 168L343 167M456 167L457 168L456 167z"/>
<path style="fill:#f19cd0; stroke:none;" d="M238 168L239 169L238 168z"/>
<path style="fill:#6a6b78; stroke:none;" d="M342 168L343 169L342 168M457 168L458 169L457 168z"/>
<path style="fill:#f19cd0; stroke:none;" d="M239.333 170.667L239.667 171.333L239.333 170.667M460 170L461 171L460 170M338 171L339 172L338 171M461 171L462 172L461 171z"/>
<path style="fill:#6a6b78; stroke:none;" d="M510 171L511 172L510 171z"/>
<path style="fill:#f19cd0; stroke:none;" d="M337 172L338 173L337 172z"/>
<path style="fill:#6a6b78; stroke:none;" d="M462 172L463 173L462 172z"/>
<path style="fill:#f19cd0; stroke:none;" d="M240 173L241 174L240 173z"/>
<path style="fill:#6a6b78; stroke:none;" d="M336 173L337 174L336 173M463 173L464 174L463 173M335 174L336 175L335 174M464 174L465 175L464 174z"/>
<path style="fill:#f19cd0; stroke:none;" d="M241 175L242 176L241 175z"/>
<path style="fill:#6a6b78; stroke:none;" d="M334 175L335 176L334 175M465 175L466 176L465 175M333 176L334 177L333 176M466 176L467 177L466 176z"/>
<path style="fill:#f19cd0; stroke:none;" d="M242 177L243 178L242 177M332 177L333 178L332 177z"/>
<path style="fill:#6a6b78; stroke:none;" d="M467 177L468 178L467 177z"/>
<path style="fill:#f19cd0; stroke:none;" d="M331 178L332 179L331 178M468 178L469 179L468 178M243 179L250 189L243 179M469 179L470 180L469 179z"/>
<path style="fill:#6a6b78; stroke:none;" d="M328 182L329 183L328 182M471 182L472 183L471 182M327 183L328 184L327 183M472 183L473 184L472 183z"/>
<path style="fill:#f19cd0; stroke:none;" d="M326 184L327 185L326 184M473 184L474 185L473 184M391 185L392 186L391 185z"/>
<path style="fill:#fdcde2; stroke:none;" d="M392.059 185.742C385.445 188.51 390.106 197.103 384.852 201.186C381.87 203.503 374.831 208.38 371 207.998C366.792 207.578 363.66 203.172 359.093 204.785C353.826 206.647 347.206 218.632 350.032 223.896C351.981 227.527 356.875 228.38 358.535 232.185C359.974 235.481 359.289 241.439 359.057 244.996C358.681 250.778 353.631 251.331 350.604 255.329C346.72 260.458 352.745 271.072 357.213 274.254C363.214 278.528 368.04 270.143 374 272.526C377.537 273.941 384.036 277.257 386.397 280.275C389.054 283.672 386.878 288.256 389.028 291.772C391.812 296.326 403.504 296.145 407.891 294.258C414.389 291.463 409.963 282.843 415.148 278.814C418.144 276.486 425.149 271.646 429 272.118C433.148 272.626 436.415 276.803 440.907 275.215C446.267 273.319 452.87 261.488 449.968 256.105C448.039 252.527 443.238 251.821 441.465 248.181C439.904 244.976 440.715 238.51 440.943 235.004C441.319 229.222 446.369 228.669 449.396 224.671C453.341 219.462 447.324 208.948 442.79 205.746C436.767 201.492 431.969 209.86 426 207.474C422.463 206.059 415.964 202.743 413.603 199.725C411.172 196.618 412.762 192.582 411.258 189.189C408.797 183.641 396.878 183.726 392.059 185.742z"/>
<path style="fill:#6a6b78; stroke:none;" d="M408 185L409 186L408 185M325 186L326 187L325 186M389 186L390 187L389 186z"/>
<path style="fill:#f19cd0; stroke:none;" d="M409 186L410 187L409 186z"/>
<path style="fill:#6a6b78; stroke:none;" d="M474 186L475 187L474 186M324 187L325 188L324 187M388 187L389 188L388 187M475 187L476 188L475 187z"/>
<path style="fill:#f19cd0; stroke:none;" d="M323 188L324 189L323 188z"/>
<path style="fill:#6a6b78; stroke:none;" d="M411 188L412 189L411 188z"/>
<path style="fill:#f19cd0; stroke:none;" d="M476 188L477 189L476 188z"/>
<path style="fill:#6a6b78; stroke:none;" d="M387.333 189.667L387.667 190.333L387.333 189.667M322 190L323 191L322 190M477 190L478 191L477 190z"/>
<path style="fill:#f19cd0; stroke:none;" d="M387 191L387 200L388 200L387 191M252 192L258 198L252 192z"/>
<path style="fill:#6a6b78; stroke:none;" d="M321 192L322 193L321 192M478 192L479 193L478 192z"/>
<path style="fill:#f19cd0; stroke:none;" d="M320 193L321 194L320 193M479 193L480 194L479 193z"/>
<path style="fill:#6a6b78; stroke:none;" d="M319 195L320 196L319 195M480 195L481 196L480 195M755 196L756 197L755 196M318 197L319 198L318 197M481 197L482 198L481 197M770 197L771 198L770 197M412.333 198.667L412.667 199.333L412.333 198.667M756 198L757 199L756 198M317 199L318 200L317 199M482 199L483 200L482 199M757 199L758 200L757 199M386 200L387 201L386 200M758 200L759 201L758 200M767 200L768 201L767 200M316 201L317 202L316 201M384 201L385 202L384 201z"/>
<path style="fill:#f19cd0; stroke:none;" d="M385 201L386 202L385 201M414 201L415 202L414 201z"/>
<path style="fill:#6a6b78; stroke:none;" d="M415 201L416 202L415 201M483 201L484 202L483 201M760 201L761 202L760 201M765 201L766 202L765 201M382 202L383 203L382 202M417 202L418 203L417 202z"/>
<path style="fill:#fdcde2; stroke:none;" d="M762 202L762 349C762 371.104 765.265 395.29 746.961 411.7C727.572 429.083 699.022 424 675 424L675 426C699.09 426 728.324 430.884 747.985 413.699C766.795 397.259 764 372.439 764 350L764 202L762 202z"/>
<path style="fill:#6a6b78; stroke:none;" d="M315 203L316 204L315 203M380 203L381 204L380 203M419 203L420 204L419 203M484 203L485 204L484 203M358 204L359 205L358 204M363 204L364 205L363 204M378 204L379 205L378 204M436 204L437 205L436 204z"/>
<path style="fill:#f19cd0; stroke:none;" d="M441 204L442 205L441 204M314 205L315 206L314 205z"/>
<path style="fill:#6a6b78; stroke:none;" d="M365 205L366 206L365 205z"/>
<path style="fill:#f19cd0; stroke:none;" d="M377 205L378 206L377 205z"/>
<path style="fill:#6a6b78; stroke:none;" d="M422 205L423 206L422 205M434 205L435 206L434 205M443 205L444 206L443 205z"/>
<path style="fill:#f19cd0; stroke:none;" d="M485 205L486 206L485 205z"/>
<path style="fill:#6a6b78; stroke:none;" d="M314 206L315 207L314 206M367 206L368 207L367 206M375 206L376 207L375 206M432 206L433 207L432 206M444 206L445 207L444 206M485 206L486 207L485 206z"/>
<path style="fill:#f19cd0; stroke:none;" d="M355 207L356 208L355 207M368 207L369 208L368 207z"/>
<path style="fill:#6a6b78; stroke:none;" d="M374 207L375 208L374 207M425 207L426 208L425 207z"/>
<path style="fill:#f19cd0; stroke:none;" d="M431 207L432 208L431 207M313 208L314 209L313 208z"/>
<path style="fill:#6a6b78; stroke:none;" d="M354 208L355 209L354 208M370 208L371 209L370 208M372 208L373 209L372 208z"/>
<path style="fill:#f19cd0; stroke:none;" d="M373 208L374 209L373 208M426 208L427 209L426 208z"/>
<path style="fill:#6a6b78; stroke:none;" d="M429 208L430 209L429 208M445 208L446 209L445 208z"/>
<path style="fill:#f19cd0; stroke:none;" d="M486 208L487 209L486 208z"/>
<path style="fill:#6a6b78; stroke:none;" d="M313 209L314 210L313 209M486 209L487 210L486 209M353 210L354 211L353 210z"/>
<path style="fill:#f19cd0; stroke:none;" d="M446 210L447 211L446 210z"/>
<path style="fill:#6a6b78; stroke:none;" d="M312.333 211.667L312.667 212.333L312.333 211.667M447 211L448 212L447 211M487 211L488 212L487 211M352 212L353 213L352 212M351 213L352 214L351 213M448 213L449 214L448 213z"/>
<path style="fill:#f19cd0; stroke:none;" d="M311 214L312 215L311 214M351 214L352 215L351 214z"/>
<path style="fill:#6a6b78; stroke:none;" d="M488.333 214.667L488.667 215.333L488.333 214.667M311 215L312 216L311 215M350 215L351 216L350 215M449 215L450 216L449 215z"/>
<path style="fill:#fdcde2; stroke:none;" d="M309.333 217.667L309.667 218.333L309.333 217.667z"/>
<path style="fill:#6a6b78; stroke:none;" d="M349 217L350 218L349 217z"/>
<path style="fill:#f19cd0; stroke:none;" d="M450 217L451 218L450 217M143 231L144 231C147.03 225.159 151.651 220.886 158 219C151.086 216.756 144.836 225.255 143 231z"/>
<path style="fill:#6a6b78; stroke:none;" d="M310.333 218.667L310.667 219.333L310.333 218.667M489.333 218.667L489.667 219.333L489.333 218.667M348 219L348 223L349 223L348 219M451 219L451 223L452 223L451 219z"/>
<path style="fill:#fdcde2; stroke:none;" d="M308 222L308 225L309 225L308 222z"/>
<path style="fill:#6a6b78; stroke:none;" d="M309 222L309 226L310 226L309 222M490 222L490 226L491 226L490 222z"/>
<path style="fill:#f19cd0; stroke:none;" d="M395 223L396 224L395 223z"/>
<path style="fill:#6a6b78; stroke:none;" d="M396 223L397 224L396 223z"/>
<path style="fill:#272f3f; stroke:none;" d="M397 223.533C375.823 228.168 382.1 261.041 403 256.467C424.177 251.832 417.9 218.959 397 223.533z"/>
<path style="fill:#6a6b78; stroke:none;" d="M403 223L404 224L403 223z"/>
<path style="fill:#f19cd0; stroke:none;" d="M404 223L405 224L404 223z"/>
<path style="fill:#6a6b78; stroke:none;" d="M349 224L350 225L349 224z"/>
<path style="fill:#f19cd0; stroke:none;" d="M392 224L393 225L392 224z"/>
<path style="fill:#6a6b78; stroke:none;" d="M393 224L394 225L393 224M406 224L407 225L406 224z"/>
<path style="fill:#f19cd0; stroke:none;" d="M407 224L408 225L407 224z"/>
<path style="fill:#6a6b78; stroke:none;" d="M450 224L451 225L450 224M350 225L351 226L350 225M391 225L392 226L391 225M408 225L409 226L408 225M449 225L450 226L449 225z"/>
<path style="fill:#f19cd0; stroke:none;" d="M389 226L390 227L389 226z"/>
<path style="fill:#6a6b78; stroke:none;" d="M410 226L411 227L410 226z"/>
<path style="fill:#f19cd0; stroke:none;" d="M447 226L448 227L447 226z"/>
<path style="fill:#fdcde2; stroke:none;" d="M307 227L307 230L308 230L307 227z"/>
<path style="fill:#6a6b78; stroke:none;" d="M353 227L354 228L353 227M388 227L389 228L388 227M411 227L412 228L411 227M446 227L447 228L446 227z"/>
<path style="fill:#f19cd0; stroke:none;" d="M355 228L356 229L355 228z"/>
<path style="fill:#6a6b78; stroke:none;" d="M387 228L388 229L387 228M412 228L413 229L412 228M444 228L445 229L444 228M308 229L308 233L309 233L308 229M356 229L357 230L356 229z"/>
<path style="fill:#f19cd0; stroke:none;" d="M386 229L387 230L386 229z"/>
<path style="fill:#6a6b78; stroke:none;" d="M413 229L414 230L413 229z"/>
<path style="fill:#f19cd0; stroke:none;" d="M442 229L443 230L442 229z"/>
<path style="fill:#6a6b78; stroke:none;" d="M491 229L491 233L492 233L491 229z"/>
<path style="fill:#f19cd0; stroke:none;" d="M358 230L359 231L358 230z"/>
<path style="fill:#6a6b78; stroke:none;" d="M441 230L442 231L441 230M385 231L386 232L385 231M414 231L415 232L414 231z"/>
<path style="fill:#f19cd0; stroke:none;" d="M142 232L142 236L143 236L142 232M359.333 232.667L359.667 233.333L359.333 232.667M384 232L385 233L384 232M415 232L416 233L415 232M440.333 232.667L440.667 233.333L440.333 232.667z"/>
<path style="fill:#6a6b78; stroke:none;" d="M384 233L385 234L384 233M415 233L416 234L415 233M383.333 235.667L383.667 236.333L383.333 235.667M416.333 235.667L416.667 236.333L416.333 235.667M441 236L441 244L442 244L441 236M358 238L358 243L359 243L358 238M383.333 243.667L383.667 244.333L383.333 243.667M416.333 243.667L416.667 244.333L416.333 243.667z"/>
<path style="fill:#f19cd0; stroke:none;" d="M359.333 246.667L359.667 247.333L359.333 246.667z"/>
<path style="fill:#6a6b78; stroke:none;" d="M384 246L385 247L384 246M415 246L416 247L415 246M308 247L308 251L309 251L308 247z"/>
<path style="fill:#f19cd0; stroke:none;" d="M384 247L385 248L384 247M415 247L416 248L415 247M440 247L441 248L440 247z"/>
<path style="fill:#6a6b78; stroke:none;" d="M491 247L491 251L492 251L491 247M385 248L386 249L385 248M414 248L415 249L414 248M358 249L359 250L358 249M441 249L442 250L441 249z"/>
<path style="fill:#f19cd0; stroke:none;" d="M357 250L358 251L357 250z"/>
<path style="fill:#6a6b78; stroke:none;" d="M386 250L387 251L386 250M413 250L414 251L413 250z"/>
<path style="fill:#f19cd0; stroke:none;" d="M442 250L443 251L442 250z"/>
<path style="fill:#fdcde2; stroke:none;" d="M307 251L308 252L307 251z"/>
<path style="fill:#6a6b78; stroke:none;" d="M355 251L356 252L355 251M387 251L388 252L387 251M412 251L413 252L412 251M444 251L445 252L444 251M353 252L354 253L353 252M388 252L389 253L388 252M411 252L412 253L411 252M446 252L447 253L446 252z"/>
<path style="fill:#f19cd0; stroke:none;" d="M352 253L353 254L352 253z"/>
<path style="fill:#6a6b78; stroke:none;" d="M389 253L390 254L389 253M410 253L411 254L410 253M448 253L449 254L448 253M309 254L309 258L310 258L309 254M350 254L351 255L350 254M391 254L392 255L391 254M408 254L409 255L408 254z"/>
<path style="fill:#f19cd0; stroke:none;" d="M409 254L410 255L409 254z"/>
<path style="fill:#6a6b78; stroke:none;" d="M449 254L450 255L449 254z"/>
<path style="fill:#fdcde2; stroke:none;" d="M308.333 255.667L308.667 256.333L308.333 255.667z"/>
<path style="fill:#6a6b78; stroke:none;" d="M349 255L350 256L349 255z"/>
<path style="fill:#f19cd0; stroke:none;" d="M392 255L393 256L392 255z"/>
<path style="fill:#6a6b78; stroke:none;" d="M393 255L394 256L393 255M406 255L407 256L406 255z"/>
<path style="fill:#f19cd0; stroke:none;" d="M407 255L408 256L407 255z"/>
<path style="fill:#6a6b78; stroke:none;" d="M450 255L451 256L450 255M490 255L490 258L491 258L490 255M395.667 256.333L396.333 256.667L395.667 256.333M403.667 256.333L404.333 256.667L403.667 256.333M348 257L348 261L349 261L348 257M451 257L451 261L452 261L451 257M310.333 260.667L310.667 261.333L310.333 260.667M489.333 260.667L489.667 261.333L489.333 260.667z"/>
<path style="fill:#fdcde2; stroke:none;" d="M309.333 261.667L309.667 262.333L309.333 261.667z"/>
<path style="fill:#f19cd0; stroke:none;" d="M349 262L350 263L349 262z"/>
<path style="fill:#6a6b78; stroke:none;" d="M450 262L451 263L450 262z"/>
<path style="fill:#fdcde2; stroke:none;" d="M298 264.425C287.341 265.876 276.995 268.926 268 275.029C258.994 281.141 251.064 288.593 245.453 298C214.175 350.435 259.444 414.921 319 405.704C345.478 401.606 367.164 381.237 374.975 356C376.804 350.087 380.919 336.131 376.972 330.51C374.342 326.764 366.034 325.69 362 323.742C352.046 318.935 342.857 312.827 335.015 304.985C327.724 297.695 321.848 289.2 317.248 280C315.262 276.027 313.857 267.697 310.298 265.028C307.398 262.853 301.32 263.973 298 264.425z"/>
<path style="fill:#6a6b78; stroke:none;" d="M311 264L312 265L311 264M350 264L351 265L350 264M449 264L450 265L449 264M488 264L489 265L488 264z"/>
<path style="fill:#fdcde2; stroke:none;" d="M489.702 265.028C484.625 268.835 481.863 282.29 478.385 288C470.299 301.275 458.562 312.555 445 320.138C439.629 323.141 423.227 326.632 422.148 333.055C420.671 341.842 423.717 352.848 426.814 361C443.361 404.55 498.724 420.081 536 392.841C567.816 369.591 574.505 321.731 549.532 291C538.496 277.418 523.253 268.114 506 265.084C501.786 264.344 493.478 262.196 489.702 265.028z"/>
<path style="fill:#f19cd0; stroke:none;" d="M311 265L312 266L311 265M488 265L489 266L488 265z"/>
<path style="fill:#6a6b78; stroke:none;" d="M351 266L352 267L351 266M448 266L449 267L448 266M312.333 267.667L312.667 268.333L312.333 267.667z"/>
<path style="fill:#f19cd0; stroke:none;" d="M352 267L353 268L352 267M447 267L448 268L447 267z"/>
<path style="fill:#6a6b78; stroke:none;" d="M487.333 267.667L487.667 268.333L487.333 267.667M353 269L354 270L353 269M446 269L447 270L446 269M313 270L314 271L313 270M486 270L487 271L486 270z"/>
<path style="fill:#f19cd0; stroke:none;" d="M313 271L314 272L313 271z"/>
<path style="fill:#6a6b78; stroke:none;" d="M354 271L355 272L354 271M370 271L370 272L373 272L370 271z"/>
<path style="fill:#f19cd0; stroke:none;" d="M373 271L374 272L373 271M426 271L427 272L426 271z"/>
<path style="fill:#6a6b78; stroke:none;" d="M427.667 271.333L428.333 271.667L427.667 271.333z"/>
<path style="fill:#f19cd0; stroke:none;" d="M429 271L430 272L429 271z"/>
<path style="fill:#6a6b78; stroke:none;" d="M445 271L446 272L445 271z"/>
<path style="fill:#f19cd0; stroke:none;" d="M486 271L487 272L486 271M368 272L369 273L368 272z"/>
<path style="fill:#6a6b78; stroke:none;" d="M374 272L375 273L374 272M425 272L426 273L425 272M430 272L431 273L430 272z"/>
<path style="fill:#f19cd0; stroke:none;" d="M444 272L445 273L444 272z"/>
<path style="fill:#6a6b78; stroke:none;" d="M314 273L315 274L314 273M355 273L356 274L355 273M367 273L368 274L367 273M375 273L376 274L375 273M432 273L433 274L432 273M485 273L486 274L485 273z"/>
<path style="fill:#f19cd0; stroke:none;" d="M314 274L315 275L314 274z"/>
<path style="fill:#6a6b78; stroke:none;" d="M356 274L357 275L356 274M365 274L366 275L365 274M377 274L378 275L377 274M422 274L423 275L422 274z"/>
<path style="fill:#f19cd0; stroke:none;" d="M434 274L435 275L434 274z"/>
<path style="fill:#6a6b78; stroke:none;" d="M443 274L444 275L443 274z"/>
<path style="fill:#f19cd0; stroke:none;" d="M485 274L486 275L485 274M358 275L359 276L358 275M363 275L364 276L363 275z"/>
<path style="fill:#6a6b78; stroke:none;" d="M378 275L379 276L378 275M421 275L422 276L421 275M435 275L436 276L435 275z"/>
<path style="fill:#f19cd0; stroke:none;" d="M436 275L437 276L436 275M441 275L442 276L441 275z"/>
<path style="fill:#6a6b78; stroke:none;" d="M442 275L443 276L442 275M315 276L316 277L315 276M360.667 276.333L361.333 276.667L360.667 276.333M380 276L381 277L380 276M419 276L420 277L419 276M438.667 276.333L439.333 276.667L438.667 276.333M484 276L485 277L484 276M382 277L383 278L382 277M417 277L418 278L417 277M316 278L317 279L316 278M384 278L385 279L384 278z"/>
<path style="fill:#f19cd0; stroke:none;" d="M385 278L386 279L385 278M414 278L415 279L414 278z"/>
<path style="fill:#6a6b78; stroke:none;" d="M415 278L416 279L415 278M483 278L484 279L483 278M386 279L387 280L386 279M317 280L318 281L317 280z"/>
<path style="fill:#f19cd0; stroke:none;" d="M387 280L388 281L387 280z"/>
<path style="fill:#6a6b78; stroke:none;" d="M412 280L413 281L412 280M482 280L483 281L482 280M387 281L387 291L388 291L387 281M318 282L319 283L318 282M481 282L482 283L481 282M319 284L320 285L319 284M480 284L481 285L480 284z"/>
<path style="fill:#fdcde2; stroke:none;" d="M24 321L27 320L27 348L57 319L87 288L58 288L58 287L60 287C56.2812 285.44 51.9995 286.042 48 285.996C43.9787 285.95 39.9497 285.1 36 286.189C20.3185 290.514 24 308.89 24 321M88 286L89 287L88 286z"/>
<path style="fill:#f19cd0; stroke:none;" d="M320 286L321 287L320 286M479 286L480 287L479 286z"/>
<path style="fill:#6a6b78; stroke:none;" d="M321 287L322 288L321 287M478 287L479 288L478 287M322 289L323 290L322 289M477 289L478 290L477 289z"/>
<path style="fill:#f19cd0; stroke:none;" d="M323 291L324 292L323 291z"/>
<path style="fill:#6a6b78; stroke:none;" d="M411 291L412 292L411 291z"/>
<path style="fill:#f19cd0; stroke:none;" d="M476 291L477 292L476 291z"/>
<path style="fill:#6a6b78; stroke:none;" d="M324 292L325 293L324 292M388 292L389 293L388 292M475 292L476 293L475 292M325 293L326 294L325 293M389 293L390 294L389 293M474 293L475 294L474 293z"/>
<path style="fill:#f19cd0; stroke:none;" d="M391 294L392 295L391 294z"/>
<path style="fill:#6a6b78; stroke:none;" d="M408 294L409 295L408 294z"/>
<path style="fill:#f19cd0; stroke:none;" d="M326 295L327 296L326 295M473 295L474 296L473 295z"/>
<path style="fill:#6a6b78; stroke:none;" d="M327 296L328 297L327 296M472 296L473 297L472 296z"/>
<path style="fill:#f19cd0; stroke:none;" d="M293 303C288.66 303 282.806 302.061 279.434 305.434C276.246 308.621 277 313.897 277 318L277 347C277 357.159 274.144 370.572 288 370.985C298.979 371.311 310.016 371.004 321 371C325.422 370.998 330.947 371.544 333.991 367.606C336.824 363.939 336 358.33 336 354L336 321C336 316.525 337.135 310.036 334.258 306.228C330.896 301.78 323.881 303 319 303C316.371 293.939 295.629 293.939 293 303z"/>
<path style="fill:#6a6b78; stroke:none;" d="M328 297L329 298L328 297M471 297L472 298L471 297z"/>
<path style="fill:#f19cd0; stroke:none;" d="M330 300L331 301L330 300M469 300L470 301L469 300M331 301L332 302L331 301M468 301L469 302L468 301M491 310C503.168 312.769 492.417 294.287 491.348 305.975L491 310z"/>
<path style="fill:#6a6b78; stroke:none;" d="M332 302L333 303L332 302M467 302L468 303L467 302M333 303L334 304L333 303M466 303L467 304L466 303M334 304L335 305L334 304M465 304L466 305L465 304M332 305L333 306L332 305M335 305L336 306L335 305M464 305L465 306L464 305M491 305L491 308L492 308L491 305M336 306L337 307L336 306M463 306L464 307L463 306M337 307L338 308L337 307M462 307L463 308L462 307z"/>
<path style="fill:#f19cd0; stroke:none;" d="M338 308L339 309L338 308M461 308L462 309L461 308M339 309L340 310L339 309M460 309L461 310L460 309z"/>
<path style="fill:#6a6b78; stroke:none;" d="M342 311L343 312L342 311M457 311L458 312L457 311M343 312L344 313L343 312M456 312L457 313L456 312z"/>
<path style="fill:#f19cd0; stroke:none;" d="M344 313L345 314L344 313M455 313L456 314L455 313z"/>
<path style="fill:#6a6b78; stroke:none;" d="M346 314L347 315L346 314M453 314L454 315L453 314M347 315L348 316L347 315M452 315L453 316L452 315z"/>
<path style="fill:#f19cd0; stroke:none;" d="M490 315.468C459.853 321.167 470.121 366.767 500.004 361.668C530.534 356.459 520.258 309.748 490 315.468M348 316L349 317L348 316M451 316L452 317L451 316z"/>
<path style="fill:#6a6b78; stroke:none;" d="M350 317L351 318L350 317M449 317L450 318L449 317M352 318L353 319L352 318M447 318L448 319L447 318z"/>
<path style="fill:#f19cd0; stroke:none;" d="M353 319L354 320L353 319M446 319L447 320L446 319z"/>
<path style="fill:#6a6b78; stroke:none;" d="M355 320L356 321L355 320M444 320L445 321L444 320M357 321L358 322L357 321M442 321L443 322L442 321M359 322L360 323L359 322M440 322L441 323L440 322M361 323L362 324L361 323M438 323L439 324L438 323M494 323L495 324L494 323z"/>
<path style="fill:#fdcde2; stroke:none;" d="M314.999 325.032C310.472 327.223 307.861 333.451 303 334.797C299.094 335.879 295.215 329.421 291.623 333.478C286.983 338.716 299.608 349.415 305 346.953C310.403 344.485 318.329 336.158 321.214 331.001C323.833 326.317 319.494 322.858 314.999 325.032z"/>
<path style="fill:#6a6b78; stroke:none;" d="M363 324L364 325L363 324M436 324L437 325L436 324z"/>
<path style="fill:#fdcde2; stroke:none;" d="M491 324.559C473.889 328.971 479.895 356.086 497 352.453C515.622 348.498 509.461 319.798 491 324.559z"/>
<path style="fill:#f19cd0; stroke:none;" d="M365 325L366 326L365 325z"/>
<path style="fill:#6a6b78; stroke:none;" d="M366 325L367 326L366 325M433 325L434 326L433 325z"/>
<path style="fill:#f19cd0; stroke:none;" d="M434 325L435 326L434 325M368 326L369 327L368 326z"/>
<path style="fill:#6a6b78; stroke:none;" d="M369 326L370 327L369 326M430.667 326.333L431.333 326.667L430.667 326.333M371.667 327.333L372.333 327.667L371.667 327.333M427.667 327.333L428.333 327.667L427.667 327.333z"/>
<path style="fill:#f19cd0; stroke:none;" d="M374 328L375 329L374 328z"/>
<path style="fill:#6a6b78; stroke:none;" d="M375 328L376 329L375 328M424 328L425 329L424 328z"/>
<path style="fill:#f19cd0; stroke:none;" d="M425 328L426 329L425 328z"/>
<path style="fill:#6a6b78; stroke:none;" d="M378.667 329.333L379.333 329.667L378.667 329.333M420.667 329.333L421.333 329.667L420.667 329.333M382 330L382 331L385 331L382 330M414 330L414 331L418 331L414 330M389 331L389 332L393 332L389 331M407 331L407 332L411 332L407 331z"/>
<path style="fill:#f19cd0; stroke:none;" d="M493.043 331.747C484.982 333.704 487.894 346.563 495.971 345.007C504.735 343.319 501.632 329.662 493.043 331.747M459.337 336.024C454.621 339.201 462.312 342.477 465.377 339.977C469.345 336.741 462.178 334.11 459.337 336.024M522.647 336.024C518.73 339.321 526.539 342.274 529.342 340.012C532.939 337.11 525.374 333.727 522.647 336.024z"/>
<path style="fill:#6a6b78; stroke:none;" d="M302 336L303 337L302 336M529 336L530 337L529 336M521 339L522 340L521 339M489 342L490 343L489 342M490 343L491 344L490 343M493 361L494 362L493 361z"/>
<path style="fill:#f19cd0; stroke:none;" d="M491 374C503.168 376.769 492.417 358.287 491.348 369.975L491 374z"/>
<path style="fill:#6a6b78; stroke:none;" d="M491 369L491 372L492 372L491 369M663 417L664 418L663 417z"/>
<path style="fill:#4440fa; stroke:none;" d="M664.018 417.758C654.41 421.262 659.5 435.164 668.957 432.332C678.998 429.325 673.371 414.347 664.018 417.758z"/>
<path style="fill:#6a6b78; stroke:none;" d="M669 417L670 418L669 417M671 418L672 419L671 418M660 419L661 420L660 419M672 419L673 420L672 419M673 420L674 421L673 420M658.333 422.667L658.667 423.333L658.333 422.667M674 422L675 423L674 422M658 427L659 428L658 427M674 427L675 428L674 427M659 429L660 430L659 429M673 429L674 430L673 429M660 430L661 431L660 430M661 431L662 432L661 431M671 431L672 432L671 431M663 432L664 433L663 432M669 432L670 433L669 432z"/>
</svg>
