<?xml version="1.0" standalone="yes"?>
<svg xmlns="http://www.w3.org/2000/svg" width="800" height="450">
<path style="fill:#32a9e5; stroke:none;" d="M0 0L0 142L123 142C128.625 142 137.535 143.688 142.741 141.397C146.374 139.797 147.588 134.889 152.001 134.466C155.839 134.098 159.968 138.303 160.222 142C160.501 146.051 156.131 150.72 152.004 150.338C147.681 149.937 146.404 145.143 142.791 143.603C137.495 141.346 128.696 143 123 143L0 143L0 438L14 431C16.9206 411.587 32.0211 415.037 46 411.443C52.053 409.886 56.8704 405.403 63 404L63 403C51.5094 403 35.3255 405.825 25.0008 399.772C14.3534 393.529 14 382.943 14 372L14 319L15 319C15 336.333 14.9172 353.668 15.0008 371C15.0373 378.581 15.1351 388.781 20.5324 394.674C27.9483 402.771 39.111 401 49 401C71.1207 401 93.0234 398 115 398L115 397L112 397L112 396C120.133 395.555 130.283 386.796 132.772 379C137.875 363.011 134 340.698 134 324L135 324L135 361L159 349L159 347L151 338L151 337L153 336L153 335L151 333C160.705 337.959 170.351 337 181 337L229 337L229 301L230 301L230 349L231 349L231 184C231 171.702 231.499 159.286 230.961 147C230.509 136.676 229.027 127.251 235.108 118C250.304 94.8831 295.076 104 319 104L504 104L549 104C557.16 104 566.152 102.907 574 105.523C580.414 107.662 584.619 112.224 590 116L584 110L584 109L595 104L595 103C580.59 103 558.187 107.342 546.015 98.3627C535.986 90.9643 537 79.0424 537 68C537 45.305 538 22.6296 538 0L0 0z"/>
<path style="fill:#437cf3; stroke:none;" d="M538 0C538 22.955 537 45.9763 537 69C537 79.3143 535.741 91.2992 545.043 98.3627C557.145 107.552 580.555 103 595 103L595 104L584 109L584 110L590 116L587 114L590 119L592 118L591 121L593 120L593 121L595 126L594 143L231 143L231 130L230 130L231.603 142.972L253 144L313 144L506 144L565 144L595 143L595 222L594 263C650.435 283.662 641.788 365.908 593 388.677C572.642 398.178 548.266 397.032 529 385.547C521.272 380.94 515.968 374.329 509 369L512 373L313 373C292.056 373 255.455 380.268 239.174 364.699C224.018 350.206 230 320.029 230 301L229 301L229 337C204.062 337 174.499 341.406 151 333L153 335L153 336L151 337L151 338L159 347L159 349L135 361L135 324L134 324C134 344.508 142.424 392.612 112 396L112 397L115 397L115 398C93.0069 398 71.1268 401 49 401C38.7544 401 28.0059 402.433 20.5324 393.816C15.0181 387.457 15.0129 377.006 15 369L15 319L14 319L14 374C14 383.626 14.1555 393.122 23.0147 399.146C33.3753 406.191 51.1076 403 63 403L63 404C56.3095 404.875 51.4182 409.793 45 411.443C31.3216 414.96 15.725 411.391 14 431C2.66753 433.599 0 439.351 0 450L24 450C24 439.515 21.7536 427.271 30.1852 419.329C36.7463 413.148 44.6636 414 53 414C66.1781 414 79.8811 415.079 93 413.83C104.034 412.78 119.025 410.688 127.815 419.213C135.91 427.064 134 439.763 134 450L800 450L800 0L764 0L764 112C772.724 116.117 771 124.738 771 133C771 152.594 773.875 174.659 770.852 193.999C769.928 199.908 764.127 201.594 764.005 208.004C763.13 253.965 764 300.03 764 346C764 368.284 767.14 392.138 750.826 409.985C735.037 427.259 713.348 426 692 426C687.463 426 680.585 424.722 676.375 426.603C671.948 428.58 669.97 434.448 664.043 432.242C656.393 429.395 657.902 418.17 666.004 417.387C671.708 416.836 673.696 423.449 679.043 423.941C710.09 426.802 751.994 426.465 760.96 389C765.938 368.2 762 342.364 762 321C762 283.212 765.406 243.653 761.941 206.043C761.42 200.386 755.429 198.151 755.044 192C753.667 170.003 751.264 141.652 755.228 120.001C756.15 114.966 761.475 113.018 761.941 107.957C765.195 72.6353 762 35.4887 762 0C753.032 0.577362 739.146 -3.04507 731 1.02777C720.546 6.25473 714.846 19.1808 705 25.3966C693.426 32.7032 674.56 25.1302 669 14L668 14L680 33L683 32L682 34L685 33L684 35L687 34C687.746 39.3272 704.406 38 709 38L709 39L693 39L693 40L706 40L706 41C688.686 41 666.484 41.2674 666 64L658 67L658 46L658 1L657 1L655.397 34L637 54L608 83L594 95.3966L580 96L580 97L594 97L594 98L558 99L559 97L554 96L553 95L554 93L551 94C542.316 63.6232 544.972 31.2637 541 0L538 0z"/>
<path style="fill:#32a9e5; stroke:none;" d="M541 0C542.893 23.9433 543.849 48.0615 546.075 72C546.594 77.5785 546.178 93.1418 554 93L554 96L559 97L558 99L559 99L594 98L594 97L580 97L580 96L595 95.3966L609 83L637 55L655.397 35L657 1L658 1L658 67L666 64C667.011 41.9274 689.028 41 706 41L706 40L693 40L693 39L709 39L709 38C702.561 38 686.083 37.6685 687 34L684 35L685 33L682 34L683 32L680 33L668 14L669 14C673.138 26.442 693.54 31.7022 705 25.9722C714.109 21.4178 725.183 8.25842 731 0L683 0C678.712 0 669.085 -2.06146 668 3L667 3L667 0L541 0z"/>
<path style="fill:#437cf3; stroke:none;" d="M667 0L667 3L668 3L667 0z"/>
<path style="fill:#32a9e5; stroke:none;" d="M760 0L761 1L760 0z"/>
<path style="fill:#f4db7a; stroke:none;" d="M762 0L761.941 106.985L755.001 124L755.105 192.999L761.981 208.004L762 377L763 377L763 202C772.63 200.039 771 190.829 771 183L771 130C771 122.345 772.303 113.894 763 112L763 34L762 0z"/>
<path style="fill:#fafbfb; stroke:none;" d="M763 0L763 112L764 112L764 34L763 0z"/>
<path style="fill:#32a9e5; stroke:none;" d="M539 4L540 5L539 4z"/>
<path style="fill:#437cf3; stroke:none;" d="M667 7L668 8L667 7M667 9L667 13L668 13L667 9z"/>
<path style="fill:#32a9e5; stroke:none;" d="M680 31L681 32L680 31M668 67L691 44C675.551 44.0017 668.01 51.4265 668 67M668.333 69.6667L668.667 70.3333L668.333 69.6667M668.333 72.6667L668.667 73.3333L668.333 72.6667M555 96L556 97L555 96M561.667 99.3333L562.333 99.6667L561.667 99.3333M605.667 103.333L606.333 103.667L605.667 103.333z"/>
<path style="fill:#437cf3; stroke:none;" d="M255 104L255 105L571 105L542 104L478 104L255 104M576 104L577 105L576 104M250.667 105.333L251.333 105.667L250.667 105.333z"/>
<path style="fill:#283040; stroke:none;" d="M231 143L594 143C594 136.838 594.883 129.919 592.895 124C583.761 96.7974 545.25 105 523 105L304 105C282.151 105 241.997 96.5664 232.549 123C230.281 129.343 231 136.379 231 143z"/>
<path style="fill:#437cf3; stroke:none;" d="M573.667 105.333L574.333 105.667L573.667 105.333M248 106L249 107L248 106M576 106L577 107L576 106M580 106L581 107L580 106M246 107L247 108L246 107M579 107L580 108L579 107M244 108L245 109L244 108M580 108L581 109L580 108M583 108L584 109L583 108M242 109L243 110L242 109M582 109L583 110L582 109M241 110L242 111L241 110M583 110L584 111L583 110M240 111L241 112L240 111M584 111L585 112L584 111z"/>
<path style="fill:#32a9e5; stroke:none;" d="M588 111L589 112L588 111M591 111L592 112L591 111M766 112L767 113L766 112z"/>
<path style="fill:#437cf3; stroke:none;" d="M238 113L239 114L238 113M237 114L238 115L237 114M236 115L237 116L236 115z"/>
<path style="fill:#32a9e5; stroke:none;" d="M770 116L771 117L770 116M590 117L591 118L590 117z"/>
<path style="fill:#437cf3; stroke:none;" d="M234 118L235 119L234 118z"/>
<path style="fill:#32a9e5; stroke:none;" d="M591.333 118.667L591.667 119.333L591.333 118.667z"/>
<path style="fill:#437cf3; stroke:none;" d="M233 120L234 121L233 120M256 120L256 121L260 121L256 120M278 120L278 121L281 121L278 120M300 120L300 121L303 121L300 120z"/>
<path style="fill:#32a9e5; stroke:none;" d="M592.333 120.667L592.667 121.333L592.333 120.667z"/>
<path style="fill:#437cf3; stroke:none;" d="M254 121L253 123L254 121z"/>
<path style="fill:#fafbfb; stroke:none;" d="M255.318 122.043C250.756 124.934 254.889 132.558 259.855 129.928C265.513 126.932 260.56 118.721 255.318 122.043z"/>
<path style="fill:#f4db7a; stroke:none;" d="M260 121L261 122L260 121z"/>
<path style="fill:#437cf3; stroke:none;" d="M276 121L274 124L276 121z"/>
<path style="fill:#fafbfb; stroke:none;" d="M277.317 122.047C272.663 124.91 276.77 132.672 281.769 129.928C286.983 127.067 282.264 119.005 277.317 122.047z"/>
<path style="fill:#f4db7a; stroke:none;" d="M282 121L283 122L282 121z"/>
<path style="fill:#32a9e5; stroke:none;" d="M298 121L299 122L298 121z"/>
<path style="fill:#fafbfb; stroke:none;" d="M299.231 122.047C294.073 125.003 298.657 132.895 303.683 129.802C308.324 126.945 304.24 119.177 299.231 122.047z"/>
<path style="fill:#437cf3; stroke:none;" d="M304 121L305 122L304 121M232 122L233 123L232 122z"/>
<path style="fill:#f4db7a; stroke:none;" d="M283 122L284 123L283 122M297 122L298 123L297 122z"/>
<path style="fill:#437cf3; stroke:none;" d="M305 122L306 123L305 122z"/>
<path style="fill:#32a9e5; stroke:none;" d="M593 122L594 123L593 122z"/>
<path style="fill:#f4db7a; stroke:none;" d="M262 123L263 124L262 123z"/>
<path style="fill:#437cf3; stroke:none;" d="M284 123L285 124L284 123M296 123L297 124L296 123M306 123L307 124L306 123M252 124L252 128L253 128L252 124z"/>
<path style="fill:#32a9e5; stroke:none;" d="M274 124L275 125L274 124z"/>
<path style="fill:#f4db7a; stroke:none;" d="M284 124L285 125L284 124M296 124L297 125L296 124z"/>
<path style="fill:#32a9e5; stroke:none;" d="M306 124L307 125L306 124z"/>
<path style="fill:#437cf3; stroke:none;" d="M231.333 125.667L231.667 126.333L231.333 125.667M263.333 125.667L263.667 126.333L263.333 125.667z"/>
<path style="fill:#f4db7a; stroke:none;" d="M274.333 125.667L274.667 126.333L274.333 125.667M306.333 125.667L306.667 126.333L306.333 125.667z"/>
<path style="fill:#32a9e5; stroke:none;" d="M594.333 126.667L594.667 127.333L594.333 126.667z"/>
<path style="fill:#437cf3; stroke:none;" d="M274 127L275 128L274 127z"/>
<path style="fill:#f4db7a; stroke:none;" d="M284 127L285 128L284 127M296 127L297 128L296 127z"/>
<path style="fill:#437cf3; stroke:none;" d="M306 127L307 128L306 127z"/>
<path style="fill:#f4db7a; stroke:none;" d="M253 128L254 129L253 128z"/>
<path style="fill:#32a9e5; stroke:none;" d="M262 128L263 129L262 128z"/>
<path style="fill:#437cf3; stroke:none;" d="M284 128L285 129L284 128M296 128L297 129L296 128z"/>
<path style="fill:#f4db7a; stroke:none;" d="M261 129L262 130L261 129z"/>
<path style="fill:#437cf3; stroke:none;" d="M275 129L276 130L275 129z"/>
<path style="fill:#f4db7a; stroke:none;" d="M283 129L284 130L283 129M297 129L298 130L297 129z"/>
<path style="fill:#437cf3; stroke:none;" d="M305 129L306 130L305 129z"/>
<path style="fill:#f4db7a; stroke:none;" d="M255 130L256 131L255 130z"/>
<path style="fill:#32a9e5; stroke:none;" d="M260 130L261 131L260 130z"/>
<path style="fill:#437cf3; stroke:none;" d="M276 130L277 131L276 130z"/>
<path style="fill:#f4db7a; stroke:none;" d="M277 130L278 131L277 130z"/>
<path style="fill:#437cf3; stroke:none;" d="M282 130L283 131L282 130M298 130L299 131L298 130z"/>
<path style="fill:#f4db7a; stroke:none;" d="M303 130L304 131L303 130z"/>
<path style="fill:#437cf3; stroke:none;" d="M304 130L305 131L304 130M257.667 131.333L258.333 131.667L257.667 131.333M279.667 131.333L280.333 131.667L279.667 131.333M301 131L302 132L301 131z"/>
<path style="fill:#32a9e5; stroke:none;" d="M595 132L595 143L596 143L595 132z"/>
<path style="fill:#f4db7a; stroke:none;" d="M149.055 135.029C140.054 139.83 146.824 154.611 155.945 149.817C165.159 144.974 158.228 130.135 149.055 135.029z"/>
<path style="fill:#fafbfb; stroke:none;" d="M0 142L0 143L145 143C133.544 138.193 113.468 142 101 142L0 142z"/>
<path style="fill:#32a9e5; stroke:none;" d="M594 143L595 144L594 143z"/>
<path style="fill:#fafbfb; stroke:none;" d="M231 144L231 302C231 319.336 225.225 348.939 237.329 362.96C251.707 379.613 285.341 373 305 373L491 373C484.524 355.306 475.732 340.798 477.09 321C479.905 279.919 511.865 244.632 553 239.289C567.376 237.422 580.227 240.814 594 244L594 144L231 144z"/>
<path style="fill:#f4db7a; stroke:none;" d="M594 144L594 244C550.912 229.984 502.095 247.425 484.012 291C475.753 310.9 474.617 333.597 481.864 354C483.761 359.339 486.534 368.744 491.529 371.972C496.214 375 506.558 373 512 373C504.113 360.336 496.166 349.299 494.286 334C489.454 294.671 519.462 260.019 558 255.286C571.171 253.669 582.634 258.625 595 262L595 234L595 174L594 144M512 177L513 178L512 177z"/>
<path style="fill:#437cf3; stroke:none;" d="M513 177L514 178L513 177z"/>
<path style="fill:#283040; stroke:none;" d="M514.004 177.598C500.64 180.484 504.5 201.011 518 198.64C531.962 196.189 527.693 174.642 514.004 177.598z"/>
<path style="fill:#437cf3; stroke:none;" d="M518.667 177.333L519.333 177.667L518.667 177.333z"/>
<path style="fill:#f4db7a; stroke:none;" d="M520 177L521 178L520 177z"/>
<path style="fill:#437cf3; stroke:none;" d="M510 178L511 179L510 178M521 178L522 179L521 178M509 179L510 180L509 179z"/>
<path style="fill:#f4db7a; stroke:none;" d="M523 179L524 180L523 179M524 180L525 181L524 180z"/>
<path style="fill:#437cf3; stroke:none;" d="M507 181L508 182L507 181z"/>
<path style="fill:#f4db7a; stroke:none;" d="M525 181L526 182L525 181z"/>
<path style="fill:#32a9e5; stroke:none;" d="M506 182L507 183L506 182z"/>
<path style="fill:#f4db7a; stroke:none;" d="M526 183L527 184L526 183M505 184L506 185L505 184z"/>
<path style="fill:#437cf3; stroke:none;" d="M526 184L527 185L526 184M505 185L506 186L505 185z"/>
<path style="fill:#f4db7a; stroke:none;" d="M527 186L527 190L528 190L527 186z"/>
<path style="fill:#437cf3; stroke:none;" d="M505.333 190.667L505.667 191.333L505.333 190.667z"/>
<path style="fill:#f4db7a; stroke:none;" d="M505 192L506 193L505 192z"/>
<path style="fill:#437cf3; stroke:none;" d="M526 192L527 193L526 192M506 193L507 194L506 193z"/>
<path style="fill:#f4db7a; stroke:none;" d="M506 194L507 195L506 194M525 194L526 195L525 194M507 195L508 196L507 195z"/>
<path style="fill:#437cf3; stroke:none;" d="M524 195L525 196L524 195z"/>
<path style="fill:#f4db7a; stroke:none;" d="M508 196L509 197L508 196z"/>
<path style="fill:#437cf3; stroke:none;" d="M523 196L524 197L523 196z"/>
<path style="fill:#32a9e5; stroke:none;" d="M755 196L756 197L755 196z"/>
<path style="fill:#f4db7a; stroke:none;" d="M509 197L510 198L509 197z"/>
<path style="fill:#437cf3; stroke:none;" d="M510 197L511 198L510 197z"/>
<path style="fill:#f4db7a; stroke:none;" d="M522 197L523 198L522 197z"/>
<path style="fill:#32a9e5; stroke:none;" d="M770 197L771 198L770 197z"/>
<path style="fill:#f4db7a; stroke:none;" d="M511 198L512 199L511 198z"/>
<path style="fill:#437cf3; stroke:none;" d="M512 198L513 199L512 198M519 198L520 199L519 198z"/>
<path style="fill:#32a9e5; stroke:none;" d="M520 198L521 199L520 198M756 198L757 199L756 198z"/>
<path style="fill:#f4db7a; stroke:none;" d="M514 199L514 200L518 200L514 199z"/>
<path style="fill:#32a9e5; stroke:none;" d="M758 200L759 201L758 200z"/>
<path style="fill:#fafbfb; stroke:none;" d="M763 202L763 381L764 381L764 255L764 219L763 202z"/>
<path style="fill:#f4db7a; stroke:none;" d="M373 210L373 211L379 211L373 210z"/>
<path style="fill:#32a9e5; stroke:none;" d="M371 211L372 212L371 211z"/>
<path style="fill:#283040; stroke:none;" d="M372.015 211.742C359.258 216.749 367.382 236.599 379.985 231.837C393.121 226.874 385.046 206.628 372.015 211.742z"/>
<path style="fill:#437cf3; stroke:none;" d="M380 211L381 212L380 211z"/>
<path style="fill:#f4db7a; stroke:none;" d="M369 212L370 213L369 212z"/>
<path style="fill:#437cf3; stroke:none;" d="M382 212L383 213L382 212z"/>
<path style="fill:#f4db7a; stroke:none;" d="M368 213L369 214L368 213z"/>
<path style="fill:#437cf3; stroke:none;" d="M383 213L384 214L383 213z"/>
<path style="fill:#f4db7a; stroke:none;" d="M367 214L368 215L367 214z"/>
<path style="fill:#437cf3; stroke:none;" d="M384 214L385 215L384 214z"/>
<path style="fill:#32a9e5; stroke:none;" d="M385 215L386 216L385 215z"/>
<path style="fill:#437cf3; stroke:none;" d="M366 216L367 217L366 216M229 217L230 218L229 217z"/>
<path style="fill:#f4db7a; stroke:none;" d="M365 217L366 218L365 217z"/>
<path style="fill:#437cf3; stroke:none;" d="M386 217L387 218L386 217M365.333 218.667L365.667 219.333L365.333 218.667z"/>
<path style="fill:#f4db7a; stroke:none;" d="M387 219L387 224L388 224L387 219z"/>
<path style="fill:#437cf3; stroke:none;" d="M365 224L366 225L365 224z"/>
<path style="fill:#f4db7a; stroke:none;" d="M365 225L366 226L365 225z"/>
<path style="fill:#437cf3; stroke:none;" d="M386 225L387 226L386 225z"/>
<path style="fill:#f4db7a; stroke:none;" d="M386 226L387 227L386 226M366 227L367 228L366 227z"/>
<path style="fill:#437cf3; stroke:none;" d="M385 227L386 228L385 227M367 228L368 229L367 228z"/>
<path style="fill:#f4db7a; stroke:none;" d="M385 228L386 229L385 228z"/>
<path style="fill:#437cf3; stroke:none;" d="M368 229L369 230L368 229z"/>
<path style="fill:#f4db7a; stroke:none;" d="M384 229L385 230L384 229z"/>
<path style="fill:#437cf3; stroke:none;" d="M369 230L370 231L369 230z"/>
<path style="fill:#f4db7a; stroke:none;" d="M383 230L384 231L383 230M370 231L371 232L370 231z"/>
<path style="fill:#437cf3; stroke:none;" d="M381 231L382 232L381 231z"/>
<path style="fill:#f4db7a; stroke:none;" d="M382 231L383 232L382 231M372 232L373 233L372 232z"/>
<path style="fill:#437cf3; stroke:none;" d="M373.667 232.333L374.333 232.667L373.667 232.333M378.667 232.333L379.333 232.667L378.667 232.333z"/>
<path style="fill:#f4db7a; stroke:none;" d="M380 232L381 233L380 232z"/>
<path style="fill:#32a9e5; stroke:none;" d="M594 244L594 261L595 261L594 244z"/>
<path style="fill:#437cf3; stroke:none;" d="M556 255L556 256L572 256L556 255z"/>
<path style="fill:#32a9e5; stroke:none;" d="M550 256L551 257L550 256z"/>
<path style="fill:#437cf3; stroke:none;" d="M551.667 256.333L552.333 256.667L551.667 256.333z"/>
<path style="fill:#283040; stroke:none;" d="M553 256.439C543.081 257.988 533.455 261.668 525 267.09C463.692 306.409 502.748 405.69 574 394.561C584.333 392.947 594.321 389.338 603 383.48C663.666 342.533 625.255 245.154 553 256.439z"/>
<path style="fill:#437cf3; stroke:none;" d="M575.667 256.333L576.333 256.667L575.667 256.333M546.667 257.333L547.333 257.667L546.667 257.333M579 257L579 258L582 258L579 257z"/>
<path style="fill:#32a9e5; stroke:none;" d="M542 258L543 259L542 258z"/>
<path style="fill:#437cf3; stroke:none;" d="M543 258L544 259L543 258M584 258L585 259L584 258M540 259L541 260L540 259M587 259L588 260L587 259M537 260L538 261L537 260M589.667 260.333L590.333 260.667L589.667 260.333M535 261L536 262L535 261M592 261L593 262L592 261M533 262L534 263L533 262M531 263L532 264L531 263M529 264L530 265L529 264M527 265L528 266L527 265M524 267L525 268L524 267M521 269L522 270L521 269M520 270L521 271L520 270z"/>
<path style="fill:#f4db7a; stroke:none;" d="M422 272L423 273L422 272z"/>
<path style="fill:#437cf3; stroke:none;" d="M423 272L423 273L426 273L423 272z"/>
<path style="fill:#283040; stroke:none;" d="M426 272.769C412.32 273.378 413.415 294.424 427 293.852C440.817 293.269 439.672 272.161 426 272.769z"/>
<path style="fill:#437cf3; stroke:none;" d="M427 272L427 273L430 273L427 272z"/>
<path style="fill:#f4db7a; stroke:none;" d="M430 272L431 273L430 272M420 273L421 274L420 273z"/>
<path style="fill:#437cf3; stroke:none;" d="M421 273L422 274L421 273M431 273L432 274L431 273z"/>
<path style="fill:#f4db7a; stroke:none;" d="M432 273L433 274L432 273M419 274L420 275L419 274z"/>
<path style="fill:#437cf3; stroke:none;" d="M433 274L434 275L433 274M418 275L419 276L418 275M434 275L435 276L434 275M514 275L515 276L514 275z"/>
<path style="fill:#f4db7a; stroke:none;" d="M417 276L418 277L417 276z"/>
<path style="fill:#437cf3; stroke:none;" d="M435 276L436 277L435 276z"/>
<path style="fill:#32a9e5; stroke:none;" d="M513 276L514 277L513 276z"/>
<path style="fill:#f4db7a; stroke:none;" d="M307 277L307 278L311 278L307 277M436 277L437 278L436 277M304 278L305 279L304 278z"/>
<path style="fill:#437cf3; stroke:none;" d="M305 278L306 279L305 278z"/>
<path style="fill:#283040; stroke:none;" d="M306.004 278.657C292.678 282.725 298.664 303.065 311.996 299.181C325.385 295.281 319.264 274.608 306.004 278.657z"/>
<path style="fill:#437cf3; stroke:none;" d="M312 278L313 279L312 278z"/>
<path style="fill:#f4db7a; stroke:none;" d="M313 278L314 279L313 278z"/>
<path style="fill:#437cf3; stroke:none;" d="M416 278L417 279L416 278M436 278L437 279L436 278z"/>
<path style="fill:#f4db7a; stroke:none;" d="M302 279L303 280L302 279z"/>
<path style="fill:#437cf3; stroke:none;" d="M303 279L304 280L303 279z"/>
<path style="fill:#f4db7a; stroke:none;" d="M315 279L316 280L315 279M437 279L438 280L437 279M301 280L302 281L301 280M316 280L317 281L316 280M415.333 280.667L415.667 281.333L415.333 280.667z"/>
<path style="fill:#32a9e5; stroke:none;" d="M437 280L438 281L437 280z"/>
<path style="fill:#f4db7a; stroke:none;" d="M300 281L301 282L300 281M317 281L318 282L317 281z"/>
<path style="fill:#437cf3; stroke:none;" d="M437 281L437 286L438 286L437 281M509 281L510 282L509 281z"/>
<path style="fill:#f4db7a; stroke:none;" d="M299 282L300 283L299 282M318 282L319 283L318 282z"/>
<path style="fill:#437cf3; stroke:none;" d="M415.333 282.667L415.667 283.333L415.333 282.667M508 282L509 283L508 282M299 283L300 284L299 283M318 283L319 284L318 283z"/>
<path style="fill:#f4db7a; stroke:none;" d="M298 284L299 285L298 284M319 284L320 285L319 284z"/>
<path style="fill:#32a9e5; stroke:none;" d="M415 284L416 285L415 284z"/>
<path style="fill:#437cf3; stroke:none;" d="M298 285L299 286L298 285M319 285L320 286L319 285z"/>
<path style="fill:#f4db7a; stroke:none;" d="M415.333 285.667L415.667 286.333L415.333 285.667z"/>
<path style="fill:#437cf3; stroke:none;" d="M506 285L507 286L506 285z"/>
<path style="fill:#f4db7a; stroke:none;" d="M437 286L438 287L437 286z"/>
<path style="fill:#437cf3; stroke:none;" d="M505 286L506 287L505 286M21 287L20 289L21 287M416 287L417 288L416 287z"/>
<path style="fill:#f4db7a; stroke:none;" d="M297.333 288.667L297.667 289.333L297.333 288.667M320.333 288.667L320.667 289.333L320.333 288.667M416 288L417 289L416 288z"/>
<path style="fill:#32a9e5; stroke:none;" d="M436 288L437 289L436 288z"/>
<path style="fill:#437cf3; stroke:none;" d="M504 288L505 289L504 288M417 289L418 290L417 289z"/>
<path style="fill:#f4db7a; stroke:none;" d="M435 290L436 291L435 290M434 291L435 292L434 291z"/>
<path style="fill:#437cf3; stroke:none;" d="M502 291L503 292L502 291M298 292L299 293L298 292M319 292L320 293L319 292M420 292L421 293L420 292M432 292L433 293L432 292z"/>
<path style="fill:#f4db7a; stroke:none;" d="M298 293L299 294L298 293M319 293L320 294L319 293M421 293L422 294L421 293z"/>
<path style="fill:#437cf3; stroke:none;" d="M422 293L423 294L422 293M430 293L431 294L430 293z"/>
<path style="fill:#f4db7a; stroke:none;" d="M431 293L432 294L431 293z"/>
<path style="fill:#437cf3; stroke:none;" d="M501 293L502 294L501 293M299 294L300 295L299 294M318 294L319 295L318 294z"/>
<path style="fill:#f4db7a; stroke:none;" d="M424 294L424 295L429 295L424 294z"/>
<path style="fill:#437cf3; stroke:none;" d="M500 295L501 296L500 295z"/>
<path style="fill:#f4db7a; stroke:none;" d="M300 296L301 297L300 296M317 296L318 297L317 296z"/>
<path style="fill:#437cf3; stroke:none;" d="M15 297L16 298L15 297z"/>
<path style="fill:#f4db7a; stroke:none;" d="M301 297L302 298L301 297M316 297L317 298L316 297z"/>
<path style="fill:#437cf3; stroke:none;" d="M499 297L500 298L499 297M303 298L304 299L303 298M314 298L315 299L314 298M305.667 299.333L306.333 299.667L305.667 299.333M311.667 299.333L312.333 299.667L311.667 299.333z"/>
<path style="fill:#f4db7a; stroke:none;" d="M313 299L314 300L313 299z"/>
<path style="fill:#437cf3; stroke:none;" d="M498 300L499 301L498 300M576 301L577 302L576 301M599 301L600 302L599 301z"/>
<path style="fill:#32a9e5; stroke:none;" d="M497 302L498 303L497 302z"/>
<path style="fill:#f4db7a; stroke:none;" d="M574 302L575 303L574 302z"/>
<path style="fill:#fafbfb; stroke:none;" d="M578 350L578 302C570.688 303.303 554.304 309.921 550.179 316.39C539.02 333.891 564.365 347.57 578 350z"/>
<path style="fill:#437cf3; stroke:none;" d="M578 302L579 303L578 302z"/>
<path style="fill:#f4db7a; stroke:none;" d="M597 302L598 303L597 302z"/>
<path style="fill:#fafbfb; stroke:none;" d="M591 310C595.818 309.071 600.116 307.152 601 302C596.182 302.929 591.884 304.848 591 310z"/>
<path style="fill:#437cf3; stroke:none;" d="M601 302L602 303L601 302M497 303L498 304L497 303z"/>
<path style="fill:#f4db7a; stroke:none;" d="M572 303L573 304L572 303M578 303L578 349L579 349C579 335.997 583.01 314.939 578 303z"/>
<path style="fill:#437cf3; stroke:none;" d="M595 303L596 304L595 303z"/>
<path style="fill:#f4db7a; stroke:none;" d="M601.333 303.667L601.667 304.333L601.333 303.667M570 304L571 305L570 304z"/>
<path style="fill:#437cf3; stroke:none;" d="M593 304L594 305L593 304z"/>
<path style="fill:#f4db7a; stroke:none;" d="M594 304L595 305L594 304z"/>
<path style="fill:#32a9e5; stroke:none;" d="M568 305L569 306L568 305z"/>
<path style="fill:#f4db7a; stroke:none;" d="M592 305L593 306L592 305z"/>
<path style="fill:#437cf3; stroke:none;" d="M601 305L602 306L601 305M496 306L497 307L496 306M566 306L567 307L566 306z"/>
<path style="fill:#f4db7a; stroke:none;" d="M599 306L600 307L599 306z"/>
<path style="fill:#437cf3; stroke:none;" d="M564 307L565 308L564 307z"/>
<path style="fill:#f4db7a; stroke:none;" d="M590.333 307.667L590.667 308.333L590.333 307.667M597 307L598 308L597 307z"/>
<path style="fill:#437cf3; stroke:none;" d="M598 307L599 308L598 307M562 308L563 309L562 308M596 308L597 309L596 308M495 309L495 312L496 312L495 309M560 309L561 310L560 309M590 309L591 310L590 309z"/>
<path style="fill:#32a9e5; stroke:none;" d="M594 309L595 310L594 309z"/>
<path style="fill:#437cf3; stroke:none;" d="M558 310L559 311L558 310M592 310L593 311L592 310M556 311L557 312L556 311z"/>
<path style="fill:#f4db7a; stroke:none;" d="M557 311L558 312L557 311z"/>
<path style="fill:#437cf3; stroke:none;" d="M554 312L555 313L554 312z"/>
<path style="fill:#f4db7a; stroke:none;" d="M555 312L556 313L555 312z"/>
<path style="fill:#437cf3; stroke:none;" d="M552 313L553 314L552 313z"/>
<path style="fill:#f4db7a; stroke:none;" d="M553 313L554 314L553 313z"/>
<path style="fill:#437cf3; stroke:none;" d="M550 314L551 315L550 314z"/>
<path style="fill:#f4db7a; stroke:none;" d="M551 314L552 315L551 314z"/>
<path style="fill:#437cf3; stroke:none;" d="M494 315L494 319L495 319L494 315M549 315L550 316L549 315M526 316L527 317L526 316z"/>
<path style="fill:#f4db7a; stroke:none;" d="M527 316L527 317L538 317L527 316z"/>
<path style="fill:#437cf3; stroke:none;" d="M538 316L539 331L540 331L538 316z"/>
<path style="fill:#f4db7a; stroke:none;" d="M549 316L550 317L549 316M525 317L526 318L525 317z"/>
<path style="fill:#fafbfb; stroke:none;" d="M533 334C533 339.251 531.914 345.861 533.318 350.938C533.851 352.866 536.045 355.33 537.977 353.199C539.965 351.006 539 345.71 539 343L539 317C535.643 317 529.389 315.821 526.603 318.028C519.838 323.386 526.008 333.917 533 334z"/>
<path style="fill:#437cf3; stroke:none;" d="M524.333 318.667L524.667 319.333L524.333 318.667z"/>
<path style="fill:#f4db7a; stroke:none;" d="M524 320L524 331L525 331L524 320z"/>
<path style="fill:#437cf3; stroke:none;" d="M144 322L145 323L144 322M595 322L594 324L595 322z"/>
<path style="fill:#fafbfb; stroke:none;" d="M595 326L607 326C605.171 320.489 596.829 320.49 595 326z"/>
<path style="fill:#32a9e5; stroke:none;" d="M606 322L607 323L606 322z"/>
<path style="fill:#437cf3; stroke:none;" d="M607 323L608 324L607 323M145 324L151 333L145 324z"/>
<path style="fill:#f4db7a; stroke:none;" d="M594 324L595 325L594 324M607 324L608 325L607 324z"/>
<path style="fill:#437cf3; stroke:none;" d="M594 325L595 326L594 325M607 325L608 326L607 325M595 326L596 327L595 326z"/>
<path style="fill:#f4db7a; stroke:none;" d="M596 326L596 327L606 327L596 326z"/>
<path style="fill:#437cf3; stroke:none;" d="M606 326L607 327L606 326z"/>
<path style="fill:#32a9e5; stroke:none;" d="M524 331L525 332L524 331M539 331L540 332L539 331z"/>
<path style="fill:#437cf3; stroke:none;" d="M494 332L494 336L495 336L494 332M524 332L525 333L524 332z"/>
<path style="fill:#f4db7a; stroke:none;" d="M539 332L540 333L539 332z"/>
<path style="fill:#437cf3; stroke:none;" d="M227 333L225 336C227.251 335.527 228.118 335.14 227 333z"/>
<path style="fill:#f4db7a; stroke:none;" d="M525 333L526 334L525 333z"/>
<path style="fill:#437cf3; stroke:none;" d="M539 333L539 353L540 353L539 333M526 334L527 335L526 334z"/>
<path style="fill:#f4db7a; stroke:none;" d="M527 334L527 335L533 335L527 334z"/>
<path style="fill:#437cf3; stroke:none;" d="M151 335L152 336L151 335z"/>
<path style="fill:#f4db7a; stroke:none;" d="M549 335L550 336L549 335z"/>
<path style="fill:#437cf3; stroke:none;" d="M549 336L550 337L549 336z"/>
<path style="fill:#f4db7a; stroke:none;" d="M551 337L552 338L551 337z"/>
<path style="fill:#437cf3; stroke:none;" d="M592 337L593 338L592 337M552 338L553 339L552 338z"/>
<path style="fill:#f4db7a; stroke:none;" d="M553 338L554 339L553 338z"/>
<path style="fill:#fafbfb; stroke:none;" d="M591 338C591.884 343.152 596.182 345.071 601 346C600.107 340.718 595.945 338.893 591 338z"/>
<path style="fill:#f4db7a; stroke:none;" d="M594 338L595 339L594 338z"/>
<path style="fill:#437cf3; stroke:none;" d="M495.333 339.667L495.667 340.333L495.333 339.667M554 339L555 340L554 339z"/>
<path style="fill:#f4db7a; stroke:none;" d="M555 339L556 340L555 339M590.333 339.667L590.667 340.333L590.333 339.667z"/>
<path style="fill:#437cf3; stroke:none;" d="M596 339L597 340L596 339M556 340L557 341L556 340z"/>
<path style="fill:#f4db7a; stroke:none;" d="M557 340L558 341L557 340z"/>
<path style="fill:#437cf3; stroke:none;" d="M598 340L599 341L598 340z"/>
<path style="fill:#32a9e5; stroke:none;" d="M495 341L496 342L495 341z"/>
<path style="fill:#437cf3; stroke:none;" d="M558 341L559 342L558 341z"/>
<path style="fill:#f4db7a; stroke:none;" d="M559 341L560 342L559 341M599 341L600 342L599 341z"/>
<path style="fill:#437cf3; stroke:none;" d="M560 342L561 343L560 342z"/>
<path style="fill:#f4db7a; stroke:none;" d="M561 342L562 343L561 342M592 342L593 343L592 342z"/>
<path style="fill:#437cf3; stroke:none;" d="M601 342L602 343L601 342M562 343L563 344L562 343M593 343L594 344L593 343z"/>
<path style="fill:#f4db7a; stroke:none;" d="M594 343L595 344L594 343M601.333 343.667L601.667 344.333L601.333 343.667z"/>
<path style="fill:#437cf3; stroke:none;" d="M496 344L497 345L496 344M564 344L565 345L564 344M595 344L596 345L595 344M566 345L567 346L566 345z"/>
<path style="fill:#32a9e5; stroke:none;" d="M597 345L598 346L597 345z"/>
<path style="fill:#437cf3; stroke:none;" d="M568 346L569 347L568 346M599 346L600 347L599 346M497 347L498 348L497 347M570 347L571 348L570 347z"/>
<path style="fill:#32a9e5; stroke:none;" d="M572 348L573 349L572 348M574 349L575 350L574 349z"/>
<path style="fill:#437cf3; stroke:none;" d="M578 349L579 350L578 349M498 350L499 351L498 350M576 350L577 351L576 350z"/>
<path style="fill:#f4db7a; stroke:none;" d="M231 351L232 352L231 351z"/>
<path style="fill:#32a9e5; stroke:none;" d="M231 352L232 353L231 352z"/>
<path style="fill:#437cf3; stroke:none;" d="M499 352L500 353L499 352z"/>
<path style="fill:#32a9e5; stroke:none;" d="M145 385C155.109 377.879 170.757 364.243 176 353C152.715 353.013 145 362.11 145 385z"/>
<path style="fill:#f4db7a; stroke:none;" d="M533 353L534 354L533 353M232 354L233 355L232 354z"/>
<path style="fill:#437cf3; stroke:none;" d="M500 354L501 355L500 354z"/>
<path style="fill:#f4db7a; stroke:none;" d="M534 354L535 355L534 354M537 354L538 355L537 354z"/>
<path style="fill:#32a9e5; stroke:none;" d="M232 355L233 356L232 355M233 357L234 358L233 357M501 357L502 358L501 357M234 359L235 360L234 359M235 360L236 361L235 360z"/>
<path style="fill:#437cf3; stroke:none;" d="M503 360L504 361L503 360M504 362L505 363L504 362z"/>
<path style="fill:#32a9e5; stroke:none;" d="M237 363L238 364L237 363z"/>
<path style="fill:#437cf3; stroke:none;" d="M505 363L506 364L505 363z"/>
<path style="fill:#32a9e5; stroke:none;" d="M238 364L239 365L238 364M239 365L240 366L239 365z"/>
<path style="fill:#437cf3; stroke:none;" d="M506 365L507 366L506 365M507 366L508 367L507 366z"/>
<path style="fill:#f4db7a; stroke:none;" d="M242 367L243 368L242 367z"/>
<path style="fill:#32a9e5; stroke:none;" d="M243 368L244 369L243 368M245 369L246 370L245 369M247 370L248 371L247 370M249 371L250 372L249 371z"/>
<path style="fill:#f4db7a; stroke:none;" d="M250 371L251 372L250 371z"/>
<path style="fill:#32a9e5; stroke:none;" d="M252 372L252 373L255 373L252 372z"/>
<path style="fill:#f4db7a; stroke:none;" d="M255 372L256 373L255 372z"/>
<path style="fill:#32a9e5; stroke:none;" d="M762 377L763 378L762 377z"/>
<path style="fill:#f4db7a; stroke:none;" d="M762 378L763 383L764 383L762 378z"/>
<path style="fill:#fafbfb; stroke:none;" d="M762 382C761.298 398.111 749.443 413.467 735 420.099C729.894 422.443 719.404 422.103 716 426C733.896 422.666 748.803 417.086 758.1 400C760.823 394.994 764.284 387.599 762 382z"/>
<path style="fill:#32a9e5; stroke:none;" d="M763 383L764 384L763 383M761 386L762 387L761 386z"/>
<path style="fill:#f4db7a; stroke:none;" d="M761 387L762 388L761 387M762 388L763 389L762 388M760 391L761 392L760 391z"/>
<path style="fill:#32a9e5; stroke:none;" d="M759 393L760 394L759 393z"/>
<path style="fill:#f4db7a; stroke:none;" d="M760 394L761 395L760 394M758 396L759 397L758 396M757 398L758 399L757 398z"/>
<path style="fill:#32a9e5; stroke:none;" d="M758 399L759 400L758 399z"/>
<path style="fill:#f4db7a; stroke:none;" d="M756 400L757 401L756 400M756 402L757 403L756 402z"/>
<path style="fill:#32a9e5; stroke:none;" d="M64 403L64 404L74 404L64 403M754 403L755 404L754 403M755 404L756 405L755 404z"/>
<path style="fill:#f4db7a; stroke:none;" d="M754 405L755 406L754 405M752 406L753 407L752 406z"/>
<path style="fill:#32a9e5; stroke:none;" d="M751 407L752 408L751 407M752 408L753 409L752 408z"/>
<path style="fill:#f4db7a; stroke:none;" d="M751 409L752 410L751 409M750 410L751 411L750 410M749 411L750 412L749 411M748 412L749 413L748 412z"/>
<path style="fill:#32a9e5; stroke:none;" d="M24 450L134 450C134 439.843 136.264 425.957 127.815 418.39C121.733 412.945 112.669 413 105 413C87.3836 413 69.687 414 52 414C43.8258 414 35.6344 413.023 29.3287 419.329C21.5425 427.115 24 439.967 24 450M745 413L746 414L745 413z"/>
<path style="fill:#f4db7a; stroke:none;" d="M747 413L748 414L747 413M744 414L745 415L744 414z"/>
<path style="fill:#32a9e5; stroke:none;" d="M746 414L747 415L746 414M741 416L742 417L741 416z"/>
<path style="fill:#f4db7a; stroke:none;" d="M743 416L744 417L743 416z"/>
<path style="fill:#32a9e5; stroke:none;" d="M663 417L664 418L663 417z"/>
<path style="fill:#f4db7a; stroke:none;" d="M664.015 417.746C653.665 421.679 659.944 436.281 669.956 432.257C679.318 428.494 673.498 414.143 664.015 417.746z"/>
<path style="fill:#32a9e5; stroke:none;" d="M742 417L743 418L742 417z"/>
<path style="fill:#f4db7a; stroke:none;" d="M738 418L739 419L738 418M740 418L741 419L740 418z"/>
<path style="fill:#32a9e5; stroke:none;" d="M660 419L661 420L660 419z"/>
<path style="fill:#f4db7a; stroke:none;" d="M736 419L737 420L736 419M734 420L735 421L734 420z"/>
<path style="fill:#32a9e5; stroke:none;" d="M731 421L732 422L731 421M728 422L729 423L728 422z"/>
<path style="fill:#f4db7a; stroke:none;" d="M732 422L733 423L732 422z"/>
<path style="fill:#32a9e5; stroke:none;" d="M724 423L725 424L724 423z"/>
<path style="fill:#f4db7a; stroke:none;" d="M729 423L730 424L729 423z"/>
<path style="fill:#fafbfb; stroke:none;" d="M675 424L675 426L714 426L714 424L675 424z"/>
<path style="fill:#f4db7a; stroke:none;" d="M714 424L714 426L716 426L716 424L714 424M725 424L726 425L725 424z"/>
<path style="fill:#32a9e5; stroke:none;" d="M726 424L727 425L726 424z"/>
<path style="fill:#f4db7a; stroke:none;" d="M718 425L718 426L721 426L718 425z"/>
</svg>
