<?xml version="1.0" standalone="yes"?>
<svg xmlns="http://www.w3.org/2000/svg" width="800" height="450">
<path style="fill:#f7f8fb; stroke:none;" d="M0 0L0 142L144 142C148.44 129.056 165.535 136.213 159.254 145.956C152.671 156.167 148.231 145.19 141.791 143.318C135.983 141.629 128.03 143 122 143L0 143L0 450L800 450L800 0L0 0z"/>
<path style="fill:#b6caee; stroke:none;" d="M705 27L705 28L710 28L705 27M703 28L704 29L703 28z"/>
<path style="fill:#3453bc; stroke:none;" d="M704 28L705 29L704 28z"/>
<path style="fill:#21346c; stroke:none;" d="M705.044 28.7577C696.247 32.0493 700.875 46.5809 709.981 43.2423C718.884 39.978 714.071 25.3799 705.044 28.7577z"/>
<path style="fill:#3453bc; stroke:none;" d="M710 28L711 29L710 28z"/>
<path style="fill:#b6caee; stroke:none;" d="M711 28L712 29L711 28z"/>
<path style="fill:#7286ba; stroke:none;" d="M702 29L703 30L702 29M712 29L713 30L712 29M701 30L702 31L701 30M713 30L714 31L713 30z"/>
<path style="fill:#b6caee; stroke:none;" d="M700 31L701 32L700 31M714 31L715 32L714 31z"/>
<path style="fill:#3453bc; stroke:none;" d="M700 32L701 33L700 32M714 32L715 33L714 32z"/>
<path style="fill:#b6caee; stroke:none;" d="M699 33L700 34L699 33M715 33L716 34L715 33z"/>
<path style="fill:#7286ba; stroke:none;" d="M699 34L699 38L700 38L699 34M715 34L715 38L716 38L718 35L715 34z"/>
<path style="fill:#b6caee; stroke:none;" d="M716 36L716 37L723 36L716 36z"/>
<path style="fill:#7286ba; stroke:none;" d="M721 36L721 37L726 37L721 36z"/>
<path style="fill:#b6caee; stroke:none;" d="M724 37L724 38L728 37L724 37z"/>
<path style="fill:#7286ba; stroke:none;" d="M727 37L727 38C741.358 41.4104 753.36 52.5242 759 66L760 66C755.942 51.9411 741.515 39.1757 727 37z"/>
<path style="fill:#b6caee; stroke:none;" d="M730 37L731 38L730 37M699 38L700 39L699 38M715 38L716 39L715 38M728.667 38.3333L729.333 38.6667L728.667 38.3333M733 38L734 39L733 38z"/>
<path style="fill:#3453bc; stroke:none;" d="M700 39L701 40L700 39z"/>
<path style="fill:#b6caee; stroke:none;" d="M731.667 39.3333L732.333 39.6667L731.667 39.3333M735 39L736 40L735 39M700 40L701 41L700 40M714 40L715 41L714 40M734 40L735 41L734 40M737 40L738 41L737 40z"/>
<path style="fill:#7286ba; stroke:none;" d="M701 41L702 42L701 41M713 41L714 42L713 41z"/>
<path style="fill:#b6caee; stroke:none;" d="M736 41L737 42L736 41M739 41L740 42L739 41z"/>
<path style="fill:#7286ba; stroke:none;" d="M702 42L703 43L702 42M712 42L713 43L712 42z"/>
<path style="fill:#b6caee; stroke:none;" d="M738 42L739 43L738 42M703 43L704 44L703 43z"/>
<path style="fill:#3453bc; stroke:none;" d="M704 43L705 44L704 43M710 43L711 44L710 43z"/>
<path style="fill:#b6caee; stroke:none;" d="M711 43L712 44L711 43M740 43L741 44L740 43M742 43L743 44L742 43M705 44L705 45L710 45L705 44M741 44L742 45L741 44M743 45L744 46L743 45M745 45L746 46L745 45M744 46L745 47L744 46M746 46L747 47L746 46M745 47L746 48L745 47M747 47L748 48L747 47M748 48L749 49L748 48M750 50L751 51L750 50M751 51L752 52L751 51M752 52L753 53L752 52M751 53L752 54L751 53M753 53L754 54L753 53M752 54L753 55L752 54M753 55L754 56L753 55M755 56L756 57L755 56M754 57L755 58L754 57M755 58L756 59L755 58M757 59L758 60L757 59M756 60L757 61L756 60M758 61L759 62L758 61M757 62L758 63L757 62M759 63L760 64L759 63M758 64L759 65L758 64M760 65L759 68L760 65M376 144C376 127.358 373.531 112.25 364.301 98C356.894 86.5647 345.587 77.5518 333 72.4529C321.649 67.8549 310.024 66.9276 298 68C253.065 72.0075 226.503 121.345 242.065 162C251.243 185.977 283.651 213.924 311.856 205.682C317.583 204.009 322.777 185.224 326.438 180C337.758 163.846 355.816 147.473 376 144M422 142C440.517 151.92 457.052 156.486 470.996 174C476.336 180.707 480.748 188.112 484.127 196C485.545 199.309 486.149 204.535 490.133 205.682C520.805 214.515 553.512 180.243 560.105 154C572.093 106.282 532.667 63.8069 485 68C470.903 69.2401 457.829 75.5062 447.001 84.4637C436.436 93.203 428.793 106.732 425.654 120C424.111 126.526 425.964 136.767 422 142z"/>
<path style="fill:#7286ba; stroke:none;" d="M760 67L761 73L762 73L760 67z"/>
<path style="fill:#b6caee; stroke:none;" d="M761 68L762 69L761 68M760.333 69.6667L760.667 70.3333L760.333 69.6667M762 71L761 75L762 75L762 71z"/>
<path style="fill:#7286ba; stroke:none;" d="M762 74L762 78L763 78L762 74z"/>
<path style="fill:#b6caee; stroke:none;" d="M763 76L762 118L762 201L763 201L763 112L763 76z"/>
<path style="fill:#7286ba; stroke:none;" d="M763 82L764 83L763 82M763 84L763 169C763 177.412 766.161 194.188 761 201L761 202L765 202L764 171L764 115L763 84M308 103L309 104L308 103z"/>
<path style="fill:#3453bc; stroke:none;" d="M309.667 103.333L310.333 103.667L309.667 103.333z"/>
<path style="fill:#7286ba; stroke:none;" d="M311 103L313 107L314 107L311 103z"/>
<path style="fill:#3453bc; stroke:none;" d="M307 104L308 105L307 104z"/>
<path style="fill:#21346c; stroke:none;" d="M313 165C325.174 163.929 333.998 149.504 324.606 139.214C319.808 133.957 312.209 134.119 306.001 131.74C302.831 130.525 299.09 127.875 299.466 124.003C300.251 115.91 313.856 115.077 318.701 119.43C320.629 121.162 322.271 126.136 325.701 124.593C329.229 123.006 327.588 117.531 325.991 115.185C322.912 110.663 318.017 110.045 313 110C312.071 98.0723 291.986 115.963 291.391 124C290.39 137.533 303.643 138.4 312.999 141.765C317.504 143.385 322.481 147.678 319.667 152.892C316.499 158.761 306.082 159.591 301.274 155.487C299.245 153.755 295.199 145.959 292.117 151.323C287.129 160.004 311.397 174.604 313 165z"/>
<path style="fill:#7286ba; stroke:none;" d="M480 104L479 106L480 104z"/>
<path style="fill:#3453bc; stroke:none;" d="M481.667 104.333L482.333 104.667L481.667 104.333z"/>
<path style="fill:#7286ba; stroke:none;" d="M483 104L483 105L486 105L483 104M306 105L307 106L306 105z"/>
<path style="fill:#21346c; stroke:none;" d="M480 105C480.501 111.643 486.637 114.041 487.968 120C489.444 126.604 482.619 133.444 476 130.802C470.473 128.596 468.469 123.488 462 123C462.083 132.276 466.525 140.462 476 143.072C480.272 144.248 485.19 143.016 489 145.523C496.1 150.195 500.722 160.31 509 163.066C515.721 165.304 520.847 159.411 519.768 153C518.067 142.899 504.787 139.093 501.313 130C500.134 126.914 501.214 123.238 500.471 120C498.129 109.801 489.779 105.082 480 105z"/>
<path style="fill:#3453bc; stroke:none;" d="M487 105L488 106L487 105z"/>
<path style="fill:#7286ba; stroke:none;" d="M488 105L489 106L488 105z"/>
<path style="fill:#3453bc; stroke:none;" d="M306 106L306 109L307 109L306 106M479 106L479 109L480 109L479 106z"/>
<path style="fill:#7286ba; stroke:none;" d="M490 106L491 107L490 106z"/>
<path style="fill:#3453bc; stroke:none;" d="M313 107L313 110L314 110L313 107z"/>
<path style="fill:#7286ba; stroke:none;" d="M492 107L493 108L492 107z"/>
<path style="fill:#3453bc; stroke:none;" d="M493 108L494 109L493 108z"/>
<path style="fill:#7286ba; stroke:none;" d="M303 109L303 110L306 110L303 109M314 109L314 110L319 110L314 109z"/>
<path style="fill:#3453bc; stroke:none;" d="M494 109L495 110L494 109z"/>
<path style="fill:#7286ba; stroke:none;" d="M300 110L301 111L300 110z"/>
<path style="fill:#3453bc; stroke:none;" d="M301 110L302 111L301 110z"/>
<path style="fill:#7286ba; stroke:none;" d="M320 110L321 111L320 110M480 110L481 111L480 110z"/>
<path style="fill:#3453bc; stroke:none;" d="M495 110L496 111L495 110z"/>
<path style="fill:#7286ba; stroke:none;" d="M298 111L299 112L298 111z"/>
<path style="fill:#3453bc; stroke:none;" d="M322 111L323 112L322 111z"/>
<path style="fill:#7286ba; stroke:none;" d="M481 111L482 112L481 111z"/>
<path style="fill:#3453bc; stroke:none;" d="M496 111L497 112L496 111z"/>
<path style="fill:#7286ba; stroke:none;" d="M296 112L297 113L296 112z"/>
<path style="fill:#3453bc; stroke:none;" d="M297 112L298 113L297 112M323 112L324 113L323 112z"/>
<path style="fill:#7286ba; stroke:none;" d="M482 112L483 113L482 112M497 112L498 113L497 112M295 113L296 114L295 113M325 113L326 114L325 113M483 113L484 114L483 113M498 113L499 114L498 113M294 114L295 115L294 114M484 114L485 115L484 114z"/>
<path style="fill:#3453bc; stroke:none;" d="M498 114L499 115L498 114M326 115L327 116L326 115z"/>
<path style="fill:#7286ba; stroke:none;" d="M485 115L486 116L485 115M499 115L500 116L499 115z"/>
<path style="fill:#3453bc; stroke:none;" d="M293 116L294 117L293 116z"/>
<path style="fill:#7286ba; stroke:none;" d="M327 116L328 117L327 116M486 116L487 117L486 116z"/>
<path style="fill:#3453bc; stroke:none;" d="M499 116L500 117L499 116z"/>
<path style="fill:#7286ba; stroke:none;" d="M292 117L293 118L292 117z"/>
<path style="fill:#3453bc; stroke:none;" d="M304 117L305 118L304 117z"/>
<path style="fill:#7286ba; stroke:none;" d="M305 117L305 118L316 118L305 117z"/>
<path style="fill:#3453bc; stroke:none;" d="M316 117L317 118L316 117M327 117L328 118L327 117z"/>
<path style="fill:#7286ba; stroke:none;" d="M487 117L488 118L487 117M500.333 117.667L500.667 118.333L500.333 117.667z"/>
<path style="fill:#3453bc; stroke:none;" d="M292 118L293 119L292 118M302 118L303 119L302 118z"/>
<path style="fill:#7286ba; stroke:none;" d="M318 118L319 119L318 118z"/>
<path style="fill:#3453bc; stroke:none;" d="M488 118L488 121L489 121L488 118z"/>
<path style="fill:#7286ba; stroke:none;" d="M291.333 119.667L291.667 120.333L291.333 119.667M301 119L302 120L301 119M319 119L320 120L319 119M328 119L329 120L328 119z"/>
<path style="fill:#3453bc; stroke:none;" d="M500 119L501 120L500 119z"/>
<path style="fill:#7286ba; stroke:none;" d="M300 120L301 121L300 120z"/>
<path style="fill:#3453bc; stroke:none;" d="M320 120L321 121L320 120M328 120L328 123L329 123L328 120M291.333 121.667L291.667 122.333L291.333 121.667M299 121L300 122L299 121z"/>
<path style="fill:#7286ba; stroke:none;" d="M320.333 121.667L320.667 122.333L320.333 121.667M299.333 122.667L299.667 123.333L299.333 122.667M462 122L463 123L462 122z"/>
<path style="fill:#3453bc; stroke:none;" d="M463.667 122.333L464.333 122.667L463.667 122.333z"/>
<path style="fill:#7286ba; stroke:none;" d="M465 122L466 123L465 122M501 122L501 127L502 127L501 122M328 123L329 124L328 123M467 123L468 124L467 123M487 123L487 126L488 126L487 123M290 124L291 125L290 124M321 124L322 125L321 124z"/>
<path style="fill:#3453bc; stroke:none;" d="M327 124L328 125L327 124z"/>
<path style="fill:#7286ba; stroke:none;" d="M461 124L462 125L461 124M468 124L469 125L468 124M299.333 125.667L299.667 126.333L299.333 125.667M322 125L323 126L322 125z"/>
<path style="fill:#3453bc; stroke:none;" d="M323 125L324 126L323 125M325.667 125.333L326.333 125.667L325.667 125.333M461 125L462 126L461 125z"/>
<path style="fill:#7286ba; stroke:none;" d="M469 125L470 126L469 125M461 126L461 129L462 129L461 126M470 126L471 127L470 126z"/>
<path style="fill:#3453bc; stroke:none;" d="M487 126L488 127L487 126M291.333 127.667L291.667 128.333L291.333 127.667M299 127L300 128L299 127z"/>
<path style="fill:#7286ba; stroke:none;" d="M471 127L472 128L471 127M300 128L301 129L300 128M472 128L473 129L472 128M486 128L487 129L486 128z"/>
<path style="fill:#3453bc; stroke:none;" d="M500 128L500 131L501 131L500 128z"/>
<path style="fill:#7286ba; stroke:none;" d="M291 129L292 130L291 129M301 129L302 130L301 129M473 129L474 130L473 129M485 129L486 130L485 129M302 130L303 131L302 130M462.333 130.667L462.667 131.333L462.333 130.667M474 130L475 131L474 130M480 130L480 131L483 131L480 130z"/>
<path style="fill:#3453bc; stroke:none;" d="M483 130L484 131L483 130z"/>
<path style="fill:#7286ba; stroke:none;" d="M292 131L293 132L292 131z"/>
<path style="fill:#3453bc; stroke:none;" d="M304 131L305 132L304 131z"/>
<path style="fill:#7286ba; stroke:none;" d="M305 131L306 132L305 131z"/>
<path style="fill:#3453bc; stroke:none;" d="M475 131L475 132L479 132L475 131M501 131L502 132L501 131M308 132L309 133L308 132z"/>
<path style="fill:#7286ba; stroke:none;" d="M309.667 132.333L310.333 132.667L309.667 132.333z"/>
<path style="fill:#3453bc; stroke:none;" d="M463 132L464 133L463 132M502 132L503 133L502 132z"/>
<path style="fill:#b6caee; stroke:none;" d="M151 133L151 134L154 134L151 133z"/>
<path style="fill:#7286ba; stroke:none;" d="M293 133L294 134L293 133z"/>
<path style="fill:#3453bc; stroke:none;" d="M312 133L313 134L312 133z"/>
<path style="fill:#7286ba; stroke:none;" d="M313.667 133.333L314.333 133.667L313.667 133.333M463 133L464 134L463 133z"/>
<path style="fill:#3453bc; stroke:none;" d="M503 133L504 134L503 133z"/>
<path style="fill:#7286ba; stroke:none;" d="M149 134L150 135L149 134z"/>
<path style="fill:#3453bc; stroke:none;" d="M150 134L151 135L150 134z"/>
<path style="fill:#21346c; stroke:none;" d="M151.015 134.667C141.721 136.585 144.5 151.671 153.995 149.663C163.297 147.696 160.483 132.712 151.015 134.667z"/>
<path style="fill:#3453bc; stroke:none;" d="M154 134L155 135L154 134z"/>
<path style="fill:#7286ba; stroke:none;" d="M155 134L156 135L155 134M294 134L295 135L294 134z"/>
<path style="fill:#3453bc; stroke:none;" d="M316 134L317 135L316 134z"/>
<path style="fill:#7286ba; stroke:none;" d="M317.667 134.333L318.333 134.667L317.667 134.333z"/>
<path style="fill:#3453bc; stroke:none;" d="M464 134L465 135L464 134M504 134L505 135L504 134z"/>
<path style="fill:#b6caee; stroke:none;" d="M147 135L148 136L147 135M157 135L158 136L157 135z"/>
<path style="fill:#7286ba; stroke:none;" d="M295 135L296 136L295 135z"/>
<path style="fill:#3453bc; stroke:none;" d="M319 135L320 136L319 135z"/>
<path style="fill:#7286ba; stroke:none;" d="M320 135L321 136L320 135M464 135L465 136L464 135z"/>
<path style="fill:#3453bc; stroke:none;" d="M505 135L506 136L505 135z"/>
<path style="fill:#b6caee; stroke:none;" d="M146 136L147 137L146 136z"/>
<path style="fill:#7286ba; stroke:none;" d="M158 136L159 137L158 136M296 136L297 137L296 136z"/>
<path style="fill:#3453bc; stroke:none;" d="M321 136L322 137L321 136z"/>
<path style="fill:#7286ba; stroke:none;" d="M322 136L323 137L322 136M465 136L466 137L465 136z"/>
<path style="fill:#3453bc; stroke:none;" d="M506 136L507 137L506 136z"/>
<path style="fill:#b6caee; stroke:none;" d="M145 137L146 138L145 137M159 137L160 138L159 137z"/>
<path style="fill:#7286ba; stroke:none;" d="M297 137L298 138L297 137z"/>
<path style="fill:#3453bc; stroke:none;" d="M298 137L299 138L298 137z"/>
<path style="fill:#7286ba; stroke:none;" d="M323 137L324 138L323 137z"/>
<path style="fill:#3453bc; stroke:none;" d="M466 137L467 138L466 137z"/>
<path style="fill:#7286ba; stroke:none;" d="M507 137L508 138L507 137M145 138L146 139L145 138z"/>
<path style="fill:#3453bc; stroke:none;" d="M159 138L160 139L159 138z"/>
<path style="fill:#7286ba; stroke:none;" d="M299 138L300 139L299 138z"/>
<path style="fill:#3453bc; stroke:none;" d="M300 138L301 139L300 138z"/>
<path style="fill:#7286ba; stroke:none;" d="M324 138L325 139L324 138z"/>
<path style="fill:#3453bc; stroke:none;" d="M467 138L468 139L467 138z"/>
<path style="fill:#7286ba; stroke:none;" d="M508 138L509 139L508 138z"/>
<path style="fill:#b6caee; stroke:none;" d="M144.333 139.667L144.667 140.333L144.333 139.667M160 139L161 140L160 139z"/>
<path style="fill:#7286ba; stroke:none;" d="M301.667 139.333L302.333 139.667L301.667 139.333z"/>
<path style="fill:#3453bc; stroke:none;" d="M303 139L304 140L303 139z"/>
<path style="fill:#7286ba; stroke:none;" d="M325 139L326 140L325 139z"/>
<path style="fill:#3453bc; stroke:none;" d="M468 139L469 140L468 139z"/>
<path style="fill:#7286ba; stroke:none;" d="M509 139L510 140L509 139M160 140L160 144L161 144L160 140M305.667 140.333L306.333 140.667L305.667 140.333z"/>
<path style="fill:#3453bc; stroke:none;" d="M307.667 140.333L308.333 140.667L307.667 140.333z"/>
<path style="fill:#b6caee; stroke:none;" d="M389 140L389 141L392 141L389 140z"/>
<path style="fill:#7286ba; stroke:none;" d="M392 140L392 141L396 141L392 140z"/>
<path style="fill:#3453bc; stroke:none;" d="M396 140.424C375.96 143.062 357.476 148.36 342 162.174C288.943 209.53 309.85 300.467 380 317.116C391.362 319.812 402.468 320.35 414 318.715C453.095 313.169 485.981 280.772 489.83 241C494.84 189.229 452.18 133.03 396 140.424z"/>
<path style="fill:#7286ba; stroke:none;" d="M406 140L406 141L410 141L406 140z"/>
<path style="fill:#b6caee; stroke:none;" d="M410 140L410 141L414 141L410 140z"/>
<path style="fill:#7286ba; stroke:none;" d="M469 140L470 141L469 140M510 140L511 141L510 140M144 141C130.132 145.099 111.465 142 97 142L0 142L0 143L96 143L145 144L144 141M310 141L311 142L310 141z"/>
<path style="fill:#3453bc; stroke:none;" d="M311.667 141.333L312.333 141.667L311.667 141.333M326 141L327 142L326 141z"/>
<path style="fill:#b6caee; stroke:none;" d="M383.667 141.333L384.333 141.667L383.667 141.333z"/>
<path style="fill:#7286ba; stroke:none;" d="M385.667 141.333L386.333 141.667L385.667 141.333M414 141L414 142L417 142L414 141z"/>
<path style="fill:#b6caee; stroke:none;" d="M417.667 141.333L418.333 141.667L417.667 141.333z"/>
<path style="fill:#7286ba; stroke:none;" d="M470 141L471 142L470 141z"/>
<path style="fill:#3453bc; stroke:none;" d="M471 141L472 142L471 141z"/>
<path style="fill:#7286ba; stroke:none;" d="M511 141L512 142L511 141z"/>
<path style="fill:#3453bc; stroke:none;" d="M144 142L145 143L144 142z"/>
<path style="fill:#7286ba; stroke:none;" d="M314.667 142.333L315.333 142.667L314.667 142.333M327 142L328 143L327 142z"/>
<path style="fill:#b6caee; stroke:none;" d="M379 142L380 143L379 142z"/>
<path style="fill:#7286ba; stroke:none;" d="M380.667 142.333L381.333 142.667L380.667 142.333M420.667 142.333L421.333 142.667L420.667 142.333M472 142L473 143L472 142z"/>
<path style="fill:#3453bc; stroke:none;" d="M473 142L474 143L473 142z"/>
<path style="fill:#7286ba; stroke:none;" d="M512 142L513 143L512 142M317 143L318 144L317 143z"/>
<path style="fill:#3453bc; stroke:none;" d="M327 143L328 144L327 143z"/>
<path style="fill:#7286ba; stroke:none;" d="M376.667 143.333L377.333 143.667L376.667 143.333M424.667 143.333L425.333 143.667L424.667 143.333M475 143L476 144L475 143z"/>
<path style="fill:#3453bc; stroke:none;" d="M476.667 143.333L477.333 143.667L476.667 143.333M485.667 143.333L486.333 143.667L485.667 143.333z"/>
<path style="fill:#7286ba; stroke:none;" d="M513 143L514 144L513 143z"/>
<path style="fill:#b6caee; stroke:none;" d="M144 144L145 145L144 144M160 144L161 145L160 144z"/>
<path style="fill:#7286ba; stroke:none;" d="M318 144L319 145L318 144M372.667 144.333L373.333 144.667L372.667 144.333M428.667 144.333L429.333 144.667L428.667 144.333M478 144L478 145L484 145L478 144z"/>
<path style="fill:#3453bc; stroke:none;" d="M488 144L489 145L488 144z"/>
<path style="fill:#7286ba; stroke:none;" d="M514 144L515 145L514 144M319 145L320 146L319 145M328 145L329 146L328 145M370 145L371 146L370 145M431 145L432 146L431 145z"/>
<path style="fill:#3453bc; stroke:none;" d="M489 145L490 146L489 145z"/>
<path style="fill:#7286ba; stroke:none;" d="M515 145L516 146L515 145M145 146L146 147L145 146M159 146L160 147L159 146z"/>
<path style="fill:#3453bc; stroke:none;" d="M328 146L328 153L329 153L328 146z"/>
<path style="fill:#7286ba; stroke:none;" d="M367 146L368 147L367 146M434 146L435 147L434 146z"/>
<path style="fill:#3453bc; stroke:none;" d="M490 146L491 147L490 146z"/>
<path style="fill:#7286ba; stroke:none;" d="M516 146L517 147L516 146z"/>
<path style="fill:#3453bc; stroke:none;" d="M146 147L147 148L146 147M158 147L159 148L158 147M320 147L321 148L320 147z"/>
<path style="fill:#7286ba; stroke:none;" d="M364.667 147.333L365.333 147.667L364.667 147.333M436 147L437 148L436 147z"/>
<path style="fill:#3453bc; stroke:none;" d="M491 147L492 148L491 147z"/>
<path style="fill:#7286ba; stroke:none;" d="M517 147L518 148L517 147z"/>
<path style="fill:#3453bc; stroke:none;" d="M147 148L148 149L147 148M157 148L158 149L157 148z"/>
<path style="fill:#7286ba; stroke:none;" d="M293 148L293 149L297 149L293 148M320 148L320 152L321 152L320 148M363 148L364 149L363 148M438 148L439 149L438 148z"/>
<path style="fill:#3453bc; stroke:none;" d="M492 148L493 149L492 148z"/>
<path style="fill:#7286ba; stroke:none;" d="M518 148L519 149L518 148M148 149L149 150L148 149M156 149L157 150L156 149z"/>
<path style="fill:#3453bc; stroke:none;" d="M292 149L293 150L292 149z"/>
<path style="fill:#7286ba; stroke:none;" d="M297 149L298 150L297 149M360.667 149.333L361.333 149.667L360.667 149.333M440 149L441 150L440 149z"/>
<path style="fill:#3453bc; stroke:none;" d="M493 149L494 150L493 149z"/>
<path style="fill:#7286ba; stroke:none;" d="M519 149L520 150L519 149M150 150L150 151L155 151L150 150M291 150L292 151L291 150M298 150L299 151L298 150M358 150L359 151L358 150M442.667 150.333L443.333 150.667L442.667 150.333z"/>
<path style="fill:#3453bc; stroke:none;" d="M494 150L495 151L494 150M519 150L520 151L519 150M298 151L299 152L298 151z"/>
<path style="fill:#7286ba; stroke:none;" d="M444 151L445 152L444 151z"/>
<path style="fill:#3453bc; stroke:none;" d="M495 151L496 152L495 151z"/>
<path style="fill:#7286ba; stroke:none;" d="M520 151L521 152L520 151z"/>
<path style="fill:#3453bc; stroke:none;" d="M320 152L321 153L320 152z"/>
<path style="fill:#7286ba; stroke:none;" d="M355 152L356 153L355 152M446 152L447 153L446 152z"/>
<path style="fill:#3453bc; stroke:none;" d="M496 152L497 153L496 152M520 152L520 157L521 157L520 152z"/>
<path style="fill:#7286ba; stroke:none;" d="M299 153L300 154L299 153M319 153L320 154L319 153M328.333 153.667L328.667 154.333L328.333 153.667M353 153L354 154L353 153M448 153L449 154L448 153z"/>
<path style="fill:#3453bc; stroke:none;" d="M497 153L498 154L497 153M291.333 154.667L291.667 155.333L291.333 154.667M299 154L300 155L299 154z"/>
<path style="fill:#7286ba; stroke:none;" d="M352 154L353 155L352 154M449 154L450 155L449 154z"/>
<path style="fill:#3453bc; stroke:none;" d="M498 154L499 155L498 154z"/>
<path style="fill:#7286ba; stroke:none;" d="M300 155L301 156L300 155M317 155L318 156L317 155z"/>
<path style="fill:#3453bc; stroke:none;" d="M318 155L319 156L318 155M327 155L328 156L327 155z"/>
<path style="fill:#7286ba; stroke:none;" d="M350 155L351 156L350 155M451 155L452 156L451 155z"/>
<path style="fill:#3453bc; stroke:none;" d="M499 155L500 156L499 155z"/>
<path style="fill:#7286ba; stroke:none;" d="M291 156L292 157L291 156z"/>
<path style="fill:#3453bc; stroke:none;" d="M301 156L302 157L301 156z"/>
<path style="fill:#7286ba; stroke:none;" d="M316 156L317 157L316 156M327 156L328 157L327 156M349 156L350 157L349 156M452 156L453 157L452 156z"/>
<path style="fill:#3453bc; stroke:none;" d="M500 156L501 157L500 156M304 157L304 158L314 158L304 157M501 157L502 158L501 157z"/>
<path style="fill:#7286ba; stroke:none;" d="M520.333 157.667L520.667 158.333L520.333 157.667M292 158L293 159L292 158M326 158L327 159L326 158M346 158L347 159L346 158M455 158L456 159L455 158z"/>
<path style="fill:#3453bc; stroke:none;" d="M502 158L503 159L502 158M293 159L294 160L293 159M325 159L326 160L325 159z"/>
<path style="fill:#7286ba; stroke:none;" d="M345 159L346 160L345 159M456 159L457 160L456 159z"/>
<path style="fill:#3453bc; stroke:none;" d="M503 159L504 160L503 159M519 159L520 160L519 159z"/>
<path style="fill:#7286ba; stroke:none;" d="M293 160L294 161L293 160z"/>
<path style="fill:#3453bc; stroke:none;" d="M324 160L325 161L324 160z"/>
<path style="fill:#7286ba; stroke:none;" d="M343 160L344 161L343 160z"/>
<path style="fill:#3453bc; stroke:none;" d="M504 160L505 161L504 160z"/>
<path style="fill:#7286ba; stroke:none;" d="M294 161L295 162L294 161z"/>
<path style="fill:#3453bc; stroke:none;" d="M323 161L324 162L323 161z"/>
<path style="fill:#7286ba; stroke:none;" d="M342 161L343 162L342 161z"/>
<path style="fill:#3453bc; stroke:none;" d="M505 161L506 162L505 161z"/>
<path style="fill:#7286ba; stroke:none;" d="M518 161L519 162L518 161M295 162L296 163L295 162M322 162L323 163L322 162M341 162L342 163L341 162M460 162L461 163L460 162M506 162L507 163L506 162z"/>
<path style="fill:#3453bc; stroke:none;" d="M516 162L517 163L516 162M297 163L298 164L297 163M320 163L321 164L320 163z"/>
<path style="fill:#7286ba; stroke:none;" d="M321 163L322 164L321 163M340 163L341 164L340 163M461 163L462 164L461 163M507 163L508 164L507 163z"/>
<path style="fill:#3453bc; stroke:none;" d="M508.667 163.333L509.333 163.667L508.667 163.333M513.667 163.333L514.333 163.667L513.667 163.333z"/>
<path style="fill:#7286ba; stroke:none;" d="M515 163L516 164L515 163M299 164L300 165L299 164z"/>
<path style="fill:#3453bc; stroke:none;" d="M300 164L301 165L300 164M317 164L318 165L317 164z"/>
<path style="fill:#7286ba; stroke:none;" d="M318.667 164.333L319.333 164.667L318.667 164.333M339 164L340 165L339 164M462 164L463 165L462 164M511 164L512 165L511 164M302 165L302 166L306 166L302 165z"/>
<path style="fill:#3453bc; stroke:none;" d="M313.333 165.667L313.667 166.333L313.333 165.667z"/>
<path style="fill:#7286ba; stroke:none;" d="M314.667 165.333L315.333 165.667L314.667 165.333M338 165L339 166L338 165M463 165L464 166L463 165z"/>
<path style="fill:#3453bc; stroke:none;" d="M306.333 166.667L306.667 167.333L306.333 166.667z"/>
<path style="fill:#7286ba; stroke:none;" d="M337 166L338 167L337 166M464 166L465 167L464 166M313.333 167.667L313.667 168.333L313.333 167.667M336 167L337 168L336 167M465 167L466 168L465 167M306 168L307 169L306 168M335 168L336 169L335 168M466 168L467 169L466 168M307 169L308 170L307 169M312 169L313 170L312 169M334 169L335 170L334 169M467 169L468 170L467 169M308 170L308 171L312 171L308 170M333 170L334 171L333 170M468 170L469 171L468 170M332 171L333 172L332 171M330 174L331 175L330 174M471 174L472 175L471 174M329 175L330 176L329 175M472 175L473 176L472 175M392 176L393 177L392 176z"/>
<path style="fill:#b6caee; stroke:none;" d="M393 176L393 177L408 177L393 176z"/>
<path style="fill:#7286ba; stroke:none;" d="M408 176L409 177L408 176z"/>
<path style="fill:#b6caee; stroke:none;" d="M391 177L392 178L391 177z"/>
<path style="fill:#f7f8fb; stroke:none;" d="M392.228 177.742C386.849 180.255 390.375 188.52 385.852 192.363C383.031 194.76 376.789 198.89 373 198.841C367.136 198.765 363.14 192.141 357.789 198.228C354.514 201.953 349.423 209.962 352.757 214.79C354.78 217.721 358.907 218.67 360.535 221.9C362.147 225.095 361.587 233.18 360.991 236.674C360.03 242.301 351.541 242.615 351.453 249.004C351.396 253.149 355.585 259.811 358.529 262.566C364.372 268.032 368.974 259.48 375 261.219C390.481 265.687 388.72 291.624 408.772 282.258C414.119 279.76 410.603 271.659 415.228 267.966C418.101 265.672 424.323 261.515 428 261.226C434.787 260.692 439.093 268.859 444.896 260.941C456.474 245.144 438.464 241.059 441.009 224.04C441.907 218.041 450.492 217.429 450.431 210.996C450.391 206.742 446.366 200.319 443.39 197.434C437.767 191.985 432.919 200.347 427 198.65C423.253 197.577 416.176 193.696 413.742 190.61C411.094 187.251 413.215 182.679 410.972 179.318C408.453 175.543 395.952 176.003 392.228 177.742z"/>
<path style="fill:#7286ba; stroke:none;" d="M410 177L411 178L410 177M327 178L328 179L327 178M411 178L412 179L411 178M474 178L475 179L474 178M326 179L327 180L326 179z"/>
<path style="fill:#b6caee; stroke:none;" d="M389 179L390 180L389 179z"/>
<path style="fill:#7286ba; stroke:none;" d="M412 179L413 180L412 179M475 179L476 180L475 179z"/>
<path style="fill:#b6caee; stroke:none;" d="M412 180L412 190L413 190L412 180z"/>
<path style="fill:#7286ba; stroke:none;" d="M325 181L326 182L325 181M388 181L388 191L389 191L388 181M476 181L477 182L476 181M324 182L325 183L324 182M323 184L324 185L323 184M478 184L479 185L478 184M322 186L323 187L322 186M479 186L480 187L479 186M321.333 187.667L321.667 188.333L321.333 187.667M480 188L481 189L480 188M320.333 189.667L320.667 190.333L320.333 189.667M481 190L482 191L481 190M319.333 191.667L319.667 192.333L319.333 191.667M387 191L388 192L387 191z"/>
<path style="fill:#b6caee; stroke:none;" d="M413 191L414 192L413 191z"/>
<path style="fill:#7286ba; stroke:none;" d="M385 192L386 193L385 192z"/>
<path style="fill:#b6caee; stroke:none;" d="M386 192L387 193L386 192M415 192L416 193L415 192z"/>
<path style="fill:#7286ba; stroke:none;" d="M416 192L417 193L416 192M482 192L483 193L482 192M383 193L384 194L383 193z"/>
<path style="fill:#b6caee; stroke:none;" d="M384 193L385 194L384 193M417 193L418 194L417 193z"/>
<path style="fill:#7286ba; stroke:none;" d="M418 193L419 194L418 193M318 194L319 195L318 194M362.667 194.333L363.333 194.667L362.667 194.333M381 194L382 195L381 194z"/>
<path style="fill:#b6caee; stroke:none;" d="M382 194L383 195L382 194M419 194L420 195L419 194z"/>
<path style="fill:#7286ba; stroke:none;" d="M420 194L421 195L420 194M483 194L484 195L483 194M359 195L360 196L359 195z"/>
<path style="fill:#b6caee; stroke:none;" d="M360 195L361 196L360 195M365 195L366 196L365 195M380 195L381 196L380 195M421 195L422 196L421 195z"/>
<path style="fill:#7286ba; stroke:none;" d="M436 195L437 196L436 195z"/>
<path style="fill:#b6caee; stroke:none;" d="M441 195L442 196L441 195z"/>
<path style="fill:#7286ba; stroke:none;" d="M317.333 196.667L317.667 197.333L317.333 196.667M358 196L359 197L358 196M367 196L368 197L367 196z"/>
<path style="fill:#b6caee; stroke:none;" d="M378 196L379 197L378 196z"/>
<path style="fill:#7286ba; stroke:none;" d="M423 196L424 197L423 196M434 196L435 197L434 196M443 196L444 197L443 196M484.333 196.667L484.667 197.333L484.333 196.667M357 197L358 198L357 197z"/>
<path style="fill:#b6caee; stroke:none;" d="M368 197L369 198L368 197z"/>
<path style="fill:#7286ba; stroke:none;" d="M369 197L370 198L369 197z"/>
<path style="fill:#b6caee; stroke:none;" d="M377 197L378 198L377 197M424 197L425 198L424 197z"/>
<path style="fill:#7286ba; stroke:none;" d="M432 197L433 198L432 197z"/>
<path style="fill:#b6caee; stroke:none;" d="M433 197L434 198L433 197M357 198L358 199L357 198M370 198L371 199L370 198z"/>
<path style="fill:#7286ba; stroke:none;" d="M375 198L376 199L375 198z"/>
<path style="fill:#b6caee; stroke:none;" d="M425 198L426 199L425 198z"/>
<path style="fill:#7286ba; stroke:none;" d="M426 198L427 199L426 198z"/>
<path style="fill:#b6caee; stroke:none;" d="M431 198L432 199L431 198M444 198L445 199L444 198z"/>
<path style="fill:#7286ba; stroke:none;" d="M316 199L317 200L316 199M356 199L357 200L356 199z"/>
<path style="fill:#b6caee; stroke:none;" d="M372 199L373 200L372 199z"/>
<path style="fill:#7286ba; stroke:none;" d="M373 199L374 200L373 199z"/>
<path style="fill:#b6caee; stroke:none;" d="M374 199L375 200L374 199M427 199L428 200L427 199z"/>
<path style="fill:#7286ba; stroke:none;" d="M428 199L429 200L428 199z"/>
<path style="fill:#b6caee; stroke:none;" d="M429 199L430 200L429 199z"/>
<path style="fill:#7286ba; stroke:none;" d="M445 199L446 200L445 199M485.333 199.667L485.667 200.333L485.333 199.667z"/>
<path style="fill:#b6caee; stroke:none;" d="M445 200L446 201L445 200z"/>
<path style="fill:#7286ba; stroke:none;" d="M315.333 201.667L315.667 202.333L315.333 201.667z"/>
<path style="fill:#b6caee; stroke:none;" d="M355 201L356 202L355 201z"/>
<path style="fill:#7286ba; stroke:none;" d="M446 201L447 202L446 201z"/>
<path style="fill:#b6caee; stroke:none;" d="M760 201L761 202L760 201z"/>
<path style="fill:#3453bc; stroke:none;" d="M763 201L764 202L763 201z"/>
<path style="fill:#b6caee; stroke:none;" d="M765 201L766 202L765 201z"/>
<path style="fill:#7286ba; stroke:none;" d="M354 202L355 203L354 202M486 202L487 203L486 202z"/>
<path style="fill:#b6caee; stroke:none;" d="M758 202L756 205L758 202z"/>
<path style="fill:#3453bc; stroke:none;" d="M759 202L760 203L759 202z"/>
<path style="fill:#21346c; stroke:none;" d="M760.108 202.743C752.957 205.747 755 217.893 755 224L755 287C755.002 293.237 756.207 305.784 765.945 302.091C773.282 299.309 771 287.124 771 281L771 218C771 211.581 770.538 198.362 760.108 202.743z"/>
<path style="fill:#b6caee; stroke:none;" d="M767 202L768 203L767 202M354 203L355 204L354 203M447 203L448 204L447 203z"/>
<path style="fill:#7286ba; stroke:none;" d="M768 203L769 204L768 203M353 204L354 205L353 204M448 204L449 205L448 204M769 204L770 205L769 204M314.333 205.667L314.667 206.333L314.333 205.667z"/>
<path style="fill:#b6caee; stroke:none;" d="M353 205L354 206L353 205M448 205L449 206L448 205z"/>
<path style="fill:#7286ba; stroke:none;" d="M487.333 205.667L487.667 206.333L487.333 205.667z"/>
<path style="fill:#3453bc; stroke:none;" d="M756 205L757 206L756 205z"/>
<path style="fill:#b6caee; stroke:none;" d="M770 205L771 206L770 205z"/>
<path style="fill:#7286ba; stroke:none;" d="M352 206L353 207L352 206M449 206L450 207L449 206z"/>
<path style="fill:#b6caee; stroke:none;" d="M755 206L756 207L755 206z"/>
<path style="fill:#7286ba; stroke:none;" d="M770 206L771 207L770 206M755 207L756 208L755 207z"/>
<path style="fill:#b6caee; stroke:none;" d="M771 207L771 297L772 297L772 235L771 207M313 208L314 209L313 208M351.333 208.667L351.667 209.333L351.333 208.667z"/>
<path style="fill:#7286ba; stroke:none;" d="M450 208L451 209L450 208z"/>
<path style="fill:#b6caee; stroke:none;" d="M488.333 208.667L488.667 209.333L488.333 208.667z"/>
<path style="fill:#3453bc; stroke:none;" d="M755 208L756 209L755 208z"/>
<path style="fill:#7286ba; stroke:none;" d="M313.333 209.667L313.667 210.333L313.333 209.667z"/>
<path style="fill:#b6caee; stroke:none;" d="M450 209L451 210L450 209z"/>
<path style="fill:#7286ba; stroke:none;" d="M350.333 210.667L350.667 211.333L350.333 210.667M451.333 210.667L451.667 211.333L451.333 210.667M488 210L489 211L488 210z"/>
<path style="fill:#b6caee; stroke:none;" d="M312.333 212.667L312.667 213.333L312.333 212.667M489 212L489 215L490 215L489 212M351 213L352 214L351 213M397 213L397 214L400 214L397 213z"/>
<path style="fill:#7286ba; stroke:none;" d="M400.667 213.333L401.333 213.667L400.667 213.333z"/>
<path style="fill:#b6caee; stroke:none;" d="M402 213L402 214L405 214L402 213M450 213L451 214L450 213z"/>
<path style="fill:#7286ba; stroke:none;" d="M312 214L312 217L313 217L312 214M351 214L352 215L351 214z"/>
<path style="fill:#b6caee; stroke:none;" d="M394 214L395 215L394 214z"/>
<path style="fill:#7286ba; stroke:none;" d="M395.667 214.333L396.333 214.667L395.667 214.333z"/>
<path style="fill:#3453bc; stroke:none;" d="M397 214.532C376.814 219.317 384.324 250.638 405 245.735C425.278 240.925 417.371 209.704 397 214.532z"/>
<path style="fill:#7286ba; stroke:none;" d="M405.667 214.333L406.333 214.667L405.667 214.333z"/>
<path style="fill:#b6caee; stroke:none;" d="M407 214L408 215L407 214z"/>
<path style="fill:#7286ba; stroke:none;" d="M450 214L451 215L450 214M352 215L353 216L352 215z"/>
<path style="fill:#b6caee; stroke:none;" d="M392 215L393 216L392 215z"/>
<path style="fill:#7286ba; stroke:none;" d="M393 215L394 216L393 215M408 215L409 216L408 215z"/>
<path style="fill:#b6caee; stroke:none;" d="M409 215L410 216L409 215z"/>
<path style="fill:#7286ba; stroke:none;" d="M449 215L450 216L449 215M489.333 215.667L489.667 216.333L489.333 215.667M353 216L354 217L353 216M391 216L392 217L391 216M410 216L411 217L410 216M448 216L449 217L448 216z"/>
<path style="fill:#b6caee; stroke:none;" d="M355 217L356 218L355 217z"/>
<path style="fill:#7286ba; stroke:none;" d="M390 217L391 218L390 217M411 217L412 218L411 217M446 217L447 218L446 217z"/>
<path style="fill:#b6caee; stroke:none;" d="M311 218L311 221L312 221L311 218z"/>
<path style="fill:#7286ba; stroke:none;" d="M356 218L357 219L356 218z"/>
<path style="fill:#b6caee; stroke:none;" d="M357 218L358 219L357 218M444 218L445 219L444 218z"/>
<path style="fill:#7286ba; stroke:none;" d="M445 218L446 219L445 218M358 219L359 220L358 219M388 219L389 220L388 219M413 219L414 220L413 219M443 219L444 220L443 219z"/>
<path style="fill:#b6caee; stroke:none;" d="M490 219L490 222L491 222L490 219M360 220L361 221L360 220z"/>
<path style="fill:#7286ba; stroke:none;" d="M387 220L388 221L387 220M414 220L415 221L414 220z"/>
<path style="fill:#b6caee; stroke:none;" d="M441 220L442 221L441 220z"/>
<path style="fill:#7286ba; stroke:none;" d="M311 221L311 228L312 228L311 221z"/>
<path style="fill:#b6caee; stroke:none;" d="M386 221L387 222L386 221M415 221L416 222L415 221M754 221L755 222L754 221M361 222L362 223L361 222z"/>
<path style="fill:#7286ba; stroke:none;" d="M386 222L387 223L386 222M415 222L416 223L415 222z"/>
<path style="fill:#b6caee; stroke:none;" d="M440.333 222.667L440.667 223.333L440.333 222.667z"/>
<path style="fill:#7286ba; stroke:none;" d="M490 222L490 238L491 238L490 222z"/>
<path style="fill:#b6caee; stroke:none;" d="M385 223L386 224L385 223M416 223L417 224L416 223z"/>
<path style="fill:#7286ba; stroke:none;" d="M385 224L386 225L385 224M416 224L417 225L416 224M360 225L360 235L361 235L360 225z"/>
<path style="fill:#b6caee; stroke:none;" d="M384 226L385 227L384 226M417.333 226.667L417.667 227.333L417.333 226.667z"/>
<path style="fill:#7286ba; stroke:none;" d="M441 226L441 234L442 234L441 226M384 227L384 233L385 233L384 227M417 228L417 232L418 232L417 228M311 232L311 239L312 239L311 232z"/>
<path style="fill:#b6caee; stroke:none;" d="M417.333 232.667L417.667 233.333L417.333 232.667M384.333 233.667L384.667 234.333L384.333 233.667z"/>
<path style="fill:#7286ba; stroke:none;" d="M385.333 235.667L385.667 236.333L385.333 235.667M416 235L417 236L416 235z"/>
<path style="fill:#b6caee; stroke:none;" d="M416 236L417 237L416 236M440.333 236.667L440.667 237.333L440.333 236.667M361 237L362 238L361 237z"/>
<path style="fill:#7286ba; stroke:none;" d="M386 238L387 239L386 238z"/>
<path style="fill:#b6caee; stroke:none;" d="M415 238L416 239L415 238M490 238L490 241L491 241L490 238M311 239L311 242L312 242L311 239M360 239L361 240L360 239z"/>
<path style="fill:#7286ba; stroke:none;" d="M414 239L415 240L414 239z"/>
<path style="fill:#b6caee; stroke:none;" d="M441 239L442 240L441 239z"/>
<path style="fill:#7286ba; stroke:none;" d="M358 240L359 241L358 240z"/>
<path style="fill:#b6caee; stroke:none;" d="M387 240L388 241L387 240z"/>
<path style="fill:#7286ba; stroke:none;" d="M443 240L444 241L443 240M356 241L357 242L356 241z"/>
<path style="fill:#b6caee; stroke:none;" d="M357 241L358 242L357 241M388 241L389 242L388 241M413 241L414 242L413 241M444 241L445 242L444 241M355 242L356 243L355 242M389 242L390 243L389 242M412 242L413 243L412 242z"/>
<path style="fill:#7286ba; stroke:none;" d="M446 242L447 243L446 242M312 243L312 246L313 246L312 243M353 243L354 244L353 243z"/>
<path style="fill:#b6caee; stroke:none;" d="M390 243L391 244L390 243z"/>
<path style="fill:#7286ba; stroke:none;" d="M410 243L411 244L410 243z"/>
<path style="fill:#b6caee; stroke:none;" d="M447 243L448 244L447 243z"/>
<path style="fill:#7286ba; stroke:none;" d="M448 243L449 244L448 243M489.333 243.667L489.667 244.333L489.333 243.667M352 244L353 245L352 244M392 244L393 245L392 244z"/>
<path style="fill:#b6caee; stroke:none;" d="M409 244L410 245L409 244z"/>
<path style="fill:#7286ba; stroke:none;" d="M449 244L450 245L449 244M351 245L352 246L351 245M394 245L395 246L394 245M406 245L407 246L406 245z"/>
<path style="fill:#b6caee; stroke:none;" d="M407 245L408 246L407 245M489 245L489 248L490 248L489 245M312.333 246.667L312.667 247.333L312.333 246.667M351 246L352 247L351 246M396 246L397 247L396 246z"/>
<path style="fill:#7286ba; stroke:none;" d="M397 246L397 247L400 247L397 246M401 246L401 247L404 247L401 246z"/>
<path style="fill:#b6caee; stroke:none;" d="M404 246L405 247L404 246M450 246L451 247L450 246z"/>
<path style="fill:#7286ba; stroke:none;" d="M350 247L350 250L351 250L350 247M313.333 249.667L313.667 250.333L313.333 249.667M488 249L489 250L488 249z"/>
<path style="fill:#b6caee; stroke:none;" d="M450 250L451 251L450 250M488.333 250.667L488.667 251.333L488.333 250.667M313.333 251.667L313.667 252.333L313.333 251.667M351 251L352 252L351 251z"/>
<path style="fill:#7286ba; stroke:none;" d="M450 251L451 252L450 251M314 253L314 256L315 256L314 253M352 253L353 254L352 253M449 253L450 254L449 253M487.333 253.667L487.667 254.333L487.333 253.667z"/>
<path style="fill:#b6caee; stroke:none;" d="M297 254.428C228.798 264.199 214.366 366.887 283 388.971C294.196 392.573 305.416 393.276 317 391.711C343.594 388.119 365.251 366.58 371.625 341C373.17 334.8 376.384 323.543 373.397 317.418C371.502 313.535 363.595 312.111 360 310.135C350.659 305.001 342.4 298.707 335.039 291C328.989 284.664 323.624 276.943 319.89 269C317.958 264.891 316.812 257.565 312.725 255.028C308.918 252.664 301.227 253.823 297 254.428M353 254L354 255L353 254M448 254L449 255L448 254M489.278 254.742C484.031 257.254 481.21 270.973 478.174 276C470.455 288.783 459.665 299.337 447 307.186C442.203 310.159 429.194 313.052 428.148 319.105C419.567 368.786 480.177 407.242 523 387.218C559.177 370.302 575.227 326.978 556.741 291C547.05 272.14 529.01 258.461 508 254.921C502.81 254.046 494.239 252.367 489.278 254.742z"/>
<path style="fill:#7286ba; stroke:none;" d="M353 255L354 256L353 255M448 255L449 256L448 255z"/>
<path style="fill:#b6caee; stroke:none;" d="M354 256L355 257L354 256M447 256L448 257L447 256z"/>
<path style="fill:#7286ba; stroke:none;" d="M315.333 257.667L315.667 258.333L315.333 257.667M354 257L355 258L354 257M486 257L487 258L486 257z"/>
<path style="fill:#b6caee; stroke:none;" d="M355 258L356 259L355 258M446 258L447 259L446 258z"/>
<path style="fill:#7286ba; stroke:none;" d="M316 260L317 261L316 260M356 260L357 261L356 260z"/>
<path style="fill:#b6caee; stroke:none;" d="M371 260L372 261L371 260z"/>
<path style="fill:#7286ba; stroke:none;" d="M372 260L373 261L372 260M374 260L375 261L374 260z"/>
<path style="fill:#b6caee; stroke:none;" d="M427 260L428 261L427 260z"/>
<path style="fill:#7286ba; stroke:none;" d="M428 260L429 261L428 260z"/>
<path style="fill:#b6caee; stroke:none;" d="M429 260L430 261L429 260z"/>
<path style="fill:#7286ba; stroke:none;" d="M445 260L446 261L445 260M485 260L486 261L485 260z"/>
<path style="fill:#b6caee; stroke:none;" d="M357 261L358 262L357 261z"/>
<path style="fill:#7286ba; stroke:none;" d="M370 261L371 262L370 261z"/>
<path style="fill:#b6caee; stroke:none;" d="M376 261L377 262L376 261M425 261L426 262L425 261z"/>
<path style="fill:#7286ba; stroke:none;" d="M426 261L427 262L426 261M430 261L431 262L430 261z"/>
<path style="fill:#b6caee; stroke:none;" d="M444 261L445 262L444 261z"/>
<path style="fill:#7286ba; stroke:none;" d="M357 262L358 263L357 262z"/>
<path style="fill:#b6caee; stroke:none;" d="M368 262L369 263L368 262M377 262L378 263L377 262M424 262L425 263L424 262z"/>
<path style="fill:#7286ba; stroke:none;" d="M432 262L433 263L432 262M444 262L445 263L444 262M484.333 262.667L484.667 263.333L484.333 262.667M317 263L318 264L317 263M358 263L359 264L358 263M367 263L368 264L367 263M378 263L379 264L378 263z"/>
<path style="fill:#b6caee; stroke:none;" d="M379 263L380 264L379 263z"/>
<path style="fill:#7286ba; stroke:none;" d="M423 263L424 264L423 263z"/>
<path style="fill:#b6caee; stroke:none;" d="M434 263L435 264L434 263z"/>
<path style="fill:#7286ba; stroke:none;" d="M443 263L444 264L443 263M359 264L360 265L359 264z"/>
<path style="fill:#b6caee; stroke:none;" d="M360 264L361 265L360 264z"/>
<path style="fill:#7286ba; stroke:none;" d="M365 264L366 265L365 264M380 264L381 265L380 264z"/>
<path style="fill:#b6caee; stroke:none;" d="M421 264L422 265L421 264z"/>
<path style="fill:#7286ba; stroke:none;" d="M435 264L436 265L435 264M442 264L443 265L442 264M318 265L319 266L318 265z"/>
<path style="fill:#b6caee; stroke:none;" d="M382 265L383 266L382 265M419 265L420 266L419 265z"/>
<path style="fill:#7286ba; stroke:none;" d="M420 265L421 266L420 265M437 265L437 266L441 266L437 265M483 265L484 266L483 265z"/>
<path style="fill:#b6caee; stroke:none;" d="M384 266L385 267L384 266M417 266L418 267L417 266z"/>
<path style="fill:#7286ba; stroke:none;" d="M418 266L419 267L418 266M319.333 267.667L319.667 268.333L319.333 267.667M386 267L387 268L386 267z"/>
<path style="fill:#b6caee; stroke:none;" d="M415 267L416 268L415 267z"/>
<path style="fill:#7286ba; stroke:none;" d="M416 267L417 268L416 267M482 267L483 268L482 267z"/>
<path style="fill:#b6caee; stroke:none;" d="M413 268L414 269L413 268z"/>
<path style="fill:#7286ba; stroke:none;" d="M320.333 269.667L320.667 270.333L320.333 269.667M388 269L388 279L389 279L388 269M481 269L482 270L481 269z"/>
<path style="fill:#b6caee; stroke:none;" d="M412 270L412 279L413 279L412 270z"/>
<path style="fill:#7286ba; stroke:none;" d="M480.333 271.667L480.667 272.333L480.333 271.667M321 272L322 273L321 272M322 273L323 274L322 273M479 273L480 274L479 273M323 275L324 276L323 275M478 275L479 276L478 275M324 277L325 278L324 277M477 277L478 278L477 277M325 278L326 279L325 278M476 278L477 279L476 278M412 279L413 280L412 279M326 280L327 281L326 280M389 280L390 281L389 280z"/>
<path style="fill:#b6caee; stroke:none;" d="M411 280L412 281L411 280z"/>
<path style="fill:#7286ba; stroke:none;" d="M475 280L476 281L475 280M493 280L492 282L493 280z"/>
<path style="fill:#3453bc; stroke:none;" d="M494 280L495 281L494 280z"/>
<path style="fill:#21346c; stroke:none;" d="M456 318C457.289 325.722 464.054 320.536 468.437 324.603C471.885 327.803 472.379 333.983 475.681 337.711C479.855 342.424 488.93 343.585 491.972 348.303C493.929 351.338 493 356.546 493 360L498 360C498 356.546 497.071 351.338 499.028 348.303C502.17 343.43 511.431 342.013 515.671 336.985C518.613 333.496 519.589 326.423 523.303 324.028C526.303 322.094 532.79 324.669 534.824 321.455C537.397 317.39 524.914 318.011 523.303 316.972C519.319 314.403 518.315 306.701 514.895 303.015C510.543 298.327 503.581 297.576 499.603 293.412C497.561 291.274 499.216 280.437 495.17 281.176C491.323 281.879 493.841 290.852 491.397 293.412C487.888 297.086 481.283 297.677 477.301 301.468C473.119 305.448 472.052 314.11 467.686 316.972C464.682 318.941 459.431 318 456 318z"/>
<path style="fill:#3453bc; stroke:none;" d="M496 280L497 281L496 280z"/>
<path style="fill:#7286ba; stroke:none;" d="M497 280L498 281L497 280M327 281L328 282L327 281z"/>
<path style="fill:#b6caee; stroke:none;" d="M390 281L391 282L390 281z"/>
<path style="fill:#7286ba; stroke:none;" d="M411 281L412 282L411 281M474 281L475 282L474 281z"/>
<path style="fill:#b6caee; stroke:none;" d="M391 282L392 283L391 282M409 282L410 283L409 282z"/>
<path style="fill:#7286ba; stroke:none;" d="M410 282L411 283L410 282z"/>
<path style="fill:#3453bc; stroke:none;" d="M492 282L492 294L493 294L492 282z"/>
<path style="fill:#7286ba; stroke:none;" d="M498 282L499 283L498 282M328 283L329 284L328 283M393.667 283.333L394.333 283.667L393.667 283.333z"/>
<path style="fill:#b6caee; stroke:none;" d="M395 283L396 284L395 283z"/>
<path style="fill:#7286ba; stroke:none;" d="M396 283L397 284L396 283z"/>
<path style="fill:#b6caee; stroke:none;" d="M397 283L397 284L405 284L397 283z"/>
<path style="fill:#7286ba; stroke:none;" d="M405 283L406 284L405 283z"/>
<path style="fill:#b6caee; stroke:none;" d="M406 283L407 284L406 283z"/>
<path style="fill:#7286ba; stroke:none;" d="M407.667 283.333L408.333 283.667L407.667 283.333z"/>
<path style="fill:#3453bc; stroke:none;" d="M498 283L498 294L499 294L498 283z"/>
<path style="fill:#7286ba; stroke:none;" d="M297 284L297 285L315 285L297 284M329 284L330 285L329 284M472 284L473 285L472 284M295 285L294 287L295 285z"/>
<path style="fill:#3453bc; stroke:none;" d="M296 285L297 286L296 285z"/>
<path style="fill:#21346c; stroke:none;" d="M297.209 285.742C294.742 286.817 293.43 289.408 290.896 290.4C286.938 291.95 281.843 289.871 279.179 294.228C276.946 297.881 278 303.903 278 308L278 339C278 343.039 276.911 349.239 279.742 352.566C282.559 355.877 288.141 355 292 355C302.514 355.001 320.208 358.422 329.891 354.258C337.16 351.132 334 333.472 334 327C334 318.045 336.815 303.379 333.258 295.109C331.141 290.187 326.176 291.764 322.043 290.683C313.679 288.494 307.484 281.265 297.209 285.742z"/>
<path style="fill:#3453bc; stroke:none;" d="M315 285L316 286L315 285z"/>
<path style="fill:#7286ba; stroke:none;" d="M316 285L317 286L316 285M330 285L331 286L330 285M471 285L472 286L471 285M317 286L318 287L317 286z"/>
<path style="fill:#3453bc; stroke:none;" d="M294 287L295 288L294 287M317 287L318 288L317 287z"/>
<path style="fill:#7286ba; stroke:none;" d="M331 287L332 288L331 287M293.333 288.667L293.667 289.333L293.333 288.667M318.333 288.667L318.667 289.333L318.333 288.667M332 288L333 289L332 288M469 288L470 289L469 288M333 289L334 290L333 289M468 289L469 290L468 289M282.667 290.333L283.333 290.667L282.667 290.333z"/>
<path style="fill:#3453bc; stroke:none;" d="M284 290L284 291L293 291L284 290M319 290L319 291L328 291L319 290z"/>
<path style="fill:#7286ba; stroke:none;" d="M328.667 290.333L329.333 290.667L328.667 290.333M334 290L335 291L334 290M467 290L468 291L467 290z"/>
<path style="fill:#3453bc; stroke:none;" d="M281 291L282 292L281 291M330 291L331 292L330 291z"/>
<path style="fill:#7286ba; stroke:none;" d="M331 291L332 292L331 291M335 291L336 292L335 291M466 291L467 292L466 291M279 292L280 293L279 292M332 292L333 293L332 292M336 292L337 293L336 292M465 292L466 293L465 292M333 293L334 294L333 293M337 293L338 294L337 293M464 293L465 294L464 293z"/>
<path style="fill:#3453bc; stroke:none;" d="M278 294L279 295L278 294M333 294L334 295L333 294z"/>
<path style="fill:#7286ba; stroke:none;" d="M338 294L339 295L338 294M463 294L464 295L463 294M488.667 294.333L489.333 294.667L488.667 294.333z"/>
<path style="fill:#3453bc; stroke:none;" d="M490.667 294.333L491.333 294.667L490.667 294.333M499.667 294.333L500.333 294.667L499.667 294.333z"/>
<path style="fill:#7286ba; stroke:none;" d="M501 294L502 295L501 294M277 295L277 298L278 298L277 295M334.333 295.667L334.667 296.333L334.333 295.667M339 295L340 296L339 295M462 295L463 296L462 295M485.667 295.333L486.333 295.667L485.667 295.333M504 295L505 296L504 295M340 296L341 297L340 296M461 296L462 297L461 296M483 296L484 297L483 296z"/>
<path style="fill:#3453bc; stroke:none;" d="M484 296L485 297L484 296M506 296L507 297L506 296M755 296L756 297L755 296M334 297L334 349L335 349L335 314L334 297z"/>
<path style="fill:#7286ba; stroke:none;" d="M341 297L342 298L341 297M460 297L461 298L460 297z"/>
<path style="fill:#3453bc; stroke:none;" d="M482 297L483 298L482 297z"/>
<path style="fill:#7286ba; stroke:none;" d="M508 297L509 298L508 297M755 297L756 298L755 297z"/>
<path style="fill:#3453bc; stroke:none;" d="M770 297L771 298L770 297M277 298L277 348L278 348C278 333.951 282.409 310.89 277 298z"/>
<path style="fill:#7286ba; stroke:none;" d="M342 298L343 299L342 298M459 298L460 299L459 298M480 298L481 299L480 298M510 298L511 299L510 298z"/>
<path style="fill:#b6caee; stroke:none;" d="M755 298L756 299L755 298z"/>
<path style="fill:#7286ba; stroke:none;" d="M770 298L771 299L770 298M343 299L344 300L343 299z"/>
<path style="fill:#3453bc; stroke:none;" d="M479 299L480 300L479 299z"/>
<path style="fill:#7286ba; stroke:none;" d="M511 299L512 300L511 299M756 299L757 300L756 299M456 300L457 301L456 300z"/>
<path style="fill:#3453bc; stroke:none;" d="M478 300L479 301L478 300M512 300L513 301L512 300M757 300L758 301L757 300z"/>
<path style="fill:#b6caee; stroke:none;" d="M769 300L770 301L769 300z"/>
<path style="fill:#7286ba; stroke:none;" d="M346 301L347 302L346 301M455 301L456 302L455 301M476 301L477 302L476 301z"/>
<path style="fill:#3453bc; stroke:none;" d="M513 301L514 302L513 301z"/>
<path style="fill:#7286ba; stroke:none;" d="M758 301L759 302L758 301z"/>
<path style="fill:#b6caee; stroke:none;" d="M768 301L769 302L768 301z"/>
<path style="fill:#7286ba; stroke:none;" d="M347 302L348 303L347 302z"/>
<path style="fill:#3453bc; stroke:none;" d="M514 302L515 303L514 302z"/>
<path style="fill:#b6caee; stroke:none;" d="M759 302L760 303L759 302z"/>
<path style="fill:#7286ba; stroke:none;" d="M760 302L761 303L760 302z"/>
<path style="fill:#3453bc; stroke:none;" d="M765 302L766 303L765 302z"/>
<path style="fill:#7286ba; stroke:none;" d="M766 302L767 303L766 302M349 303L350 304L349 303M452 303L453 304L452 303z"/>
<path style="fill:#3453bc; stroke:none;" d="M475 303L476 304L475 303M515 303L516 304L515 303z"/>
<path style="fill:#b6caee; stroke:none;" d="M762 303L762 361L763 391L764 391L763 331L762 303z"/>
<path style="fill:#7286ba; stroke:none;" d="M763 303L763 386L764 386L764 329L763 303M350 304L351 305L350 304M451 304L452 305L451 304z"/>
<path style="fill:#3453bc; stroke:none;" d="M474 304L475 305L474 304z"/>
<path style="fill:#7286ba; stroke:none;" d="M516 304L517 305L516 304M352 305L353 306L352 305M449 305L450 306L449 305M473 305L474 306L473 305M517 305L518 306L517 305M353 306L354 307L353 306M448 306L449 307L448 306z"/>
<path style="fill:#3453bc; stroke:none;" d="M492.667 306.333L493.333 306.667L492.667 306.333z"/>
<path style="fill:#7286ba; stroke:none;" d="M494 306L494 307L497 307L494 306z"/>
<path style="fill:#3453bc; stroke:none;" d="M497.667 306.333L498.333 306.667L497.667 306.333z"/>
<path style="fill:#7286ba; stroke:none;" d="M355 307L356 308L355 307M446 307L447 308L446 307M472 307L473 308L472 307z"/>
<path style="fill:#3453bc; stroke:none;" d="M489 307L490 308L489 307z"/>
<path style="fill:#7286ba; stroke:none;" d="M490 307L491 308L490 307z"/>
<path style="fill:#b6caee; stroke:none;" d="M491.001 307.653C474.349 312.874 483.224 338.862 499.996 333.146C516.39 327.558 507.539 302.467 491.001 307.653z"/>
<path style="fill:#7286ba; stroke:none;" d="M499.667 307.333L500.333 307.667L499.667 307.333M518 307L519 308L518 307M444 308L445 309L444 308M471 308L472 309L471 308M488 308L489 309L488 308M502 308L503 309L502 308M358 309L359 310L358 309M443 309L444 310L443 309z"/>
<path style="fill:#3453bc; stroke:none;" d="M471 309L472 310L471 309M486 309L487 310L486 309z"/>
<path style="fill:#7286ba; stroke:none;" d="M519 309L520 310L519 309z"/>
<path style="fill:#3453bc; stroke:none;" d="M316 310L317 311L316 310z"/>
<path style="fill:#7286ba; stroke:none;" d="M317 310L317 311L320 311L317 310z"/>
<path style="fill:#3453bc; stroke:none;" d="M320 310L322 312L320 310z"/>
<path style="fill:#7286ba; stroke:none;" d="M360 310L361 311L360 310M441 310L442 311L441 310M470.333 310.667L470.667 311.333L470.333 310.667M485 310L486 311L485 310z"/>
<path style="fill:#3453bc; stroke:none;" d="M505 310L506 311L505 310z"/>
<path style="fill:#7286ba; stroke:none;" d="M315 311L313 314L315 311z"/>
<path style="fill:#b6caee; stroke:none;" d="M315.995 311.958C310.808 314.01 307.499 320.97 302 321.967C298.267 322.644 294.08 316.306 290.623 319.647C285.802 324.307 298.547 333.593 303 332.338C308.33 330.835 316.41 322.385 319.677 317.997C322.373 314.376 321.044 309.96 315.995 311.958z"/>
<path style="fill:#7286ba; stroke:none;" d="M362 311L363 312L362 311M438.667 311.333L439.333 311.667L438.667 311.333z"/>
<path style="fill:#3453bc; stroke:none;" d="M484 311L485 312L484 311z"/>
<path style="fill:#7286ba; stroke:none;" d="M520 311L521 312L520 311M364.667 312.333L365.333 312.667L364.667 312.333M436 312L437 313L436 312M506 312L507 313L506 312z"/>
<path style="fill:#3453bc; stroke:none;" d="M520 312L521 313L520 312M322 313L322 316L323 316L322 313z"/>
<path style="fill:#7286ba; stroke:none;" d="M367 313L368 314L367 313M434 313L435 314L434 313M469.333 313.667L469.667 314.333L469.333 313.667M483 313L484 314L483 313M492.667 313.333L493.333 313.667L492.667 313.333z"/>
<path style="fill:#3453bc; stroke:none;" d="M494 313L494 314L497 314L494 313z"/>
<path style="fill:#7286ba; stroke:none;" d="M497 313L498 314L497 313M507 313L508 314L507 313z"/>
<path style="fill:#3453bc; stroke:none;" d="M311 314L312 315L311 314z"/>
<path style="fill:#7286ba; stroke:none;" d="M369.667 314.333L370.333 314.667L369.667 314.333M431 314L432 315L431 314z"/>
<path style="fill:#3453bc; stroke:none;" d="M482 314L483 315L482 314M491 314L489 317L491 314z"/>
<path style="fill:#21346c; stroke:none;" d="M492.134 315.029C484.716 319.263 491.724 330.135 498.852 325.971C505.911 321.849 499.329 310.922 492.134 315.029z"/>
<path style="fill:#7286ba; stroke:none;" d="M499 314L500 315L499 314M521.333 314.667L521.667 315.333L521.333 314.667z"/>
<path style="fill:#3453bc; stroke:none;" d="M310 315L311 316L310 315z"/>
<path style="fill:#7286ba; stroke:none;" d="M372.667 315.333L373.333 315.667L372.667 315.333M428.667 315.333L429.333 315.667L428.667 315.333z"/>
<path style="fill:#3453bc; stroke:none;" d="M469.333 315.667L469.667 316.333L469.333 315.667z"/>
<path style="fill:#7286ba; stroke:none;" d="M482 315L483 316L482 315z"/>
<path style="fill:#3453bc; stroke:none;" d="M500 315L501 316L500 315z"/>
<path style="fill:#7286ba; stroke:none;" d="M508.333 315.667L508.667 316.333L508.333 315.667z"/>
<path style="fill:#3453bc; stroke:none;" d="M309 316L310 317L309 316z"/>
<path style="fill:#7286ba; stroke:none;" d="M321 316L322 317L321 316z"/>
<path style="fill:#b6caee; stroke:none;" d="M375 316L376 317L375 316z"/>
<path style="fill:#7286ba; stroke:none;" d="M376.667 316.333L377.333 316.667L376.667 316.333M424.667 316.333L425.333 316.667L424.667 316.333z"/>
<path style="fill:#b6caee; stroke:none;" d="M426 316L427 317L426 316z"/>
<path style="fill:#7286ba; stroke:none;" d="M501 316L502 317L501 316z"/>
<path style="fill:#3453bc; stroke:none;" d="M521 316L522 317L521 316M292.667 317.333L293.333 317.667L292.667 317.333z"/>
<path style="fill:#7286ba; stroke:none;" d="M308 317L309 318L308 317M320 317L321 318L320 317z"/>
<path style="fill:#b6caee; stroke:none;" d="M378.667 317.333L379.333 317.667L378.667 317.333z"/>
<path style="fill:#7286ba; stroke:none;" d="M380.667 317.333L381.333 317.667L380.667 317.333M420.667 317.333L421.333 317.667L420.667 317.333z"/>
<path style="fill:#b6caee; stroke:none;" d="M422.667 317.333L423.333 317.667L422.667 317.333z"/>
<path style="fill:#7286ba; stroke:none;" d="M457 317L458 318L457 317z"/>
<path style="fill:#3453bc; stroke:none;" d="M458 317L458 318L469 318L458 317M481 317L482 318L481 317z"/>
<path style="fill:#7286ba; stroke:none;" d="M488 317L489 318L488 317z"/>
<path style="fill:#3453bc; stroke:none;" d="M522 317L522 318L534 318L522 317z"/>
<path style="fill:#7286ba; stroke:none;" d="M534 317L535 318L534 317M290 318L291 319L290 318M294 318L295 319L294 318z"/>
<path style="fill:#3453bc; stroke:none;" d="M295 318L296 319L295 318z"/>
<path style="fill:#7286ba; stroke:none;" d="M307 318L308 319L307 318M319 318L320 319L319 318z"/>
<path style="fill:#b6caee; stroke:none;" d="M382.667 318.333L383.333 318.667L382.667 318.333z"/>
<path style="fill:#7286ba; stroke:none;" d="M384 318L384 319L387 319L384 318M415 318L415 319L418 319L415 318z"/>
<path style="fill:#b6caee; stroke:none;" d="M418.667 318.333L419.333 318.667L418.667 318.333z"/>
<path style="fill:#7286ba; stroke:none;" d="M481 318L481 322L482 322L481 318z"/>
<path style="fill:#3453bc; stroke:none;" d="M488.333 318.667L488.667 319.333L488.333 318.667z"/>
<path style="fill:#7286ba; stroke:none;" d="M502.333 318.667L502.667 319.333L502.333 318.667z"/>
<path style="fill:#3453bc; stroke:none;" d="M509 318L509 323L510 323L509 318z"/>
<path style="fill:#7286ba; stroke:none;" d="M535 318L536 319L535 318M289 319L290 320L289 319z"/>
<path style="fill:#3453bc; stroke:none;" d="M296 319L297 320L296 319z"/>
<path style="fill:#7286ba; stroke:none;" d="M306 319L307 320L306 319M318 319L319 320L318 319z"/>
<path style="fill:#b6caee; stroke:none;" d="M388 319L388 320L391 320L388 319z"/>
<path style="fill:#7286ba; stroke:none;" d="M391 319L391 320L396 320L391 319M407 319L407 320L411 320L407 319z"/>
<path style="fill:#b6caee; stroke:none;" d="M411 319L411 320L414 320L411 319z"/>
<path style="fill:#7286ba; stroke:none;" d="M455 319L456 320L455 319z"/>
<path style="fill:#3453bc; stroke:none;" d="M288 320L288 323L289 323L288 320z"/>
<path style="fill:#7286ba; stroke:none;" d="M297 320L298 321L297 320M305 320L306 321L305 320z"/>
<path style="fill:#3453bc; stroke:none;" d="M317 320L318 321L317 320M455 320L456 321L455 320M502.333 320.667L502.667 321.333L502.333 320.667z"/>
<path style="fill:#7286ba; stroke:none;" d="M536 320L537 321L536 320M298 321L299 322L298 321z"/>
<path style="fill:#3453bc; stroke:none;" d="M303 321L304 322L303 321M316 321L317 322L316 321z"/>
<path style="fill:#7286ba; stroke:none;" d="M455 321L456 322L455 321z"/>
<path style="fill:#3453bc; stroke:none;" d="M488.333 321.667L488.667 322.333L488.333 321.667z"/>
<path style="fill:#7286ba; stroke:none;" d="M299 322L300 323L299 322z"/>
<path style="fill:#3453bc; stroke:none;" d="M302 322L303 323L302 322M315 322L316 323L315 322M456 322L457 323L456 322M481.333 322.667L481.667 323.333L481.333 322.667z"/>
<path style="fill:#7286ba; stroke:none;" d="M502 322L503 323L502 322M535 322L536 323L535 322M300 323L301 324L300 323z"/>
<path style="fill:#3453bc; stroke:none;" d="M301 323L302 324L301 323M314 323L315 324L314 323z"/>
<path style="fill:#7286ba; stroke:none;" d="M457 323L458 324L457 323z"/>
<path style="fill:#3453bc; stroke:none;" d="M458 323L458 324L469 324L458 323z"/>
<path style="fill:#7286ba; stroke:none;" d="M488 323L489 324L488 323z"/>
<path style="fill:#3453bc; stroke:none;" d="M522 323L522 324L534 324L522 323z"/>
<path style="fill:#7286ba; stroke:none;" d="M534 323L535 324L534 323z"/>
<path style="fill:#3453bc; stroke:none;" d="M289 324L290 325L289 324z"/>
<path style="fill:#7286ba; stroke:none;" d="M312 324L313 325L312 324z"/>
<path style="fill:#3453bc; stroke:none;" d="M469 324L470 325L469 324M489 324L490 325L489 324z"/>
<path style="fill:#7286ba; stroke:none;" d="M501 324L502 325L501 324M508 324L509 325L508 324z"/>
<path style="fill:#3453bc; stroke:none;" d="M521 324L522 325L521 324M290 325L291 326L290 325z"/>
<path style="fill:#7286ba; stroke:none;" d="M311 325L312 326L311 325M469.333 325.667L469.667 326.333L469.333 325.667M482 325L483 326L482 325z"/>
<path style="fill:#3453bc; stroke:none;" d="M490 325L491 326L490 325M500 325L501 326L500 325M508 325L509 326L508 325z"/>
<path style="fill:#7286ba; stroke:none;" d="M521.333 325.667L521.667 326.333L521.333 325.667z"/>
<path style="fill:#3453bc; stroke:none;" d="M291 326L292 327L291 326z"/>
<path style="fill:#7286ba; stroke:none;" d="M310 326L311 327L310 326z"/>
<path style="fill:#3453bc; stroke:none;" d="M482 326L483 327L482 326M491 326L492 327L491 326z"/>
<path style="fill:#7286ba; stroke:none;" d="M499 326L500 327L499 326M309 327L310 328L309 327M483 327L484 328L483 327M492.667 327.333L493.333 327.667L492.667 327.333z"/>
<path style="fill:#3453bc; stroke:none;" d="M494 327L494 328L497 328L494 327z"/>
<path style="fill:#7286ba; stroke:none;" d="M497 327L498 328L497 327z"/>
<path style="fill:#3453bc; stroke:none;" d="M507 327L508 328L507 327z"/>
<path style="fill:#7286ba; stroke:none;" d="M294 328L295 329L294 328z"/>
<path style="fill:#3453bc; stroke:none;" d="M308 328L309 329L308 328M470 328L471 329L470 328z"/>
<path style="fill:#7286ba; stroke:none;" d="M506 328L507 329L506 328z"/>
<path style="fill:#3453bc; stroke:none;" d="M520 328L521 329L520 328z"/>
<path style="fill:#7286ba; stroke:none;" d="M295 329L296 330L295 329z"/>
<path style="fill:#3453bc; stroke:none;" d="M307 329L308 330L307 329z"/>
<path style="fill:#7286ba; stroke:none;" d="M470.333 329.667L470.667 330.333L470.333 329.667z"/>
<path style="fill:#3453bc; stroke:none;" d="M484 329L485 330L484 329z"/>
<path style="fill:#7286ba; stroke:none;" d="M520 329L521 330L520 329M296 330L297 331L296 330z"/>
<path style="fill:#3453bc; stroke:none;" d="M306 330L307 331L306 330M485 330L486 331L485 330M505 330L506 331L505 330z"/>
<path style="fill:#7286ba; stroke:none;" d="M297 331L298 332L297 331z"/>
<path style="fill:#3453bc; stroke:none;" d="M305 331L306 332L305 331M471 331L472 332L471 331M486 331L487 332L486 331z"/>
<path style="fill:#7286ba; stroke:none;" d="M503 331L504 332L503 331M519 331L520 332L519 331M298 332L299 333L298 332z"/>
<path style="fill:#3453bc; stroke:none;" d="M304 332L305 333L304 332z"/>
<path style="fill:#7286ba; stroke:none;" d="M488 332L489 333L488 332z"/>
<path style="fill:#3453bc; stroke:none;" d="M502 332L503 333L502 332M300 333L301 334L300 333z"/>
<path style="fill:#7286ba; stroke:none;" d="M301 333L302 334L301 333z"/>
<path style="fill:#3453bc; stroke:none;" d="M302 333L303 334L302 333z"/>
<path style="fill:#7286ba; stroke:none;" d="M472 333L473 334L472 333M490.667 333.333L491.333 333.667L490.667 333.333M499.667 333.333L500.333 333.667L499.667 333.333M518 333L519 334L518 333z"/>
<path style="fill:#3453bc; stroke:none;" d="M492 334L492 335L495 335L492 334z"/>
<path style="fill:#7286ba; stroke:none;" d="M495 334L496 335L495 334z"/>
<path style="fill:#3453bc; stroke:none;" d="M496 334L496 335L499 335L496 334M517 334L518 335L517 334z"/>
<path style="fill:#7286ba; stroke:none;" d="M473 335L474 336L473 335M517 335L518 336L517 335M474 336L475 337L474 336M516 336L517 337L516 336z"/>
<path style="fill:#3453bc; stroke:none;" d="M475 337L476 338L475 337M515 337L516 338L515 337M514 338L515 339L514 338M477 339L478 340L477 339M513 339L514 340L513 339M478 340L479 341L478 340M512 340L513 341L512 340M479 341L480 342L479 341z"/>
<path style="fill:#7286ba; stroke:none;" d="M511 341L512 342L511 341M480 342L481 343L480 342z"/>
<path style="fill:#3453bc; stroke:none;" d="M509 342L510 343L509 342z"/>
<path style="fill:#7286ba; stroke:none;" d="M510 342L511 343L510 342M482 343L483 344L482 343M508 343L509 344L508 343z"/>
<path style="fill:#3453bc; stroke:none;" d="M484 344L485 345L484 344z"/>
<path style="fill:#7286ba; stroke:none;" d="M506 344L507 345L506 344M486 345L487 346L486 345z"/>
<path style="fill:#3453bc; stroke:none;" d="M487 345L488 346L487 345M503 345L504 346L503 345z"/>
<path style="fill:#7286ba; stroke:none;" d="M504 345L505 346L504 345M489.667 346.333L490.333 346.667L489.667 346.333z"/>
<path style="fill:#3453bc; stroke:none;" d="M491 346L492 347L491 346M499 346L500 347L499 346z"/>
<path style="fill:#7286ba; stroke:none;" d="M500.667 346.333L501.333 346.667L500.667 346.333z"/>
<path style="fill:#3453bc; stroke:none;" d="M492 347L492 359L493 359L492 347M498 347L498 358L499 358L498 347z"/>
<path style="fill:#7286ba; stroke:none;" d="M277.333 348.667L277.667 349.333L277.333 348.667M334.333 349.667L334.667 350.333L334.333 349.667z"/>
<path style="fill:#3453bc; stroke:none;" d="M278 351L279 352L278 351M333 351L334 352L333 351z"/>
<path style="fill:#7286ba; stroke:none;" d="M279 353L280 354L279 353M332 353L333 354L332 353z"/>
<path style="fill:#3453bc; stroke:none;" d="M281 354L282 355L281 354M330 354L331 355L330 354z"/>
<path style="fill:#7286ba; stroke:none;" d="M282.667 355.333L283.333 355.667L282.667 355.333z"/>
<path style="fill:#3453bc; stroke:none;" d="M284 355L284 356L328 356C316.537 351.19 296.48 355 284 355z"/>
<path style="fill:#7286ba; stroke:none;" d="M328.667 355.333L329.333 355.667L328.667 355.333M498 358L499 359L498 358M492 359L493 360L492 359M493 360L494 361L493 360z"/>
<path style="fill:#3453bc; stroke:none;" d="M494 360L494 361L497 361L494 360z"/>
<path style="fill:#7286ba; stroke:none;" d="M497 360L498 361L497 360z"/>
<path style="fill:#b6caee; stroke:none;" d="M279 390C279.006 397.17 280.079 400.945 287 404L279 390z"/>
<path style="fill:#7286ba; stroke:none;" d="M762 390L762 394L763 394L762 390z"/>
<path style="fill:#b6caee; stroke:none;" d="M761 393L763 396L761 393z"/>
<path style="fill:#7286ba; stroke:none;" d="M761 395L761 398L762 398L761 395z"/>
<path style="fill:#b6caee; stroke:none;" d="M760 397L762 400L760 397z"/>
<path style="fill:#7286ba; stroke:none;" d="M760 399C756.185 410.187 748.647 418.411 739 425L739 426C747.096 422.147 762.132 409.306 760 399z"/>
<path style="fill:#b6caee; stroke:none;" d="M759 400L760 401L759 400M760 401L761 402L760 401M758 403L759 404L758 403M759 404L760 405L759 404M757 405L758 406L757 405M758 406L759 407L758 406M756 407L757 408L756 407M755 408L756 409L755 408M756 409L757 410L756 409M754 410L755 411L754 410M755 411L756 412L755 411M754 412L755 413L754 412M752 413L753 414L752 413M751 414L752 415L751 414M750 415L751 416L750 415M752 415L753 416L752 415M749 416L750 417L749 416M751 416L752 417L751 416M750 417L751 418L750 417M747 418L748 419L747 418M749 418L750 419L749 418M746 419L747 420L746 419M748 419L749 420L748 419M745 420L746 421L745 420M747 420L748 421L747 420M744 421L745 422L744 421M746 421L747 422L746 421M742 422L743 423L742 422M480 423L480 424L483 424L480 423M741 423L742 424L741 423M743 423L744 424L743 423M477 424L478 425L477 424z"/>
<path style="fill:#7286ba; stroke:none;" d="M478 424L479 425L478 424z"/>
<path style="fill:#3453bc; stroke:none;" d="M479 424L480 425L479 424z"/>
<path style="fill:#21346c; stroke:none;" d="M480.005 424.617C470.661 426.753 473.466 441.269 482.995 439.333C492.899 437.321 489.62 422.418 480.005 424.617z"/>
<path style="fill:#7286ba; stroke:none;" d="M484 424L485 425L484 424z"/>
<path style="fill:#b6caee; stroke:none;" d="M485 424L486 425L485 424M739 424L740 425L739 424M742 424L743 425L742 424z"/>
<path style="fill:#7286ba; stroke:none;" d="M476 425L477 426L476 425M486 425L487 426L486 425z"/>
<path style="fill:#b6caee; stroke:none;" d="M738.333 425.667L738.667 426.333L738.333 425.667M740 425L741 426L740 425z"/>
<path style="fill:#7286ba; stroke:none;" d="M475 426L476 427L475 426z"/>
<path style="fill:#3453bc; stroke:none;" d="M487 426L488 427L487 426z"/>
<path style="fill:#b6caee; stroke:none;" d="M736.333 426.667L736.667 427.333L736.333 426.667z"/>
<path style="fill:#7286ba; stroke:none;" d="M737 426L738 427L737 426z"/>
<path style="fill:#b6caee; stroke:none;" d="M474 427L475 428L474 427z"/>
<path style="fill:#7286ba; stroke:none;" d="M488 427L489 428L488 427z"/>
<path style="fill:#b6caee; stroke:none;" d="M733 427L735 429L735 427L733 427z"/>
<path style="fill:#7286ba; stroke:none;" d="M735 427L736 428L735 427z"/>
<path style="fill:#b6caee; stroke:none;" d="M489 428L490 429L489 428M731 428L733 430L731 428z"/>
<path style="fill:#7286ba; stroke:none;" d="M732.667 428.333L733.333 428.667L732.667 428.333M473.333 429.667L473.667 430.333L473.333 429.667M489 429L490 430L489 429z"/>
<path style="fill:#b6caee; stroke:none;" d="M727 429L730 431L727 429z"/>
<path style="fill:#7286ba; stroke:none;" d="M729 429L729 430L732 430L729 429z"/>
<path style="fill:#3453bc; stroke:none;" d="M489 430L490 431L489 430z"/>
<path style="fill:#b6caee; stroke:none;" d="M722 430L722 431L727 432L727 431L722 430z"/>
<path style="fill:#7286ba; stroke:none;" d="M725 430L725 431L728 431L725 430z"/>
<path style="fill:#3453bc; stroke:none;" d="M473.333 431.667L473.667 432.333L473.333 431.667z"/>
<path style="fill:#7286ba; stroke:none;" d="M490 431L490 432L724 432L702 431L655 431L490 431z"/>
<path style="fill:#b6caee; stroke:none;" d="M490 432L490 433L722 433L700 432L653 432L490 432z"/>
<path style="fill:#7286ba; stroke:none;" d="M473 433L474 434L473 433z"/>
<path style="fill:#3453bc; stroke:none;" d="M489 433L490 434L489 433z"/>
<path style="fill:#b6caee; stroke:none;" d="M473 434L474 435L473 434z"/>
<path style="fill:#7286ba; stroke:none;" d="M489 434L490 435L489 434z"/>
<path style="fill:#b6caee; stroke:none;" d="M489 435L490 436L489 435M474 436L475 437L474 436z"/>
<path style="fill:#7286ba; stroke:none;" d="M488 436L489 437L488 436M475 437L476 438L475 437M487 437L488 438L487 437M476 438L477 439L476 438M486 438L487 439L486 438M478 439L479 440L478 439z"/>
<path style="fill:#3453bc; stroke:none;" d="M479 439L480 440L479 439M483 439L484 440L483 439z"/>
<path style="fill:#7286ba; stroke:none;" d="M484 439L485 440L484 439z"/>
<path style="fill:#b6caee; stroke:none;" d="M485 439L486 440L485 439z"/>
</svg>
