<?xml version="1.0" standalone="yes"?>
<svg xmlns="http://www.w3.org/2000/svg" width="800" height="450">
<path style="fill:#ffb930; stroke:none;" d="M0 0L0 142L123 142C128.625 142 137.535 143.688 142.741 141.397C146.374 139.797 147.588 134.889 152.001 134.466C155.839 134.098 159.968 138.303 160.222 142C160.508 146.163 156.141 150.427 152.004 150.083C147.652 149.722 146.402 145.141 142.791 143.603C137.493 141.347 128.697 143 123 143L0 143L0 213L138 213C138.079 203.636 142.626 194.963 152 191.613C161.66 188.162 173.9 190 184 190C204.747 190 229.815 186.194 250 191C258.314 150.718 284.455 116.818 318 94C314.601 91.8612 310.425 91.3013 307.105 89.0054C301.681 85.2551 301.861 77.132 309.015 75.4738C316.677 73.6981 329.761 80.7926 337 83.3449C339.786 84.3272 343.431 85.4075 344.932 88.2137C347.771 93.5211 341.098 105.705 339.333 111C337.717 115.848 336.588 122.299 331.945 125.242C321.245 132.027 321.762 115.415 323 110C313.258 114.118 304.731 123.187 297.845 131C276.929 154.732 263.021 186.008 263 218L264 218L264 209L265 209L265 213L312 213L312 217L313 217L313 211L314 211L314 215L315 215L314 206L315 206L315 209L316 209L315 202L316 202L316 204L317 204L316 199L318 200L318 199L317 197L317 196C320.391 195.54 321.315 191.003 322.718 188C326.129 180.699 330.41 173.829 336.019 168C353.963 149.35 378.375 136.324 405 138.06C429.793 139.677 452.886 151.771 468.569 171C474.349 178.086 479.218 186.384 482.319 195C483.365 197.905 483.84 203.501 487 204L486 210L487 210L487 207L488 207L487 218L488 218L488 213L489 213L489 218L490 218L490 213L519 212C523.552 221.761 536.237 232.827 545 239C538.354 229.565 524.842 222.559 520.223 212C518.196 207.367 522.98 201.221 528 201.881C532.159 202.428 535.705 206.708 539 209C530.306 172.9 519.921 143.649 491 118.17C482.413 110.604 472.638 105.604 463.015 99.6482C459.781 97.6463 456.321 94.2107 457.647 90.0154C459.951 82.7287 466.995 84.7561 472 87.2484C482.894 92.6729 492.72 99.7595 502 107.59C530.713 131.819 553.363 171.865 555 210C558.613 207.466 562.413 202.484 567 201.881C572.092 201.212 576.948 207.302 574.802 212C570.691 221.001 559.7 226.909 554 235L578 213.603L603 213L660 213L660 219L661 219L662 139C670.733 144.157 668.796 152.073 669.015 161C669.44 178.36 672.952 195.665 673 213L674 213L674 209L675 209L675 213L775 214L775 215L770 215L770 216L777 215L780 220L775 214L775 213L800 213L800 18L791 16L791 15L800 15L800 0L0 0z"/>
<path style="fill:#fc8f2d; stroke:none;" d="M662 134L674 134L674 133C666.769 128.576 670.003 111.527 670 104C669.992 83.3811 667.999 62.6263 668 42C668.001 31.8283 669.114 21.3621 679 16C666.579 13.4309 662.015 29.9148 662 39C661.949 70.6665 662 102.333 662 134M791 15L791 16L800 18L800 15L791 15z"/>
<path style="fill:#fffefc; stroke:none;" d="M394 49.5178C355.627 57.7169 369.865 116.631 408 108.482C446.373 100.283 432.135 41.3694 394 49.5178z"/>
<path style="fill:#fc8f2d; stroke:none;" d="M307 75L308 76L307 75z"/>
<path style="fill:#27303f; stroke:none;" d="M318 93L318 95C308.369 98.1935 300.032 106.979 293 114C272.235 134.732 257.425 160.341 250.654 189C247.768 201.216 246.915 213.497 247.001 226C247.037 231.323 249.068 238.03 255.985 236.522C260.638 235.508 261.854 231.161 261.985 227C262.336 215.795 262.679 204.975 265.374 194C274.495 156.86 295.517 132.295 324 108C322.16 113.657 318.84 129.812 330.981 125.392C338.882 122.516 341.736 104.252 343.975 97C344.9 94.0009 346.448 90.1245 344.357 87.2778C340.912 82.5854 330.314 81.0419 325 79.3441C319.927 77.7234 311.06 73.2215 306.148 76.7462C295.501 84.3866 312.081 91.6299 318 93z"/>
<path style="fill:#fc8f2d; stroke:none;" d="M312.667 75.3333L313.333 75.6667L312.667 75.3333M305 76L306 77L305 76M315.667 76.3333L316.333 76.6667L315.667 76.3333M304 77L305 78L304 77M318.667 77.3333L319.333 77.6667L318.667 77.3333M322 78L323 79L322 78M325 79L326 80L325 79M328 80L329 81L328 80M302 81L302 84L303 84L302 81M331 81L332 82L331 81M334 82L335 83L334 82M337 83L338 84L337 83M340 84L341 85L340 84M462 84L463 85L462 84z"/>
<path style="fill:#27303f; stroke:none;" d="M539 210C534.739 205.778 519.233 195.811 520.207 210C520.572 215.317 526.536 219.536 530 223C534.132 227.132 541.498 237.915 547.985 237.573C554.862 237.211 572.186 218.212 574.393 212C577.03 204.577 569.043 200.03 563 203.742C559.737 205.747 557.138 208.792 554 211C553.996 172.305 531.027 133.395 503 108.171C493.447 99.573 482.448 92.3022 471 86.49C466.29 84.0986 458.963 83.2492 457.478 90.0185C456.325 95.2705 461.01 98.5809 465.001 100.741C475.371 106.354 485.341 113.037 494 121.09C517.678 143.108 538.312 176.648 539 210z"/>
<path style="fill:#fc8f2d; stroke:none;" d="M466 84L467 85L466 84M303 85L304 86L303 85M344 86L345 87L344 86M304 87L305 88L304 87M345 87L346 88L345 87M472 87L473 88L472 87M305 88L306 89L305 88M457 88L458 89L457 88M474 88L475 89L474 88M307 89L308 90L307 89M476 89L477 90L476 89M309 90L310 91L309 90M478 90L479 91L478 90M312 91L313 92L312 91M345.333 91.6667L345.667 92.3333L345.333 91.6667M315 92L316 93L315 92M481 92L482 93L481 92M483 93L484 94L483 93M317 94L318 95L317 94M457 94L458 95L457 94M484 94L485 95L484 94M315 95L316 96L315 95M344 95L345 96L344 95M486 95L487 96L486 95M458 96L459 97L458 96M312 97L313 98L312 97M459 97L460 98L459 97M489 97L490 98L489 97M311 98L312 99L311 98M343 98L344 99L343 98M460 98L461 99L460 98M490 98L491 99L490 98M462 99L463 100L462 99M308 100L309 101L308 100M464 100L465 101L464 100M493 100L494 101L493 100M342 101L343 102L342 101M466 101L467 102L466 101M494 101L495 102L494 101M305 102L306 103L305 102M468 102L469 103L468 102M304 103L305 104L304 103M470 103L471 104L470 103M497 103L498 104L497 103M303 104L304 105L303 104M341 104L342 105L341 104M471 104L472 105L471 104M498 104L499 105L498 104M302 105L303 106L302 105M473 105L474 106L473 105M499 105L500 106L499 105M340 107L341 108L340 107M476 107L477 108L476 107M298 108L299 109L298 108M323 108L322 110L324 110L323 108M478 108L479 109L478 108M503 108L504 109L503 108M297 109L298 110L297 109M479 109L480 110L479 109M504 109L505 110L504 109M296 110L297 111L296 110M339 110L340 111L339 110M505 110L506 111L505 110M295 111L296 112L295 111M319 111L320 112L319 111M482 111L483 112L482 111M506 111L507 112L506 111M294 112L295 113L294 112M318 112L319 113L318 112M322 112L323 113L322 112M483 112L484 113L483 112M507 112L508 113L507 112M293 113L294 114L293 113M316 113L317 114L316 113M338 113L339 114L338 113M508 113L509 114L508 113M292 114L293 115L292 114M315 114L316 115L315 114M486 114L487 115L486 114M509 114L510 115L509 114M291 115L292 116L291 115M314 115L315 116L314 115M321 115L322 116L321 115M487 115L488 116L487 115M510 115L511 116L510 115M290 116L291 117L290 116M337 116L338 117L337 116M511 116L512 117L511 116M289 117L290 118L289 117M512 117L513 118L512 117M288 118L289 119L288 118M310 118L311 119L310 118M491 118L492 119L491 118M513 118L514 119L513 118M287 119L288 120L287 119M309 119L310 120L309 119M336 119L337 120L336 119M492 119L493 120L492 119M514 119L515 120L514 119M286 120L287 121L286 120M308 120L309 121L308 120M493 120L494 121L493 120M515 120L516 121L515 120M285 121L286 122L285 121M307 121L308 122L307 121M321 121L322 122L321 121M494 121L495 122L494 121M306 122L307 123L306 122M335 122L336 123L335 122M495 122L496 123L495 122M322 123L323 124L322 123M334 123L335 124L334 123M496 123L497 124L496 123M323 124L324 125L323 124M333 124L334 125L333 124M324 125L325 126L324 125M332 125L333 126L332 125M519 125L520 126L519 125M281 126L282 127L281 126M326 126L326 127L331 127L326 126M520 126L521 127L520 126M280 127L281 128L280 127M521 127L522 128L521 127M299 129L300 130L299 129M502 129L503 130L502 129M278 130L279 131L278 130M298 130L299 131L298 130M503 130L504 131L503 130M523 130L524 131L523 130M277 131L278 132L277 131M297 131L298 132L297 131M504 131L505 132L504 131M524 131L525 132L524 131M276 132L277 133L276 132M296 132L297 133L296 132M505 132L506 133L505 132M295 133L296 134L295 133M506 133L507 134L506 133z"/>
<path style="fill:#9aecda; stroke:none;" d="M149.055 135.029C140.053 139.828 146.732 154.251 155.945 149.667C165.292 145.017 158.147 130.18 149.055 135.029z"/>
<path style="fill:#fc8f2d; stroke:none;" d="M275 134L276 135L275 134M526 134L527 135L526 134M274 135L275 136L274 135M527 135L528 136L527 135M508 136L509 137L508 136M273 137L274 138L273 137M292 137L293 138L292 137M509 137L510 138L509 137M528 137L529 138L528 137M272 138L273 139L272 138M291 138L292 139L291 138z"/>
<path style="fill:#fffefc; stroke:none;" d="M393 138.425C377.968 140.471 363.573 144.769 351 153.57C341.844 159.979 333.531 168.546 327.59 178C288.014 240.978 342.065 321.45 415 310.701C426.767 308.966 437.935 304.427 448 298.186C511.78 258.639 493.908 156.74 421 140.425C411.921 138.393 402.274 137.163 393 138.425z"/>
<path style="fill:#fc8f2d; stroke:none;" d="M510 138L511 139L510 138M529 138L530 139L529 138M662 139L661 219L660 219L660 213L603 213L577 213.603L553 234C542.831 244.678 524.85 220.304 519 212L490 213L490 218L489 218L489 213L488 213C488.017 239.329 484.195 262.461 465.826 283C424.852 328.816 351.205 317.429 322.89 264C313.794 246.838 313.949 229.645 314 211L313 211L313 217L312 217L312 213L265 213L265 209L264 209L264 218L263 218L263 211L262 211L263 233L258 238L246 234L247 211L246 211L246 232L245 232L245 212L244 212L244 217L153 217L151 211L158 197L179 194L222 194L249 195L250 195C248.533 186.207 226.2 190 219 190L175 190C167.214 190 158.469 188.945 151 191.613C141.386 195.049 138.026 203.652 138 213L0 213L0 450L800 450L800 213L775 213L775 214C786.339 222.906 774.891 227.69 774.059 237.015C772.217 257.654 774 279.271 774 300C774 321.289 773 342.643 773 364C773 377.134 774.688 390.873 768.623 403C754.117 432.008 725.749 431 698 431L568 431C546.641 431 524.302 429.097 503.043 431.059C497.631 431.558 496.506 438.355 490.996 438.493C483.052 438.692 480.562 428.974 486.109 424.319C493.136 418.422 496.039 427.814 502.104 428.852C514.971 431.053 529.936 429 543 429L696 429C718.781 429 744.222 432.51 760.674 412.996C773.128 398.224 772 379.115 772 361C772 328.281 771 295.723 771 263C771 254.623 773.022 243.257 770.682 235.209C769.388 230.757 763.369 229.302 763.623 224.001C763.907 218.049 769.999 215.516 775 215L775 214L675 213L675 209L674 209L674 213L673 213C672.988 194.958 669.219 177.07 669.004 159C668.908 150.95 670.841 142.555 662 139M530 140L531 141L530 140M270 141L271 142L270 141M289 141L290 142L289 141M512 141L513 142L512 141M531 141L532 142L531 141z"/>
<path style="fill:#fffefc; stroke:none;" d="M0 142L0 143L144 143C132.782 138.293 113.206 142 101 142L0 142z"/>
<path style="fill:#fc8f2d; stroke:none;" d="M288 142L289 143L288 142M513 142L514 143L513 142M269 143L270 144L269 143M532 143L533 144L532 143M268 144L269 145L268 144M514 144L515 145L514 144M286 145L287 146L286 145M515 145L516 146L515 145M533 145L534 146L533 145M267 146L268 147L267 146M534 146L535 147L534 146M266 148L267 149L266 148M284 148L285 149L284 148M517 148L518 149L517 148M535 148L536 149L535 148M265 150L266 151L265 150M518 150L519 151L518 150M536 150L537 151L536 150M264 151L265 152L264 151M282 151L283 152L282 151M519 151L520 152L519 151M537 152L538 153L537 152M263 153L264 154L263 153M281 153L282 154L281 153M520 153L521 154L520 153M538 154L539 155L538 154M262.333 155.667L262.667 156.333L262.333 155.667M280 155L281 156L280 155M521 155L522 156L521 155M279 156L280 157L279 156M539 156L540 157L539 156M261.333 157.667L261.667 158.333L261.333 157.667M278 158L279 159L278 158M523 158L524 159L523 158M540 158L541 159L540 158M260.333 159.667L260.667 160.333L260.333 159.667M277 160L278 161L277 160M524 160L525 161L524 160M541 160L542 161L541 160M259 162L260 163L259 162M276 162L277 163L276 162M525 162L526 163L525 162M542 162L543 163L542 162M258 164L259 165L258 164M275 164L276 165L275 164M526 164L527 165L526 164M543.333 164.667L543.667 165.333L543.333 164.667M257.333 166.667L257.667 167.333L257.333 166.667M274 166L275 167L274 166M527 166L528 167L527 166M544 167L545 168L544 167M273.333 168.667L273.667 169.333L273.333 168.667M256 169L257 170L256 169M528 169L529 170L528 169M545 169L546 170L545 169M255.333 171.667L255.667 172.333L255.333 171.667M272 171L273 172L272 171M529 171L530 172L529 171M546 172L547 173L546 172M271.333 173.667L271.667 174.333L271.333 173.667z"/>
<path style="fill:#9aecda; stroke:none;" d="M392 173L393 174L392 173z"/>
<path style="fill:#27303f; stroke:none;" d="M393.109 173.742C386.771 176.468 391.149 184.274 386.682 188.186C384.092 190.454 377.466 194.753 374 194.738C368.727 194.714 364.711 188.487 359.61 193.434C356.55 196.401 352.999 202.614 353.253 206.996C353.606 213.076 361.386 214.054 362.107 220.004C363.94 235.144 345.417 242.804 359.61 256.566C365.243 262.028 370.147 253.666 376 255.643C379.267 256.746 386.125 260.293 387.972 263.275C389.928 266.431 388.221 270.569 390.179 273.772C392.92 278.254 403.608 278.071 407.941 276.258C414.195 273.641 410.182 265.672 415.148 261.814C417.98 259.614 424.375 255.279 428 255.378C433.143 255.519 437.344 261.414 442.215 256.566C445.231 253.563 449 247.415 448.747 243.015C448.387 236.765 439.985 236.271 439.653 229.985C439.484 226.798 438.948 220.958 440.198 218.043C441.617 214.733 445.367 213.583 447.396 210.791C451.068 205.738 446.24 197.946 442.621 194.149C436.64 187.874 432.303 196.389 426 194.382C422.406 193.238 415.937 189.721 413.603 186.726C411.173 183.607 412.944 179.453 410.972 176.228C408.253 171.781 397.397 171.898 393.109 173.742z"/>
<path style="fill:#fc8f2d; stroke:none;" d="M408 173L409 174L408 173z"/>
<path style="fill:#9aecda; stroke:none;" d="M410 174L411 175L410 174z"/>
<path style="fill:#fc8f2d; stroke:none;" d="M530 174L531 175L530 174M254 175L255 176L254 175z"/>
<path style="fill:#9aecda; stroke:none;" d="M411 175L412 176L411 175z"/>
<path style="fill:#fc8f2d; stroke:none;" d="M547 175L548 176L547 175M270 176L271 177L270 176z"/>
<path style="fill:#9aecda; stroke:none;" d="M389 176L390 177L389 176z"/>
<path style="fill:#fc8f2d; stroke:none;" d="M531.333 176.667L531.667 177.333L531.333 176.667M253.333 177.667L253.667 178.333L253.333 177.667z"/>
<path style="fill:#9aecda; stroke:none;" d="M412 177L412 186L413 186L412 177z"/>
<path style="fill:#fc8f2d; stroke:none;" d="M548.333 177.667L548.667 178.333L548.333 177.667M269.333 179.667L269.667 180.333L269.333 179.667M532.333 179.667L532.667 180.333L532.333 179.667M252 180L252 183L253 183L252 180M549.333 181.667L549.667 182.333L549.333 181.667M268.333 182.667L268.667 183.333L268.333 182.667M533.333 182.667L533.667 183.333L533.333 182.667M251.333 184.667L251.667 185.333L251.333 184.667M267.333 185.667L267.667 186.333L267.333 185.667M534.333 185.667L534.667 186.333L534.333 185.667M550.333 185.667L550.667 186.333L550.333 185.667M412 186L413 187L412 186z"/>
<path style="fill:#9aecda; stroke:none;" d="M388 187L389 188L388 187z"/>
<path style="fill:#fc8f2d; stroke:none;" d="M250.333 188.667L250.667 189.333L250.333 188.667M387 188L388 189L387 188z"/>
<path style="fill:#9aecda; stroke:none;" d="M414 188L415 189L414 188z"/>
<path style="fill:#fc8f2d; stroke:none;" d="M551 188L551 191L552 191L551 188M266.333 189.667L266.667 190.333L266.333 189.667z"/>
<path style="fill:#9aecda; stroke:none;" d="M384 189L385 190L384 189M417 189L418 190L417 189z"/>
<path style="fill:#fc8f2d; stroke:none;" d="M535.333 189.667L535.667 190.333L535.333 189.667z"/>
<path style="fill:#9aecda; stroke:none;" d="M382 190L383 191L382 190M419 190L420 191L419 190z"/>
<path style="fill:#fc8f2d; stroke:none;" d="M319 191L320 192L319 191z"/>
<path style="fill:#9aecda; stroke:none;" d="M361 191L362 192L361 191M366 191L367 192L366 191z"/>
<path style="fill:#fc8f2d; stroke:none;" d="M420 191L421 192L420 191z"/>
<path style="fill:#9aecda; stroke:none;" d="M435 191L436 192L435 191M440 191L441 192L440 191M368 192L369 193L368 192M379 192L380 193L379 192M422 192L423 193L422 192M433 192L434 193L433 192z"/>
<path style="fill:#fc8f2d; stroke:none;" d="M441 192L442 193L441 192z"/>
<path style="fill:#ffb930; stroke:none;" d="M248 193C243.4 196.086 232.553 194 227 194L179 194C171.45 194 162.311 193.069 156.133 198.419C152.368 201.68 152.115 206.475 151 211L153 217L244 217L244 212L245 212L245 232L246 232L248 193z"/>
<path style="fill:#fc8f2d; stroke:none;" d="M265.333 193.667L265.667 194.333L265.333 193.667z"/>
<path style="fill:#9aecda; stroke:none;" d="M431 193L432 194L431 193z"/>
<path style="fill:#fc8f2d; stroke:none;" d="M442 193L443 194L442 193M536 193L536 196L537 196L536 193M552 193L552 196L553 196L552 193M318 194L319 195L318 194z"/>
<path style="fill:#9aecda; stroke:none;" d="M358 194L359 195L358 194z"/>
<path style="fill:#fc8f2d; stroke:none;" d="M371 194L372 195L371 194z"/>
<path style="fill:#9aecda; stroke:none;" d="M376 194L377 195L376 194M425 194L426 195L425 194z"/>
<path style="fill:#fc8f2d; stroke:none;" d="M430 194L431 195L430 194z"/>
<path style="fill:#9aecda; stroke:none;" d="M443 194L444 195L443 194z"/>
<path style="fill:#fc8f2d; stroke:none;" d="M483 194L484 195L483 194z"/>
<path style="fill:#9aecda; stroke:none;" d="M373.667 195.333L374.333 195.667L373.667 195.333z"/>
<path style="fill:#fc8f2d; stroke:none;" d="M375 195L376 196L375 195M426 195L427 196L426 195z"/>
<path style="fill:#9aecda; stroke:none;" d="M427.667 195.333L428.333 195.667L427.667 195.333z"/>
<path style="fill:#fc8f2d; stroke:none;" d="M317.333 196.667L317.667 197.333L317.333 196.667M357 196L358 197L357 196z"/>
<path style="fill:#9aecda; stroke:none;" d="M444 196L445 197L444 196z"/>
<path style="fill:#fc8f2d; stroke:none;" d="M248 197L248 201L249 201L248 197M264 197L264 201L265 201L264 197M484 197L485 198L484 197M553 197L553 201L554 201L553 197M445 198L446 199L445 198M537 198L537 201L538 201L537 198M316.333 199.667L316.667 200.333L316.333 199.667z"/>
<path style="fill:#9aecda; stroke:none;" d="M355 199L356 200L355 199M446 199L447 200L446 199z"/>
<path style="fill:#fc8f2d; stroke:none;" d="M485.333 199.667L485.667 200.333L485.333 199.667M565 200L566 201L565 200z"/>
<path style="fill:#9aecda; stroke:none;" d="M354 201L355 202L354 201M447 201L448 202L447 201z"/>
<path style="fill:#fc8f2d; stroke:none;" d="M525 201L525 202L529 202L525 201M566 201L566 202L570 202L566 201M572 201L573 202L572 201M315 202L315 205L316 205L315 202M523 202L524 203L523 202M530 202L531 203L530 202M555 202L556 203L555 202M564 202L565 203L564 202M571 202L572 203L571 202M263 203L263 209L264 209L263 203M353 203L354 204L353 203M448 203L449 204L448 203M522 203L523 204L522 203M532 203L533 204L532 203M538 203L538 208L539 208L538 203M562 203L563 204L562 203M572 203L573 204L572 203M247 204L247 209L248 209L247 204M486.333 204.667L486.667 205.333L486.333 204.667M521 204L522 205L521 204M533 204L534 205L533 204M554 204L556 211L554 204M559 204L556 208L559 204M561 204L562 205L561 204M352 205L352 209L353 209L352 205z"/>
<path style="fill:#9aecda; stroke:none;" d="M449 205L450 206L449 205z"/>
<path style="fill:#fc8f2d; stroke:none;" d="M520 205L521 206L520 205M534 205L535 206L534 205M536 205L537 206L536 205M560 205L561 206L560 205M574 205L575 206L574 205M576 205L577 206L576 205M314 206L314 210L315 210L314 206M449.333 206.667L449.667 207.333L449.333 206.667M535 206L536 207L535 206M559 206L560 207L559 206M575 206L575 212L576 212L575 206M487 207L487 212L488 212L487 207M519 207L519 212L520 212L519 207M536 207L537 208L536 207M558 207L559 208L558 207M577 207L577 212L578 212L577 207M245.333 208.667L245.667 209.333L245.333 208.667z"/>
<path style="fill:#9aecda; stroke:none;" d="M449 208L450 209L449 208z"/>
<path style="fill:#fc8f2d; stroke:none;" d="M537 208L538 209L537 208M557 208L558 209L557 208M396 209L397 210L396 209z"/>
<path style="fill:#9aecda; stroke:none;" d="M397 209L398 210L397 209z"/>
<path style="fill:#fffefc; stroke:none;" d="M398 209.533C378.042 213.902 384.042 244.842 404 240.467C423.924 236.099 417.837 205.191 398 209.533z"/>
<path style="fill:#9aecda; stroke:none;" d="M404 209L405 210L404 209z"/>
<path style="fill:#fc8f2d; stroke:none;" d="M405 209L406 210L405 209M517 209L517 212L518 212L517 209M538 209L539 210L538 209M556 209L557 210L556 209z"/>
<path style="fill:#9aecda; stroke:none;" d="M353 210L354 211L353 210M394 210L395 211L394 210M407 210L408 211L407 210M448 210L449 211L448 210M354 211L355 212L354 211M392 211L393 212L392 211M409 211L410 212L409 211M447 211L448 212L447 211M446 212L447 213L446 212M357 213L358 214L357 213z"/>
<path style="fill:#fc8f2d; stroke:none;" d="M389 213L390 214L389 213z"/>
<path style="fill:#9aecda; stroke:none;" d="M444 213L445 214L444 213z"/>
<path style="fill:#fc8f2d; stroke:none;" d="M520 213L521 214L520 213M574 213L575 214L574 213M359 214L360 215L359 214M442 214L443 215L442 214M521 214L522 215L521 214M573 214L574 215L573 214z"/>
<path style="fill:#ffb930; stroke:none;" d="M768 214L769 215L768 214z"/>
<path style="fill:#fc8f2d; stroke:none;" d="M522 215L523 216L522 215M572 215L573 216L572 215z"/>
<path style="fill:#ffb930; stroke:none;" d="M766 215L764 218L766 215z"/>
<path style="fill:#fc8f2d; stroke:none;" d="M775.667 215.333L776.333 215.667L775.667 215.333z"/>
<path style="fill:#9aecda; stroke:none;" d="M387 216L388 217L387 216M414 216L415 217L414 216z"/>
<path style="fill:#fc8f2d; stroke:none;" d="M523 216L524 217L523 216M571 216L572 217L571 216z"/>
<path style="fill:#ffb930; stroke:none;" d="M768 216L769 217L768 216z"/>
<path style="fill:#9aecda; stroke:none;" d="M769.044 216.743C759.559 220.539 765.887 235.731 775.127 231.896C785.065 227.771 778.905 212.797 769.044 216.743z"/>
<path style="fill:#fc8f2d; stroke:none;" d="M777 216L778 217L777 216z"/>
<path style="fill:#9aecda; stroke:none;" d="M362.333 217.667L362.667 218.333L362.333 217.667M439.333 217.667L439.667 218.333L439.333 217.667z"/>
<path style="fill:#fc8f2d; stroke:none;" d="M524 217L525 218L524 217M570 217L571 218L570 217z"/>
<path style="fill:#ffb930; stroke:none;" d="M766 217L767 218L766 217z"/>
<path style="fill:#9aecda; stroke:none;" d="M386 218L387 219L386 218M415 218L416 219L415 218z"/>
<path style="fill:#fc8f2d; stroke:none;" d="M525 218L526 219L525 218M569 218L570 219L569 218z"/>
<path style="fill:#ffb930; stroke:none;" d="M765 218L766 219L765 218M313 219L313 230L314 230L313 219z"/>
<path style="fill:#fc8f2d; stroke:none;" d="M362 219L363 220L362 219M439.333 219.667L439.667 220.333L439.333 219.667M526 219L527 220L526 219M568 219L569 220L568 219M385 220L386 221L385 220M416 220L417 221L416 220M527 220L528 221L527 220M567 220L568 221L567 220z"/>
<path style="fill:#ffb930; stroke:none;" d="M764 220L765 221L764 220M262 221L262 228L263 228L262 221z"/>
<path style="fill:#9aecda; stroke:none;" d="M385 221L386 222L385 221M416 221L417 222L416 221z"/>
<path style="fill:#fc8f2d; stroke:none;" d="M528 221L529 222L528 221M566 221L567 222L566 221z"/>
<path style="fill:#ffb930; stroke:none;" d="M780.333 221.667L780.667 222.333L780.333 221.667M488 222L488 228L489 228L488 222z"/>
<path style="fill:#fc8f2d; stroke:none;" d="M529 222L530 223L529 222M565 222L566 223L565 222z"/>
<path style="fill:#ffb930; stroke:none;" d="M763 222L763 227L764 227L763 222z"/>
<path style="fill:#fc8f2d; stroke:none;" d="M530 223L531 224L530 223M564 223L565 224L564 223M531 224L532 225L531 224M563 224L564 225L563 224M532 225L533 226L532 225M562 225L563 226L562 225M533 226L534 227L533 226M561 226L562 227L561 226z"/>
<path style="fill:#ffb930; stroke:none;" d="M780.333 226.667L780.667 227.333L780.333 226.667z"/>
<path style="fill:#fc8f2d; stroke:none;" d="M534 227L535 228L534 227M560 227L561 228L560 227z"/>
<path style="fill:#ffb930; stroke:none;" d="M764.333 227.667L764.667 228.333L764.333 227.667z"/>
<path style="fill:#9aecda; stroke:none;" d="M416 228L417 229L416 228z"/>
<path style="fill:#fc8f2d; stroke:none;" d="M535 228L536 229L535 228M559 228L560 229L559 228z"/>
<path style="fill:#ffb930; stroke:none;" d="M779 228L780 229L779 228z"/>
<path style="fill:#fc8f2d; stroke:none;" d="M385 229L386 230L385 229M416 229L417 230L416 229M439.333 229.667L439.667 230.333L439.333 229.667M536 229L537 230L536 229M558 229L559 230L558 229z"/>
<path style="fill:#ffb930; stroke:none;" d="M765 229L766 230L765 229z"/>
<path style="fill:#fc8f2d; stroke:none;" d="M362.333 230.667L362.667 231.333L362.333 230.667M537 230L538 231L537 230M557 230L558 231L557 230z"/>
<path style="fill:#ffb930; stroke:none;" d="M766 230L767 231L766 230M262.333 231.667L262.667 232.333L262.333 231.667z"/>
<path style="fill:#9aecda; stroke:none;" d="M386 231L387 232L386 231M415 231L416 232L415 231M439.333 231.667L439.667 232.333L439.333 231.667z"/>
<path style="fill:#fc8f2d; stroke:none;" d="M538 231L539 232L538 231M556 231L557 232L556 231z"/>
<path style="fill:#ffb930; stroke:none;" d="M767 231L768 232L767 231M776 231L777 232L776 231M246.333 232.667L246.667 233.333L246.333 232.667z"/>
<path style="fill:#9aecda; stroke:none;" d="M362 232L363 233L362 232z"/>
<path style="fill:#ffb930; stroke:none;" d="M487 232L487 237L488 237L487 232z"/>
<path style="fill:#fc8f2d; stroke:none;" d="M539 232L540 233L539 232M555 232L556 233L555 232z"/>
<path style="fill:#ffb930; stroke:none;" d="M769.667 232.333L770.333 232.667L769.667 232.333z"/>
<path style="fill:#fffefc; stroke:none;" d="M772 232L772 352C772 370.995 775.208 392.722 763.236 409C744.606 434.331 714.658 429 687 429L499 429L499 431L688 431C713.505 431 744.529 435.711 762.482 412.999C773.68 398.833 773 383.055 773 366L773 303L773 254C773 247.314 774.599 238.194 772 232z"/>
<path style="fill:#ffb930; stroke:none;" d="M774 232L775 233L774 232z"/>
<path style="fill:#9aecda; stroke:none;" d="M387 233L388 234L387 233M414 233L415 234L414 233z"/>
<path style="fill:#fc8f2d; stroke:none;" d="M540 233L541 234L540 233M554 233L555 234L554 233z"/>
<path style="fill:#ffb930; stroke:none;" d="M771 233L771 314L772 314L772 258L771 233M773 233L773 314L774 314L774 258L773 233M247 234L252 238L252 237L247 234M261 234L260 236L261 234z"/>
<path style="fill:#fc8f2d; stroke:none;" d="M440 234L441 235L440 234M541 234L542 235L541 234z"/>
<path style="fill:#ffb930; stroke:none;" d="M314 235L314 238L315 238L314 235z"/>
<path style="fill:#9aecda; stroke:none;" d="M359 235L360 236L359 235M442 235L443 236L442 235z"/>
<path style="fill:#fc8f2d; stroke:none;" d="M542 235L543 236L542 235z"/>
<path style="fill:#9aecda; stroke:none;" d="M357 236L358 237L357 236z"/>
<path style="fill:#fc8f2d; stroke:none;" d="M389 236L390 237L389 236M412 236L413 237L412 236z"/>
<path style="fill:#9aecda; stroke:none;" d="M444 236L445 237L444 236z"/>
<path style="fill:#fc8f2d; stroke:none;" d="M543 236L544 237L543 236z"/>
<path style="fill:#ffb930; stroke:none;" d="M256.667 237.333L257.333 237.667L256.667 237.333z"/>
<path style="fill:#9aecda; stroke:none;" d="M355 237L356 238L355 237z"/>
<path style="fill:#fc8f2d; stroke:none;" d="M445 237L446 238L445 237M544 237L545 238L544 237z"/>
<path style="fill:#ffb930; stroke:none;" d="M254 238L255 239L254 238z"/>
<path style="fill:#9aecda; stroke:none;" d="M354 238L355 239L354 238M392 238L393 239L392 238M409 238L410 239L409 238M447 238L448 239L447 238z"/>
<path style="fill:#ffb930; stroke:none;" d="M550 238L551 239L550 238z"/>
<path style="fill:#fc8f2d; stroke:none;" d="M353 239L354 240L353 239z"/>
<path style="fill:#9aecda; stroke:none;" d="M407 239L408 240L407 239M448 239L449 240L448 239z"/>
<path style="fill:#ffb930; stroke:none;" d="M546 239L546 240L549 240L546 239z"/>
<path style="fill:#9aecda; stroke:none;" d="M396.667 240.333L397.333 240.667L396.667 240.333M404 240L405 241L404 240z"/>
<path style="fill:#fc8f2d; stroke:none;" d="M405 240L406 241L405 240z"/>
<path style="fill:#ffb930; stroke:none;" d="M486 240L486 244L487 244L486 240M315 241L315 244L316 244L315 241z"/>
<path style="fill:#9aecda; stroke:none;" d="M352 241L353 242L352 241M449 241L450 242L449 241z"/>
<path style="fill:#fc8f2d; stroke:none;" d="M352 242L352 245L353 245L352 242M449.333 242.667L449.667 243.333L449.333 242.667z"/>
<path style="fill:#9aecda; stroke:none;" d="M449 244L450 245L449 244M352 245L353 246L352 245z"/>
<path style="fill:#ffb930; stroke:none;" d="M485.333 245.667L485.667 246.333L485.333 245.667M316.333 246.667L316.667 247.333L316.333 246.667z"/>
<path style="fill:#fc8f2d; stroke:none;" d="M353 246L354 247L353 246M448 246L449 247L448 246z"/>
<path style="fill:#9aecda; stroke:none;" d="M354 248L355 249L354 248M447 248L448 249L447 248z"/>
<path style="fill:#ffb930; stroke:none;" d="M317.333 249.667L317.667 250.333L317.333 249.667M484.333 249.667L484.667 250.333L484.333 249.667z"/>
<path style="fill:#9aecda; stroke:none;" d="M355 250L356 251L355 250M446 250L447 251L446 250z"/>
<path style="fill:#fc8f2d; stroke:none;" d="M445 251L446 252L445 251z"/>
<path style="fill:#ffb930; stroke:none;" d="M483.333 252.667L483.667 253.333L483.333 252.667M318 253L319 254L318 253z"/>
<path style="fill:#fc8f2d; stroke:none;" d="M357 253L358 254L357 253z"/>
<path style="fill:#9aecda; stroke:none;" d="M444 253L445 254L444 253z"/>
<path style="fill:#fc8f2d; stroke:none;" d="M373 254L374 255L373 254z"/>
<path style="fill:#9aecda; stroke:none;" d="M374 254L375 255L374 254z"/>
<path style="fill:#fc8f2d; stroke:none;" d="M375 254L376 255L375 254M426 254L427 255L426 254z"/>
<path style="fill:#9aecda; stroke:none;" d="M427 254L428 255L427 254z"/>
<path style="fill:#fc8f2d; stroke:none;" d="M428 254L429 255L428 254z"/>
<path style="fill:#ffb930; stroke:none;" d="M319.333 255.667L319.667 256.333L319.333 255.667z"/>
<path style="fill:#9aecda; stroke:none;" d="M358 255L359 256L358 255z"/>
<path style="fill:#fc8f2d; stroke:none;" d="M371 255L372 256L371 255z"/>
<path style="fill:#9aecda; stroke:none;" d="M376 255L377 256L376 255M425 255L426 256L425 255M443 255L444 256L443 255z"/>
<path style="fill:#ffb930; stroke:none;" d="M482 255L483 256L482 255z"/>
<path style="fill:#9aecda; stroke:none;" d="M431 256L432 257L431 256z"/>
<path style="fill:#fc8f2d; stroke:none;" d="M442 256L443 257L442 256z"/>
<path style="fill:#9aecda; stroke:none;" d="M368 257L369 258L368 257z"/>
<path style="fill:#fc8f2d; stroke:none;" d="M379 257L380 258L379 257z"/>
<path style="fill:#9aecda; stroke:none;" d="M422 257L423 258L422 257M433 257L434 258L433 257z"/>
<path style="fill:#ffb930; stroke:none;" d="M481.333 257.667L481.667 258.333L481.333 257.667M320 258L321 259L320 258z"/>
<path style="fill:#9aecda; stroke:none;" d="M361 258L362 259L361 258M366 258L367 259L366 258z"/>
<path style="fill:#fc8f2d; stroke:none;" d="M435 258L436 259L435 258z"/>
<path style="fill:#9aecda; stroke:none;" d="M440 258L441 259L440 258M382 259L383 260L382 259M419 259L420 260L419 259z"/>
<path style="fill:#ffb930; stroke:none;" d="M321.333 260.667L321.667 261.333L321.333 260.667z"/>
<path style="fill:#9aecda; stroke:none;" d="M384 260L385 261L384 260M417 260L418 261L417 260z"/>
<path style="fill:#ffb930; stroke:none;" d="M480 260L481 261L480 260M266 261L266 262L277 262L266 261z"/>
<path style="fill:#fc8f2d; stroke:none;" d="M387 261L388 262L387 261M414 261L415 262L414 261z"/>
<path style="fill:#ffb930; stroke:none;" d="M263.667 262.333L264.333 262.667L263.667 262.333z"/>
<path style="fill:#fffefc; stroke:none;" d="M265 262.468C227.633 269.517 239.752 328.251 277 321.535C316.369 314.437 304.205 255.071 265 262.468z"/>
<path style="fill:#ffb930; stroke:none;" d="M279.667 262.333L280.333 262.667L279.667 262.333M322.333 262.667L322.667 263.333L322.333 262.667z"/>
<path style="fill:#9aecda; stroke:none;" d="M388 262L389 263L388 262M413 262L414 263L413 262z"/>
<path style="fill:#ffb930; stroke:none;" d="M479 262L480 263L479 262M523 262L523 263L526 263L523 262z"/>
<path style="fill:#fffefc; stroke:none;" d="M526 262.44C485.754 268.842 496.991 328.687 537 321.671C573.761 315.225 562.657 256.608 526 262.44z"/>
<path style="fill:#ffb930; stroke:none;" d="M534 262L534 263L537 263L534 262M260 263L261 264L260 263M282.667 263.333L283.333 263.667L282.667 263.333z"/>
<path style="fill:#fc8f2d; stroke:none;" d="M412 263L413 264L412 263z"/>
<path style="fill:#ffb930; stroke:none;" d="M520 263L521 264L520 263M539.667 263.333L540.333 263.667L539.667 263.333M258 264L259 265L258 264M285 264L286 265L285 264M323.333 264.667L323.667 265.333L323.333 264.667z"/>
<path style="fill:#9aecda; stroke:none;" d="M412 264L412 273L413 273L412 264z"/>
<path style="fill:#ffb930; stroke:none;" d="M478 264L479 265L478 264M517.667 264.333L518.333 264.667L517.667 264.333M542 264L543 265L542 264M256 265L257 266L256 265M515 265L516 266L515 265M544 265L545 266L544 265M254 266L255 267L254 266M288 266L289 267L288 266M324 266L325 267L324 266M477 266L478 267L477 266M514 266L515 267L514 266M546 266L547 267L546 266M253 267L254 268L253 267M289 267L290 268L289 267M512 267L513 268L512 267M547 267L548 268L547 267M252 268L253 269L252 268M325 268L326 269L325 268M476 268L477 269L476 268M511 268L512 269L511 268M548 268L549 269L548 268M251 269L252 270L251 269M292 269L293 270L292 269M475 269L476 270L475 269M510 269L511 270L510 269M293 270L294 271L293 270M326 270L327 271L326 270M551 270L552 271L551 270M249 271L250 272L249 271M294 271L295 272L294 271M327 271L328 272L327 271M474 271L475 272L474 271M552 271L553 272L552 271M248 272L249 273L248 272M507 272L508 273L507 272M247 273L248 274L247 273M328 273L329 274L328 273z"/>
<path style="fill:#9aecda; stroke:none;" d="M389 273L390 274L389 273z"/>
<path style="fill:#ffb930; stroke:none;" d="M473 273L474 274L473 273M506 273L507 274L506 273M246 274L247 275L246 274M296 274L297 275L296 274z"/>
<path style="fill:#9aecda; stroke:none;" d="M411 274L412 275L411 274z"/>
<path style="fill:#ffb930; stroke:none;" d="M472 274L473 275L472 274M505 274L506 275L505 274M554 274L555 275L554 274M297 275L298 276L297 275z"/>
<path style="fill:#9aecda; stroke:none;" d="M410 275L411 276L410 275z"/>
<path style="fill:#ffb930; stroke:none;" d="M555 275L556 276L555 275M245 276L246 277L245 276M330 276L331 277L330 276z"/>
<path style="fill:#9aecda; stroke:none;" d="M392 276L393 277L392 276z"/>
<path style="fill:#fc8f2d; stroke:none;" d="M408 276L409 277L408 276z"/>
<path style="fill:#ffb930; stroke:none;" d="M504 276L505 277L504 276M298 277L299 278L298 277M331 277L332 278L331 277M470 277L471 278L470 277M503 277L504 278L503 277M556 277L557 278L556 277M244 278L245 279L244 278M469 278L470 279L469 278M557.333 278.667L557.667 279.333L557.333 278.667M299 279L300 280L299 279M502 279L503 280L502 279M243 280L244 281L243 280M333 280L334 281L333 280M300.333 281.667L300.667 282.333L300.333 281.667M334 281L335 282L334 281M467 281L468 282L467 281M501.333 281.667L501.667 282.333L501.333 281.667M558 281L559 282L558 281M242.333 282.667L242.667 283.333L242.333 282.667M335 282L336 283L335 282M466 282L467 283L466 282M336 283L337 284L336 283M465 283L466 284L465 283M559.333 283.667L559.667 284.333L559.333 283.667M301 284L301 287L302 287L301 284M337 284L338 285L337 284M464 284L465 285L464 284M500 284L500 287L501 287L500 284M338 285L339 286L338 285M463 285L464 286L463 285M241 286L241 297L242 297L241 286M339 286L340 287L339 286M462 286L463 287L462 286M340 287L341 288L340 287M461 287L462 288L461 287M341 288L342 289L341 288M460 288L461 289L460 288M560 288L560 297L561 297L560 288M342 289L343 290L342 289M459 289L460 290L459 289M343 290L344 291L343 290M458 290L459 291L458 290M344 291L345 292L344 291M345 292L346 293L345 292M499 292L500 293L499 292M347 293L348 294L347 293M454 293L455 294L454 293M348 294L349 295L348 294M453 294L454 295L453 294M301 296L301 299L302 299L301 296M351 296L352 297L351 296M450 296L451 297L450 296M352 297L353 298L352 297M449 297L450 298L449 297M354 298L355 299L354 298M447 298L448 299L447 298M500.333 298.667L500.667 299.333L500.333 298.667M242.333 299.667L242.667 300.333L242.333 299.667M355 299L356 300L355 299M445 299L446 300L445 299M559 299L559 302L560 302L559 299M357 300L358 301L357 300M444 300L445 301L444 300M300 301L301 302L300 301M359 301L360 302L359 301M442 301L443 302L442 301M243.333 302.667L243.667 303.333L243.333 302.667M361 302L362 303L361 302M440 302L441 303L440 302M501 302L502 303L501 302M363 303L364 304L363 303M438 303L439 304L438 303M558 303L559 304L558 303M299 304L300 305L299 304M365 304L366 305L365 304M436 304L437 305L436 304M502 304L503 305L502 304M244 305L245 306L244 305M367 305L368 306L367 305M433.667 305.333L434.333 305.667L433.667 305.333M557 305L558 306L557 305M298 306L299 307L298 306M370 306L371 307L370 306M431 306L432 307L431 306M503 306L504 307L503 306M245 307L246 308L245 307M297 307L298 308L297 307M372.667 307.333L373.333 307.667L372.667 307.333M428 307L429 308L428 307M556 307L557 308L556 307M246 308L247 309L246 308M375.667 308.333L376.333 308.667L375.667 308.333M425.667 308.333L426.333 308.667L425.667 308.333M504 308L505 309L504 308M296 309L297 310L296 309M379.667 309.333L380.333 309.667L379.667 309.333M420 309L420 310L423 310L420 309M555 309L556 310L555 309M295 310L296 311L295 310M383 310L383 311L386 311L383 310M416 310L416 311L419 311L416 310M554 310L555 311L554 310M248 311L249 312L248 311M294 311L295 312L294 311M389 311L389 312L395 312L389 311M407 311L407 312L413 312L407 311M506 311L507 312L506 311M553 311L554 312L553 311M249 312L250 313L249 312M507 312L508 313L507 312M552 312L553 313L552 312M250 313L251 314L250 313M508 313L509 314L508 313M251 314L252 315L251 314M291 314L292 315L291 314M509 314L510 315L509 314M550 314L551 315L550 314M290 315L291 316L290 315M510 315L511 316L510 315M549 315L550 316L549 315M254 316L255 317L254 316M289 316L290 317L289 316M548 316L549 317L548 316M255 317L256 318L255 317M287 317L288 318L287 317M513 317L514 318L513 317M547 317L548 318L547 317M257 318L258 319L257 318M286 318L287 319L286 318M514 318L515 319L514 318M545 318L546 319L545 318M259 319L260 320L259 319M284 319L285 320L284 319M516 319L517 320L516 319M543 319L544 320L543 319M261.667 320.333L262.333 320.667L261.667 320.333M281 320L282 321L281 320M518 320L519 321L518 320M541 320L542 321L541 320M264 321L264 322L267 322L264 321M277.667 321.333L278.333 321.667L277.667 321.333M521.667 321.333L522.333 321.667L521.667 321.333M538.667 321.333L539.333 321.667L538.667 321.333M525 322L525 323L536 323L525 322z"/>
<path style="fill:#27303f; stroke:none;" d="M324 358C365.5 376.771 404.422 383.669 449 370.576C463.089 366.437 476.983 359.019 488.999 350.652C493.416 347.577 499.525 340.798 493.566 335.742C488.96 331.834 482.965 335.903 479 338.576C467.916 346.049 455.782 352.148 443 356.116C404.239 368.149 370.517 360.982 334 346C337.197 344.435 340.816 344.044 343.956 342.428C350.11 339.261 349.706 331.126 342.985 328.782C335.879 326.304 322.282 331.54 315 333C312.146 333.572 307.966 333.761 306.183 336.433C302.801 341.5 307.577 353.464 308.576 359C309.549 364.393 309.512 372.898 315.058 375.816C327.272 382.243 325.111 363.73 324 358z"/>
<path style="fill:#ffb930; stroke:none;" d="M771 385L771 389L772 389L771 385M772 390L772 393L773 393L772 390M770.333 392.667L770.667 393.333L770.333 392.667M771 395L772 396L771 395M769.333 396.667L769.667 397.333L769.333 396.667M770 398L771 399L770 398M768 399L769 400L768 399M769 401L770 402L769 401M768 403L769 404L768 403M766 404L767 405L766 404M767 405L768 406L767 405M764 407L765 408L764 407M765 408L766 409L765 408M762 410L763 411L762 410M763 411L764 412L763 411M753 419L754 420L753 419M752 420L753 421L752 420M754 420L755 421L754 420M753 421L754 422L753 421M487 422L488 423L487 422z"/>
<path style="fill:#9aecda; stroke:none;" d="M488.044 422.758C479.173 426.076 483.467 441.498 492.981 438.218C502.831 434.822 497.716 419.14 488.044 422.758z"/>
<path style="fill:#ffb930; stroke:none;" d="M493 422L494 423L493 422M749 422L750 423L749 422M495 423L496 424L495 423M747 423L748 424L747 423M750 423L751 424L750 423M496 424L497 425L496 424M745 424L746 425L745 424M748 424L749 425L748 424M497 425L498 426L497 425M743 425L744 426L743 425M746 425L747 426L746 425M483 426L484 427L483 426M740 426L741 427L740 426M744 426L745 427L744 426M498 427L499 428L498 427M737.667 427.333L738.333 427.667L737.667 427.333M742 427L743 428L742 427M482 428L482 433L483 433L482 428M733.667 428.333L734.333 428.667L733.667 428.333M739 428L740 429L739 428M735.667 429.333L736.333 429.667L735.667 429.333M731 430L732 431L731 430M498 432L499 433L498 432M483 434L484 435L483 434M496 436L497 437L496 436M488 438L489 439L488 438M493 438L494 439L493 438z"/>
</svg>
