<?xml version="1.0" standalone="yes"?>
<svg xmlns="http://www.w3.org/2000/svg" width="800" height="450">
<path style="fill:#e363b1; stroke:none;" d="M0 0L0 142L123 142C128.493 142 137.572 143.74 142.61 141.397C146.43 139.62 147.101 134.689 152.003 134.337C156.184 134.037 160.178 137.844 160.377 142.001C160.572 146.068 156.164 150.72 152.001 150.338C147.619 149.935 146.221 145.226 142.625 143.603C137.505 141.293 128.554 143 123 143L0 143L0 417L80 417C89.8625 417 105.517 420 114.715 416.411C121.04 413.943 127.004 406.626 132 402.166C142.9 392.433 153.975 382.874 165 373.282C174.646 364.89 184.741 356.741 193.91 347.83C197.122 344.709 202.484 339.712 202.958 335C203.425 330.356 199.908 324.748 199.289 320C198.019 310.249 199 299.827 199 290L199 142C199 119.425 192.489 84.2094 218 72.5185C227.805 68.0253 238.516 69 249 69L298 69L481 69L531 69C542.898 69 554.505 68.7884 563.996 77.1852C576.925 88.6231 576 103.184 576 119L576 196C576 206.45 572.348 225.139 576.603 234.671C578.416 238.733 584.646 240.879 588 243.518C594.468 248.606 600.395 255.033 604.771 262C627.085 297.53 614.706 344.145 578 364.561C557.956 375.709 532.435 375.948 512 365.73C504.285 361.873 497.135 352.344 489 350.318C477.654 347.491 462.699 350 451 350L370 350L273 350C256.917 350 236.281 353.416 221 347.91C214.582 345.597 210.426 340.819 205 337C199.941 348.111 191.667 354.752 183 363.039C170.188 375.29 157.384 387.798 144 399.424C135.066 407.185 129.415 415.999 117 416L117 417L560 417C584.286 417 612.023 420.784 635.957 416.852C640.234 416.149 642.082 411.733 646.015 410.148C651.138 408.084 657.592 409 663 409C674.173 409 693.281 404.872 699 417C723.845 417 743.24 417.708 762 399C746.913 420.403 722.031 418 699 418C695.289 431.176 668.878 426 658 426C653.992 426 648.695 426.872 645.018 424.972C641.016 422.904 639.87 418.5 634.982 418.059C602.245 415.101 567.885 418 535 418L0 418L0 450L53 450C60.0922 450 70.3022 451.863 77 449.397C95.6709 442.52 101.892 419 124 419L124 420C113.131 423.235 96.6815 440.922 90 450L800 450L800 0L0 0z"/>
<path style="fill:#605769; stroke:none;" d="M227 69L227 70L548 70L519 69L454 69L227 69M223 70L224 71L223 70z"/>
<path style="fill:#272f3f; stroke:none;" d="M200 109L575 109C575 103.378 575.574 97.4491 573.956 92C565.125 62.2589 526.701 70 503 70L275 70C251.196 70 211.271 61.7621 201.523 91C199.578 96.8336 200 102.941 200 109z"/>
<path style="fill:#605769; stroke:none;" d="M551.667 70.3333L552.333 70.6667L551.667 70.3333M220 71L221 72L220 71M554 71L555 72L554 71M217.667 72.3333L218.333 72.6667L217.667 72.3333M557 72L558 73L557 72M215 73L216 74L215 73M559 73L560 74L559 73M214 74L215 75L214 74M560 74L561 75L560 74M212 75L213 76L212 75M562 75L563 76L562 75M211 76L212 77L211 76M563 76L564 77L563 76M210 77L211 78L210 77M564 77L565 78L564 77M209 78L210 79L209 78M208 79L209 80L208 79M207 80L208 81L207 80M206 81L207 82L206 81M568 81L569 82L568 81M569 82L570 83L569 82M204 84L205 85L204 84M570 84L571 85L570 84M223 85L224 86L223 85z"/>
<path style="fill:#a3a3a3; stroke:none;" d="M224 85L224 86L227 86L224 85z"/>
<path style="fill:#605769; stroke:none;" d="M227 85L228 86L227 85M247 85L248 86L247 85z"/>
<path style="fill:#a3a3a3; stroke:none;" d="M248 85L248 86L251 86L248 85z"/>
<path style="fill:#605769; stroke:none;" d="M251 85L252 86L251 85M271 85L272 86L271 85z"/>
<path style="fill:#a3a3a3; stroke:none;" d="M272 85L272 86L275 86L272 85z"/>
<path style="fill:#605769; stroke:none;" d="M275 85L276 86L275 85M571 85L572 86L571 85M221 86L220 88L221 86z"/>
<path style="fill:#a3a3a3; stroke:none;" d="M222 86L223 87L222 86z"/>
<path style="fill:#fbfbf9; stroke:none;" d="M223.228 86.7577C217.14 89.3863 221.962 99.1521 227.852 95.9529C233.675 92.7899 229.31 84.1314 223.228 86.7577z"/>
<path style="fill:#a3a3a3; stroke:none;" d="M228 86L229 87L228 86z"/>
<path style="fill:#605769; stroke:none;" d="M229 86L230 87L229 86M245 86L244 88L245 86z"/>
<path style="fill:#a3a3a3; stroke:none;" d="M246 86L247 87L246 86z"/>
<path style="fill:#fbfbf9; stroke:none;" d="M247.228 86.7577C241.14 89.3863 245.962 99.1521 251.852 95.9529C257.675 92.7899 253.31 84.1314 247.228 86.7577z"/>
<path style="fill:#a3a3a3; stroke:none;" d="M252 86L253 87L252 86z"/>
<path style="fill:#605769; stroke:none;" d="M269 86L270 87L269 86z"/>
<path style="fill:#a3a3a3; stroke:none;" d="M270 86L271 87L270 86z"/>
<path style="fill:#fbfbf9; stroke:none;" d="M271.228 86.7577C265.14 89.3863 269.962 99.1521 275.852 95.9529C281.675 92.7898 277.31 84.1314 271.228 86.7577z"/>
<path style="fill:#a3a3a3; stroke:none;" d="M276 86L277 87L276 86z"/>
<path style="fill:#605769; stroke:none;" d="M277 86L278 87L277 86M202.333 87.6667L202.667 88.3333L202.333 87.6667M278 87L279 88L278 87M572 87L573 88L572 87z"/>
<path style="fill:#a3a3a3; stroke:none;" d="M220 88L221 89L220 88M230 88L231 89L230 88M244 88L245 89L244 88M254 88L255 89L254 88M268 88L269 89L268 88M278 88L279 89L278 88z"/>
<path style="fill:#605769; stroke:none;" d="M219 89L220 90L219 89M231.333 89.6667L231.667 90.3333L231.333 89.6667M243 89L244 90L243 89M255 89L256 90L255 89M267 89L268 90L267 89M279 89L280 90L279 89M573.333 89.6667L573.667 90.3333L573.333 89.6667M201 90L202 91L201 90z"/>
<path style="fill:#a3a3a3; stroke:none;" d="M219 90L219 93L220 93L219 90M243.333 90.6667L243.667 91.3333L243.333 90.6667M255.333 90.6667L255.667 91.3333L255.333 90.6667M267.333 90.6667L267.667 91.3333L267.333 90.6667M279 90L279 93L280 93L279 90M231 91L232 92L231 91z"/>
<path style="fill:#605769; stroke:none;" d="M231.333 92.6667L231.667 93.3333L231.333 92.6667M243.333 92.6667L243.667 93.3333L243.333 92.6667M255.333 92.6667L255.667 93.3333L255.333 92.6667M267.333 92.6667L267.667 93.3333L267.333 92.6667M574.333 92.6667L574.667 93.3333L574.333 92.6667M200.333 93.6667L200.667 94.3333L200.333 93.6667M219 93L220 94L219 93M279 93L280 94L279 93z"/>
<path style="fill:#a3a3a3; stroke:none;" d="M220 94L221 95L220 94M230 94L231 95L230 94M244 94L245 95L244 94M254 94L255 95L254 94M268 94L269 95L268 94M278 94L279 95L278 94M221 95L222 96L221 95M229 95L230 96L229 95M245 95L246 96L245 95M253 95L254 96L253 95M269 95L270 96L269 95M277 95L278 96L277 95M222 96L223 97L222 96M228 96L229 97L228 96M246 96L247 97L246 96M252 96L253 97L252 96M270 96L271 97L270 96M276 96L277 97L276 96z"/>
<path style="fill:#605769; stroke:none;" d="M223 97L223 98L227 98L223 97M248 97L248 98L251 98L248 97M272 97L272 98L275 98L272 97M575 97L575 109L200 109L200 98L199 98L199 110L576 110L575 97z"/>
<path style="fill:#fbfbf9; stroke:none;" d="M199 110L199 275C199 294.752 193.575 324.199 208.185 339.957C223.765 356.761 258.321 350 279 350L469 350C462.761 333.516 455.002 320.355 455 302C445.098 302 424.415 305.915 416.059 300.258C411.439 297.131 412 291.917 412 287L412 257C412 252.551 411.193 246.792 415.228 243.742C419.401 240.589 427.082 242 432 242C445.197 242 462.212 244.888 475 241.682C485.494 239.051 495.579 225.261 506 220.32C530.349 208.777 550.892 213.306 576 217L576 110L199 110z"/>
<path style="fill:#a3a3a3; stroke:none;" d="M149 134L150 135L149 134z"/>
<path style="fill:#fbfbf9; stroke:none;" d="M0 142L0 143L145 143C147.767 156.393 165.401 147.902 159.127 138.109C152.704 128.082 146.931 140.074 140.946 141.682C135.266 143.208 127.862 142 122 142L0 142z"/>
<path style="fill:#a3a3a3; stroke:none;" d="M155 134L156 135L155 134M147 135L148 136L147 135M157 135L158 136L157 135M146 136L147 137L146 136M158 136L159 137L158 136M144 140L145 141L144 140M160 140L161 141L160 140M144.333 143.667L144.667 144.333L144.333 143.667M160.333 143.667L160.667 144.333L160.333 143.667M145 146L146 147L145 146M159 146L160 147L159 146M148 149L149 150L148 149M156 149L157 150L156 149M150 150L151 151L150 150M154 150L155 151L154 150M271.148 151.028C266.904 153.541 268 159.843 268 164L268 195C268 198.998 267.076 204.458 270.318 207.486C275.164 212.012 285.913 210 292 210L344 210C350.013 210 359.46 211.708 364.606 207.91C368.583 204.975 367.998 199.359 368 195L368 164C367.998 159.761 368.557 154.526 364.772 151.603C359.95 147.881 348.806 150 343 150L292 150C286.324 150 276.159 148.061 271.148 151.028M416.109 150.742C411.29 152.815 412.002 158.676 412 163L412 195C412 199.403 411.163 205.183 415.228 208.142C420.46 211.949 430.869 210 437 210L486 210C492.501 210 501.946 211.671 507.891 208.566C512.611 206.102 511.998 200.539 512 196L512 164C512 159.839 512.951 153.734 508.772 151.179C503.356 147.868 492.172 150 486 150L437 150C430.919 150 421.77 148.308 416.109 150.742M455 302C455 314.523 457.615 326.488 462.579 338C464.211 341.783 466.254 347.594 470.326 349.397C476.041 351.926 484.838 349.576 491 350L485 345L481 339L477 332C477.634 329.421 477.819 328 475 328C475.496 325.277 476.09 322.464 473 322L474 317L473 317L473 319L472 319L473 312L472 312L472 314L471 314L471 287L472 287L472 289L473 289L472 282L473 282L473 284L474 284L473 279C476.09 278.536 475.496 275.724 475 273C479.364 272.425 482.934 263.083 483 259C489.402 255.759 498.759 246.402 502 240C506.086 240.144 515.429 236.337 516 232C518.723 232.496 521.536 233.09 522 230C524.866 230.634 529.447 231.499 530 228L540 229L540 228L535 228L535 227L552 227L552 228L549 228L549 229L558 228C558.553 231.499 563.134 230.634 566 230L565 232L566 232L568 231L569 231L568 233L569 233L571 232L572 232L571 234L574 233L573 235L575 236L576 236L576 217C551.322 211.342 527.592 209.012 504 220.809C494.29 225.664 483.093 240.282 473 241.852C459.652 243.928 444.517 242 431 242C426.336 242 418.257 240.49 414.434 243.742C411.123 246.559 412 252.141 412 256L412 288C412 292.239 411.26 297.412 415.148 300.258C423.149 306.113 445.276 302 455 302z"/>
<path style="fill:#fbfbf9; stroke:none;" d="M535 227L535 228L552 228L535 227M530 228L530 229L533 229L530 228z"/>
<path style="fill:#605769; stroke:none;" d="M540 228L540 229L546 229L540 228z"/>
<path style="fill:#a3a3a3; stroke:none;" d="M546 228L547 229L546 228z"/>
<path style="fill:#605769; stroke:none;" d="M547.667 228.333L548.333 228.667L547.667 228.333z"/>
<path style="fill:#fbfbf9; stroke:none;" d="M555 228L555 229L558 229L555 228M525.667 229.333L526.333 229.667L525.667 229.333z"/>
<path style="fill:#605769; stroke:none;" d="M531 229L531 230L534 230L531 229z"/>
<path style="fill:#272f3f; stroke:none;" d="M534 229.428C460.856 239.93 449.4 347.836 522 369.562C533.608 373.036 545.078 373.549 557 371.704C566.299 370.265 575.101 366.593 583 361.564C646.617 321.059 608.662 218.708 534 229.428z"/>
<path style="fill:#605769; stroke:none;" d="M553 229L553 230L557 230L553 229z"/>
<path style="fill:#fbfbf9; stroke:none;" d="M561.667 229.333L562.333 229.667L561.667 229.333M522.667 230.333L523.333 230.667L522.667 230.333z"/>
<path style="fill:#605769; stroke:none;" d="M527 230L528 231L527 230M559.667 230.333L560.333 230.667L559.667 230.333z"/>
<path style="fill:#fbfbf9; stroke:none;" d="M564.667 230.333L565.333 230.667L564.667 230.333M519 231L520 232L519 231z"/>
<path style="fill:#605769; stroke:none;" d="M523.667 231.333L524.333 231.667L523.667 231.333M563.667 231.333L564.333 231.667L563.667 231.333z"/>
<path style="fill:#fbfbf9; stroke:none;" d="M567.667 231.333L568.333 231.667L567.667 231.333M516.667 232.333L517.333 232.667L516.667 232.333z"/>
<path style="fill:#605769; stroke:none;" d="M520 232L521 233L520 232M566.667 232.333L567.333 232.667L566.667 232.333z"/>
<path style="fill:#fbfbf9; stroke:none;" d="M570.667 232.333L571.333 232.667L570.667 232.333M514 233L515 234L514 233z"/>
<path style="fill:#605769; stroke:none;" d="M517 233L518 234L517 233M570 233L571 234L570 233z"/>
<path style="fill:#fbfbf9; stroke:none;" d="M572.667 233.333L573.333 233.667L572.667 233.333M512 234L513 235L512 234z"/>
<path style="fill:#605769; stroke:none;" d="M515 234L516 235L515 234M572 234L573 235L572 234z"/>
<path style="fill:#fbfbf9; stroke:none;" d="M574 234L575 235L574 234M510 235L511 236L510 235z"/>
<path style="fill:#605769; stroke:none;" d="M513 235L514 236L513 235M574 235L575 236L574 235z"/>
<path style="fill:#fbfbf9; stroke:none;" d="M508 236L509 237L508 236z"/>
<path style="fill:#605769; stroke:none;" d="M511 236L512 237L511 236M577 236L578 237L577 236z"/>
<path style="fill:#fbfbf9; stroke:none;" d="M506 237L505 239L506 237z"/>
<path style="fill:#605769; stroke:none;" d="M509 237L510 238L509 237M578 237L579 238L578 237M507 238L508 239L507 238M580 238L581 239L580 238z"/>
<path style="fill:#fbfbf9; stroke:none;" d="M503 239L504 240L503 239z"/>
<path style="fill:#605769; stroke:none;" d="M582 239L583 240L582 239z"/>
<path style="fill:#fbfbf9; stroke:none;" d="M502 240L503 241L502 240z"/>
<path style="fill:#605769; stroke:none;" d="M504 240L505 241L504 240z"/>
<path style="fill:#fbfbf9; stroke:none;" d="M500 241L499 243L500 241z"/>
<path style="fill:#605769; stroke:none;" d="M502 241L503 242L502 241M585 241L586 242L585 241z"/>
<path style="fill:#a3a3a3; stroke:none;" d="M272.059 242.742C267.12 244.809 268 250.606 268 255L268 287C268 291.054 267.105 296.451 270.318 299.566C274.999 304.104 286.01 302 292 302L342 302C348.278 302 358.219 303.845 363.867 300.682C368.385 298.151 367.993 292.464 368 288L368 256C367.998 251.761 368.557 246.526 364.772 243.603C359.796 239.763 348.005 242 342 242L294 242C287.592 242 278.042 240.239 272.059 242.742z"/>
<path style="fill:#605769; stroke:none;" d="M501 242L502 243L501 242M586 242L587 243L586 242M588 243L589 244L588 243M498 244L499 245L498 244M589 244L590 245L589 244z"/>
<path style="fill:#fbfbf9; stroke:none;" d="M495 245L488 253L495 245z"/>
<path style="fill:#605769; stroke:none;" d="M497 245L498 246L497 245M590 245L591 246L590 245M591 246L592 247L591 246M489 253L490 254L489 253M598 253L599 254L598 253M488 254L489 255L488 254M599 254L600 255L599 254M487 255L488 256L487 255M600 255L601 256L600 255z"/>
<path style="fill:#fbfbf9; stroke:none;" d="M485 256L484 258L485 256z"/>
<path style="fill:#605769; stroke:none;" d="M485 258L486 259L485 258M602 258L603 259L602 258z"/>
<path style="fill:#fbfbf9; stroke:none;" d="M483 259L484 260L483 259z"/>
<path style="fill:#605769; stroke:none;" d="M484 259L485 260L484 259M603 259L604 260L603 259z"/>
<path style="fill:#fbfbf9; stroke:none;" d="M482 260L483 261L482 260z"/>
<path style="fill:#605769; stroke:none;" d="M604 261L605 262L604 261M482 262L483 263L482 262z"/>
<path style="fill:#fbfbf9; stroke:none;" d="M480 263L481 264L480 263z"/>
<path style="fill:#605769; stroke:none;" d="M481 264L482 265L481 264M606 264L607 265L606 264z"/>
<path style="fill:#fbfbf9; stroke:none;" d="M479 265L480 266L479 265z"/>
<path style="fill:#605769; stroke:none;" d="M519 265L519 266L524 266L519 265M480 266L481 267L480 266M516 266L515 268L516 266z"/>
<path style="fill:#a3a3a3; stroke:none;" d="M517 266L518 267L517 266z"/>
<path style="fill:#fbfbf9; stroke:none;" d="M518.018 266.743C510.158 269.823 512.662 277.978 514.667 284C519.859 299.595 524.31 315.794 530.549 330.999C532.72 336.292 538.771 341.618 544.945 339.243C552.709 336.256 551.927 320.33 556.638 314.04C562.668 305.989 584.375 306.948 585.732 296.985C586.626 290.413 581.56 285.844 575.999 283.707C562.59 278.554 548.627 274.547 535 270C529.923 268.306 523.434 264.621 518.018 266.743z"/>
<path style="fill:#a3a3a3; stroke:none;" d="M525 266L526 267L525 266z"/>
<path style="fill:#605769; stroke:none;" d="M526 266L527 267L526 266M607 266L608 267L607 266z"/>
<path style="fill:#fbfbf9; stroke:none;" d="M478 267L479 268L478 267z"/>
<path style="fill:#a3a3a3; stroke:none;" d="M527.667 267.333L528.333 267.667L527.667 267.333z"/>
<path style="fill:#605769; stroke:none;" d="M529 267L530 268L529 267z"/>
<path style="fill:#a3a3a3; stroke:none;" d="M514 268L515 269L514 268M530 268L531 269L530 268z"/>
<path style="fill:#605769; stroke:none;" d="M531.667 268.333L532.333 268.667L531.667 268.333M608 268L609 269L608 268z"/>
<path style="fill:#fbfbf9; stroke:none;" d="M477 269L478 270L477 269z"/>
<path style="fill:#605769; stroke:none;" d="M513 269L514 270L513 269z"/>
<path style="fill:#a3a3a3; stroke:none;" d="M533.667 269.333L534.333 269.667L533.667 269.333z"/>
<path style="fill:#605769; stroke:none;" d="M478 270L479 271L478 270z"/>
<path style="fill:#a3a3a3; stroke:none;" d="M536 270L537 271L536 270z"/>
<path style="fill:#605769; stroke:none;" d="M537.667 270.333L538.333 270.667L537.667 270.333M609 270L610 271L609 270z"/>
<path style="fill:#fbfbf9; stroke:none;" d="M476 271L477 272L476 271z"/>
<path style="fill:#a3a3a3; stroke:none;" d="M512.333 271.667L512.667 272.333L512.333 271.667M539 271L540 272L539 271z"/>
<path style="fill:#605769; stroke:none;" d="M540 271L541 272L540 271M477 272L478 273L477 272z"/>
<path style="fill:#a3a3a3; stroke:none;" d="M542 272L543 273L542 272z"/>
<path style="fill:#605769; stroke:none;" d="M543 272L544 273L543 272M610 272L611 273L610 272z"/>
<path style="fill:#fbfbf9; stroke:none;" d="M475.333 273.667L475.667 274.333L475.333 273.667z"/>
<path style="fill:#a3a3a3; stroke:none;" d="M545 273L546 274L545 273z"/>
<path style="fill:#605769; stroke:none;" d="M546 273L547 274L546 273M476 274L477 275L476 274z"/>
<path style="fill:#a3a3a3; stroke:none;" d="M548 274L549 275L548 274z"/>
<path style="fill:#605769; stroke:none;" d="M549 274L550 275L549 274M611.333 274.667L611.667 275.333L611.333 274.667z"/>
<path style="fill:#a3a3a3; stroke:none;" d="M551 275L552 276L551 275z"/>
<path style="fill:#605769; stroke:none;" d="M552 275L553 276L552 275z"/>
<path style="fill:#fbfbf9; stroke:none;" d="M474 276L475 277L474 276z"/>
<path style="fill:#a3a3a3; stroke:none;" d="M554 276L555 277L554 276z"/>
<path style="fill:#605769; stroke:none;" d="M555 276L556 277L555 276M475 277L476 278L475 277z"/>
<path style="fill:#a3a3a3; stroke:none;" d="M512 277L513 278L512 277M557 277L558 278L557 277z"/>
<path style="fill:#605769; stroke:none;" d="M558 277L559 278L558 277M612.333 277.667L612.667 278.333L612.333 277.667M512 278L513 279L512 278z"/>
<path style="fill:#a3a3a3; stroke:none;" d="M560 278L561 279L560 278z"/>
<path style="fill:#605769; stroke:none;" d="M561 278L562 279L561 278z"/>
<path style="fill:#fbfbf9; stroke:none;" d="M473.333 279.667L473.667 280.333L473.333 279.667z"/>
<path style="fill:#a3a3a3; stroke:none;" d="M563 279L564 280L563 279z"/>
<path style="fill:#605769; stroke:none;" d="M564 279L565 280L564 279M474.333 280.667L474.667 281.333L474.333 280.667z"/>
<path style="fill:#a3a3a3; stroke:none;" d="M513 280L514 281L513 280M566 280L567 281L566 280z"/>
<path style="fill:#605769; stroke:none;" d="M567 280L568 281L567 280M613.333 280.667L613.667 281.333L613.333 280.667M513 281L514 282L513 281z"/>
<path style="fill:#a3a3a3; stroke:none;" d="M569 281L570 282L569 281z"/>
<path style="fill:#605769; stroke:none;" d="M570 281L571 282L570 281z"/>
<path style="fill:#fbfbf9; stroke:none;" d="M472 282L472 285L473 285L472 282z"/>
<path style="fill:#a3a3a3; stroke:none;" d="M572 282L573 283L572 282z"/>
<path style="fill:#605769; stroke:none;" d="M573 282L574 283L573 282z"/>
<path style="fill:#a3a3a3; stroke:none;" d="M514 283L515 284L514 283M575 283L576 284L575 283z"/>
<path style="fill:#605769; stroke:none;" d="M576 283L577 284L576 283M473.333 284.667L473.667 285.333L473.333 284.667M514 284L515 285L514 284z"/>
<path style="fill:#a3a3a3; stroke:none;" d="M578 284L579 285L578 284z"/>
<path style="fill:#605769; stroke:none;" d="M614.333 284.667L614.667 285.333L614.333 284.667z"/>
<path style="fill:#a3a3a3; stroke:none;" d="M580 285L581 286L580 285M515 286L516 287L515 286M581 286L582 287L581 286z"/>
<path style="fill:#fbfbf9; stroke:none;" d="M471 287L471 290L472 290L471 287z"/>
<path style="fill:#605769; stroke:none;" d="M515 287L516 288L515 287z"/>
<path style="fill:#a3a3a3; stroke:none;" d="M583 288L584 289L583 288z"/>
<path style="fill:#605769; stroke:none;" d="M472 289L472 292L473 292L472 289z"/>
<path style="fill:#a3a3a3; stroke:none;" d="M516 289L517 290L516 289M584 289L585 290L584 289z"/>
<path style="fill:#605769; stroke:none;" d="M615 289L615 292L616 292L615 289M516 290L517 291L516 290z"/>
<path style="fill:#a3a3a3; stroke:none;" d="M585.333 291.667L585.667 292.333L585.333 291.667M517 292L518 293L517 292z"/>
<path style="fill:#605769; stroke:none;" d="M517 293L518 294L517 293M586 293L586 299L587 299L586 293z"/>
<path style="fill:#fbfbf9; stroke:none;" d="M470 294L470 307L471 307L470 294z"/>
<path style="fill:#a3a3a3; stroke:none;" d="M518 295L519 296L518 295z"/>
<path style="fill:#605769; stroke:none;" d="M518 296L519 297L518 296z"/>
<path style="fill:#a3a3a3; stroke:none;" d="M519 298L520 299L519 298z"/>
<path style="fill:#605769; stroke:none;" d="M519 299L520 300L519 299z"/>
<path style="fill:#a3a3a3; stroke:none;" d="M585 299L586 300L585 299z"/>
<path style="fill:#605769; stroke:none;" d="M585 300L586 301L585 300z"/>
<path style="fill:#a3a3a3; stroke:none;" d="M520 301L521 302L520 301z"/>
<path style="fill:#605769; stroke:none;" d="M584 301L585 302L584 301M520 302L521 303L520 302z"/>
<path style="fill:#a3a3a3; stroke:none;" d="M582 302L583 303L582 302z"/>
<path style="fill:#605769; stroke:none;" d="M583 302L584 303L583 302z"/>
<path style="fill:#a3a3a3; stroke:none;" d="M579.667 303.333L580.333 303.667L579.667 303.333z"/>
<path style="fill:#605769; stroke:none;" d="M581 303L582 304L581 303z"/>
<path style="fill:#a3a3a3; stroke:none;" d="M521 304L522 305L521 304M575.667 304.333L576.333 304.667L575.667 304.333z"/>
<path style="fill:#605769; stroke:none;" d="M577 304L578 305L577 304M521 305L522 306L521 305z"/>
<path style="fill:#a3a3a3; stroke:none;" d="M572 305L573 306L572 305z"/>
<path style="fill:#605769; stroke:none;" d="M573 305L574 306L573 305z"/>
<path style="fill:#a3a3a3; stroke:none;" d="M568.667 306.333L569.333 306.667L568.667 306.333z"/>
<path style="fill:#605769; stroke:none;" d="M570 306L571 307L570 306z"/>
<path style="fill:#a3a3a3; stroke:none;" d="M522 307L523 308L522 307M565 307L566 308L565 307z"/>
<path style="fill:#605769; stroke:none;" d="M566 307L567 308L566 307M522 308L523 309L522 308z"/>
<path style="fill:#a3a3a3; stroke:none;" d="M562 308L563 309L562 308z"/>
<path style="fill:#605769; stroke:none;" d="M563 308L564 309L563 308M615 308L615 313L616 313L615 308M472 309L472 312L473 312L472 309M561 309L562 310L561 309z"/>
<path style="fill:#a3a3a3; stroke:none;" d="M523 310L524 311L523 310M559 310L560 311L559 310z"/>
<path style="fill:#605769; stroke:none;" d="M560 310L561 311L560 310z"/>
<path style="fill:#fbfbf9; stroke:none;" d="M471 311L471 314L472 314L471 311z"/>
<path style="fill:#605769; stroke:none;" d="M523 311L524 312L523 311z"/>
<path style="fill:#a3a3a3; stroke:none;" d="M558 311L559 312L558 311M524.333 312.667L524.667 313.333L524.333 312.667M557 312L558 313L557 312M556 313L557 314L556 313z"/>
<path style="fill:#605769; stroke:none;" d="M524 314L525 315L524 314M556 314L557 315L556 314z"/>
<path style="fill:#fbfbf9; stroke:none;" d="M472 315L472 319L473 319L472 315z"/>
<path style="fill:#605769; stroke:none;" d="M473.333 315.667L473.667 316.333L473.333 315.667M555 315L556 316L555 315M614 315L614 318L615 318L614 315z"/>
<path style="fill:#a3a3a3; stroke:none;" d="M525 316L526 317L525 316z"/>
<path style="fill:#605769; stroke:none;" d="M525 317L526 318L525 317z"/>
<path style="fill:#a3a3a3; stroke:none;" d="M554 317L555 318L554 317M199 318L199 322L200 322L199 318z"/>
<path style="fill:#605769; stroke:none;" d="M554 318L555 319L554 318M474.333 319.667L474.667 320.333L474.333 319.667z"/>
<path style="fill:#a3a3a3; stroke:none;" d="M526 319L527 320L526 319M553.333 319.667L553.667 320.333L553.333 319.667z"/>
<path style="fill:#fbfbf9; stroke:none;" d="M473.333 320.667L473.667 321.333L473.333 320.667z"/>
<path style="fill:#605769; stroke:none;" d="M526 320L527 321L526 320M613 320L614 321L613 320M553 321L554 322L553 321z"/>
<path style="fill:#a3a3a3; stroke:none;" d="M527 322L528 323L527 322z"/>
<path style="fill:#605769; stroke:none;" d="M475 323L476 324L475 323M527 323L528 324L527 323z"/>
<path style="fill:#a3a3a3; stroke:none;" d="M552 323L553 324L552 323z"/>
<path style="fill:#605769; stroke:none;" d="M612 323L613 324L612 323z"/>
<path style="fill:#fbfbf9; stroke:none;" d="M474 324L475 325L474 324z"/>
<path style="fill:#605769; stroke:none;" d="M552.333 324.667L552.667 325.333L552.333 324.667z"/>
<path style="fill:#a3a3a3; stroke:none;" d="M528 325L529 326L528 325M200 326L201 327L200 326z"/>
<path style="fill:#fbfbf9; stroke:none;" d="M475.333 326.667L475.667 327.333L475.333 326.667z"/>
<path style="fill:#605769; stroke:none;" d="M476 326L477 327L476 326M528 326L529 327L528 326z"/>
<path style="fill:#a3a3a3; stroke:none;" d="M551.333 326.667L551.667 327.333L551.333 326.667z"/>
<path style="fill:#605769; stroke:none;" d="M611 326L612 327L611 326z"/>
<path style="fill:#a3a3a3; stroke:none;" d="M529.333 327.667L529.667 328.333L529.333 327.667z"/>
<path style="fill:#605769; stroke:none;" d="M477 328L478 329L477 328M551 328L552 329L551 328M610.333 328.667L610.667 329.333L610.333 328.667z"/>
<path style="fill:#a3a3a3; stroke:none;" d="M201 329L202 330L201 329z"/>
<path style="fill:#fbfbf9; stroke:none;" d="M476 329L477 330L476 329z"/>
<path style="fill:#605769; stroke:none;" d="M529 329L530 330L529 329z"/>
<path style="fill:#a3a3a3; stroke:none;" d="M550.333 330.667L550.667 331.333L550.333 330.667M202 331L203 332L202 331z"/>
<path style="fill:#fbfbf9; stroke:none;" d="M477 331L478 332L477 331z"/>
<path style="fill:#605769; stroke:none;" d="M478 331L479 332L478 331z"/>
<path style="fill:#a3a3a3; stroke:none;" d="M530 331L531 332L530 331z"/>
<path style="fill:#605769; stroke:none;" d="M609 331L610 332L609 331M550 332L551 333L550 332z"/>
<path style="fill:#a3a3a3; stroke:none;" d="M203 333L204 334L203 333z"/>
<path style="fill:#fbfbf9; stroke:none;" d="M478 333L479 334L478 333z"/>
<path style="fill:#a3a3a3; stroke:none;" d="M531 333L532 334L531 333z"/>
<path style="fill:#605769; stroke:none;" d="M608 333L609 334L608 333z"/>
<path style="fill:#a3a3a3; stroke:none;" d="M549 334L550 335L549 334z"/>
<path style="fill:#605769; stroke:none;" d="M203 335C197.699 345.274 187.605 352.721 179 360.13C164.556 372.567 150.308 385.249 136 397.845C129.627 403.455 119.854 409.388 116 417C119.385 416.194 123.552 416.714 126.715 415.397C133.114 412.73 138.849 404.827 144 400.285C158.678 387.345 172.327 373.227 187 360.285C192.37 355.549 208.386 343.499 203 335z"/>
<path style="fill:#a3a3a3; stroke:none;" d="M204 335L205 336L204 335z"/>
<path style="fill:#fbfbf9; stroke:none;" d="M479 335L480 336L479 335z"/>
<path style="fill:#605769; stroke:none;" d="M532 335L533 336L532 335M549 335L550 336L549 335M607 335L608 336L607 335z"/>
<path style="fill:#a3a3a3; stroke:none;" d="M205 336L206 337L205 336z"/>
<path style="fill:#605769; stroke:none;" d="M533 336L534 337L533 336z"/>
<path style="fill:#fbfbf9; stroke:none;" d="M480 337L481 338L480 337z"/>
<path style="fill:#605769; stroke:none;" d="M534 337L535 338L534 337M548 337L549 338L548 337M205 338L207 340L205 338z"/>
<path style="fill:#fbfbf9; stroke:none;" d="M481 338L482 339L481 338z"/>
<path style="fill:#605769; stroke:none;" d="M482 338L483 339L482 338z"/>
<path style="fill:#a3a3a3; stroke:none;" d="M536 338L537 339L536 338z"/>
<path style="fill:#605769; stroke:none;" d="M547 338L548 339L547 338M605 338L606 339L605 338M537 339L538 340L537 339z"/>
<path style="fill:#a3a3a3; stroke:none;" d="M538.667 339.333L539.333 339.667L538.667 339.333M545 339L546 340L545 339z"/>
<path style="fill:#605769; stroke:none;" d="M546 339L547 340L546 339z"/>
<path style="fill:#fbfbf9; stroke:none;" d="M482 340L483 341L482 340z"/>
<path style="fill:#605769; stroke:none;" d="M604 340L605 341L604 340M484 341L485 342L484 341M603 341L604 342L603 341z"/>
<path style="fill:#fbfbf9; stroke:none;" d="M483 342L485 344L483 342z"/>
<path style="fill:#605769; stroke:none;" d="M602 343L603 344L602 343z"/>
<path style="fill:#a3a3a3; stroke:none;" d="M213 344L214 345L213 344z"/>
<path style="fill:#fbfbf9; stroke:none;" d="M485 344L486 345L485 344z"/>
<path style="fill:#605769; stroke:none;" d="M486 344L487 345L486 344M601 344L602 345L601 344z"/>
<path style="fill:#a3a3a3; stroke:none;" d="M215 345L216 346L215 345z"/>
<path style="fill:#605769; stroke:none;" d="M487 345L488 346L487 345z"/>
<path style="fill:#fbfbf9; stroke:none;" d="M486 346L489 349L486 346z"/>
<path style="fill:#a3a3a3; stroke:none;" d="M219 347L220 348L219 347z"/>
<path style="fill:#605769; stroke:none;" d="M598 348L599 349L598 348z"/>
<path style="fill:#a3a3a3; stroke:none;" d="M226.667 349.333L227.333 349.667L226.667 349.333z"/>
<path style="fill:#fbfbf9; stroke:none;" d="M489 349L490 350L489 349z"/>
<path style="fill:#605769; stroke:none;" d="M597 349L598 350L597 349M491 350L492 351L491 350M596 350L597 351L596 350M492 351L493 352L492 351M595 351L596 352L595 351M493 352L494 353L493 352M594 352L595 353L594 352M494 353L495 354L494 353M593 353L594 354L593 353M495 354L496 355L495 354M592 354L593 355L592 354z"/>
<path style="fill:#fbfbf9; stroke:none;" d="M771 370C770.969 381.123 766.575 389.2 762 399C770.046 391.567 768.731 382.2 772.6 373.129C774.163 369.462 778.429 368.181 779.383 363.995C780.286 360.037 777.715 356.111 773.985 354.758C764.045 351.153 760.846 367.079 771 370z"/>
<path style="fill:#a3a3a3; stroke:none;" d="M774 354L775 355L774 354z"/>
<path style="fill:#605769; stroke:none;" d="M496 355L497 356L496 355M591 355L592 356L591 355z"/>
<path style="fill:#a3a3a3; stroke:none;" d="M776 355L777 356L776 355M777 356L778 357L777 356z"/>
<path style="fill:#605769; stroke:none;" d="M588 357L589 358L588 357z"/>
<path style="fill:#a3a3a3; stroke:none;" d="M765 357L766 358L765 357M778 357L779 358L778 357z"/>
<path style="fill:#605769; stroke:none;" d="M500 358L501 359L500 358M587 358L588 359L587 358M501 359L502 360L501 359M586 359L587 360L586 359z"/>
<path style="fill:#a3a3a3; stroke:none;" d="M764 359L765 360L764 359M779 359L780 360L779 359z"/>
<path style="fill:#605769; stroke:none;" d="M584 360L585 361L584 360M504 361L505 362L504 361M583 361L584 362L583 361M506 362L507 363L506 362M581 362L582 363L581 362M507 363L508 364L507 363M579 363L580 364L579 363M509 364L510 365L509 364M578 364L579 365L578 364z"/>
<path style="fill:#a3a3a3; stroke:none;" d="M779 364L780 365L779 364z"/>
<path style="fill:#605769; stroke:none;" d="M511 365L512 366L511 365M576 365L577 366L576 365z"/>
<path style="fill:#a3a3a3; stroke:none;" d="M764 365L765 366L764 365z"/>
<path style="fill:#605769; stroke:none;" d="M513 366L514 367L513 366M574 366L575 367L574 366M515.667 367.333L516.333 367.667L515.667 367.333M571 367L572 368L571 367M518 368L519 369L518 368M569 368L570 369L569 368z"/>
<path style="fill:#a3a3a3; stroke:none;" d="M766 368L767 369L766 368z"/>
<path style="fill:#605769; stroke:none;" d="M521 369L522 370L521 369M566 369L567 370L566 369M524.667 370.333L525.333 370.667L524.667 370.333M562.667 370.333L563.333 370.667L562.667 370.333z"/>
<path style="fill:#a3a3a3; stroke:none;" d="M770 370L771 371L770 370M773 370L774 371L773 370z"/>
<path style="fill:#605769; stroke:none;" d="M528.667 371.333L529.333 371.667L528.667 371.333M558.667 371.333L559.333 371.667L558.667 371.333z"/>
<path style="fill:#a3a3a3; stroke:none;" d="M772 371L772 374L773 374L772 371z"/>
<path style="fill:#605769; stroke:none;" d="M532 372L532 373L537 373L532 372M550 372L550 373L555 373L550 372z"/>
<path style="fill:#a3a3a3; stroke:none;" d="M770 378L771 379L770 378M771 379L772 380L771 379M769 382L770 383L769 382M769 386L770 387L769 386M767 388L768 389L767 388M766 390L767 391L766 390M767 391L768 392L767 391M765 392L766 393L765 392M766 393L767 394L766 393M764 394L765 395L764 394M764 396L765 397L764 396M762 397L763 398L762 397z"/>
<path style="fill:#fbfbf9; stroke:none;" d="M761 399C746.36 413.631 723.197 422.473 702.104 416.682C698.672 415.74 697.225 412.057 693.957 410.742C689.12 408.796 682.132 410 677 410C667.273 410 643.311 405.344 640 417L0 417L0 418L640 418C640.739 421.629 642.15 424.475 646.015 425.566C656.93 428.647 682.07 428.647 692.985 425.566C696.85 424.475 698.261 421.63 699 418C715.764 418 733.948 420.298 749 411.373C753.484 408.715 760.642 404.678 761 399z"/>
<path style="fill:#a3a3a3; stroke:none;" d="M761 400L762 401L761 400M752 407L753 408L752 407M754 407L755 408L754 407M647 409L647 410L692 410C680.299 405.09 659.742 409 647 409M749 409L750 410L749 409M694 410L695 411L694 410M642 411L643 412L642 411M748 411L749 412L748 411M641 412L642 413L641 412M698 414L699 415L698 414M742 414L743 415L742 414M735 415L736 416L735 415M639 416L640 417L639 416M730 416L731 417L730 416M736 416L737 417L736 416M731.667 417.333L732.333 417.667L731.667 417.333M639 418L640 419L639 418z"/>
<path style="fill:#605769; stroke:none;" d="M78 450C99.7686 450 106.214 428.62 124 420C109.413 413.879 85.5966 439.245 78 450z"/>
<path style="fill:#a3a3a3; stroke:none;" d="M640 421L641 422L640 421M698 421L699 422L698 421M644 425L645 426L644 425M694 425L695 426L694 425z"/>
</svg>
