<?xml version="1.0" standalone="yes"?>
<svg xmlns="http://www.w3.org/2000/svg" width="800" height="450">
<path style="fill:#f284a5; stroke:none;" d="M0 0L0 142L144 142L144 141L34 141L34 140L127 140L127 139L121 139L121 138C145.856 130.688 170.221 110.687 193 98.3087C251.108 66.7327 307.491 31.8176 366 1L333 0L259 0L0 0z"/>
<path style="fill:#fe7560; stroke:none;" d="M121 138L121 139L127 139L127 140L34 140L34 141L108 141C118.135 141 132.065 143.51 141.791 140.682C145.614 139.571 147.04 134.936 151.004 133.851C155.956 132.496 160.994 138.322 160.663 142.999C159.618 157.739 146.978 145.759 141.816 144.317C137.934 143.233 133.002 144 129 144L27 144L27 145L116 145L116 146C107.376 146.006 99.6393 149.319 91 149.91C75.4775 150.974 59.5604 150 44 150C34.1989 150 24.4391 149.355 17.8002 158.093C8.77468 169.972 13 192.961 13 207L12 207L12 200L1.02778 207.21L0 223L0 262L0 450L800 450L800 0L764 0L764 112C772.191 115.863 772 122.992 772 131L772 182C772 190.263 772.546 197.97 764 202L764 349C764 373.204 766.667 397.431 746 414.674C726.584 430.874 698.509 426 675 426C671.605 433.194 658.457 436.104 658.457 425.001C658.457 414.09 671.634 416.956 675 424C703.299 424 737.664 429.911 755.289 402C763.356 389.226 762 374.417 762 360L762 286C762 259.712 764.352 232.209 761.941 206.043C761.363 199.77 755.104 197.202 755.004 190C754.691 167.552 752.612 143.299 755.109 121C755.734 115.41 761.448 113.307 761.941 107.957C765.195 72.6353 762 35.4887 762 0L487 0L404 0C392.62 0 376.848 -2.82339 366 0.699066C343.688 7.94403 321.508 25.6906 301 37.1381C258.945 60.613 217.11 84.491 175 107.861C157.177 117.753 139.719 129.934 121 138z"/>
<path style="fill:#fba982; stroke:none;" d="M762 0L762 81C762 89.216 765.047 105.338 760 112L760 113C765.987 109.119 763 92.6027 763 86L763 27C763 18.9926 765.105 7.39941 762 0z"/>
<path style="fill:#fffcf8; stroke:none;" d="M763 0C763 35.2103 766.045 71.9382 762.941 106.995C762.414 112.954 756.035 114.9 755.189 121C752.164 142.81 753.178 170.054 755.094 192C755.655 198.424 761.928 200.292 762.852 206.019C764.997 219.311 763 234.527 763 248L763 335C763 354.883 766.81 379.626 757.623 398C752.531 408.186 743.458 416.366 733 420.768C728.311 422.741 719.136 422.41 716 426C722.958 425.12 729.552 424.034 736 421.135C769.885 405.901 764 366.39 764 336C764 293.545 760.345 249.277 764.059 207.004C764.538 201.55 769.927 199.369 770.786 193.996C774.33 171.834 771.653 145.457 770.985 123C770.76 115.456 764.144 112.387 764.005 105C763.547 80.686 764 56.3188 764 32C764 22.6778 766.607 8.59628 763 0z"/>
<path style="fill:#2a303f; stroke:none;" d="M571 104.715C561.716 105.671 540.467 117.957 534.653 125.21C529.129 132.1 534.426 141.453 543 140.88C552.439 140.248 573.463 127.982 579.566 120.79C585.145 114.217 579.569 103.832 571 104.715z"/>
<path style="fill:#f284a5; stroke:none;" d="M467 106L467 311L473 311L473 310L468 310L468 107L473 107L467 106M463 107L464 108L463 107z"/>
<path style="fill:#fba982; stroke:none;" d="M464 107L465 108L464 107z"/>
<path style="fill:#fffcf8; stroke:none;" d="M465 107C437.6 119.968 408.957 130.844 381 142.576C370.493 146.985 353.198 150.632 345.394 159.213C336.656 168.822 341 191.961 341 204C341 218.382 336.055 244.367 343.857 256.985C349.654 266.36 367.288 269.982 377 273.989C406.403 286.121 435.899 299.754 466 310L466 167L466 126L465 107z"/>
<path style="fill:#fba982; stroke:none;" d="M466 107L466 310L467 310L467 167L467 126L466 107M468 107L468 310C488.554 309.56 485 287.771 485 273L485 148C485 132.717 489.74 107.466 468 107z"/>
<path style="fill:#f284a5; stroke:none;" d="M474.667 107.333L475.333 107.667L474.667 107.333z"/>
<path style="fill:#fba982; stroke:none;" d="M461 108L462 109L461 108z"/>
<path style="fill:#f284a5; stroke:none;" d="M477 108L478 109L477 108z"/>
<path style="fill:#fba982; stroke:none;" d="M459 109L460 110L459 109z"/>
<path style="fill:#f284a5; stroke:none;" d="M478 109L479 110L478 109z"/>
<path style="fill:#fba982; stroke:none;" d="M456.667 110.333L457.333 110.667L456.667 110.333z"/>
<path style="fill:#f284a5; stroke:none;" d="M480 110L481 111L480 110z"/>
<path style="fill:#fba982; stroke:none;" d="M454 111L455 112L454 111z"/>
<path style="fill:#f284a5; stroke:none;" d="M481 111L482 112L481 111M451 112L452 113L451 112z"/>
<path style="fill:#fba982; stroke:none;" d="M452 112L453 113L452 112M765.667 112.333L766.333 112.667L765.667 112.333M449 113L450 114L449 113z"/>
<path style="fill:#f284a5; stroke:none;" d="M482 113L483 114L482 113z"/>
<path style="fill:#fba982; stroke:none;" d="M758 113L759 114L758 113M767 113L768 114L767 113M447 114L448 115L447 114z"/>
<path style="fill:#f284a5; stroke:none;" d="M483.333 114.667L483.667 115.333L483.333 114.667z"/>
<path style="fill:#fba982; stroke:none;" d="M757 114L758 115L757 114z"/>
<path style="fill:#f284a5; stroke:none;" d="M444 115L445 116L444 115z"/>
<path style="fill:#fba982; stroke:none;" d="M445 115L446 116L445 115M756 115L757 116L756 115M769 115L770 116L769 115M442 116L443 117L442 116M770.333 116.667L770.667 117.333L770.333 116.667z"/>
<path style="fill:#f284a5; stroke:none;" d="M439 117L440 118L439 117z"/>
<path style="fill:#fba982; stroke:none;" d="M440 117L441 118L440 117z"/>
<path style="fill:#f284a5; stroke:none;" d="M484 117L484 120L485 120L484 117z"/>
<path style="fill:#fba982; stroke:none;" d="M755.333 117.667L755.667 118.333L755.333 117.667M437.667 118.333L438.333 118.667L437.667 118.333M435 119L436 120L435 119M771 119L771 162L772 162C772 149.781 775.711 130.225 771 119z"/>
<path style="fill:#f284a5; stroke:none;" d="M432 120L433 121L432 120z"/>
<path style="fill:#fba982; stroke:none;" d="M433 120L434 121L433 120M430 121L431 122L430 121z"/>
<path style="fill:#f284a5; stroke:none;" d="M427 122L428 123L427 122z"/>
<path style="fill:#fba982; stroke:none;" d="M428 122L429 123L428 122z"/>
<path style="fill:#f284a5; stroke:none;" d="M425 123L426 124L425 123z"/>
<path style="fill:#fba982; stroke:none;" d="M426 123L427 124L426 123M423 124L424 125L423 124z"/>
<path style="fill:#f284a5; stroke:none;" d="M420 125L421 126L420 125z"/>
<path style="fill:#fba982; stroke:none;" d="M421 125L422 126L421 125M418.667 126.333L419.333 126.667L418.667 126.333M416 127L417 128L416 127z"/>
<path style="fill:#f284a5; stroke:none;" d="M413 128L414 129L413 128z"/>
<path style="fill:#fba982; stroke:none;" d="M414 128L415 129L414 128M411 129L412 130L411 129z"/>
<path style="fill:#f284a5; stroke:none;" d="M408 130L409 131L408 130z"/>
<path style="fill:#fba982; stroke:none;" d="M409 130L410 131L409 130M406.667 131.333L407.333 131.667L406.667 131.333M404 132L405 133L404 132z"/>
<path style="fill:#f284a5; stroke:none;" d="M150 133L150 134L155 134L150 133M401 133L402 134L401 133z"/>
<path style="fill:#fba982; stroke:none;" d="M402 133L403 134L402 133z"/>
<path style="fill:#f284a5; stroke:none;" d="M148 134L149 135L148 134z"/>
<path style="fill:#fba982; stroke:none;" d="M149 134L150 135L149 134z"/>
<path style="fill:#fffcf8; stroke:none;" d="M145 142L0 142L0 143L145 143C147.425 151.539 160.361 152.335 159.847 142C159.325 131.501 146.844 132.945 145 142z"/>
<path style="fill:#fba982; stroke:none;" d="M155 134L156 135L155 134z"/>
<path style="fill:#f284a5; stroke:none;" d="M156 134L157 135L156 134z"/>
<path style="fill:#fba982; stroke:none;" d="M399 134L400 135L399 134M147 135L148 136L147 135M157 135L158 136L157 135z"/>
<path style="fill:#f284a5; stroke:none;" d="M396 135L397 136L396 135z"/>
<path style="fill:#fba982; stroke:none;" d="M397 135L398 136L397 135M146 136L147 137L146 136M158 136L159 137L158 136z"/>
<path style="fill:#f284a5; stroke:none;" d="M394 136L395 137L394 136z"/>
<path style="fill:#fba982; stroke:none;" d="M395 136L396 137L395 136z"/>
<path style="fill:#f284a5; stroke:none;" d="M145 137L146 138L145 137M159 137L160 138L159 137z"/>
<path style="fill:#fba982; stroke:none;" d="M392 137L393 138L392 137M145 138L146 139L145 138M159 138L160 139L159 138z"/>
<path style="fill:#f284a5; stroke:none;" d="M389 138L390 139L389 138z"/>
<path style="fill:#fba982; stroke:none;" d="M390 138L391 139L390 138z"/>
<path style="fill:#f284a5; stroke:none;" d="M144 139L145 140L144 139M160 139L161 140L160 139z"/>
<path style="fill:#fba982; stroke:none;" d="M387.667 139.333L388.333 139.667L387.667 139.333M144.333 140.667L144.667 141.333L144.333 140.667M160 140L160 145L161 145L160 140M385 140L386 141L385 140z"/>
<path style="fill:#f284a5; stroke:none;" d="M382 141L383 142L382 141z"/>
<path style="fill:#fba982; stroke:none;" d="M383 141L384 142L383 141M380.667 142.333L381.333 142.667L380.667 142.333z"/>
<path style="fill:#f284a5; stroke:none;" d="M0 143L0 207L12 200L12 207L13 207C13 192.781 8.792 169.846 18.5324 158.093C25.615 149.547 34.9442 150 45 150C60.2884 150 75.7272 150.629 91 149.961C99.65 149.582 107.446 146.025 116 146L116 145L27 145L27 144L144 144C132.782 139.293 113.206 143 101 143L0 143z"/>
<path style="fill:#fba982; stroke:none;" d="M144.333 143.667L144.667 144.333L144.333 143.667z"/>
<path style="fill:#f284a5; stroke:none;" d="M377 143L378 144L377 143z"/>
<path style="fill:#fba982; stroke:none;" d="M378 143L379 144L378 143z"/>
<path style="fill:#f284a5; stroke:none;" d="M375 144L376 145L375 144z"/>
<path style="fill:#fba982; stroke:none;" d="M376 144L377 145L376 144z"/>
<path style="fill:#f284a5; stroke:none;" d="M144 145L145 146L144 145M160 145L161 146L160 145z"/>
<path style="fill:#fba982; stroke:none;" d="M373 145L374 146L373 145M145 146L146 147L145 146M159 146L160 147L159 146z"/>
<path style="fill:#f284a5; stroke:none;" d="M370 146L371 147L370 146z"/>
<path style="fill:#fba982; stroke:none;" d="M371 146L372 147L371 146M146 147L148 149L146 147z"/>
<path style="fill:#f284a5; stroke:none;" d="M159 147L160 148L159 147z"/>
<path style="fill:#fba982; stroke:none;" d="M368.667 147.333L369.333 147.667L368.667 147.333z"/>
<path style="fill:#f284a5; stroke:none;" d="M146 148L147 149L146 148M158 148L159 149L158 148z"/>
<path style="fill:#fba982; stroke:none;" d="M366 148L367 149L366 148M148 149L149 150L148 149M156 149L157 150L156 149z"/>
<path style="fill:#f284a5; stroke:none;" d="M157 149L158 150L157 149M363 149L364 150L363 149z"/>
<path style="fill:#fba982; stroke:none;" d="M364 149L365 150L364 149z"/>
<path style="fill:#f284a5; stroke:none;" d="M149 150L150 151L149 150z"/>
<path style="fill:#fba982; stroke:none;" d="M150 150L150 151L155 151L150 150z"/>
<path style="fill:#f284a5; stroke:none;" d="M155 150L156 151L155 150z"/>
<path style="fill:#fba982; stroke:none;" d="M361 150L362 151L361 150z"/>
<path style="fill:#f284a5; stroke:none;" d="M16 216L17 216L17 203L18 203L20 223L21 223L21 211L22 211L23 235L24 235L24 207L25 207L25 218L26 218L27 215L28 215L29 228L53 206L101 157L95 157L95 156L107 156L107 155L82 155L82 154L109 153C103.049 150.503 94.4203 152 88 152C73.3554 152 58.6368 152.431 44 151.965C34.9255 151.675 25.6657 151.141 19.419 159.04C10.2856 170.59 13.4489 202.258 16 216M358 151L359 152L358 151z"/>
<path style="fill:#fba982; stroke:none;" d="M359 151L360 152L359 151z"/>
<path style="fill:#f284a5; stroke:none;" d="M356 152L357 153L356 152z"/>
<path style="fill:#fba982; stroke:none;" d="M357 152L358 153L357 152M354 153L355 154L354 153z"/>
<path style="fill:#f284a5; stroke:none;" d="M351 154L352 155L351 154z"/>
<path style="fill:#fba982; stroke:none;" d="M352 154L353 155L352 154z"/>
<path style="fill:#f284a5; stroke:none;" d="M349 155L350 156L349 155z"/>
<path style="fill:#fba982; stroke:none;" d="M350 155L351 156L350 155M348 156L349 157L348 156z"/>
<path style="fill:#f284a5; stroke:none;" d="M346 157L347 158L346 157M345 158L346 159L345 158M283 159L284 160L283 159z"/>
<path style="fill:#fba982; stroke:none;" d="M284 159L284 160L287 160L284 159z"/>
<path style="fill:#fffcf8; stroke:none;" d="M260 186C269.333 186 278.668 185.937 288 186.001C290.459 186.018 296.515 185.749 296.515 189.576C296.515 193.301 290.368 192.983 288 192.999C278.668 193.063 269.333 193 260 193L260 201L287 201C289.746 201.006 295.263 200.396 296.387 203.847C297.62 207.63 291.408 208.806 289 208.956C279.83 209.527 268.946 210.13 260 208C260 227.379 258.656 251.281 283 256.482C289.059 257.777 295.829 257 302 257C302 281.187 298.036 309.222 302.329 333C304.491 344.974 319.806 349.312 327.721 339.956C335.544 330.71 331 306.589 331 295L331 209C331 195.182 333.01 179.643 330.852 166.005C329.296 156.174 314.103 159 307 159C286.251 159 263.727 160.765 260 186z"/>
<path style="fill:#fba982; stroke:none;" d="M325.667 159.333L326.333 159.667L325.667 159.333z"/>
<path style="fill:#f284a5; stroke:none;" d="M344 159L345 160L344 159z"/>
<path style="fill:#fba982; stroke:none;" d="M280.667 160.333L281.333 160.667L280.667 160.333M328 160L329 161L328 160z"/>
<path style="fill:#f284a5; stroke:none;" d="M277 161L278 162L277 161z"/>
<path style="fill:#fba982; stroke:none;" d="M278 161L279 162L278 161M329 161L330 162L329 161M343 161L344 162L343 161z"/>
<path style="fill:#f284a5; stroke:none;" d="M275 162L276 163L275 162z"/>
<path style="fill:#fba982; stroke:none;" d="M276 162L277 163L276 162z"/>
<path style="fill:#f284a5; stroke:none;" d="M330 162L331 163L330 162M771 162L771 172L772 172L771 162z"/>
<path style="fill:#fba982; stroke:none;" d="M274 163L275 164L274 163M342 163L343 164L342 163z"/>
<path style="fill:#f284a5; stroke:none;" d="M272 164L273 165L272 164M331 164L332 165L331 164z"/>
<path style="fill:#fba982; stroke:none;" d="M271 165L272 166L271 165M331 165L331 242L332 242L332 189L331 165z"/>
<path style="fill:#f284a5; stroke:none;" d="M341 165L342 166L341 165z"/>
<path style="fill:#fba982; stroke:none;" d="M341 166L341 169L342 169L341 166M266 170L267 171L266 170M265 171L266 172L265 171z"/>
<path style="fill:#f284a5; stroke:none;" d="M264 172L265 173L264 172z"/>
<path style="fill:#fba982; stroke:none;" d="M771 172L771 195L772 195L771 172z"/>
<path style="fill:#f284a5; stroke:none;" d="M484 173L484 244L485 244L485 195L484 173z"/>
<path style="fill:#2a303f; stroke:none;" d="M485 173L485 243C517.639 233.327 512.468 185.006 485 173z"/>
<path style="fill:#fba982; stroke:none;" d="M263 174L264 175L263 174M262 176L263 177L262 176z"/>
<path style="fill:#f284a5; stroke:none;" d="M261 178L262 179L261 178z"/>
<path style="fill:#fba982; stroke:none;" d="M261 179L262 180L261 179M260.333 181.667L260.667 182.333L260.333 181.667z"/>
<path style="fill:#f284a5; stroke:none;" d="M259 193L260 193L260 187L286 187L294.369 189.17L287 191.999L261 192C265.215 193.769 270.464 193 275 193L284 193C286.077 193 302.03 192.173 294.663 187.027C289.412 183.359 275.27 185.997 269 186C266.52 186.001 262.705 185.382 260.603 187.026C258.826 188.416 259.065 191.007 259 193z"/>
<path style="fill:#fba982; stroke:none;" d="M295 186L296 187L295 186M260 187L260 193C268.326 191.018 277.481 192.004 286 192C288.32 191.999 293.33 192.815 294.824 190.455C297.045 186.946 289.516 187.011 288 187.001C278.668 186.936 269.333 187 260 187M296 187L297 188L296 187M297 189L298 190L297 189M296 191L297 192L296 191M295 192L296 193L295 192z"/>
<path style="fill:#2a303f; stroke:none;" d="M558.004 192.742C549.236 196.139 549.301 207.735 558.004 211.106C566.318 214.328 593.014 214.785 600.957 210.682C608.627 206.721 608.043 195.87 599.995 192.742C591.656 189.501 566.346 189.51 558.004 192.742z"/>
<path style="fill:#fba982; stroke:none;" d="M259 193L259 201L260 201L259 193M755.333 195.667L755.667 196.333L755.333 195.667M770.333 196.667L770.667 197.333L770.333 196.667M756 198L757 199L756 198M769 198L770 199L769 198M757 199L758 200L757 199M758 200L759 201L758 200M767 200L768 201L767 200z"/>
<path style="fill:#f284a5; stroke:none;" d="M259 201L259 208C268.666 208 278.334 208.066 288 207.999C290.483 207.982 296.722 208.217 296.079 204.09C295.496 200.349 289.639 201.005 287 201L259 201z"/>
<path style="fill:#fba982; stroke:none;" d="M295 201L296 202L295 201M760.667 201.333L761.333 201.667L760.667 201.333M765.667 201.333L766.333 201.667L765.667 201.333M260 202L260 207L287 207C288.798 206.996 295.77 207.647 295.079 204.17C294.505 201.285 289.025 202.004 287 202L260 202M296 202L297 203L296 202M762 202L762 380L763 380L763 255L763 219L762 202M297 204L298 205L297 204z"/>
<path style="fill:#fe7560; stroke:none;" d="M22 206L23 207L22 206z"/>
<path style="fill:#fba982; stroke:none;" d="M296 206L297 207L296 206M295 207L296 208L295 207M259 208L259 230L260 230L259 208M261 208L261 209L294 209L261 208z"/>
<path style="fill:#fe7560; stroke:none;" d="M27 209L28 210L27 209M29 222L30 223L29 222z"/>
<path style="fill:#f284a5; stroke:none;" d="M259 230L260 231L259 230M27 233L28 234L27 233z"/>
<path style="fill:#fba982; stroke:none;" d="M260 234L261 235L260 234z"/>
<path style="fill:#f284a5; stroke:none;" d="M260 235L261 236L260 235z"/>
<path style="fill:#fba982; stroke:none;" d="M261 237L262 238L261 237z"/>
<path style="fill:#f284a5; stroke:none;" d="M261 238L262 239L261 238z"/>
<path style="fill:#fba982; stroke:none;" d="M262 240L263 241L262 240z"/>
<path style="fill:#f284a5; stroke:none;" d="M263 242L264 243L263 242z"/>
<path style="fill:#fba982; stroke:none;" d="M264 243L265 244L264 243M331 243L332 244L331 243z"/>
<path style="fill:#f284a5; stroke:none;" d="M265 245L266 246L265 245M266 246L267 247L266 246z"/>
<path style="fill:#fba982; stroke:none;" d="M267 247L268 248L267 247M268 248L269 249L268 248M269 249L270 250L269 249M331 249L331 333L332 333L332 275L331 249M341 249L341 252L342 252L341 249z"/>
<path style="fill:#f284a5; stroke:none;" d="M270 250L271 251L270 250z"/>
<path style="fill:#fba982; stroke:none;" d="M273 252L274 253L273 252z"/>
<path style="fill:#f284a5; stroke:none;" d="M341 252L342 253L341 252M274 253L275 254L274 253z"/>
<path style="fill:#fba982; stroke:none;" d="M276 254L277 255L276 254M342.333 254.667L342.667 255.333L342.333 254.667z"/>
<path style="fill:#f284a5; stroke:none;" d="M278 255L279 256L278 255z"/>
<path style="fill:#fba982; stroke:none;" d="M279 255L280 256L279 255z"/>
<path style="fill:#f284a5; stroke:none;" d="M281 256L282 257L281 256z"/>
<path style="fill:#fba982; stroke:none;" d="M282 256L283 257L282 256z"/>
<path style="fill:#f284a5; stroke:none;" d="M285 257L286 258L285 257z"/>
<path style="fill:#fba982; stroke:none;" d="M286 257L286 258L302 258L286 257z"/>
<path style="fill:#f284a5; stroke:none;" d="M343 257L344 258L343 257z"/>
<path style="fill:#fba982; stroke:none;" d="M344 258L345 259L344 258M345 259L346 260L345 259z"/>
<path style="fill:#2a303f; stroke:none;" d="M540.001 259.613C532.88 261.317 530.01 270.09 534.653 275.671C540.938 283.226 555.307 288.746 564 293.215C567.433 294.98 571.09 296.548 574.985 295.343C582.125 293.136 583.75 284.38 578.772 279.213C572.103 272.291 560.347 267.842 552 263.154C548.391 261.126 544.331 258.576 540.001 259.613z"/>
<path style="fill:#fba982; stroke:none;" d="M346 260L347 261L346 260M347 261L348 262L347 261M349 262L350 263L349 262M351 263L352 264L351 263M353 264L354 265L353 264M356 265L357 266L356 265M358 266L359 267L358 266z"/>
<path style="fill:#f284a5; stroke:none;" d="M360 267L361 268L360 267z"/>
<path style="fill:#fba982; stroke:none;" d="M361 267L362 268L361 267M363 268L364 269L363 268z"/>
<path style="fill:#f284a5; stroke:none;" d="M365 269L366 270L365 269z"/>
<path style="fill:#fba982; stroke:none;" d="M366 269L367 270L366 269M368 270L369 271L368 270M370.667 271.333L371.333 271.667L370.667 271.333M373 272L374 273L373 272M375 273L376 274L375 273M378 274L379 275L378 274M380 275L381 276L380 275z"/>
<path style="fill:#f284a5; stroke:none;" d="M382 276L383 277L382 276z"/>
<path style="fill:#fba982; stroke:none;" d="M383 276L384 277L383 276M385 277L386 278L385 277z"/>
<path style="fill:#f284a5; stroke:none;" d="M387 278L388 279L387 278z"/>
<path style="fill:#fba982; stroke:none;" d="M388 278L389 279L388 278M390 279L391 280L390 279z"/>
<path style="fill:#f284a5; stroke:none;" d="M392 280L393 281L392 280z"/>
<path style="fill:#fba982; stroke:none;" d="M393 280L394 281L393 280M395 281L396 282L395 281M397.667 282.333L398.333 282.667L397.667 282.333M400 283L401 284L400 283M402.667 284.333L403.333 284.667L402.667 284.333M405 285L406 286L405 285M407 286L408 287L407 286z"/>
<path style="fill:#f284a5; stroke:none;" d="M409 287L410 288L409 287z"/>
<path style="fill:#fba982; stroke:none;" d="M410 287L411 288L410 287M412 288L413 289L412 288z"/>
<path style="fill:#f284a5; stroke:none;" d="M414 289L415 290L414 289z"/>
<path style="fill:#fba982; stroke:none;" d="M415 289L416 290L415 289M417 290L418 291L417 290z"/>
<path style="fill:#f284a5; stroke:none;" d="M419 291L420 292L419 291z"/>
<path style="fill:#fba982; stroke:none;" d="M420 291L421 292L420 291M422 292L423 293L422 292M424.667 293.333L425.333 293.667L424.667 293.333M427 294L428 295L427 294M429 295L430 296L429 295z"/>
<path style="fill:#f284a5; stroke:none;" d="M431 296L432 297L431 296z"/>
<path style="fill:#fba982; stroke:none;" d="M432 296L433 297L432 296M434 297L435 298L434 297z"/>
<path style="fill:#f284a5; stroke:none;" d="M484 297L484 300L485 300L484 297z"/>
<path style="fill:#fba982; stroke:none;" d="M437 298L438 299L437 298M439 299L440 300L439 299z"/>
<path style="fill:#f284a5; stroke:none;" d="M441 300L442 301L441 300z"/>
<path style="fill:#fba982; stroke:none;" d="M442 300L443 301L442 300M444 301L445 302L444 301z"/>
<path style="fill:#f284a5; stroke:none;" d="M483.333 301.667L483.667 302.333L483.333 301.667z"/>
<path style="fill:#fba982; stroke:none;" d="M446.667 302.333L447.333 302.667L446.667 302.333M449 303L450 304L449 303z"/>
<path style="fill:#f284a5; stroke:none;" d="M482 303L483 304L482 303z"/>
<path style="fill:#fba982; stroke:none;" d="M451.667 304.333L452.333 304.667L451.667 304.333M454 305L455 306L454 305z"/>
<path style="fill:#f284a5; stroke:none;" d="M481 305L482 306L481 305z"/>
<path style="fill:#fba982; stroke:none;" d="M456.667 306.333L457.333 306.667L456.667 306.333z"/>
<path style="fill:#f284a5; stroke:none;" d="M480 306L481 307L480 306z"/>
<path style="fill:#fba982; stroke:none;" d="M459 307L460 308L459 307z"/>
<path style="fill:#f284a5; stroke:none;" d="M478 307L479 308L478 307z"/>
<path style="fill:#fba982; stroke:none;" d="M461 308L462 309L461 308z"/>
<path style="fill:#f284a5; stroke:none;" d="M477 308L478 309L477 308M463 309L464 310L463 309z"/>
<path style="fill:#fba982; stroke:none;" d="M464 309L465 310L464 309z"/>
<path style="fill:#f284a5; stroke:none;" d="M474.667 309.333L475.333 309.667L474.667 309.333M331 333L332 334L331 333z"/>
<path style="fill:#fba982; stroke:none;" d="M302 334L303 335L302 334z"/>
<path style="fill:#f284a5; stroke:none;" d="M302 335L303 336L302 335z"/>
<path style="fill:#fba982; stroke:none;" d="M330.333 335.667L330.667 336.333L330.333 335.667M303 337L304 338L303 337z"/>
<path style="fill:#f284a5; stroke:none;" d="M329 338L330 339L329 338M304 339L305 340L304 339z"/>
<path style="fill:#fba982; stroke:none;" d="M328 339L329 340L328 339M305 340L306 341L305 340M327 340L328 341L327 340M306 341L307 342L306 341M326 341L327 342L326 341M307 342L308 343L307 342M325 342L326 343L325 342z"/>
<path style="fill:#f284a5; stroke:none;" d="M324 343L325 344L324 343z"/>
<path style="fill:#fba982; stroke:none;" d="M310.667 344.333L311.333 344.667L310.667 344.333M322 344L323 345L322 344M313 345L313 346L320 346L313 345M763 382L763 385L764 385L763 382M761.333 385.667L761.667 386.333L761.333 385.667M762.333 388.667L762.667 389.333L762.333 388.667M760.333 389.667L760.667 390.333L760.333 389.667M761 392L762 393L761 392M759 393L760 394L759 393M758.333 395.667L758.667 396.333L758.333 395.667M760 395L761 396L760 395M759 397L760 398L759 397M757 398L758 399L757 398M758 399L759 400L758 399M756 400L757 401L756 400M755 401L756 402L755 401M757 401L758 402L757 401M754 403L755 404L754 403M753 404L754 405L753 404M755 404L756 405L755 404M752 406L753 407L752 406M751 407L752 408L751 407M753 407L754 408L753 407M750 408L751 409L750 408M752 408L753 409L752 408M749 409L750 410L749 409M751 409L752 410L751 409M748 410L749 411L748 410M750 410L751 411L750 410M747 411L748 412L747 411M746 412L747 413L746 412M748 412L749 413L748 412M745 413L746 414L745 413M747 413L748 414L747 413M746 414L747 415L746 414M742 415L743 416L742 415M745 415L746 416L745 415M741 416L742 417L741 416M663.667 417.333L664.333 417.667L663.667 417.333z"/>
<path style="fill:#fffcf8; stroke:none;" d="M715 426L715 424C703.688 424 688.978 426.527 678.039 423.682C674.411 422.738 672.503 419.121 668.985 417.934C665.708 416.827 661.783 418.071 660.028 421.133C657.309 425.876 660.518 432.273 666.001 432.663C671.506 433.054 673.904 426.961 679.015 426.148C690.44 424.331 703.424 426 715 426z"/>
<path style="fill:#fba982; stroke:none;" d="M668.667 417.333L669.333 417.667L668.667 417.333M739 417L740 418L739 417M742 417L743 418L742 417M661 418L662 419L661 418M671 418L672 419L671 418M737 418L738 419L737 418M660 419L661 420L660 419M672 419L673 420L672 419M735.667 419.333L736.333 419.667L735.667 419.333M739 419L740 420L739 419M659 420L660 421L659 420M673 420L674 421L673 420M733 420L734 421L733 420M737 420L738 421L737 420M674.333 421.667L674.667 422.333L674.333 421.667M731 421L732 422L731 421M735 421L736 422L735 421M658 422L658 428L659 428L658 422M727.667 422.333L728.333 422.667L727.667 422.333M732.667 422.333L733.333 422.667L732.667 422.333M722 423L722 424L725 424L722 423M730 423L731 424L730 423M715.333 424.667L715.667 425.333L715.333 424.667M726.667 424.333L727.333 424.667L726.667 424.333M719 425L719 426L723 426L719 425M674.333 427.667L674.667 428.333L674.333 427.667M659 429L660 430L659 429M673 429L674 430L673 429M660 430L661 431L660 430M672 430L673 431L672 430M661 431L662 432L661 431M671 431L672 432L671 431M662.667 432.333L663.333 432.667L662.667 432.333M669.667 432.333L670.333 432.667L669.667 432.333z"/>
</svg>
