<?xml version="1.0" standalone="yes"?>
<svg xmlns="http://www.w3.org/2000/svg" width="550" height="309">
<path style="fill:#f5f7f8; stroke:none;" d="M0 0L0 309L53 309C53 305.386 53.8005 300.607 52.4005 297.209C50.9128 293.598 47.5933 292.276 47.1088 287.996C44.6529 266.304 46.8505 242.842 47.0008 221C47.0463 214.382 51.9047 211.8 52.8519 205.961C55.5666 189.223 53 169.972 53 153C53 142.085 54.5852 129.811 52.8519 119.039C52.2779 115.473 48.5396 113.459 48.1752 109.986C47.8937 107.304 50.3129 104.308 53.0108 104.037C56.1301 103.724 58.7708 107.015 58.419 109.961C58.0348 113.178 54.6848 114.86 54.1474 118.104C52.3198 129.135 54 141.813 54 153C54 170.425 52.4899 188.608 54.0586 205.957C54.5666 211.574 58.966 214.688 58.9992 221C59.1145 242.866 61.3204 266.28 58.8912 287.999C58.0443 295.571 54 300.579 54 309L372 309L429 309C436.641 309 447.793 311.055 455 308.397C464.944 304.729 477.362 285.599 481 276L333 276C322.723 276 311.184 274.519 301.039 276.148C297.439 276.726 295.055 280.901 291.436 280.775C287.756 280.647 285.689 276.182 287.223 273.109C288.288 270.976 290.574 269.493 292.965 270.252C295.699 271.119 297.232 273.92 300.09 274.682C309.791 277.271 322.958 275 333 275L435 275C448.628 275 467.74 278.505 480.79 274.682C484.392 273.627 486.249 268.977 487.988 266C493.013 257.397 497.303 248.242 501 239C514.118 206.205 518.501 172.17 516.961 137C516.593 128.607 514.359 120.372 514 112L515 112C518.031 150.348 521.374 184.149 510.573 222C505.267 240.591 493.251 256.772 488 275C501.768 275 511.081 271.836 521 262C516.043 269.018 508.606 274.237 500 275.674C495.639 276.403 490.302 274.977 486.329 277.318C482.645 279.489 480.592 284.661 478.104 288C472.849 295.052 466.845 301.675 462 309L550 309L550 0L311 0L239 0C228.992 0 215.511 -2.33896 206 0.966064C154.195 18.9672 117.431 76.2846 107.745 127.91C104.637 144.48 106 160.384 106 177L105 177C104.998 159.32 103.433 142.644 106.614 125C115.97 73.1074 151.298 21.6927 201 1L182 0L141 0L0 0z"/>
<path style="fill:#b5c9eb; stroke:none;" d="M105 177L106 177C106 160.304 104.873 144.347 108.015 127.715C118.201 73.8133 155.627 22.3884 207 1C201.819 -1.10831 196.573 2.36652 192 4.78085C180.776 10.7059 170.609 18.3468 161 26.5795C126.718 55.9507 108.378 98.7828 104.17 143C103.087 154.378 104.992 165.671 105 177M526 1C526 11.2499 521.495 36.6504 529 44L528 1L526 1M525 43L526 44L525 43z"/>
<path style="fill:#707eb9; stroke:none;" d="M526.667 43.3333L527.333 43.6667L526.667 43.3333z"/>
<path style="fill:#b5c9eb; stroke:none;" d="M523 44L521 47L523 44z"/>
<path style="fill:#283447; stroke:none;" d="M524.318 45.0324C520.03 47.7936 522 58.6124 522 63L522 115C522 118.969 521.798 132.045 529.682 126.968C533.97 124.206 532 113.388 532 109L532 57C532 53.0309 532.202 39.9548 524.318 45.0324z"/>
<path style="fill:#b5c9eb; stroke:none;" d="M530 44L531 45L530 44z"/>
<path style="fill:#707eb9; stroke:none;" d="M531 45L532 46L531 45z"/>
<path style="fill:#b5c9eb; stroke:none;" d="M532 46L533 47L532 46z"/>
<path style="fill:#707eb9; stroke:none;" d="M521.333 47.6667L521.667 48.3333L521.333 47.6667M532 47L533 48L532 47z"/>
<path style="fill:#2d419c; stroke:none;" d="M532 48L532 124L533 124L533 72L532 48M521 49L521 123L522 123L522 72L521 49z"/>
<path style="fill:#b5c9eb; stroke:none;" d="M204 65.4645C166.057 72.2933 146.008 116.669 164.313 150C167.763 156.282 172.497 162.081 178 166.674C181.062 169.231 185.831 171.191 187.397 175.093C188.559 177.99 186.175 189.998 192.059 188.539C196.915 187.334 199.178 181.21 204 179.643C209.802 177.758 218.627 179.642 225 178.701C241.961 176.196 257.587 165.075 265.676 150C288.548 107.374 251.53 56.9101 204 65.4645M507 86L508 87L507 86M508.333 89.6667L508.667 90.3333L508.333 89.6667M509.333 92.6667L509.667 93.3333L509.333 92.6667M510 95L510 98L511 98L510 95z"/>
<path style="fill:#707eb9; stroke:none;" d="M208.667 96.3333L209.333 96.6667L208.667 96.3333z"/>
<path style="fill:#2d419c; stroke:none;" d="M201 106C204.143 105.856 206.925 105.048 210 104.529C215.543 103.595 221.948 108.005 218.242 113.957C216.034 117.504 210.956 118.527 209.198 122.213C208.026 124.668 208.947 128.355 209 131L217 131C217.809 120.36 233.394 117.905 229.347 105.001C225.6 93.0503 201.457 92.0536 201 106z"/>
<path style="fill:#707eb9; stroke:none;" d="M219.667 96.3333L220.333 96.6667L219.667 96.3333M205 97L206 98L205 97M223 97L224 98L223 97M202.667 98.3333L203.333 98.6667L202.667 98.3333M201 99L202 100L201 99M226 99L227 100L226 99z"/>
<path style="fill:#b5c9eb; stroke:none;" d="M511 99L511 102L512 102L511 99z"/>
<path style="fill:#707eb9; stroke:none;" d="M227 100L228 101L227 100M228 102L229 103L228 102z"/>
<path style="fill:#b5c9eb; stroke:none;" d="M51 103L52 104L51 103z"/>
<path style="fill:#707eb9; stroke:none;" d="M52.6667 103.333L53.3333 103.667L52.6667 103.333z"/>
<path style="fill:#b5c9eb; stroke:none;" d="M54 103L55 104L54 103z"/>
<path style="fill:#707eb9; stroke:none;" d="M229.333 103.667L229.667 104.333L229.333 103.667z"/>
<path style="fill:#b5c9eb; stroke:none;" d="M512 103L513 112L514 112L512 103z"/>
<path style="fill:#707eb9; stroke:none;" d="M50 104L51 105L50 104z"/>
<path style="fill:#283447; stroke:none;" d="M51.1481 105.047C45.6182 108.081 50.3196 116.932 55.6829 113.777C60.5053 110.94 56.689 102.007 51.1481 105.047z"/>
<path style="fill:#707eb9; stroke:none;" d="M56 104L57 105L56 104M209 104L209 105L216 105L209 104z"/>
<path style="fill:#2d419c; stroke:none;" d="M49 105L50 106L49 105z"/>
<path style="fill:#707eb9; stroke:none;" d="M57 105L58 106L57 105M206 105L207 106L206 105M217 105L218 106L217 105M48 106L49 107L48 106z"/>
<path style="fill:#b5c9eb; stroke:none;" d="M58 106L59 107L58 106z"/>
<path style="fill:#707eb9; stroke:none;" d="M201 106L201 107L204 107L201 106M218 106L219 107L218 106M58 107L59 108L58 107z"/>
<path style="fill:#b5c9eb; stroke:none;" d="M47 108L47 111L48 111L47 108z"/>
<path style="fill:#2d419c; stroke:none;" d="M58.3333 108.667L58.6667 109.333L58.3333 108.667z"/>
<path style="fill:#707eb9; stroke:none;" d="M219 108L219 113L220 113L219 108M230.333 108.667L230.667 109.333L230.333 108.667M58.3333 110.667L58.6667 111.333L58.3333 110.667z"/>
<path style="fill:#2d419c; stroke:none;" d="M48 111L49 112L48 111z"/>
<path style="fill:#b5c9eb; stroke:none;" d="M48 112L49 113L48 112M514 112C514.707 146.241 519.095 176.967 510.116 211C504.069 233.919 489.955 253.028 483 275C493.895 274.134 500.689 248.91 504.424 240C516.489 211.228 520.39 179.897 519.039 149C518.549 137.786 519.382 122.12 514 112z"/>
<path style="fill:#707eb9; stroke:none;" d="M49 113L50 114L49 113z"/>
<path style="fill:#b5c9eb; stroke:none;" d="M57 113L58 114L57 113z"/>
<path style="fill:#707eb9; stroke:none;" d="M229.333 113.667L229.667 114.333L229.333 113.667z"/>
<path style="fill:#b5c9eb; stroke:none;" d="M50 114L51 115L50 114z"/>
<path style="fill:#707eb9; stroke:none;" d="M51 114L52 115L51 114M55 114L56 115L55 114M218 114L219 115L218 114z"/>
<path style="fill:#b5c9eb; stroke:none;" d="M52 115L53 163L52 210L53 210C55.1975 202.566 54 193.722 54 186L54 139C54 132.172 56.236 120.591 52 115z"/>
<path style="fill:#707eb9; stroke:none;" d="M53 115L54 116L53 115M217 115L218 116L217 115M216 116L217 117L216 116M228 116L229 117L228 116M215 117L216 118L215 117M227 117L228 118L227 117M213 118L214 119L213 118M226 118L227 119L226 118M211 119L212 120L211 119M225 119L226 120L225 119M224 120L225 121L224 120M208 121L209 122L208 121M223 121L224 122L223 121M222 122L223 123L222 122M273 122L273 123L368 123L339 122L273 122z"/>
<path style="fill:#b5c9eb; stroke:none;" d="M368.667 122.333L369.333 122.667L368.667 122.333z"/>
<path style="fill:#707eb9; stroke:none;" d="M220 123L221 124L220 123z"/>
<path style="fill:#283447; stroke:none;" d="M273 123L273 124L283 124L273 123z"/>
<path style="fill:#2d419c; stroke:none;" d="M273 124L274 131L272 130L273 136L271 135L271 136C271.983 138.95 272.487 139.622 270 139L271 142L269 142L270 145L269 147L267 147L268 149L266 149L267 151L265 154L262 155L263 157L250 170L248 169L247 172L244 174L242 175L240 174L240 176L238 177L235 176L235 178L232 177L228 178L229 180L228 180L223 179L224 181L215 180C215 188.779 213.769 198.632 216.954 207C222.942 222.726 236.428 224 251 224C271.882 224 295.387 220.942 316 224.148C324.559 225.479 332.28 245.639 340.682 243.248C345.047 242.007 343 227.612 343 224C355.999 224 372.406 227.023 382.985 217.787C396.854 205.678 392 181.501 392 165C392 158.164 392.804 150.739 391.532 144C390.357 137.772 386.955 132.323 381.996 128.39C372.555 120.903 359.247 123 348 123C322.997 123 297.923 123.984 273 124z"/>
<path style="fill:#707eb9; stroke:none;" d="M371.667 123.333L372.333 123.667L371.667 123.333z"/>
<path style="fill:#b5c9eb; stroke:none;" d="M373 123L374 124L373 123z"/>
<path style="fill:#707eb9; stroke:none;" d="M521.333 123.667L521.667 124.333L521.333 123.667M208 124L208 130L209 130L208 124M218 124L219 125L218 124M272 124L272 130L273 130L272 124M375 124L376 125L375 124z"/>
<path style="fill:#b5c9eb; stroke:none;" d="M376 124L377 125L376 124z"/>
<path style="fill:#707eb9; stroke:none;" d="M532 124L533 125L532 124M217 125L217 131L218 131L217 125z"/>
<path style="fill:#283447; stroke:none;" d="M273 125L273 131L274 131L273 125z"/>
<path style="fill:#707eb9; stroke:none;" d="M377 125L378 126L377 125z"/>
<path style="fill:#b5c9eb; stroke:none;" d="M378 125L379 126L378 125M521 125L522 126L521 125M532 125L533 126L532 125z"/>
<path style="fill:#707eb9; stroke:none;" d="M379 126L380 127L379 126M522 126L523 127L522 126M531 126L532 127L531 126z"/>
<path style="fill:#b5c9eb; stroke:none;" d="M381 127L382 128L381 127z"/>
<path style="fill:#707eb9; stroke:none;" d="M523 127L524 128L523 127M530 127L531 128L530 127z"/>
<path style="fill:#b5c9eb; stroke:none;" d="M382 128L383 129L382 128M524 128L525 129L524 128z"/>
<path style="fill:#707eb9; stroke:none;" d="M525 128L526 129L525 128z"/>
<path style="fill:#2d419c; stroke:none;" d="M526.667 128.333L527.333 128.667L526.667 128.333z"/>
<path style="fill:#707eb9; stroke:none;" d="M528 128L529 129L528 128z"/>
<path style="fill:#b5c9eb; stroke:none;" d="M529 128L530 129L529 128z"/>
<path style="fill:#707eb9; stroke:none;" d="M383 129L384 130L383 129z"/>
<path style="fill:#b5c9eb; stroke:none;" d="M527 129C524.386 137.842 526 148.805 526 158L526 220C526 233.562 527.209 246.299 522 259C530.681 253.746 528 237.652 528 229L528 160C528 150.94 530.507 137.357 527 129z"/>
<path style="fill:#707eb9; stroke:none;" d="M384 130L385 131L384 130M209 131L209 132L217 132L209 131M385 131L386 132L385 131z"/>
<path style="fill:#b5c9eb; stroke:none;" d="M386 132L387 133L386 132z"/>
<path style="fill:#707eb9; stroke:none;" d="M271.333 133.667L271.667 134.333L271.333 133.667z"/>
<path style="fill:#b5c9eb; stroke:none;" d="M387 133L388 134L387 133z"/>
<path style="fill:#283447; stroke:none;" d="M272.333 134.667L272.667 135.333L272.333 134.667z"/>
<path style="fill:#707eb9; stroke:none;" d="M388 135L389 136L388 135z"/>
<path style="fill:#b5c9eb; stroke:none;" d="M389 136L390 137L389 136z"/>
<path style="fill:#707eb9; stroke:none;" d="M211 137L212 138L211 137z"/>
<path style="fill:#2d419c; stroke:none;" d="M212.059 137.851C205.511 139.794 207.952 150.751 214.957 148.917C222.412 146.966 219.184 135.737 212.059 137.851z"/>
<path style="fill:#707eb9; stroke:none;" d="M215.667 137.333L216.333 137.667L215.667 137.333M270.333 137.667L270.667 138.333L270.333 137.667z"/>
<path style="fill:#283447; stroke:none;" d="M271 137L271 140L272 140L271 137z"/>
<path style="fill:#707eb9; stroke:none;" d="M389 137L390 138L389 137M209 138L210 139L209 138M217 138L218 139L217 138z"/>
<path style="fill:#b5c9eb; stroke:none;" d="M390 138L391 139L390 138z"/>
<path style="fill:#707eb9; stroke:none;" d="M208 139L209 140L208 139M218 139L219 140L218 139M390 139L391 140L390 139M219 140L220 141L219 140M207 141L207 146L208 146L207 141M269 141L270 142L269 141z"/>
<path style="fill:#283447; stroke:none;" d="M270 141L271 142L270 141z"/>
<path style="fill:#b5c9eb; stroke:none;" d="M391 141L392 142L391 141z"/>
<path style="fill:#707eb9; stroke:none;" d="M391.333 142.667L391.667 143.333L391.333 142.667M268.333 143.667L268.667 144.333L268.333 143.667z"/>
<path style="fill:#283447; stroke:none;" d="M269.333 143.667L269.667 144.333L269.333 143.667z"/>
<path style="fill:#707eb9; stroke:none;" d="M219.333 145.667L219.667 146.333L219.333 145.667z"/>
<path style="fill:#b5c9eb; stroke:none;" d="M392 145L392 148L393 148L392 145z"/>
<path style="fill:#707eb9; stroke:none;" d="M267 146L268 147L267 146z"/>
<path style="fill:#283447; stroke:none;" d="M268 146L269 147L268 146z"/>
<path style="fill:#707eb9; stroke:none;" d="M208 147L209 148L208 147M218 147L219 148L218 147M209 148L210 149L209 148M217 148L218 149L217 148M266 148L267 149L266 148z"/>
<path style="fill:#283447; stroke:none;" d="M267 148L268 149L267 148z"/>
<path style="fill:#707eb9; stroke:none;" d="M392 148L392 199L393 199C393 184.689 397.508 161.127 392 148M211.667 149.333L212.333 149.667L211.667 149.333M214.667 149.333L215.333 149.667L214.667 149.333M265 150L266 151L265 150z"/>
<path style="fill:#283447; stroke:none;" d="M266 150L267 151L266 150M265 152L266 153L265 152z"/>
<path style="fill:#707eb9; stroke:none;" d="M263 153L264 154L263 153z"/>
<path style="fill:#283447; stroke:none;" d="M264 153L265 154L264 153M263 155L264 156L263 155z"/>
<path style="fill:#707eb9; stroke:none;" d="M261 156L260 158L261 156z"/>
<path style="fill:#283447; stroke:none;" d="M262 156L263 157L262 156M261 157L262 158L261 157M260 159L259 161L260 159z"/>
<path style="fill:#707eb9; stroke:none;" d="M257 161L254 165L257 161z"/>
<path style="fill:#283447; stroke:none;" d="M258 161L259 162L258 161M257 162L258 163L257 162M261 162L262 163L261 162M268 162L269 163L268 162z"/>
<path style="fill:#707eb9; stroke:none;" d="M302 162L302 163L306 163L302 162M341 162L341 163L344 163L341 162z"/>
<path style="fill:#283447; stroke:none;" d="M256 163L257 164L256 163M259 163L260 164L259 163z"/>
<path style="fill:#707eb9; stroke:none;" d="M255 178L256 178L268 163C257.625 163.094 255.006 168.358 255 178z"/>
<path style="fill:#b5c9eb; stroke:none;" d="M268 163L266 166L268 163z"/>
<path style="fill:#707eb9; stroke:none;" d="M269 163L270 164L269 163M299 163L300 164L299 163z"/>
<path style="fill:#b5c9eb; stroke:none;" d="M300 163L301 164L300 163z"/>
<path style="fill:#f5f7f8; stroke:none;" d="M301.015 163.657C288.852 167.412 294.613 186.168 306.985 182.343C319.1 178.598 312.827 160.01 301.015 163.657z"/>
<path style="fill:#b5c9eb; stroke:none;" d="M307 163L308 164L307 163z"/>
<path style="fill:#707eb9; stroke:none;" d="M308 163L309 164L308 163M337 163L338 164L337 163z"/>
<path style="fill:#b5c9eb; stroke:none;" d="M338 163L339 164L338 163z"/>
<path style="fill:#f5f7f8; stroke:none;" d="M339.004 163.746C326.505 168.416 333.732 187.045 345.985 181.99C357.197 177.364 350.344 159.509 339.004 163.746z"/>
<path style="fill:#b5c9eb; stroke:none;" d="M345 163L346 164L345 163z"/>
<path style="fill:#707eb9; stroke:none;" d="M346 163L347 164L346 163z"/>
<path style="fill:#283447; stroke:none;" d="M255 164L256 165L255 164z"/>
<path style="fill:#f5f7f8; stroke:none;" d="M267.996 165.256C257.628 168.598 253.236 186.508 267.996 182.424C276.681 180.02 276.809 162.416 267.996 165.256z"/>
<path style="fill:#b5c9eb; stroke:none;" d="M270 164L271 165L270 164M298 164L299 165L298 164M309 164L310 165L309 164M336 164L337 165L336 164M347 164L348 165L347 164z"/>
<path style="fill:#283447; stroke:none;" d="M254 165L255 166L254 165z"/>
<path style="fill:#707eb9; stroke:none;" d="M272 165L273 166L272 165M296 165L297 166L296 165z"/>
<path style="fill:#b5c9eb; stroke:none;" d="M310 165L311 166L310 165M335 165L336 166L335 165z"/>
<path style="fill:#707eb9; stroke:none;" d="M349 165L350 166L349 165z"/>
<path style="fill:#283447; stroke:none;" d="M253 166L252 168L253 166z"/>
<path style="fill:#707eb9; stroke:none;" d="M273 166L274 167L273 166z"/>
<path style="fill:#b5c9eb; stroke:none;" d="M311 166L312 167L311 166M334 166L335 167L334 166z"/>
<path style="fill:#707eb9; stroke:none;" d="M250 167L249 169L250 167z"/>
<path style="fill:#283447; stroke:none;" d="M255 167L256 168L255 167z"/>
<path style="fill:#b5c9eb; stroke:none;" d="M295 167L296 168L295 167M312 167L313 168L312 167M333 167L334 168L333 167M350 167L351 168L350 167z"/>
<path style="fill:#283447; stroke:none;" d="M250 168L251 169L250 168z"/>
<path style="fill:#707eb9; stroke:none;" d="M274 168L275 169L274 168M294 168L295 169L294 168M313 168L314 169L313 168M351 168L352 169L351 168z"/>
<path style="fill:#283447; stroke:none;" d="M249 169L250 170L249 169M254 169L255 170L254 169z"/>
<path style="fill:#b5c9eb; stroke:none;" d="M294 169L295 170L294 169M313 169L314 170L313 169M332 169L333 170L332 169M351 169L352 170L351 169z"/>
<path style="fill:#707eb9; stroke:none;" d="M246 170L247 171L246 170z"/>
<path style="fill:#283447; stroke:none;" d="M248 170L249 171L248 170z"/>
<path style="fill:#707eb9; stroke:none;" d="M275 170L275 173L276 173L275 170M352 170L352 176L353 176L352 170M244 171L245 172L244 171z"/>
<path style="fill:#283447; stroke:none;" d="M246 171L247 172L246 171z"/>
<path style="fill:#707eb9; stroke:none;" d="M293 171L293 176L294 176L293 171M243 172L244 173L243 172z"/>
<path style="fill:#283447; stroke:none;" d="M245 172L246 173L245 172z"/>
<path style="fill:#707eb9; stroke:none;" d="M314.333 172.667L314.667 173.333L314.333 172.667M331.333 172.667L331.667 173.333L331.333 172.667M241 173L242 174L241 173z"/>
<path style="fill:#283447; stroke:none;" d="M243 173L244 174L243 173z"/>
<path style="fill:#b5c9eb; stroke:none;" d="M258 173L259 174L258 173M275 173L276 174L275 173z"/>
<path style="fill:#707eb9; stroke:none;" d="M239 174L240 175L239 174z"/>
<path style="fill:#283447; stroke:none;" d="M241 174L242 175L241 174z"/>
<path style="fill:#b5c9eb; stroke:none;" d="M257 174L258 175L257 174z"/>
<path style="fill:#707eb9; stroke:none;" d="M275.333 174.667L275.667 175.333L275.333 174.667M236.667 175.333L237.333 175.667L236.667 175.333z"/>
<path style="fill:#283447; stroke:none;" d="M239 175L240 176L239 175z"/>
<path style="fill:#b5c9eb; stroke:none;" d="M256 175L257 176L256 175z"/>
<path style="fill:#707eb9; stroke:none;" d="M234 176L235 177L234 176z"/>
<path style="fill:#283447; stroke:none;" d="M236.667 176.333L237.333 176.667L236.667 176.333M254 176L255 177L254 176z"/>
<path style="fill:#b5c9eb; stroke:none;" d="M313 176L314 177L313 176M332 176L333 177L332 176M106 177L106 184L107 184L106 177z"/>
<path style="fill:#707eb9; stroke:none;" d="M230.667 177.333L231.333 177.667L230.667 177.333z"/>
<path style="fill:#283447; stroke:none;" d="M234 177L235 178L234 177z"/>
<path style="fill:#b5c9eb; stroke:none;" d="M274 177L275 178L274 177z"/>
<path style="fill:#707eb9; stroke:none;" d="M294 177L295 178L294 177M313 177L314 178L313 177M332 177L333 178L332 177M351 177L352 178L351 177M226.667 178.333L227.333 178.667L226.667 178.333z"/>
<path style="fill:#283447; stroke:none;" d="M230 178L230 179L233 179L230 178z"/>
<path style="fill:#b5c9eb; stroke:none;" d="M256 178L257 179L256 178M312 178L313 179L312 178M333 178L334 179L333 178z"/>
<path style="fill:#707eb9; stroke:none;" d="M217 179L217 180L223 180L217 179z"/>
<path style="fill:#283447; stroke:none;" d="M227.667 179.333L228.333 179.667L227.667 179.333z"/>
<path style="fill:#b5c9eb; stroke:none;" d="M257 179L258 180L257 179z"/>
<path style="fill:#707eb9; stroke:none;" d="M273 179L274 180L273 179M295 179L296 180L295 179M350 179L351 180L350 179z"/>
<path style="fill:#283447; stroke:none;" d="M216 180L217 181L216 180M218 180L218 181L224 181L218 180z"/>
<path style="fill:#b5c9eb; stroke:none;" d="M258 180L259 181L258 180z"/>
<path style="fill:#707eb9; stroke:none;" d="M272 180L273 181L272 180M296 180L297 181L296 180M311 180L312 181L311 180M349 180L350 181L349 180z"/>
<path style="fill:#b5c9eb; stroke:none;" d="M259 181L260 182L259 181z"/>
<path style="fill:#707eb9; stroke:none;" d="M271 181L272 182L271 181M297 181L298 182L297 181z"/>
<path style="fill:#b5c9eb; stroke:none;" d="M298 181L299 182L298 181M309 181L310 182L309 181M336 181L337 182L336 181M347 181L348 182L347 181z"/>
<path style="fill:#707eb9; stroke:none;" d="M348 181L349 182L348 181M260 182L261 183L260 182z"/>
<path style="fill:#b5c9eb; stroke:none;" d="M261 182L262 183L261 182M268 182L269 183L268 182z"/>
<path style="fill:#707eb9; stroke:none;" d="M269 182L270 183L269 182M299 182L300 183L299 182z"/>
<path style="fill:#b5c9eb; stroke:none;" d="M300 182L301 183L300 182M307 182L308 183L307 182z"/>
<path style="fill:#707eb9; stroke:none;" d="M308 182L309 183L308 182M337 182L338 183L337 182z"/>
<path style="fill:#b5c9eb; stroke:none;" d="M338 182L339 183L338 182M345 182L346 183L345 182z"/>
<path style="fill:#707eb9; stroke:none;" d="M346 182L347 183L346 182M263 183L263 184L268 184L263 183M302 183L302 184L306 184L302 183M340 183L340 184L344 184L340 183z"/>
<path style="fill:#b5c9eb; stroke:none;" d="M107 185L107 189L108 189L107 185M108 190L108 193L109 193L108 190M214 190L214 198L215 198L214 190M109 195L109 198L110 198L109 195M110.333 199.667L110.667 200.333L110.333 199.667M392 199L392 202L393 202L392 199z"/>
<path style="fill:#707eb9; stroke:none;" d="M215.333 201.667L215.667 202.333L215.333 201.667z"/>
<path style="fill:#b5c9eb; stroke:none;" d="M111 203L112 204L111 203M215.333 203.667L215.667 204.333L215.333 203.667z"/>
<path style="fill:#707eb9; stroke:none;" d="M391.333 203.667L391.667 204.333L391.333 203.667z"/>
<path style="fill:#b5c9eb; stroke:none;" d="M391 205L392 206L391 205M112 206L113 207L112 206z"/>
<path style="fill:#707eb9; stroke:none;" d="M216 206L217 207L216 206z"/>
<path style="fill:#b5c9eb; stroke:none;" d="M216 207L217 208L216 207z"/>
<path style="fill:#707eb9; stroke:none;" d="M390 207L391 208L390 207M217 208L218 209L217 208z"/>
<path style="fill:#b5c9eb; stroke:none;" d="M390 208L391 209L390 208z"/>
<path style="fill:#707eb9; stroke:none;" d="M53 209L54 210L53 209z"/>
<path style="fill:#b5c9eb; stroke:none;" d="M217 209L218 210L217 209z"/>
<path style="fill:#707eb9; stroke:none;" d="M389 209L390 210L389 209M50 210L48 213L50 210z"/>
<path style="fill:#2d419c; stroke:none;" d="M51 210L52 211L51 210z"/>
<path style="fill:#283447; stroke:none;" d="M52.0432 210.931C46.1462 212.561 48 222.467 48 227L48 278C48 282.471 45.9645 295.924 53.9568 294.458C60.0678 293.336 58 282.41 58 278L58 227C58 222.855 59.9789 208.739 52.0432 210.931z"/>
<path style="fill:#2d419c; stroke:none;" d="M54 210L55 211L54 210z"/>
<path style="fill:#707eb9; stroke:none;" d="M55 210L56 211L55 210M218 210L219 211L218 210z"/>
<path style="fill:#b5c9eb; stroke:none;" d="M389 210L390 211L389 210M57 211L58 212L57 211M218 211L219 212L218 211z"/>
<path style="fill:#707eb9; stroke:none;" d="M388 211L389 212L388 211z"/>
<path style="fill:#2d419c; stroke:none;" d="M57 212L58 213L57 212z"/>
<path style="fill:#b5c9eb; stroke:none;" d="M114 212L115 213L114 212z"/>
<path style="fill:#707eb9; stroke:none;" d="M219 212L220 213L219 212z"/>
<path style="fill:#b5c9eb; stroke:none;" d="M47 213L48 214L47 213z"/>
<path style="fill:#707eb9; stroke:none;" d="M58.3333 213.667L58.6667 214.333L58.3333 213.667M220 213L221 214L220 213z"/>
<path style="fill:#b5c9eb; stroke:none;" d="M387 213L388 214L387 213z"/>
<path style="fill:#707eb9; stroke:none;" d="M47 214L47 291L48 291L48 238L47 214M386 214L387 215L386 214z"/>
<path style="fill:#2d419c; stroke:none;" d="M58 215L58 291L59 291L59 239L58 215z"/>
<path style="fill:#b5c9eb; stroke:none;" d="M221 215L222 216L221 215z"/>
<path style="fill:#707eb9; stroke:none;" d="M385 215L386 216L385 215z"/>
<path style="fill:#b5c9eb; stroke:none;" d="M222 216L223 217L222 216z"/>
<path style="fill:#707eb9; stroke:none;" d="M384 216L385 217L384 216z"/>
<path style="fill:#b5c9eb; stroke:none;" d="M223 217L224 218L223 217z"/>
<path style="fill:#707eb9; stroke:none;" d="M383 217L384 218L383 217z"/>
<path style="fill:#b5c9eb; stroke:none;" d="M224 218L225 219L224 218z"/>
<path style="fill:#707eb9; stroke:none;" d="M382 218L383 219L382 218M226 219L227 220L226 219z"/>
<path style="fill:#b5c9eb; stroke:none;" d="M381 219L382 220L381 219M227 220L228 221L227 220z"/>
<path style="fill:#707eb9; stroke:none;" d="M379 220L380 221L379 220M229 221L230 222L229 221M377 221L378 222L377 221z"/>
<path style="fill:#b5c9eb; stroke:none;" d="M378 221L379 222L378 221z"/>
<path style="fill:#707eb9; stroke:none;" d="M231 222L232 223L231 222M375 222L376 223L375 222z"/>
<path style="fill:#b5c9eb; stroke:none;" d="M376 222L377 223L376 222M233 223L234 224L233 223z"/>
<path style="fill:#707eb9; stroke:none;" d="M234 223L235 224L234 223M372 223L373 224L372 223z"/>
<path style="fill:#b5c9eb; stroke:none;" d="M373 223L374 224L373 223M236.667 224.333L237.333 224.667L236.667 224.333z"/>
<path style="fill:#707eb9; stroke:none;" d="M238 224L238 225L320 225L295 224L238 224M343 224L343 242L344 242L344 225L369 225L343 224z"/>
<path style="fill:#b5c9eb; stroke:none;" d="M369.667 224.333L370.333 224.667L369.667 224.333z"/>
<path style="fill:#707eb9; stroke:none;" d="M320 225L321 226L320 225M321 226L322 227L321 226M322 227L323 228L322 227M323 228L324 229L323 228M324 229L325 230L324 229M325 230L326 231L325 230z"/>
<path style="fill:#b5c9eb; stroke:none;" d="M330 236L331 237L330 236M331 237L332 238L331 237M332 238L333 239L332 238M333 239L334 240L333 239M334 240L335 241L334 240M335 241L336 242L335 241M336 242L337 243L336 242M343 242L344 243L343 242M337 243L338 244L337 243z"/>
<path style="fill:#707eb9; stroke:none;" d="M342 243L343 244L342 243z"/>
<path style="fill:#b5c9eb; stroke:none;" d="M339 244L340 245L339 244z"/>
<path style="fill:#707eb9; stroke:none;" d="M340 244L341 245L340 244z"/>
<path style="fill:#b5c9eb; stroke:none;" d="M341 244L342 245L341 244z"/>
<path style="fill:#707eb9; stroke:none;" d="M522 259L523 260L522 259z"/>
<path style="fill:#b5c9eb; stroke:none;" d="M521.667 260.333L522.333 260.667L521.667 260.333z"/>
<path style="fill:#707eb9; stroke:none;" d="M521 261L522 262L521 261M520 262L521 263L520 262z"/>
<path style="fill:#b5c9eb; stroke:none;" d="M514 270L521 263L514 270z"/>
<path style="fill:#707eb9; stroke:none;" d="M514 268L515 269L514 268z"/>
<path style="fill:#b5c9eb; stroke:none;" d="M290 269L290 270L294 270L290 269M512 269C505.961 273.127 499.274 274.85 492 275L492 276C496.895 275.999 512.177 276.157 512 269z"/>
<path style="fill:#707eb9; stroke:none;" d="M513 269L514 270L513 269z"/>
<path style="fill:#b5c9eb; stroke:none;" d="M288 270L287 272L288 270z"/>
<path style="fill:#2d419c; stroke:none;" d="M289 270L290 271L289 270z"/>
<path style="fill:#283447; stroke:none;" d="M290.147 270.801C284.936 272.637 287.297 281.885 292.957 280.149C299.154 278.248 296.177 268.677 290.147 270.801z"/>
<path style="fill:#707eb9; stroke:none;" d="M294 270L295 271L294 270z"/>
<path style="fill:#2d419c; stroke:none;" d="M295 271L296 272L295 271z"/>
<path style="fill:#707eb9; stroke:none;" d="M296 272L297 273L296 272M286.333 273.667L286.667 274.333L286.333 273.667z"/>
<path style="fill:#b5c9eb; stroke:none;" d="M297 274L297 277L331 276L396 276L396 275L331 275L297 274z"/>
<path style="fill:#2d419c; stroke:none;" d="M286 275L287 276L286 275z"/>
<path style="fill:#707eb9; stroke:none;" d="M297 275L298 276L297 275M396 275L397 276L396 275z"/>
<path style="fill:#b5c9eb; stroke:none;" d="M397 275L397 276L481 276L456 309C472.638 308.46 475.424 283.898 488 277L458 275L397 275z"/>
<path style="fill:#707eb9; stroke:none;" d="M481 275L481 276L492 276L481 275M286 276L287 277L286 276z"/>
<path style="fill:#b5c9eb; stroke:none;" d="M286 277L287 278L286 277z"/>
<path style="fill:#2d419c; stroke:none;" d="M287 278L288 279L287 278z"/>
<path style="fill:#707eb9; stroke:none;" d="M296 278L297 279L296 278z"/>
<path style="fill:#b5c9eb; stroke:none;" d="M287 279L288 280L287 279z"/>
<path style="fill:#707eb9; stroke:none;" d="M295 279L296 280L295 279M289 280L290 281L289 280z"/>
<path style="fill:#2d419c; stroke:none;" d="M293 280L294 281L293 280z"/>
<path style="fill:#b5c9eb; stroke:none;" d="M294 280L295 281L294 280M291 281L292 282L291 281M47 291L48 292L47 291z"/>
<path style="fill:#707eb9; stroke:none;" d="M58 291L59 292L58 291z"/>
<path style="fill:#2d419c; stroke:none;" d="M48 292L49 293L48 292z"/>
<path style="fill:#b5c9eb; stroke:none;" d="M48 293L49 294L48 293M57 293L58 294L57 293z"/>
<path style="fill:#707eb9; stroke:none;" d="M50 294L51 295L50 294M55 294L56 295L55 294z"/>
<path style="fill:#b5c9eb; stroke:none;" d="M56 294L57 295L56 294M52 295L53 309L54 309L55 295L52 295z"/>
<path style="fill:#707eb9; stroke:none;" d="M53 295L54 296L53 295z"/>
</svg>
