<?xml version="1.0" standalone="yes"?>
<svg xmlns="http://www.w3.org/2000/svg" width="550" height="309">
<path style="fill:#fedf87; stroke:none;" d="M0 0L0 97L84 97L96.9105 96.6829L104.995 92.7508L109.534 97.9961L104.995 102.365L96.9105 98.3171L84 98L0 98L0 286L432.999 285.999L446.004 281.317L469 281.001L483.09 285.686L505 286L505 287C498.279 287 490.731 286.024 484.104 287.148C480.653 287.734 479.093 291.012 475.957 292.258C467.746 295.52 444.176 295.465 440 287L0 287L0 309L550 309L550 0L0 0z"/>
<path style="fill:#fffffe; stroke:none;" d="M274 235C269.635 229.719 263.108 226.428 258 221.829C249.273 213.973 241.993 204.363 236.489 194C213.068 149.902 230.283 91.3628 274 67C267.797 59.765 255.068 56.8446 246 55.0039C216.512 49.0178 184.979 56.6045 162 76.3002C98.7427 130.52 131.906 234.959 213 246.572C235.042 249.728 254.085 243.291 274 235M276 66C286.405 75.966 298.01 82.8802 306.561 95C328.753 126.455 329.707 168.331 309.539 201C300.598 215.483 286.277 222.565 276 235C294.859 242.852 311.28 247.869 332 246.961C346.029 246.345 359.762 241.335 372 234.766C383.923 228.367 394.67 219.002 402.572 208C423.713 178.566 427.744 137.447 410.68 105C386.367 58.7704 321.662 36.1634 276 66z"/>
<path style="fill:#6a707b; stroke:none;" d="M273 67L273 68L277 68L273 67z"/>
<path style="fill:#fedf87; stroke:none;" d="M272 67L273 68L272 67z"/>
<path style="fill:#272f3f; stroke:none;" d="M274 67.8657C264.395 69.3307 253.955 82.0421 248.145 89C223.281 118.778 219.678 164.425 238.873 198C245.023 208.759 253.25 218.346 263 225.985C266.448 228.687 271.248 233.141 276 232.473C286.641 230.977 298.758 216.08 304.572 208C326.674 177.279 329.753 136.249 311.269 103C305.049 91.8134 297.002 82.4033 287 74.4498C283.615 71.758 278.713 67.147 274 67.8657z"/>
<path style="fill:#fedf87; stroke:none;" d="M277 67L278 68L277 67z"/>
<path style="fill:#6a707b; stroke:none;" d="M271 68L272 69L271 68M278 68L279 69L278 68z"/>
<path style="fill:#fedf87; stroke:none;" d="M269 69L270 70L269 69M280 69L281 70L280 69z"/>
<path style="fill:#6a707b; stroke:none;" d="M268 70L269 71L268 70M281 70L282 71L281 70z"/>
<path style="fill:#fedf87; stroke:none;" d="M266 71L267 72L266 71z"/>
<path style="fill:#6a707b; stroke:none;" d="M267 71L268 72L267 71z"/>
<path style="fill:#fedf87; stroke:none;" d="M283 71L284 72L283 71z"/>
<path style="fill:#6a707b; stroke:none;" d="M265 72L266 73L265 72M284 72L285 73L284 72M264 73L265 74L264 73M285 73L286 74L285 73z"/>
<path style="fill:#fedf87; stroke:none;" d="M262 74L263 75L262 74M287 74L288 75L287 74z"/>
<path style="fill:#6a707b; stroke:none;" d="M261 75L262 76L261 75M288 75L289 76L288 75M260 76L261 77L260 76M289 76L290 77L289 76M259 77L260 78L259 77M290 77L291 78L290 77M258 78L259 79L258 78M291 78L292 79L291 78z"/>
<path style="fill:#fedf87; stroke:none;" d="M255 80L256 81L255 80M294 80L295 81L294 80M254 81L255 82L254 81M295 81L296 82L295 81M253 82L254 83L253 82M296 82L297 83L296 82M252 83L253 84L252 83M297 83L298 84L297 83z"/>
<path style="fill:#6a707b; stroke:none;" d="M251 85L252 86L251 85M250 86L251 87L250 86M299 86L300 87L299 86M249 87L250 88L249 87M300 87L301 88L300 87M248 88L249 89L248 88M301 88L302 89L301 88z"/>
<path style="fill:#fedf87; stroke:none;" d="M247 89L248 90L247 89M302 89L303 90L302 89M246 90L247 91L246 90M303 90L304 91L303 90z"/>
<path style="fill:#32c3ef; stroke:none;" d="M102.229 93.0432C96.2668 96.4908 102.034 105.605 107.682 101.968C112.952 98.5738 107.954 89.733 102.229 93.0432z"/>
<path style="fill:#6a707b; stroke:none;" d="M245 92L246 93L245 92M304 92L305 93L304 92M244 93L245 94L244 93M305 93L306 94L305 93z"/>
<path style="fill:#fedf87; stroke:none;" d="M243 94L244 95L243 94M306 94L307 95L306 94z"/>
<path style="fill:#6a707b; stroke:none;" d="M243 95L244 96L243 95M306 95L307 96L306 95M242 96L243 97L242 96M307 96L308 97L307 96z"/>
<path style="fill:#fffffe; stroke:none;" d="M0 97L0 98L99 98L69 97L0 97z"/>
<path style="fill:#fedf87; stroke:none;" d="M241 97L242 98L241 97M308 97L309 98L308 97z"/>
<path style="fill:#6a707b; stroke:none;" d="M241 98L242 99L241 98M308 98L309 99L308 98M240 99L241 100L240 99M309 99L310 100L309 99M239 101L240 102L239 101M310 101L311 102L310 101z"/>
<path style="fill:#fedf87; stroke:none;" d="M238 102L239 103L238 102M311 102L312 103L311 102z"/>
<path style="fill:#6a707b; stroke:none;" d="M238 103L239 104L238 103M311 103L312 104L311 103z"/>
<path style="fill:#fedf87; stroke:none;" d="M237 104L238 105L237 104M312 104L313 105L312 104z"/>
<path style="fill:#6a707b; stroke:none;" d="M312 105L313 106L312 105z"/>
<path style="fill:#fedf87; stroke:none;" d="M236 106L237 107L236 106z"/>
<path style="fill:#6a707b; stroke:none;" d="M313 106L314 107L313 106M236 107L237 108L236 107z"/>
<path style="fill:#fedf87; stroke:none;" d="M235 108L236 109L235 108M314 108L315 109L314 108z"/>
<path style="fill:#6a707b; stroke:none;" d="M235 109L236 110L235 109M314 109L315 110L314 109z"/>
<path style="fill:#fedf87; stroke:none;" d="M234 110L235 111L234 110M315 110L316 111L315 110z"/>
<path style="fill:#6a707b; stroke:none;" d="M234 111L235 112L234 111M315 111L316 112L315 111z"/>
<path style="fill:#fedf87; stroke:none;" d="M233 112L234 113L233 112M316 112L317 113L316 112z"/>
<path style="fill:#6a707b; stroke:none;" d="M233 113L234 114L233 113M316 113L317 114L316 113M232.333 115.667L232.667 116.333L232.333 115.667M317.333 115.667L317.667 116.333L317.333 115.667z"/>
<path style="fill:#fedf87; stroke:none;" d="M231 117L232 118L231 117M318 117L319 118L318 117z"/>
<path style="fill:#6a707b; stroke:none;" d="M231.333 118.667L231.667 119.333L231.333 118.667M318 118L319 119L318 118M272 119L272 120L278 120L272 119z"/>
<path style="fill:#fedf87; stroke:none;" d="M230 120L231 121L230 120z"/>
<path style="fill:#6a707b; stroke:none;" d="M268 122L271 121L268 122z"/>
<path style="fill:#fedf87; stroke:none;" d="M271 120L272 121L271 120z"/>
<path style="fill:#fffffe; stroke:none;" d="M272 120.537C255.803 124.281 261.962 149.169 278 145.463C294.214 141.716 288.323 116.764 272 120.537z"/>
<path style="fill:#fedf87; stroke:none;" d="M278 120L279 121L278 120z"/>
<path style="fill:#6a707b; stroke:none;" d="M279.667 120.333L280.333 120.667L279.667 120.333z"/>
<path style="fill:#fedf87; stroke:none;" d="M319 120L320 121L319 120z"/>
<path style="fill:#6a707b; stroke:none;" d="M230.333 121.667L230.667 122.333L230.333 121.667z"/>
<path style="fill:#fedf87; stroke:none;" d="M281 121L282 122L281 121z"/>
<path style="fill:#6a707b; stroke:none;" d="M319.333 121.667L319.667 122.333L319.333 121.667M266 122L267 123L266 122M283 122L284 123L283 122M265 123L266 124L265 123M284 123L285 124L284 123z"/>
<path style="fill:#fedf87; stroke:none;" d="M320 123L321 124L320 123M229 124L230 125L229 124z"/>
<path style="fill:#6a707b; stroke:none;" d="M264 124L265 125L264 124M285 124L286 125L285 124M320.333 124.667L320.667 125.333L320.333 124.667M229 125L230 126L229 125M263 126L264 127L263 126z"/>
<path style="fill:#fedf87; stroke:none;" d="M286 126L287 127L286 126M228.333 127.667L228.667 128.333L228.333 127.667z"/>
<path style="fill:#6a707b; stroke:none;" d="M287 127L288 128L287 127z"/>
<path style="fill:#fedf87; stroke:none;" d="M321 127L322 128L321 127z"/>
<path style="fill:#6a707b; stroke:none;" d="M262 128L263 129L262 128z"/>
<path style="fill:#fedf87; stroke:none;" d="M287 128L288 129L287 128z"/>
<path style="fill:#6a707b; stroke:none;" d="M321 128L321 131L322 131L321 128M228.333 129.667L228.667 130.333L228.333 129.667z"/>
<path style="fill:#fedf87; stroke:none;" d="M262 129L263 130L262 129z"/>
<path style="fill:#6a707b; stroke:none;" d="M288 130L288 136L289 136L288 130M261 131L261 135L262 135L261 131z"/>
<path style="fill:#fedf87; stroke:none;" d="M322.333 131.667L322.667 132.333L322.333 131.667M227 132L228 133L227 132z"/>
<path style="fill:#6a707b; stroke:none;" d="M227 133L227 137L228 137L227 133M322 133L322 136L323 136L322 133z"/>
<path style="fill:#fedf87; stroke:none;" d="M262 136L263 137L262 136M287 136L288 137L287 136z"/>
<path style="fill:#6a707b; stroke:none;" d="M262 137L263 138L262 137M287.333 137.667L287.667 138.333L287.333 137.667z"/>
<path style="fill:#fedf87; stroke:none;" d="M226 138L226 141L227 141L226 138M323.333 138.667L323.667 139.333L323.333 138.667z"/>
<path style="fill:#6a707b; stroke:none;" d="M263 139L264 140L263 139z"/>
<path style="fill:#fedf87; stroke:none;" d="M286 139L287 140L286 139M264 140L265 141L264 140z"/>
<path style="fill:#6a707b; stroke:none;" d="M323 140L323 148L324 148L323 140M226 141L226 160L227 160L226 141M264 141L265 142L264 141M285 141L286 142L285 141M265 142L266 143L265 142M284 142L285 143L284 142M266 143L267 144L266 143z"/>
<path style="fill:#fedf87; stroke:none;" d="M267 143L268 144L267 143z"/>
<path style="fill:#6a707b; stroke:none;" d="M283 143L284 144L283 143M268 144L269 145L268 144M281 144L282 145L281 144M270 145L271 146L270 145z"/>
<path style="fill:#fedf87; stroke:none;" d="M271 145L272 146L271 145M278 145L279 146L278 145z"/>
<path style="fill:#6a707b; stroke:none;" d="M279 145L280 146L279 145M273 146L273 147L277 147L273 146M266 152L267 153L266 152M268 152L268 153L281 153L268 152M282 152L283 153L282 152M260.667 153.333L261.333 153.667L260.667 153.333z"/>
<path style="fill:#fedf87; stroke:none;" d="M262.667 153.333L263.333 153.667L262.667 153.333z"/>
<path style="fill:#fffffe; stroke:none;" d="M264 153.468C255.298 155.113 240.668 170.818 253.109 177.821C256.487 179.722 261.277 179 265 179C274.153 179 286.161 181.058 294.985 178.566C304.963 175.748 300.727 162.138 294.956 157.394C287.575 151.327 272.955 151.775 264 153.468z"/>
<path style="fill:#fedf87; stroke:none;" d="M286.667 153.333L287.333 153.667L286.667 153.333z"/>
<path style="fill:#6a707b; stroke:none;" d="M288.667 153.333L289.333 153.667L288.667 153.333M323 153L323 160L324 160L323 153M258 154L259 155L258 154z"/>
<path style="fill:#fedf87; stroke:none;" d="M259 154L260 155L259 154M290 154L291 155L290 154z"/>
<path style="fill:#6a707b; stroke:none;" d="M291 154L292 155L291 154M256 155L257 156L256 155z"/>
<path style="fill:#fedf87; stroke:none;" d="M257 155L258 156L257 155M292 155L293 156L292 155z"/>
<path style="fill:#6a707b; stroke:none;" d="M293 155L294 156L293 155M255 156L256 157L255 156M294 156L295 157L294 156z"/>
<path style="fill:#fedf87; stroke:none;" d="M254 157L255 158L254 157M295 157L296 158L295 157M253 158L254 159L253 158M296 158L297 159L296 158z"/>
<path style="fill:#6a707b; stroke:none;" d="M252 159L253 160L252 159M297 159L298 160L297 159z"/>
<path style="fill:#fedf87; stroke:none;" d="M226.333 160.667L226.667 161.333L226.333 160.667z"/>
<path style="fill:#6a707b; stroke:none;" d="M251 160L252 161L251 160M298 160L299 161L298 160z"/>
<path style="fill:#fedf87; stroke:none;" d="M323 160L323 163L324 163L323 160z"/>
<path style="fill:#6a707b; stroke:none;" d="M250 162L251 163L250 162M299 162L300 163L299 162M249.333 163.667L249.667 164.333L249.333 163.667M300.333 163.667L300.667 164.333L300.333 163.667M227 164L227 167L228 167L227 164M322 164L322 167L323 167L322 164z"/>
<path style="fill:#fedf87; stroke:none;" d="M249 165L250 166L249 165M300 165L301 166L300 165z"/>
<path style="fill:#6a707b; stroke:none;" d="M248 166L248 170L249 170L248 166M301 166L301 169L302 169L301 166z"/>
<path style="fill:#fedf87; stroke:none;" d="M227.333 167.667L227.667 168.333L227.333 167.667M322.333 167.667L322.667 168.333L322.333 167.667M301.333 169.667L301.667 170.333L301.333 169.667z"/>
<path style="fill:#6a707b; stroke:none;" d="M228.333 170.667L228.667 171.333L228.333 170.667z"/>
<path style="fill:#fedf87; stroke:none;" d="M248 170L249 171L248 170z"/>
<path style="fill:#6a707b; stroke:none;" d="M321.333 170.667L321.667 171.333L321.333 170.667M248 171L248 174L249 174L248 171M301 171L301 174L302 174L301 171z"/>
<path style="fill:#fedf87; stroke:none;" d="M228 172L229 173L228 172M321 172L322 173L321 172z"/>
<path style="fill:#6a707b; stroke:none;" d="M229.333 174.667L229.667 175.333L229.333 174.667z"/>
<path style="fill:#fedf87; stroke:none;" d="M249 174L250 175L249 174M300 174L301 175L300 174z"/>
<path style="fill:#6a707b; stroke:none;" d="M320.333 174.667L320.667 175.333L320.333 174.667M249 175L250 176L249 175M300 175L301 176L300 175z"/>
<path style="fill:#fedf87; stroke:none;" d="M229 176L230 177L229 176z"/>
<path style="fill:#6a707b; stroke:none;" d="M250 176L251 177L250 176M299 176L300 177L299 176z"/>
<path style="fill:#fedf87; stroke:none;" d="M320 176L321 177L320 176z"/>
<path style="fill:#6a707b; stroke:none;" d="M251 177L252 178L251 177M298 177L299 178L298 177M230 178L231 179L230 178M252 178L253 179L252 178z"/>
<path style="fill:#fedf87; stroke:none;" d="M253 178L254 179L253 178M296 178L297 179L296 178z"/>
<path style="fill:#6a707b; stroke:none;" d="M297 178L298 179L297 178M319 178L320 179L319 178z"/>
<path style="fill:#fedf87; stroke:none;" d="M230 179L231 180L230 179z"/>
<path style="fill:#6a707b; stroke:none;" d="M254 179L254 180L257 180L254 179z"/>
<path style="fill:#fedf87; stroke:none;" d="M257 179L257 180L293 180C283.44 175.989 267.387 179 257 179z"/>
<path style="fill:#6a707b; stroke:none;" d="M293 179L293 180L296 180L293 179z"/>
<path style="fill:#fedf87; stroke:none;" d="M319 179L320 180L319 179z"/>
<path style="fill:#6a707b; stroke:none;" d="M231 181L232 182L231 181M318 181L319 182L318 181z"/>
<path style="fill:#fedf87; stroke:none;" d="M231 182L232 183L231 182M318 182L319 183L318 182z"/>
<path style="fill:#6a707b; stroke:none;" d="M232 184L233 185L232 184M317 184L318 185L317 184z"/>
<path style="fill:#fedf87; stroke:none;" d="M232 185L233 186L232 185M317 185L318 186L317 185z"/>
<path style="fill:#6a707b; stroke:none;" d="M233 186L234 187L233 186M316.333 186.667L316.667 187.333L316.333 186.667z"/>
<path style="fill:#fedf87; stroke:none;" d="M233 187L234 188L233 187z"/>
<path style="fill:#6a707b; stroke:none;" d="M234 189L235 190L234 189M315 189L316 190L315 189M235 191L236 192L235 191M314 191L315 192L314 191z"/>
<path style="fill:#fedf87; stroke:none;" d="M235 192L236 193L235 192M314 192L315 193L314 192z"/>
<path style="fill:#6a707b; stroke:none;" d="M236 193L237 194L236 193M313 193L314 194L313 193z"/>
<path style="fill:#fedf87; stroke:none;" d="M236 194L237 195L236 194M313 194L314 195L313 194z"/>
<path style="fill:#6a707b; stroke:none;" d="M237 195L238 196L237 195M312 195L313 196L312 195M238 197L239 198L238 197M311 197L312 198L311 197z"/>
<path style="fill:#fedf87; stroke:none;" d="M239 199L240 200L239 199M310 199L311 200L310 199z"/>
<path style="fill:#6a707b; stroke:none;" d="M240 200L241 201L240 200M309 200L310 201L309 200z"/>
<path style="fill:#fedf87; stroke:none;" d="M309 201L310 202L309 201z"/>
<path style="fill:#6a707b; stroke:none;" d="M241 202L242 203L241 202M308 202L309 203L308 202M242 203L243 204L242 203M307 203L308 204L307 203z"/>
<path style="fill:#fedf87; stroke:none;" d="M242 204L243 205L242 204M307 204L308 205L307 204z"/>
<path style="fill:#6a707b; stroke:none;" d="M243 205L244 206L243 205M306 205L307 206L306 205M244 206L245 207L244 206M305 206L306 207L305 206z"/>
<path style="fill:#fedf87; stroke:none;" d="M245 208L246 209L245 208M304 208L305 209L304 208z"/>
<path style="fill:#6a707b; stroke:none;" d="M246 209L247 210L246 209M303 209L304 210L303 209M247 210L248 211L247 210M302 210L303 211L302 210M248 211L249 212L248 211z"/>
<path style="fill:#fedf87; stroke:none;" d="M301 212L302 213L301 212M249 213L250 214L249 213M300 213L301 214L300 213M250 214L251 215L250 214M299 214L300 215L299 214M251 215L252 216L251 215z"/>
<path style="fill:#6a707b; stroke:none;" d="M298 215L299 216L298 215M252 216L253 217L252 216M297 216L298 217L297 216M253 217L254 218L253 217M296 217L297 218L296 217M254 218L255 219L254 218M295 218L296 219L295 218M255 219L256 220L255 219M294 219L295 220L294 219M256 220L257 221L256 220M293 220L294 221L293 220z"/>
<path style="fill:#fedf87; stroke:none;" d="M257 221L258 222L257 221z"/>
<path style="fill:#6a707b; stroke:none;" d="M292 221L293 222L292 221z"/>
<path style="fill:#fedf87; stroke:none;" d="M258 222L259 223L258 222M291 222L292 223L291 222M259 223L260 224L259 223M290 223L291 224L290 223z"/>
<path style="fill:#6a707b; stroke:none;" d="M261 224L262 225L261 224M288 224L289 225L288 224z"/>
<path style="fill:#fedf87; stroke:none;" d="M289 224L290 225L289 224z"/>
<path style="fill:#6a707b; stroke:none;" d="M262 225L263 226L262 225M287 225L288 226L287 225M263 226L264 227L263 226M286 226L287 227L286 226z"/>
<path style="fill:#fedf87; stroke:none;" d="M264 227L265 228L264 227M285 227L286 228L285 227z"/>
<path style="fill:#6a707b; stroke:none;" d="M266 228L267 229L266 228M283 228L284 229L283 228z"/>
<path style="fill:#fedf87; stroke:none;" d="M267 229L268 230L267 229M282 229L283 230L282 229z"/>
<path style="fill:#6a707b; stroke:none;" d="M269 230L270 231L269 230M280 230L281 231L280 230z"/>
<path style="fill:#fedf87; stroke:none;" d="M270 231L271 232L270 231M279 231L280 232L279 231z"/>
<path style="fill:#6a707b; stroke:none;" d="M272 232L273 233L272 232M277 232L278 233L277 232z"/>
<path style="fill:#fedf87; stroke:none;" d="M273 233L274 234L273 233z"/>
<path style="fill:#6a707b; stroke:none;" d="M274.667 233.333L275.333 233.667L274.667 233.333z"/>
<path style="fill:#fedf87; stroke:none;" d="M276 233L277 234L276 233z"/>
<path style="fill:#32c3ef; stroke:none;" d="M528.228 244.047C521.931 247.58 527.691 256.874 533.682 252.968C538.725 249.681 533.578 241.046 528.228 244.047z"/>
<path style="fill:#fffffe; stroke:none;" d="M530 254L530 261L531 261L530 254M529 261L528 267L529 267L529 261M527.333 267.667L527.667 268.333L527.333 267.667M526.333 269.667L526.667 270.333L526.333 269.667M525 271L524 274L525 271M523 274L524 275L523 274M522 275L523 276L522 275M521 276L522 277L521 276M520 277L521 278L520 277M519 278L520 279L519 278M518 279L519 280L518 279M515 282L518 280L515 282z"/>
<path style="fill:#32c3ef; stroke:none;" d="M443.148 282.028C438.348 284.871 440.175 291.181 445.019 292.566C451.295 294.361 473.503 295.595 478.566 291.258C482.308 288.051 480.269 282.692 475.956 281.434C469.479 279.544 448.981 278.573 443.148 282.028z"/>
<path style="fill:#fffffe; stroke:none;" d="M513.667 282.333L514.333 282.667L513.667 282.333M511.667 283.333L512.333 283.667L511.667 283.333M508 284L508 285L511 285L508 284M505 285L505 286L508 286L505 285M0 286L0 287L440 287C429.734 282.692 412.158 286 401 286L311 286L0 286M481 286L481 287L505 287L481 286z"/>
</svg>
