<?xml version="1.0" standalone="yes"?>
<svg xmlns="http://www.w3.org/2000/svg" width="550" height="309">
<path style="fill:#fd596c; stroke:none;" d="M0 0L0 97L84 97L96.9105 96.6829L104.999 92.635L109.824 97.0154L104.988 102.516L96.8302 98.3171L84 98L0 98L0 214L14 210L14 211L1 226L43 191.175L64 189L59 195L105 179.67L124.576 174.221L143 188L143 190L145 191C156.868 186.368 176.232 190 189 190L189 194L190 194L190 172L191 172L191 229L192 229L192 112C192 99.5782 187.386 77.9184 196.214 68.0432C205.723 57.4056 224.185 61 237 61C238.709 55.1101 242.175 56.8727 246.316 53.9769C258.574 45.4066 271.272 45.8682 283.495 53.9769C287.763 56.8088 291.275 55.052 293 61C304.831 61 322.424 57.6602 331.956 66.2137C340.953 74.2876 338 89.1003 338 100L338 186L339 186L339 181L340 181C340.561 188.041 350.241 190.312 356 193L356 192L352 190L352 189L381 190L435 190L477 189C485.496 205.241 510.448 208.789 526 201.9C534.602 198.091 540.146 190.608 550 190L550 178L549 178C547.937 181.188 532.804 198.217 532 195L531 195L530 198C517.223 198.35 508.377 201.978 497 193L535 180.667L548.972 175.272L550 162L550 129L550 0L0 0z"/>
<path style="fill:#dc2184; stroke:none;" d="M251 48L251 49L279 49L251 48z"/>
<path style="fill:#263040; stroke:none;" d="M249.545 50.0231C246.225 52.2469 242.526 53.8556 239.318 56.027C235.487 58.6201 235.754 69.4782 240.148 71.3966C247.974 74.8136 262.485 72 271 72C276.059 72 286.259 73.9371 290.566 70.9722C294.527 68.2461 294.125 57.8764 289.772 55.7377C280.573 51.2185 260.205 42.8817 249.545 50.0231z"/>
<path style="fill:#dc2184; stroke:none;" d="M280 49L281 50L280 49M247 53L248 54L247 53M290 55L291 56L290 55M292 57L293 58L292 57z"/>
<path style="fill:#9bbbbd; stroke:none;" d="M207 61L207 62L237 62L207 61M293 61L293 62L323 62L293 61z"/>
<path style="fill:#fcf9fa; stroke:none;" d="M287 242C275.507 211.167 302.648 169.583 338 178L338 97C338 86.7632 340.653 72.875 331.895 65.3943C323.432 58.1652 303.54 62 293 62C292.954 65.9105 292.804 69.7057 288.941 71.821C280.286 76.5614 261.771 73 252 73C248.343 73 243.437 73.7685 240.148 71.821C236.624 69.7344 237.013 65.5523 237 62C224.985 62 203.859 57.6877 195.394 68.0432C188.362 76.6463 192 95.4575 192 106L192 200C192 210.214 188.675 227.495 195.419 235.957C201.707 243.846 212.048 242 221 242L287 242z"/>
<path style="fill:#9bbbbd; stroke:none;" d="M292 69L293 70L292 69M335 69L336 70L335 69M237 70L238 71L237 70M238 71L239 72L238 71M336 71L337 72L336 71M240 72L240 73L289 73C276.348 67.691 253.788 72 240 72M191 79L191 84L192 84L191 79M102.228 93.0324C96.1443 96.629 102.036 106.136 107.771 102.214C113.475 98.3125 108.198 89.5033 102.228 93.0324M209 92C210.815 97.4682 217.152 96 222 96C235.004 96 251.525 98.6874 264 95L264 93C247.902 88.2417 225.807 92 209 92z"/>
<path style="fill:#fcf9fa; stroke:none;" d="M0 97L0 98L99 98L69 97L0 97z"/>
<path style="fill:#9bbbbd; stroke:none;" d="M209 105C211.23 111.719 240.77 111.719 243 105L209 105M309 131L267 174L266 174C261.043 166.963 254.142 161.021 248 155.005C245.937 152.984 243.26 149.632 240 150.06C232.152 151.091 221.375 166.526 216.005 172C214.165 173.875 208.881 178.237 211.086 181.377C213.435 184.722 218.365 179.544 220 177.981C226.834 171.445 234.551 164.735 240 157L241 157L259 175.985L267 180.963L281 169L315 136C314.174 138.793 312.258 152.256 318.726 150.248C322.905 148.951 322.429 127.447 318.682 125.603C314.779 123.683 300.215 123.615 296.337 125.603C290.316 128.688 301.047 130.986 302.995 130.999L309 131z"/>
<path style="fill:#dc2184; stroke:none;" d="M122 172L123 173L122 172M190 172L190 194L189 194L189 190L158 190L145 191L143 190L143 188L141 189C138.141 183.489 131.561 175.154 125 174.029C119.722 173.123 112.052 177.198 107 178.72C91.4523 183.404 73.3545 187.436 59 195L64 189L43 190.742L29 201.579L1 226L14 211L14 210L1.02778 214.563L0 234L0 286L418 286C436.758 286 451.862 280.645 471 281.005C476.287 281.104 478.506 284.426 483.17 285.683C495.584 289.028 514.254 285.102 522.471 274.96C525.898 270.73 530.346 262.805 529.509 257.09C529.018 253.734 524.918 251.671 525.752 248.015C526.85 243.195 533.752 241.984 535.454 247.059C536.813 251.113 531.726 255.125 530.874 259.039C527.971 272.387 518.068 284.324 504 286.674C497.312 287.792 489.711 285.464 483.209 287.317C480.292 288.148 478.771 291.141 475.957 292.258C469.267 294.916 452.976 294.437 446.004 292.682C442.394 291.774 440.449 288.262 436.91 287.318C423.481 283.733 404.921 287 391 287L291 287C193.829 287 96.9879 288 0 288L0 309L550 309L550 190C539.514 190.276 534.076 197.881 525 201.9C508.122 209.376 488.052 203.385 477 189L410 190L352 189L352 190L356 192L356 193L354 192L354 193C379.114 212.147 374.903 253.61 342 262.24C330.269 265.317 317.373 262.438 308.001 254.671C304.168 251.495 300.814 244.656 295.907 243.318C289.113 241.466 280.028 243 273 243L225 243C214.775 243 202.767 244.906 195.532 235.957C181.881 219.07 197.824 190.645 190 172M497 193C502.448 199.624 514.87 201.894 523 199.806C526.411 198.929 530.388 198.857 531 195L532 195L533 197C539.163 190.245 547.204 185.198 550 176L497 193z"/>
<path style="fill:#9bbbbd; stroke:none;" d="M287 242L208 242L208 243L297 243C296.007 236.279 292.998 229.956 293.518 223C295.32 198.886 315.613 186 338 186C337.943 169.914 315.907 178.7 307 183.877C288.456 194.654 276.835 221.746 287 242z"/>
<path style="fill:#dc2184; stroke:none;" d="M339 181C339.013 184.194 338.597 186.271 342 187L342 186L339 181M47 186L46 188L47 186z"/>
<path style="fill:#263040; stroke:none;" d="M325 186.465C274.306 195.605 290.926 272.281 341 262.689C389.618 253.376 373.35 177.747 325 186.465z"/>
<path style="fill:#dc2184; stroke:none;" d="M546 186L545 188L546 186M65 187L64 189L65 187M343.667 187.333L344.333 187.667L343.667 187.333M346.667 188.333L347.333 188.667L346.667 188.333M350.667 188.333L351.333 188.667L350.667 188.333M475 188L476 189L475 188M349 189L350 190L349 189M543 189L542 191L543 189M351 190L352 191L351 190M352 191L353 192L352 191z"/>
<path style="fill:#9bbbbd; stroke:none;" d="M324 209L324 210L328 210L324 209M322 210L323 211L322 210z"/>
<path style="fill:#fcf9fa; stroke:none;" d="M323.214 210.746C316.313 213.774 320.946 224.637 327.945 222.214C336.099 219.39 331.172 207.255 323.214 210.746z"/>
<path style="fill:#9bbbbd; stroke:none;" d="M329 210L330 211L329 210M320 212L321 213L320 212M331 212L332 213L331 212M319.333 213.667L319.667 214.333L319.333 213.667M332.333 213.667L332.667 214.333L332.333 213.667M341 213L342 214L341 213z"/>
<path style="fill:#fcf9fa; stroke:none;" d="M342.058 213.851C335.617 215.772 338.44 226.359 344.942 224.338C351.327 222.353 348.661 211.881 342.058 213.851z"/>
<path style="fill:#9bbbbd; stroke:none;" d="M345.667 213.333L346.333 213.667L345.667 213.333M339 214L340 215L339 214M347 214L348 215L347 214M338 215L339 216L338 215M348 215L349 216L348 215M319.333 217.667L319.667 218.333L319.333 217.667M332.333 217.667L332.667 218.333L332.333 217.667M337 217L337 221L338 221L337 217M349 217L349 221L350 221L349 217M320 220L321 221L320 220M331 220L332 221L331 220z"/>
<path style="fill:#fcf9fa; stroke:none;" d="M292 221L293 222L292 221z"/>
<path style="fill:#9bbbbd; stroke:none;" d="M321 221L322 222L321 221M330 221L331 222L330 221M323 222L324 223L323 222M328 222L329 223L328 222M338 222L339 223L338 222M348 222L349 223L348 222M339 223L340 224L339 223M347 223L348 224L347 223M340 224L341 225L340 224M346 224L347 225L346 224M318 227L318 228L334 228L318 227z"/>
<path style="fill:#fcf9fa; stroke:none;" d="M292 228L293 229L292 228z"/>
<path style="fill:#9bbbbd; stroke:none;" d="M315 228L316 229L315 228z"/>
<path style="fill:#fcf9fa; stroke:none;" d="M316.019 228.742C311.866 230.401 308.788 237.055 314.148 239.397C318.734 241.4 334.207 241.54 338.682 239.258C343.046 237.031 340.136 230.928 336.941 229.179C332.488 226.74 320.696 226.875 316.019 228.742z"/>
<path style="fill:#9bbbbd; stroke:none;" d="M336 228L337 229L336 228M313 229L314 230L313 229M338 229L339 230L338 229z"/>
<path style="fill:#fcf9fa; stroke:none;" d="M343 229L344 240C360.224 240 357.77 229.01 343 229z"/>
<path style="fill:#9bbbbd; stroke:none;" d="M352 229L353 230L352 229M192 230L193 231L192 230M312 230L313 231L312 230M339 230L340 231L339 230M343 230L344 231L343 230M354 230L355 231L354 230z"/>
<path style="fill:#fd596c; stroke:none;" d="M192 231L193 232L192 231z"/>
<path style="fill:#9bbbbd; stroke:none;" d="M311 231L312 232L311 231M340 231L341 232L340 231M355 231L356 232L355 231M344 232L345 233L344 232z"/>
<path style="fill:#fd596c; stroke:none;" d="M193 233L194 234L193 233z"/>
<path style="fill:#9bbbbd; stroke:none;" d="M341 233L341 238L342 238L341 233M356 233L357 234L356 233M310 234L310 238L311 238L310 234M357.333 235.667L357.667 236.333L357.333 235.667z"/>
<path style="fill:#fd596c; stroke:none;" d="M195 236L196 237L195 236M196 237L197 238L196 237M197 238L198 239L197 238z"/>
<path style="fill:#9bbbbd; stroke:none;" d="M311 238L312 239L311 238M344 238L345 239L344 238M356 238L357 239L356 238z"/>
<path style="fill:#fd596c; stroke:none;" d="M198 239L199 240L198 239z"/>
<path style="fill:#9bbbbd; stroke:none;" d="M312 239L313 240L312 239M339 239L340 240L339 239M355 239L356 240L355 239z"/>
<path style="fill:#fd596c; stroke:none;" d="M200 240L201 241L200 240M202 241L203 242L202 241M205 242L205 243L208 243L205 242M289 242L289 243L294 243L289 242M297 242L298 243L297 242z"/>
<path style="fill:#9bbbbd; stroke:none;" d="M528.147 244.043C522.388 247.266 526.758 256.452 532.853 253.647C538.972 250.83 534.487 240.496 528.147 244.043z"/>
<path style="fill:#fd596c; stroke:none;" d="M533 243L534 244L533 243M535 245L536 246L535 245M536.333 248.667L536.667 249.333L536.333 248.667M525 251L526 252L525 251M529 254L530 255L529 254z"/>
<path style="fill:#fcf9fa; stroke:none;" d="M530 254L530 259L531 259L530 254z"/>
<path style="fill:#fd596c; stroke:none;" d="M532 254L533 255L532 254M529 259L531 262L529 259z"/>
<path style="fill:#9bbbbd; stroke:none;" d="M530.333 259.667L530.667 260.333L530.333 259.667M529 261L530 262L529 261z"/>
<path style="fill:#fcf9fa; stroke:none;" d="M529.333 262.667L529.667 263.333L529.333 262.667z"/>
<path style="fill:#fd596c; stroke:none;" d="M528 263L530 265L528 263z"/>
<path style="fill:#9bbbbd; stroke:none;" d="M528 264L529 265L528 264z"/>
<path style="fill:#fcf9fa; stroke:none;" d="M528 265L527 269L528 269L528 265z"/>
<path style="fill:#fd596c; stroke:none;" d="M527 266L528 267L527 266M528 267L529 268L528 267M526 268L528 270L526 268z"/>
<path style="fill:#9bbbbd; stroke:none;" d="M526 269L527 270L526 269z"/>
<path style="fill:#fd596c; stroke:none;" d="M525 270L527 272L525 270z"/>
<path style="fill:#fcf9fa; stroke:none;" d="M526 270L527 271L526 270M525 271L526 272L525 271z"/>
<path style="fill:#9bbbbd; stroke:none;" d="M524.667 272.333L525.333 272.667L524.667 272.333z"/>
<path style="fill:#fd596c; stroke:none;" d="M523 273L524 274L523 273z"/>
<path style="fill:#fcf9fa; stroke:none;" d="M524 273L525 274L524 273M523 274L517 281L523 274z"/>
<path style="fill:#fd596c; stroke:none;" d="M523 275L524 276L523 275M522 276L523 277L522 276M521 277L522 278L521 277M520 278L521 279L520 278M517 279L518 280L517 279M519 279L520 280L519 279z"/>
<path style="fill:#9bbbbd; stroke:none;" d="M516 280L517 281L516 280M443.11 282.028C437.873 284.993 439.828 291.101 445.015 292.566C451.609 294.429 471.882 295.429 477.772 291.821C482.357 289.011 480.712 282.821 475.956 281.434C469.34 279.503 449.129 278.619 443.11 282.028z"/>
<path style="fill:#fd596c; stroke:none;" d="M477 281L478 282L477 281M514 281L515 282L514 281z"/>
<path style="fill:#fcf9fa; stroke:none;" d="M515 281L516 282L515 281z"/>
<path style="fill:#fd596c; stroke:none;" d="M516 281L517 282L516 281M441 282L442 283L441 282M512 282L514 284L512 282z"/>
<path style="fill:#fcf9fa; stroke:none;" d="M513 282L514 283L513 282z"/>
<path style="fill:#9bbbbd; stroke:none;" d="M514 282L515 283L514 282z"/>
<path style="fill:#fd596c; stroke:none;" d="M510 283L512 285L510 283z"/>
<path style="fill:#9bbbbd; stroke:none;" d="M511 283L512 284L511 283z"/>
<path style="fill:#fcf9fa; stroke:none;" d="M512 283L513 284L512 283z"/>
<path style="fill:#fd596c; stroke:none;" d="M480 284L481 285L480 284M507 284L509 286L507 284z"/>
<path style="fill:#9bbbbd; stroke:none;" d="M508 284L509 285L508 284z"/>
<path style="fill:#fcf9fa; stroke:none;" d="M509 284L510 285L509 284z"/>
<path style="fill:#9bbbbd; stroke:none;" d="M510 284L511 285L510 284z"/>
<path style="fill:#fd596c; stroke:none;" d="M503 285L503 286L506 287L503 285z"/>
<path style="fill:#9bbbbd; stroke:none;" d="M505 285L506 286L505 285z"/>
<path style="fill:#fcf9fa; stroke:none;" d="M506 285L507 286L506 285z"/>
<path style="fill:#9bbbbd; stroke:none;" d="M507 285L508 286L507 285z"/>
<path style="fill:#fcf9fa; stroke:none;" d="M0 286L0 287L439 287C428.734 282.692 411.158 286 400 286L311 286L0 286M481 286L481 287L497 287L481 286z"/>
<path style="fill:#9bbbbd; stroke:none;" d="M497.667 286.333L498.333 286.667L497.667 286.333z"/>
<path style="fill:#fcf9fa; stroke:none;" d="M499.667 286.333L500.333 286.667L499.667 286.333z"/>
<path style="fill:#9bbbbd; stroke:none;" d="M501 286L501 287L505 287L501 286z"/>
<path style="fill:#fd596c; stroke:none;" d="M0 287L0 288L65 288L44 287L0 287M76 287L76 288L81 288L76 287M97 287L97 288L119 288L97 287M443 292L444 293L443 292z"/>
</svg>
