<?xml version="1.0" standalone="yes"?>
<svg xmlns="http://www.w3.org/2000/svg" width="550" height="309">
<path style="fill:#f8f9fb; stroke:none;" d="M0 0L0 97L84 97L96.8302 96.6829L104.988 92.635L109.94 97.0185L105.01 102.964L96.9105 99.314L84 99L0 99L0 286L368 286C390.056 286 413.022 287.864 434.985 285.941C439.029 285.587 441.267 282.457 445.015 281.433C450.19 280.018 456.668 281 462 281C466.334 281 471.85 280.116 475.985 281.599C478.961 282.666 480.87 285.321 484.09 285.852C496.677 287.926 508.116 284.969 519 279C507.703 288.597 494.926 287 481 287C476.458 296.424 460.9 293.015 452 293C444.591 292.988 441.331 287.644 434.957 287.059C412.385 284.987 388.676 287 366 287L0 287L0 309L550 309L550 0L0 0z"/>
<path style="fill:#aec4e9; stroke:none;" d="M218 35L219 36L218 35z"/>
<path style="fill:#6485d2; stroke:none;" d="M219 35L219 36L222 36L219 35z"/>
<path style="fill:#2851c1; stroke:none;" d="M222 35L222 36L336 36L301 35L222 35z"/>
<path style="fill:#6485d2; stroke:none;" d="M336 35L336 36L339 36L336 35z"/>
<path style="fill:#aec4e9; stroke:none;" d="M339 35L340 36L339 35M215 36L216 37L215 36z"/>
<path style="fill:#6485d2; stroke:none;" d="M216 36L217 37L216 36z"/>
<path style="fill:#19357a; stroke:none;" d="M217 36.6528C203.576 40.8633 206 56.069 206 67L206 156L206 227C206 235.633 203.409 249.372 208.009 256.996C214.624 267.959 229.125 265 240 265L309 265C318.702 265 331.708 267.262 341 264.347C354.294 260.178 352 244.839 352 234L352 145L352 74C352 65.3681 354.592 51.6269 349.991 44.0038C343.436 33.1431 328.762 36 318 36L249 36C239.298 36 226.292 33.7383 217 36.6528z"/>
<path style="fill:#2851c1; stroke:none;" d="M340 36L341 37L340 36z"/>
<path style="fill:#6485d2; stroke:none;" d="M341 36L342 37L341 36z"/>
<path style="fill:#aec4e9; stroke:none;" d="M342 36L343 37L342 36M213 37L214 38L213 37z"/>
<path style="fill:#6485d2; stroke:none;" d="M214 37L215 38L214 37M343 37L344 38L343 37M212 38L213 39L212 38M345 38L346 39L345 38M211 39L212 40L211 39M346 39L347 40L346 39z"/>
<path style="fill:#2851c1; stroke:none;" d="M210 40L211 41L210 40z"/>
<path style="fill:#6485d2; stroke:none;" d="M347 40L348 41L347 40M209 41L210 42L209 41M348 41L349 42L348 41M208 42L209 43L208 42M349 42L350 43L349 42z"/>
<path style="fill:#aec4e9; stroke:none;" d="M207 43L208 44L207 43M350 43L351 44L350 43z"/>
<path style="fill:#6485d2; stroke:none;" d="M207 44L208 45L207 44M350 44L351 45L350 44z"/>
<path style="fill:#aec4e9; stroke:none;" d="M206 45L207 46L206 45M351 45L352 46L351 45z"/>
<path style="fill:#6485d2; stroke:none;" d="M206 46L207 47L206 46M351 46L352 47L351 46z"/>
<path style="fill:#aec4e9; stroke:none;" d="M352 47L352 50L353 50L352 47M205 48L206 49L205 48z"/>
<path style="fill:#6485d2; stroke:none;" d="M205.333 49.6667L205.667 50.3333L205.333 49.6667M352.333 50.6667L352.667 51.3333L352.333 50.6667z"/>
<path style="fill:#2851c1; stroke:none;" d="M205 51L205 250L206 250L206 110L206 70L205 51M352 52L352 249L353 249L353 111L353 71L352 52M220.148 56.0278C214.79 59.2005 217 70.7294 217 76L217 136L217 202C217 208.245 214.536 221.274 218.179 226.566C221.919 232 240.036 229 246 229L312 229C318.809 229 331.887 231.504 337.852 227.972C343.21 224.8 341 213.271 341 208L341 148L341 84C341 77.0496 343.443 64.2659 339.821 58.1481C336.129 51.913 318.349 55 312 55L246 55C239.191 55 226.113 52.4959 220.148 56.0278z"/>
<path style="fill:#6485d2; stroke:none;" d="M229 65C229.01 78.2916 239.348 75 250 75L304 75C310.135 75 321.127 77.1299 326.682 74.3966C329.839 72.8432 328.998 67.8859 329 65L328 65L328 74L230 74L229 65z"/>
<path style="fill:#aec4e9; stroke:none;" d="M230 65L230 74L328 74L328 65L230 65z"/>
<path style="fill:#6485d2; stroke:none;" d="M102 92L103 93L102 92z"/>
<path style="fill:#19357a; stroke:none;" d="M103.147 93.1366C97.7273 95.6503 100.799 104.735 106.772 102.238C112.321 99.9192 108.69 90.5659 103.147 93.1366z"/>
<path style="fill:#2851c1; stroke:none;" d="M106 92L107 93L106 92z"/>
<path style="fill:#aec4e9; stroke:none;" d="M107 92L108 93L107 92z"/>
<path style="fill:#2851c1; stroke:none;" d="M101 93L102 94L101 93z"/>
<path style="fill:#6485d2; stroke:none;" d="M108 93L109 94L108 93M100 94L101 95L100 94M109 94L110 95L109 94z"/>
<path style="fill:#aec4e9; stroke:none;" d="M99 95L100 96L99 95z"/>
<path style="fill:#6485d2; stroke:none;" d="M99 96L100 97L99 96z"/>
<path style="fill:#aec4e9; stroke:none;" d="M110 96L110 100L111 100L110 96M0 97L0 99L65 99L100 100C95.7617 94.1232 80.7119 97 74 97L0 97z"/>
<path style="fill:#2851c1; stroke:none;" d="M99 97L100 98L99 97z"/>
<path style="fill:#6485d2; stroke:none;" d="M99 98L100 99L99 98M109 100L110 101L109 100M230 102L233 101L230 102z"/>
<path style="fill:#aec4e9; stroke:none;" d="M233.148 100.743C225.668 104.08 230.734 118.356 239.852 114.397C247.312 111.157 242.303 96.6586 233.148 100.743z"/>
<path style="fill:#6485d2; stroke:none;" d="M240.667 100.333L241.333 100.667L240.667 100.333M259 100L260 101L259 100z"/>
<path style="fill:#aec4e9; stroke:none;" d="M260.318 100.742C252.806 104.568 259.387 118.535 268.852 114.258C277.314 110.434 269.723 95.952 260.318 100.742z"/>
<path style="fill:#6485d2; stroke:none;" d="M269 100L270 101L269 100M288 100L289 101L288 100z"/>
<path style="fill:#aec4e9; stroke:none;" d="M289.148 100.742C280.62 104.583 288.182 119.096 297.682 114.258C305.11 110.475 298.142 96.6916 289.148 100.742z"/>
<path style="fill:#6485d2; stroke:none;" d="M297.667 100.333L298.333 100.667L297.667 100.333M315 102L318 101L315 102z"/>
<path style="fill:#aec4e9; stroke:none;" d="M318.148 100.743C310.668 104.08 315.734 118.356 324.852 114.397C332.312 111.157 327.303 96.6586 318.148 100.743z"/>
<path style="fill:#6485d2; stroke:none;" d="M325.667 100.333L326.333 100.667L325.667 100.333z"/>
<path style="fill:#aec4e9; stroke:none;" d="M100 101L101 102L100 101z"/>
<path style="fill:#6485d2; stroke:none;" d="M242 101L243 102L242 101M299 101L300 102L299 101M327 101L328 102L327 101z"/>
<path style="fill:#aec4e9; stroke:none;" d="M101 102L102 103L101 102z"/>
<path style="fill:#2851c1; stroke:none;" d="M107 102L108 103L107 102z"/>
<path style="fill:#6485d2; stroke:none;" d="M257 102L257 113L258 113L257 102M271 102L272 103L271 102M300 102L300 113L301 113L300 102z"/>
<path style="fill:#aec4e9; stroke:none;" d="M103 103L103 104L107 104L103 103z"/>
<path style="fill:#6485d2; stroke:none;" d="M229 103L229 113L230 113L229 103M243 103L243 112L244 112L243 103M314 103L314 112L315 112L314 103M328 103L328 112L329 112L328 103M230 113L231 114L230 113M242 113L243 114L242 113M286 113L287 114L286 113M315 113L316 114L315 113M327 113L328 114L327 113M231 114L232 115L231 114M241 114L242 115L241 114M259 114L260 115L259 114M269 114L270 115L269 114M287.667 114.333L288.333 114.667L287.667 114.333M298 114L299 115L298 114M316 114L317 115L316 114M326 114L327 115L326 114M231 129L232 130L231 129z"/>
<path style="fill:#aec4e9; stroke:none;" d="M232.318 129.742C224.952 133.493 231.788 146.772 240.682 142.397C247.877 138.857 240.948 125.348 232.318 129.742z"/>
<path style="fill:#6485d2; stroke:none;" d="M241 129L242 130L241 129z"/>
<path style="fill:#aec4e9; stroke:none;" d="M259.603 130.028C252.302 135.811 262.526 148.228 270.258 141.972C277.49 136.121 267.074 124.111 259.603 130.028z"/>
<path style="fill:#6485d2; stroke:none;" d="M270 129L271 130L270 129M287 129L286 131L287 129z"/>
<path style="fill:#aec4e9; stroke:none;" d="M288.318 130.028C280.212 135.437 290.401 148.305 298.397 141.972C305.467 136.372 296.414 124.625 288.318 130.028z"/>
<path style="fill:#6485d2; stroke:none;" d="M316 129L317 130L316 129z"/>
<path style="fill:#aec4e9; stroke:none;" d="M317.318 129.742C309.951 133.494 316.788 146.772 325.682 142.397C332.974 138.809 326.305 125.165 317.318 129.742z"/>
<path style="fill:#6485d2; stroke:none;" d="M326 129L327 130L326 129M242 130L243 131L242 130M271 130L272 131L271 130M229 131L229 141L230 141L229 131M257 131L257 142L258 142L257 131M300 131L300 142L301 142L300 131M314 131L314 141L315 141L314 131M328 131L328 141L329 141L328 131M243 132L243 141L244 141L243 132M271 141L272 142L271 141M286 141L287 142L286 141M230 142L231 143L230 142M242 142L243 143L242 142M258 142L259 143L258 142M299 142L300 143L299 142M315 142L316 143L315 142M327 142L328 143L327 142M232 143L232 144L241 144L232 143M259 143L259 144L270 144L259 143M288 143L288 144L298 144L288 143M317 143L317 144L326 144L317 143M232 157L232 158L241 158L232 157M260 157L260 158L272 160L260 157M288 157L288 158L298 158L288 157M317 157L317 158L326 158L317 157M230 158L231 159L230 158z"/>
<path style="fill:#aec4e9; stroke:none;" d="M231.603 159.028C225.184 164.112 232.651 176.33 240.682 170.972C248.249 165.924 239.557 152.728 231.603 159.028z"/>
<path style="fill:#6485d2; stroke:none;" d="M258 158L257 170L258 170L258 158z"/>
<path style="fill:#aec4e9; stroke:none;" d="M259.603 159.028C252.533 164.628 261.586 176.375 269.682 170.972C277.674 165.639 267.3 152.932 259.603 159.028M287.742 159.028C280.51 164.879 290.926 176.889 298.397 170.972C305.698 165.189 295.474 152.772 287.742 159.028z"/>
<path style="fill:#6485d2; stroke:none;" d="M299 158L300 159L299 158M315 158L316 159L315 158z"/>
<path style="fill:#aec4e9; stroke:none;" d="M316.603 159.028C309.839 164.385 318.644 177.112 326.397 170.972C333.161 165.615 324.356 152.888 316.603 159.028z"/>
<path style="fill:#6485d2; stroke:none;" d="M327 158L328 159L327 158M286 159L287 160L286 159M229 160L229 170L230 170L229 160M243 160L243 169L244 169L243 160M300 160L300 170L301 170L300 160M314 160L314 170L315 170L314 160M328 160L328 170L329 170L328 160M242 170L243 171L242 170M271 170L272 171L271 170M286 170L287 171L286 170M241 171L242 172L241 171M258 171L259 172L258 171M270 171L271 172L270 171M287 171L288 172L287 171M233 172L233 173L240 173L233 172M261 172L261 173L268 173L261 172M290 172L290 173L297 173L290 172M318 172L318 173L325 173L318 172M231 186L230 188L231 186z"/>
<path style="fill:#aec4e9; stroke:none;" d="M232.318 187.028C225.4 191.629 232.252 205.593 240.682 199.972C247.61 195.353 240.621 181.505 232.318 187.028z"/>
<path style="fill:#6485d2; stroke:none;" d="M240.667 186.333L241.333 186.667L240.667 186.333M259 186L260 187L259 186z"/>
<path style="fill:#aec4e9; stroke:none;" d="M260.318 186.742C252.913 190.514 259.312 204.672 268.772 200.258C277.284 196.285 269.698 181.965 260.318 186.742z"/>
<path style="fill:#6485d2; stroke:none;" d="M269 186L270 187L269 186M288 186L289 187L288 186z"/>
<path style="fill:#aec4e9; stroke:none;" d="M289.148 186.742C280.619 190.596 288.187 205.094 297.682 200.258C305.095 196.482 298.263 182.624 289.148 186.742z"/>
<path style="fill:#6485d2; stroke:none;" d="M298 186L299 187L298 186M316 186L315 188L316 186z"/>
<path style="fill:#aec4e9; stroke:none;" d="M317.318 187.028C310.403 191.638 317.254 205.591 325.682 199.972C332.597 195.362 325.746 181.409 317.318 187.028z"/>
<path style="fill:#6485d2; stroke:none;" d="M326 186L327 187L326 186M242 187L243 188L242 187M299 187L300 188L299 187M327 187L328 188L327 187M257 188L257 199L258 199L257 188M271 188L272 189L271 188M300 188L300 199L301 199L300 188M229 189L229 199L230 199L229 189M243 189L243 198L244 198L243 189M314 189L314 198L315 198L314 189M328 189L328 198L329 198L328 189M271 198L272 199L271 198M230 199L231 200L230 199M242 199L243 200L242 199M286 199L287 200L286 199M315 199L316 200L315 199M327 199L328 200L327 199M231 200L232 201L231 200M241 200L242 201L241 200M259 200L260 201L259 200M269 200L270 201L269 200M288 200L289 201L288 200M298 200L299 201L298 200M316 200L317 201L316 200M326 200L327 201L326 200z"/>
<path style="fill:#2851c1; stroke:none;" d="M245 238L246 239L245 238z"/>
<path style="fill:#6485d2; stroke:none;" d="M246.667 238.333L247.333 238.667L246.667 238.333z"/>
<path style="fill:#2851c1; stroke:none;" d="M248 238L249 239L248 238M277 238L278 239L277 238z"/>
<path style="fill:#6485d2; stroke:none;" d="M278.667 238.333L279.333 238.667L278.667 238.333z"/>
<path style="fill:#2851c1; stroke:none;" d="M280 238L281 239L280 238M309 238L310 239L309 238z"/>
<path style="fill:#6485d2; stroke:none;" d="M310.667 238.333L311.333 238.667L310.667 238.333z"/>
<path style="fill:#2851c1; stroke:none;" d="M312 238L314 240L312 238z"/>
<path style="fill:#6485d2; stroke:none;" d="M244 239L245 240L244 239z"/>
<path style="fill:#aec4e9; stroke:none;" d="M245.603 240.082C243.132 241.872 245.918 245.713 248.397 243.918C250.868 242.128 248.082 238.287 245.603 240.082z"/>
<path style="fill:#6485d2; stroke:none;" d="M249 239L250 240L249 239M276 239L277 240L276 239z"/>
<path style="fill:#aec4e9; stroke:none;" d="M277.603 240.082C275.132 241.872 277.918 245.713 280.397 243.918C282.868 242.128 280.082 238.287 277.603 240.082z"/>
<path style="fill:#6485d2; stroke:none;" d="M281 239L282 240L281 239M308 239L309 240L308 239z"/>
<path style="fill:#aec4e9; stroke:none;" d="M309.603 240.082C307.132 241.872 309.918 245.713 312.397 243.918C314.868 242.128 312.082 238.287 309.603 240.082z"/>
<path style="fill:#2851c1; stroke:none;" d="M250 240L251 241L250 240M275 240L276 241L275 240M307 240L308 241L307 240M243.333 241.667L243.667 242.333L243.333 241.667z"/>
<path style="fill:#6485d2; stroke:none;" d="M250.333 241.667L250.667 242.333L250.333 241.667M275.333 241.667L275.667 242.333L275.333 241.667z"/>
<path style="fill:#2851c1; stroke:none;" d="M282.333 241.667L282.667 242.333L282.333 241.667z"/>
<path style="fill:#6485d2; stroke:none;" d="M307.333 241.667L307.667 242.333L307.333 241.667z"/>
<path style="fill:#2851c1; stroke:none;" d="M314.333 241.667L314.667 242.333L314.333 241.667M307 243L308 244L307 243z"/>
<path style="fill:#6485d2; stroke:none;" d="M528 243L529 244L528 243z"/>
<path style="fill:#19357a; stroke:none;" d="M529.225 243.851C524.008 245.605 526.085 255.187 531.946 253.338C537.98 251.434 535.106 241.873 529.225 243.851z"/>
<path style="fill:#6485d2; stroke:none;" d="M532 243L533 244L532 243z"/>
<path style="fill:#aec4e9; stroke:none;" d="M533 243L534 244L533 243z"/>
<path style="fill:#2851c1; stroke:none;" d="M244 244L245 245L244 244M249 244L250 245L249 244M276 244L277 245L276 244M281 244L282 245L281 244M308 244L309 245L308 244M313 244L314 245L313 244z"/>
<path style="fill:#aec4e9; stroke:none;" d="M526 244L527 245L526 244M534 244L535 245L534 244z"/>
<path style="fill:#2851c1; stroke:none;" d="M246.667 245.333L247.333 245.667L246.667 245.333M278.667 245.333L279.333 245.667L278.667 245.333M310.667 245.333L311.333 245.667L310.667 245.333M526 245L527 246L526 245z"/>
<path style="fill:#aec4e9; stroke:none;" d="M535 245L536 246L535 245M525 246L526 247L525 246z"/>
<path style="fill:#2851c1; stroke:none;" d="M535 246L536 247L535 246z"/>
<path style="fill:#6485d2; stroke:none;" d="M525 247L526 248L525 247z"/>
<path style="fill:#aec4e9; stroke:none;" d="M536 247L536 250L537 250L536 247z"/>
<path style="fill:#2851c1; stroke:none;" d="M525.333 248.667L525.667 249.333L525.333 248.667z"/>
<path style="fill:#6485d2; stroke:none;" d="M352 249L352 252L353 252L352 249M205.333 250.667L205.667 251.333L205.333 250.667M525 250L526 251L525 250z"/>
<path style="fill:#aec4e9; stroke:none;" d="M525 251L526 252L525 251z"/>
<path style="fill:#6485d2; stroke:none;" d="M535 251L536 252L535 251z"/>
<path style="fill:#aec4e9; stroke:none;" d="M205 252L206 253L205 252M352 252L353 253L352 252z"/>
<path style="fill:#6485d2; stroke:none;" d="M526 252L527 253L526 252z"/>
<path style="fill:#2851c1; stroke:none;" d="M534 252L535 253L534 252M351 253L352 254L351 253z"/>
<path style="fill:#6485d2; stroke:none;" d="M527 253L528 254L527 253M533 253L534 254L533 253M206 254L207 255L206 254M351 254L352 255L351 254z"/>
<path style="fill:#aec4e9; stroke:none;" d="M529 254C530.471 261.563 526.513 267.595 523 274C529.008 270.702 533.478 259.918 529 254z"/>
<path style="fill:#6485d2; stroke:none;" d="M530.667 254.333L531.333 254.667L530.667 254.333z"/>
<path style="fill:#aec4e9; stroke:none;" d="M532 254L533 255L532 254M206 255L207 256L206 255M351 255L352 256L351 255z"/>
<path style="fill:#6485d2; stroke:none;" d="M207 256L208 257L207 256M350 256L351 257L350 256z"/>
<path style="fill:#aec4e9; stroke:none;" d="M207 257L208 258L207 257M350 257L351 258L350 257z"/>
<path style="fill:#6485d2; stroke:none;" d="M208 258L209 259L208 258M349 258L350 259L349 258M209 259L210 260L209 259M348 259L349 260L348 259z"/>
<path style="fill:#2851c1; stroke:none;" d="M210 260L211 261L210 260M347 260L348 261L347 260z"/>
<path style="fill:#6485d2; stroke:none;" d="M211 261L212 262L211 261M346 261L347 262L346 261M212 262L213 263L212 262M345 262L346 263L345 262z"/>
<path style="fill:#aec4e9; stroke:none;" d="M213 263L214 264L213 263z"/>
<path style="fill:#6485d2; stroke:none;" d="M214 263L215 264L214 263M343 263L344 264L343 263z"/>
<path style="fill:#aec4e9; stroke:none;" d="M344 263L345 264L344 263M215 264L216 265L215 264z"/>
<path style="fill:#6485d2; stroke:none;" d="M216 264L217 265L216 264M341 264L342 265L341 264z"/>
<path style="fill:#aec4e9; stroke:none;" d="M342 264L343 265L342 264M218 265L219 266L218 265z"/>
<path style="fill:#6485d2; stroke:none;" d="M219.667 265.333L220.333 265.667L219.667 265.333z"/>
<path style="fill:#2851c1; stroke:none;" d="M221 265L221 266L337 266L302 265L221 265z"/>
<path style="fill:#6485d2; stroke:none;" d="M337.667 265.333L338.333 265.667L337.667 265.333z"/>
<path style="fill:#aec4e9; stroke:none;" d="M339 265L340 266L339 265z"/>
<path style="fill:#6485d2; stroke:none;" d="M523 274L522 276L523 274z"/>
<path style="fill:#aec4e9; stroke:none;" d="M523 275L524 276L523 275M520 279L523 276L520 279z"/>
<path style="fill:#6485d2; stroke:none;" d="M519 278L520 279L519 278z"/>
<path style="fill:#aec4e9; stroke:none;" d="M517 279C506.04 287.197 493.987 286 481 286L481 287C489.952 287 500.415 288.501 509 285.637C512.267 284.548 517.094 282.869 517 279z"/>
<path style="fill:#6485d2; stroke:none;" d="M518 279L519 280L518 279M443 281L444 282L443 281z"/>
<path style="fill:#2851c1; stroke:none;" d="M444.667 281.333L445.333 281.667L444.667 281.333z"/>
<path style="fill:#19357a; stroke:none;" d="M446.015 281.483C441.561 282.487 437.394 288.761 443.228 291.397C449.21 294.099 470.833 293.972 476.866 291.397C482.451 289.012 479.545 282.925 474.985 281.573C467.506 279.354 453.607 279.771 446.015 281.483z"/>
<path style="fill:#2851c1; stroke:none;" d="M475 281L476 282L475 281z"/>
<path style="fill:#6485d2; stroke:none;" d="M476 281L477 282L476 281z"/>
<path style="fill:#aec4e9; stroke:none;" d="M477 281L478 282L477 281M441 282L442 283L441 282z"/>
<path style="fill:#6485d2; stroke:none;" d="M478 282L479 283L478 282z"/>
<path style="fill:#aec4e9; stroke:none;" d="M440 283L441 284L440 283z"/>
<path style="fill:#6485d2; stroke:none;" d="M479 283L480 284L479 283z"/>
<path style="fill:#2851c1; stroke:none;" d="M440 284L441 285L440 284z"/>
<path style="fill:#aec4e9; stroke:none;" d="M480 284L481 285L480 284M439 285L395 286L303 286L0 286L0 287L323 287L407 287C415.412 287 432.188 283.839 439 289L440 289L439 285z"/>
<path style="fill:#6485d2; stroke:none;" d="M480 285L481 286L480 285M439 286L440 287L439 286z"/>
<path style="fill:#2851c1; stroke:none;" d="M480 287L481 288L480 287z"/>
<path style="fill:#6485d2; stroke:none;" d="M480 288L481 289L480 288z"/>
<path style="fill:#2851c1; stroke:none;" d="M440 289L441 290L440 289z"/>
<path style="fill:#aec4e9; stroke:none;" d="M480 289L481 290L480 289M440 290L441 291L440 290z"/>
<path style="fill:#6485d2; stroke:none;" d="M479 290L480 291L479 290z"/>
<path style="fill:#aec4e9; stroke:none;" d="M441 291L442 292L441 291z"/>
<path style="fill:#6485d2; stroke:none;" d="M478 291L479 292L478 291z"/>
<path style="fill:#aec4e9; stroke:none;" d="M443 292L444 293L443 292z"/>
<path style="fill:#6485d2; stroke:none;" d="M444 292L444 293L477 293L444 292z"/>
<path style="fill:#aec4e9; stroke:none;" d="M477 292L478 293L477 292z"/>
</svg>
