<?xml version="1.0" standalone="yes"?>
<svg xmlns="http://www.w3.org/2000/svg" width="550" height="309">
<path style="fill:#a9d1c8; stroke:none;" d="M0 0L0 61L84 61L96.9105 60.6829L104.995 56.7508L109.534 61.9961L104.995 66.365L96.9105 62.3171L84 62L0 62C0 73.9091 -3.89441 93.8898 0.603395 104.895C2.09389 108.542 6.79926 110.323 10 112.15L35 126.281C38.0195 127.997 42.301 131.565 46 131.006C50.1137 130.384 53.6952 125.328 57 123C54.4631 125.539 48.3086 129.84 49.3457 134C50.8489 140.03 60.7148 146.715 65 151L104 190C108.332 194.332 114.878 203.977 121 205.503C126.343 206.835 133.694 196.307 137 193C140.969 189.031 145.762 185.1 148.312 180C156.643 163.337 133.932 147.932 124 138C144.978 152.777 164.905 172.563 149 197C157.032 191.348 162.287 184.479 173 187L166 195L175 185L209 176L209 141C197.134 141 186.803 138.881 177 131.711C169.16 125.976 162.708 118.13 159.232 109C156.145 100.891 154.944 91.5972 156.464 83C161.203 56.1896 187.079 37.4209 214 41.3001C237.004 44.6149 261.638 70.4647 256 95C266.713 91.6027 277.092 91.3128 288 94C288.025 84.7512 289.774 75.0996 294.465 67C298.321 60.34 303.789 54.4585 310 49.9275C359.747 13.6376 418.59 89.2789 370.961 129.192C360.354 138.081 350.378 138.34 338 142C340.959 153.436 340.225 164.524 338 176C377.053 176.132 403.106 221.108 380.264 254C375.058 261.497 368.207 267.604 360 271.667C357.049 273.127 350.521 273.702 350 277L341 276L341 277L345 277L345 278L332 278L332 277L336 277L336 276L326 277L326 276L328 276L328 275L323 276L324 274L323 274L321 275L320 275C319.441 270.757 313.811 269.623 310 270L308 268L297 257L293 251L292 249L293 247L291 247C291.59 243.969 291.519 239.523 288 239L287 232L289 223L256 224L256 225C259.359 225 258 230.203 258 233L257 233L257 227L256 227L255 237L256 242L255 242L255 240L254 240L254 247L251 249C260.606 249.924 272.627 259.779 281 264.579C298.258 274.473 315.722 283.993 333 293.85C341.292 298.58 350.77 306.002 360 308.502C375.258 312.634 396.178 309 412 309L524 309C524 300.347 525.258 290.625 523.852 282.09C523.272 278.568 520.164 276.427 519.317 272.996C517.602 266.044 518.963 257.148 519.001 250C519.033 243.896 522.314 241.307 523.686 235.91C526.471 224.954 523.135 212.949 519 203L520 203C524.745 214.414 523.266 223.234 525.148 234.961C525.719 238.514 528.826 240.588 529.683 244.015C530.834 248.622 530 254.273 530 259C530 265.901 532.162 275.388 525 279L525 309L550 309L550 0L0 0z"/>
<path style="fill:#f5f9ef; stroke:none;" d="M288 94C312.657 99.1545 330.408 118.708 338 142C349.914 139.163 359.786 138.756 369.985 130.764C375.423 126.503 380.006 121.122 383.215 115C407.552 68.5708 350.338 18.0568 308 50.6805C302.28 55.0879 297.344 60.6348 293.901 67C289.437 75.2538 288.006 84.7451 288 94M210 141C213.437 126.148 223.639 112.921 236 104.209C240.501 101.037 255.315 97.0729 256.667 91.8665C262.438 69.6583 236.83 46.4055 218 41.8989C178.65 32.4812 145.599 71.6906 158.866 109C162.247 118.508 168.762 126.671 177 132.43C187.283 139.618 197.829 141 210 141M0 61C9.31246 64.9077 24.8904 62 35 62C54.2598 62 75.9783 59.1576 94.9853 62.1481C98.5571 62.7101 100.582 66.0468 104.035 66.6242C108.259 67.3306 111.014 63.0085 109.392 59.2284C108.499 57.1469 106.23 56.1167 104.035 56.4259C101.202 56.825 99.4946 59.4305 96.9105 60.4012C93.1156 61.8268 87.9916 61 84 61L0 61z"/>
<path style="fill:#7fc4bb; stroke:none;" d="M2 60L3 61L2 60z"/>
<path style="fill:#a9d1c8; stroke:none;" d="M340.667 66.3333L341.333 66.6667L340.667 66.3333M236 67L236 68L241 68L236 67M334.667 67.3333L335.333 67.6667L334.667 67.3333z"/>
<path style="fill:#7fc4bb; stroke:none;" d="M364 87L358 88C357.686 91.5685 356.945 94.9091 355.005 97.9961C339.649 122.439 308.129 85.7445 336 74.4838C339.738 72.9734 343.135 73.5222 347 74L349 68C343.871 67.3518 339.075 66.4756 334 68.0548C330.221 69.2305 326.884 71.2727 324.105 74.0941C300.4 98.1633 345.384 131.385 361.326 101C363.662 96.5481 363.986 91.9159 364 87z"/>
<path style="fill:#a9d1c8; stroke:none;" d="M345 67L345 68L348 68L345 67z"/>
<path style="fill:#7fc4bb; stroke:none;" d="M235.434 69.0285C232.899 70.7452 232.97 74.5686 231.4 77C228.521 81.4608 216.067 97.4837 210.289 96.7886C200.917 95.6609 203.091 77.0844 194.015 78.4267C189.249 79.1315 189.094 84.811 186.683 88C181.783 94.4795 174.38 96.2613 169.444 101.437C166.805 104.204 167.436 108.897 171.133 110.392C179.57 113.804 183.877 92.7188 192.996 90.7516C204.266 88.3204 201.882 110.864 211.942 108.522C216.288 107.511 216.179 102.094 218.434 99C222.809 92.9971 229.469 86.0831 235.17 81.3171C237.765 79.1472 242.119 79.0524 243.777 75.8519C246.37 70.8453 239.805 66.0684 235.434 69.0285z"/>
<path style="fill:#a9d1c8; stroke:none;" d="M242 68L243 69L242 68M331.667 68.3333L332.333 68.6667L331.667 68.3333M243 69L244 70L243 69M329 69L330 70L329 69M349 69L350 70L349 69M233 70L234 71L233 70M328 70L329 71L328 70M348.333 70.6667L348.667 71.3333L348.333 70.6667M244 71L245 72L244 71M326 71L327 72L326 71M353 71L354 72L353 71z"/>
<path style="fill:#7fc4bb; stroke:none;" d="M354 71C350.407 77.8067 354.508 83.1574 362 82L354 71z"/>
<path style="fill:#a9d1c8; stroke:none;" d="M232 72L232 75L233 75L232 72M325 72L326 73L325 72M347 72L348 73L347 72M356 72L357 73L356 72M324 73L325 74L324 73M338 73L338 74L344 74L338 73M352 73L353 74L352 73M357 73L358 74L357 73M323 74L324 75L323 74M335 74L336 75L335 74M358 74L359 75L358 74M244 75L245 76L244 75M322 75L323 76L322 75M333 75L334 76L333 75M351 75L352 76L351 75M232 76L233 77L232 76M331 76L332 77L331 76M194 77L195 78L194 77M231 77L232 78L231 77M243 77L244 78L243 77M330 77L331 78L330 77M351 77L352 78L351 77M360 77L361 78L360 77M191 78L192 79L191 78M197 78L198 79L197 78M230 78L231 79L230 78M242 78L243 79L242 78M320 78L321 79L320 78M352 78L353 79L352 78M361.333 78.6667L361.667 79.3333L361.333 78.6667M190 79L191 80L190 79M229 79L230 80L229 79M236 79L236 80L241 80L236 79M328 79L329 80L328 79M353 79L354 80L353 79M189 80L190 81L189 80M228 80L229 81L228 80M235 80L236 81L235 80M319 80L320 81L319 80M327 80L328 81L327 80M354 80L355 81L354 80M362.333 80.6667L362.667 81.3333L362.333 80.6667M200.333 81.6667L200.667 82.3333L200.333 81.6667M227 81L228 82L227 81M234 81L235 82L234 81M188 82L188 87L189 87L188 82M226 82L227 83L226 82M233 82L234 83L233 82M318.333 82.6667L318.667 83.3333L318.333 82.6667M326 82L327 83L326 82M359.667 82.3333L360.333 82.6667L359.667 82.3333M356.667 83.3333L357.333 83.6667L356.667 83.3333M325 84L326 85L325 84M200.333 85.6667L200.667 86.3333L200.333 85.6667M317 86L317 94L318 94L317 86M362 86L363 87L362 86M187 87L188 88L187 87M324 87L324 93L325 93L324 87M359.667 87.3333L360.333 87.6667L359.667 87.3333M186 88L187 89L186 88M201 88L202 89L201 88M364 88L364 93L365 93L364 88M185 89L186 90L185 89M202 89L203 90L202 89M227 89L228 90L227 89M357 89L357 93L358 93L357 89M184 90L185 91L184 90M191 90L192 91L191 90M194 90L195 91L194 90M196 90L197 91L196 90M203 90L204 91L203 90M219 90L220 91L219 90M226 90L227 91L226 90M183 91L184 92L183 91M190 91L191 92L190 91M197 91L198 92L197 91M218 91L219 92L218 91M225 91L226 92L225 91M182 92L183 93L182 92M189 92L190 93L189 92M198 92L199 93L198 92M217 92L218 93L217 92M224 92L225 93L224 92z"/>
<path style="fill:#7fc4bb; stroke:none;" d="M266 92L266 93L270 93L266 92z"/>
<path style="fill:#545e69; stroke:none;" d="M270 92L270 93L277 93L270 92z"/>
<path style="fill:#7fc4bb; stroke:none;" d="M277 92L277 93L281 93L277 92z"/>
<path style="fill:#a9d1c8; stroke:none;" d="M181 93L182 94L181 93M188 93L189 94L188 93M205 93L206 94L205 93M216 93L217 94L216 93M223 93L224 94L223 93z"/>
<path style="fill:#7fc4bb; stroke:none;" d="M260.667 93.3333L261.333 93.6667L260.667 93.3333z"/>
<path style="fill:#545e69; stroke:none;" d="M262.667 93.3333L263.333 93.6667L262.667 93.3333z"/>
<path style="fill:#252f3f; stroke:none;" d="M264 93.439C254.744 94.8847 245.927 98.2514 238 103.229C178.363 140.679 216.071 233.405 284 223.7C292.702 222.457 301.626 219.04 309 214.302C366.953 177.064 333.076 82.6505 264 93.439z"/>
<path style="fill:#545e69; stroke:none;" d="M283 93L283 94L286 94L283 93z"/>
<path style="fill:#7fc4bb; stroke:none;" d="M286 93L287 94L286 93z"/>
<path style="fill:#a9d1c8; stroke:none;" d="M180 94L181 95L180 94M187 94L188 95L187 94M206 94L207 95L206 94M215 94L216 95L215 94M222 94L223 95L222 94z"/>
<path style="fill:#545e69; stroke:none;" d="M257.667 94.3333L258.333 94.6667L257.667 94.3333M288 94L289 95L288 94z"/>
<path style="fill:#7fc4bb; stroke:none;" d="M289 94L290 95L289 94z"/>
<path style="fill:#a9d1c8; stroke:none;" d="M290 94L291 95L290 94M179 95L180 96L179 95M186 95L187 96L186 95M207 95L208 96L207 95M214 95L215 96L214 95M221 95L222 96L221 95M253 95L254 96L253 95z"/>
<path style="fill:#545e69; stroke:none;" d="M254 95L255 96L254 95M292 95L293 96L292 95z"/>
<path style="fill:#7fc4bb; stroke:none;" d="M293 95L294 96L293 95z"/>
<path style="fill:#a9d1c8; stroke:none;" d="M294 95L295 96L294 95M325 95L326 96L325 95M356 95L357 96L356 95M363.333 95.6667L363.667 96.3333L363.333 95.6667M178 96L179 97L178 96M185 96L186 97L185 96M201 96L202 97L201 96M208 96L209 97L208 96M213 96L214 97L213 96M220 96L221 97L220 96M250 96L251 97L250 96z"/>
<path style="fill:#545e69; stroke:none;" d="M251 96L252 97L251 96M295 96L296 97L295 96z"/>
<path style="fill:#7fc4bb; stroke:none;" d="M296 96L297 97L296 96z"/>
<path style="fill:#a9d1c8; stroke:none;" d="M318.333 96.6667L318.667 97.3333L318.333 96.6667M177 97L178 98L177 97M184 97L185 98L184 97M202 97L203 98L202 97M209 97L210 98L209 97M211.667 97.3333L212.333 97.6667L211.667 97.3333M219 97L220 98L219 97M247 97L248 98L247 97z"/>
<path style="fill:#7fc4bb; stroke:none;" d="M248 97L249 98L248 97z"/>
<path style="fill:#545e69; stroke:none;" d="M249 97L250 98L249 97M298 97L299 98L298 97z"/>
<path style="fill:#a9d1c8; stroke:none;" d="M299 97L300 98L299 97M326 97L327 98L326 97M355 97L356 98L355 97M176 98L177 99L176 98M183 98L184 99L183 98M203 98L204 99L203 98M218 98L219 99L218 98M245 98L246 99L245 98z"/>
<path style="fill:#545e69; stroke:none;" d="M246 98L247 99L246 98M300 98L301 99L300 98z"/>
<path style="fill:#a9d1c8; stroke:none;" d="M301 98L302 99L301 98M362.333 98.6667L362.667 99.3333L362.333 98.6667M170.667 99.3333L171.333 99.6667L170.667 99.3333M175 99L176 100L175 99M182 99L183 100L182 99M217 99L218 100L217 99M243 99L244 100L243 99z"/>
<path style="fill:#545e69; stroke:none;" d="M244 99L245 100L244 99M302 99L303 100L302 99z"/>
<path style="fill:#7fc4bb; stroke:none;" d="M303 99L304 100L303 99z"/>
<path style="fill:#a9d1c8; stroke:none;" d="M319 99L320 100L319 99M327 99L328 100L327 99M354 99L355 100L354 99M169 100L170 101L169 100M181 100L182 101L181 100M241 100L242 101L241 100z"/>
<path style="fill:#545e69; stroke:none;" d="M242 100L243 101L242 100M304 100L305 101L304 100z"/>
<path style="fill:#7fc4bb; stroke:none;" d="M305 100L306 101L305 100z"/>
<path style="fill:#a9d1c8; stroke:none;" d="M328 100L329 101L328 100M353 100L354 101L353 100M168 101L169 102L168 101M180 101L181 102L180 101M204 101L204 106L205 106L204 101M216 101L216 106L217 106L216 101z"/>
<path style="fill:#545e69; stroke:none;" d="M240 101L241 102L240 101M306 101L307 102L306 101z"/>
<path style="fill:#a9d1c8; stroke:none;" d="M307 101L308 102L307 101M320 101L321 102L320 101M329 101L330 102L329 101M352 101L353 102L352 101M361 101L362 102L361 101M167.333 102.667L167.667 103.333L167.333 102.667M179 102L179 108L180 108L179 102M238 102L239 103L238 102z"/>
<path style="fill:#545e69; stroke:none;" d="M239 102L240 103L239 102M308 102L309 103L308 102z"/>
<path style="fill:#a9d1c8; stroke:none;" d="M330 102L331 103L330 102M351 102L352 103L351 102M360 102L361 103L360 102M236 103L237 104L236 103z"/>
<path style="fill:#545e69; stroke:none;" d="M237 103L238 104L237 103z"/>
<path style="fill:#a9d1c8; stroke:none;" d="M310 103L311 104L310 103M321 103L322 104L321 103M331 103L332 104L331 103M350 103L351 104L350 103z"/>
<path style="fill:#7fc4bb; stroke:none;" d="M235 104L236 105L235 104z"/>
<path style="fill:#545e69; stroke:none;" d="M311 104L312 105L311 104z"/>
<path style="fill:#a9d1c8; stroke:none;" d="M322 104L323 105L322 104M333 104L334 105L333 104M348 104L349 105L348 104M359 104L360 105L359 104z"/>
<path style="fill:#545e69; stroke:none;" d="M234 105L235 106L234 105M312 105L313 106L312 105z"/>
<path style="fill:#a9d1c8; stroke:none;" d="M313 105L314 106L313 105M335.667 105.333L336.333 105.667L335.667 105.333M345.667 105.333L346.333 105.667L345.667 105.333M358 105L359 106L358 105z"/>
<path style="fill:#7fc4bb; stroke:none;" d="M0 106L0 309L359 309L359 308L252 248C244.289 261.026 233.939 271.061 219 275.254C188.477 283.821 158.083 259.598 155.171 229C153.537 211.822 163.914 199.949 173 187C162.849 184.006 155.8 190.22 149 197C164.073 180.114 153.459 165.459 140 152C135.088 147.088 130.358 140.965 124 138C130.498 147.225 140.818 153.444 146.867 163C155.602 176.801 141.996 187.004 133 196C130.607 198.393 125.433 205.801 121.576 205.218C115.79 204.343 108.016 193.016 104 189L65 150C60.9391 145.939 51.6998 139.684 50.2068 134C49.2063 130.191 55.0013 125.838 57 123L45 130.427L31 123.421L0 106z"/>
<path style="fill:#a9d1c8; stroke:none;" d="M167.333 106.667L167.667 107.333L167.333 106.667M232 106L233 107L232 106z"/>
<path style="fill:#545e69; stroke:none;" d="M233 106L234 107L233 106z"/>
<path style="fill:#7fc4bb; stroke:none;" d="M314 106L315 107L314 106z"/>
<path style="fill:#a9d1c8; stroke:none;" d="M339 106L339 107L343 107L339 106M357 106L358 107L357 106M231 107L232 108L231 107z"/>
<path style="fill:#545e69; stroke:none;" d="M315 107L316 108L315 107z"/>
<path style="fill:#a9d1c8; stroke:none;" d="M325 107L326 108L325 107M356 107L357 108L356 107M207 108L208 109L207 108M213 108L214 109L213 108z"/>
<path style="fill:#7fc4bb; stroke:none;" d="M230 108L231 109L230 108z"/>
<path style="fill:#545e69; stroke:none;" d="M316 108L317 109L316 108z"/>
<path style="fill:#a9d1c8; stroke:none;" d="M326 108L327 109L326 108M355 108L356 109L355 108z"/>
<path style="fill:#7fc4bb; stroke:none;" d="M426 108C415.249 118.751 400.883 128.197 404 145L405 145C405.03 134.114 410.597 127.121 417.439 119C420.312 115.59 424.939 112.377 426 108z"/>
<path style="fill:#a9d1c8; stroke:none;" d="M168 109L169 110L168 109M209 109L209 110L212 110L209 109z"/>
<path style="fill:#545e69; stroke:none;" d="M229 109L230 110L229 109M317 109L318 110L317 109z"/>
<path style="fill:#a9d1c8; stroke:none;" d="M327 109L328 110L327 109z"/>
<path style="fill:#7fc4bb; stroke:none;" d="M96 110C103.009 119.949 114.051 130.991 124 138C116.991 128.051 105.949 117.009 96 110z"/>
<path style="fill:#545e69; stroke:none;" d="M228 110L229 111L228 110M318 110L319 111L318 110z"/>
<path style="fill:#a9d1c8; stroke:none;" d="M329 110L330 111L329 110M352 110L353 111L352 110M171 111L171 112L175 112L171 111z"/>
<path style="fill:#545e69; stroke:none;" d="M227 111L228 112L227 111z"/>
<path style="fill:#a9d1c8; stroke:none;" d="M320 111L321 112L320 111M331 111L332 112L331 111M350 111L351 112L350 111z"/>
<path style="fill:#545e69; stroke:none;" d="M226 112L227 113L226 112z"/>
<path style="fill:#a9d1c8; stroke:none;" d="M321 112L322 113L321 112M333.667 112.333L334.333 112.667L333.667 112.333M347.667 112.333L348.333 112.667L347.667 112.333z"/>
<path style="fill:#545e69; stroke:none;" d="M225 113L226 114L225 113z"/>
<path style="fill:#a9d1c8; stroke:none;" d="M337 113L337 114L345 114L337 113z"/>
<path style="fill:#545e69; stroke:none;" d="M224 114L225 115L224 114M322 114L323 115L322 114z"/>
<path style="fill:#7fc4bb; stroke:none;" d="M223 115L224 116L223 115z"/>
<path style="fill:#545e69; stroke:none;" d="M323 115L324 116L323 115z"/>
<path style="fill:#7fc4bb; stroke:none;" d="M222 116L223 117L222 116z"/>
<path style="fill:#545e69; stroke:none;" d="M324 116L325 117L324 116z"/>
<path style="fill:#a9d1c8; stroke:none;" d="M221 117L222 118L221 117z"/>
<path style="fill:#545e69; stroke:none;" d="M266.667 117.333L267.333 117.667L266.667 117.333z"/>
<path style="fill:#7fc4bb; stroke:none;" d="M268 117L269 118L268 117z"/>
<path style="fill:#545e69; stroke:none;" d="M269 117L269 159L270 159C270 147.043 273.611 127.988 269 117M278 117L278 118L281 118L278 117z"/>
<path style="fill:#7fc4bb; stroke:none;" d="M325 117L326 118L325 117z"/>
<path style="fill:#545e69; stroke:none;" d="M221 118L222 119L221 118M262 118L263 119L262 118z"/>
<path style="fill:#7fc4bb; stroke:none;" d="M263 118L264 119L263 118z"/>
<path style="fill:#a9d1c8; stroke:none;" d="M264 118L265 119L264 118z"/>
<path style="fill:#f5f9ef; stroke:none;" d="M299 192C292.939 179.004 276.548 172.737 270.179 160C265.061 149.764 269 129.383 269 118C219.478 122.045 223.32 195.139 271 199.829C281.154 200.828 290.279 196.588 299 192z"/>
<path style="fill:#7fc4bb; stroke:none;" d="M278 118C278 128.954 274.813 145.719 278.603 156C281.878 164.88 298.557 180.062 307 184C321.185 157.041 313.129 121.399 278 118z"/>
<path style="fill:#a9d1c8; stroke:none;" d="M279 118L280 119L279 118z"/>
<path style="fill:#545e69; stroke:none;" d="M283.667 118.333L284.333 118.667L283.667 118.333z"/>
<path style="fill:#a9d1c8; stroke:none;" d="M326 118L327 119L326 118z"/>
<path style="fill:#545e69; stroke:none;" d="M220 119L221 120L220 119M259 119L260 120L259 119z"/>
<path style="fill:#a9d1c8; stroke:none;" d="M260 119L261 120L260 119z"/>
<path style="fill:#545e69; stroke:none;" d="M286.667 119.333L287.333 119.667L286.667 119.333z"/>
<path style="fill:#7fc4bb; stroke:none;" d="M398 119L397 121L398 119z"/>
<path style="fill:#a9d1c8; stroke:none;" d="M219 120L220 121L219 120z"/>
<path style="fill:#545e69; stroke:none;" d="M256 120L257 121L256 120z"/>
<path style="fill:#7fc4bb; stroke:none;" d="M257 120L258 121L257 120z"/>
<path style="fill:#545e69; stroke:none;" d="M289.667 120.333L290.333 120.667L289.667 120.333M327 120L328 121L327 120z"/>
<path style="fill:#a9d1c8; stroke:none;" d="M218 121L219 122L218 121z"/>
<path style="fill:#545e69; stroke:none;" d="M254 121L255 122L254 121z"/>
<path style="fill:#7fc4bb; stroke:none;" d="M255 121L256 122L255 121z"/>
<path style="fill:#545e69; stroke:none;" d="M292 121L293 122L292 121z"/>
<path style="fill:#7fc4bb; stroke:none;" d="M328 121L329 122L328 121z"/>
<path style="fill:#545e69; stroke:none;" d="M218 122L219 123L218 122z"/>
<path style="fill:#7fc4bb; stroke:none;" d="M253 122L254 123L253 122z"/>
<path style="fill:#545e69; stroke:none;" d="M294 122L295 123L294 122z"/>
<path style="fill:#a9d1c8; stroke:none;" d="M329 122L330 123L329 122M217 123L218 124L217 123z"/>
<path style="fill:#545e69; stroke:none;" d="M251 123L252 124L251 123M295 123L296 124L295 123M329 123L330 124L329 123z"/>
<path style="fill:#a9d1c8; stroke:none;" d="M250 124L251 125L250 124z"/>
<path style="fill:#545e69; stroke:none;" d="M297 124L298 125L297 124z"/>
<path style="fill:#a9d1c8; stroke:none;" d="M330 124L331 125L330 124z"/>
<path style="fill:#545e69; stroke:none;" d="M216 125L217 126L216 125M248 125L249 126L248 125M298 125L299 126L298 125z"/>
<path style="fill:#a9d1c8; stroke:none;" d="M215 126L216 127L215 126z"/>
<path style="fill:#7fc4bb; stroke:none;" d="M247 126L248 127L247 126M331 126L332 127L331 126z"/>
<path style="fill:#545e69; stroke:none;" d="M215 127L216 128L215 127z"/>
<path style="fill:#7fc4bb; stroke:none;" d="M246 127L247 128L246 127z"/>
<path style="fill:#545e69; stroke:none;" d="M301 127L302 128L301 127z"/>
<path style="fill:#a9d1c8; stroke:none;" d="M214 128L215 129L214 128M245 128L246 129L245 128z"/>
<path style="fill:#545e69; stroke:none;" d="M302 128L303 129L302 128M332 128L333 129L332 128M214 129L215 130L214 129z"/>
<path style="fill:#a9d1c8; stroke:none;" d="M244 129L245 130L244 129z"/>
<path style="fill:#545e69; stroke:none;" d="M303 129L304 130L303 129z"/>
<path style="fill:#a9d1c8; stroke:none;" d="M213 130L214 131L213 130M243 130L244 131L243 130z"/>
<path style="fill:#545e69; stroke:none;" d="M304 130L305 131L304 130M333 130L334 131L333 130M213 131L214 132L213 131z"/>
<path style="fill:#a9d1c8; stroke:none;" d="M242 131L243 132L242 131z"/>
<path style="fill:#545e69; stroke:none;" d="M305 131L306 132L305 131z"/>
<path style="fill:#a9d1c8; stroke:none;" d="M212 132L213 133L212 132z"/>
<path style="fill:#7fc4bb; stroke:none;" d="M241 132L242 133L241 132M334 132L335 133L334 132z"/>
<path style="fill:#545e69; stroke:none;" d="M212.333 133.667L212.667 134.333L212.333 133.667M240 133L241 134L240 133M306 133L307 134L306 133M307 134L308 135L307 134z"/>
<path style="fill:#a9d1c8; stroke:none;" d="M335 134L336 135L335 134M211 135L212 136L211 135M239 135L240 136L239 135z"/>
<path style="fill:#545e69; stroke:none;" d="M308 135L309 136L308 135M335 135L336 136L335 135M211 136L212 137L211 136M238 136L239 137L238 136M309 137L310 138L309 137z"/>
<path style="fill:#7fc4bb; stroke:none;" d="M336 137L337 138L336 137M210 138L211 139L210 138M237 138L238 139L237 138z"/>
<path style="fill:#545e69; stroke:none;" d="M336 138L337 139L336 138M210 139L211 140L210 139M236 139L237 140L236 139M310 139L311 140L310 139z"/>
<path style="fill:#a9d1c8; stroke:none;" d="M236 140L237 141L236 140M337 140L338 141L337 140z"/>
<path style="fill:#7fc4bb; stroke:none;" d="M209 141L210 142L209 141z"/>
<path style="fill:#545e69; stroke:none;" d="M235 141L236 142L235 141M311 141L312 142L311 141M337.333 141.667L337.667 142.333L337.333 141.667M209.333 142.667L209.667 143.333L209.333 142.667z"/>
<path style="fill:#7fc4bb; stroke:none;" d="M235 142L236 143L235 142z"/>
<path style="fill:#545e69; stroke:none;" d="M312.333 143.667L312.667 144.333L312.333 143.667z"/>
<path style="fill:#7fc4bb; stroke:none;" d="M338.333 143.667L338.667 144.333L338.333 143.667M208.333 144.667L208.667 145.333L208.333 144.667z"/>
<path style="fill:#545e69; stroke:none;" d="M234 144L235 145L234 144z"/>
<path style="fill:#a9d1c8; stroke:none;" d="M234 145L235 146L234 145z"/>
<path style="fill:#545e69; stroke:none;" d="M338.333 145.667L338.667 146.333L338.333 145.667M208 146L208 149L209 149L208 146M313.333 146.667L313.667 147.333L313.333 146.667M233 147L234 148L233 147z"/>
<path style="fill:#7fc4bb; stroke:none;" d="M233 148L234 149L233 148M339 148L339 151L340 151L339 148z"/>
<path style="fill:#a9d1c8; stroke:none;" d="M233 149L234 150L233 149z"/>
<path style="fill:#545e69; stroke:none;" d="M314 149L314 153L315 153L314 149z"/>
<path style="fill:#7fc4bb; stroke:none;" d="M207 150L207 154L208 154L207 150z"/>
<path style="fill:#545e69; stroke:none;" d="M232.333 151.667L232.667 152.333L232.333 151.667M339 151L339 157L340 157L339 151z"/>
<path style="fill:#7fc4bb; stroke:none;" d="M232 153L233 154L232 153z"/>
<path style="fill:#545e69; stroke:none;" d="M207 154L207 163L208 163L207 154z"/>
<path style="fill:#a9d1c8; stroke:none;" d="M232 154L232 158L233 158L232 154z"/>
<path style="fill:#545e69; stroke:none;" d="M315 156L315 162L316 162L315 156M278 157L279 158L278 157M279 158L280 159L279 158z"/>
<path style="fill:#a9d1c8; stroke:none;" d="M232 159L232 163L233 163L232 159z"/>
<path style="fill:#7fc4bb; stroke:none;" d="M269 159L270 160L269 159z"/>
<path style="fill:#545e69; stroke:none;" d="M280 159L281 160L280 159M281 160L282 161L281 160z"/>
<path style="fill:#7fc4bb; stroke:none;" d="M270 161L271 162L270 161z"/>
<path style="fill:#545e69; stroke:none;" d="M282 161L283 162L282 161M339 161L339 167L340 167L339 161z"/>
<path style="fill:#7fc4bb; stroke:none;" d="M271 162L272 163L271 162z"/>
<path style="fill:#545e69; stroke:none;" d="M283 162L284 163L283 162z"/>
<path style="fill:#7fc4bb; stroke:none;" d="M207 163L207 167L208 167L207 163M232 163L233 164L232 163M272 163L273 164L272 163z"/>
<path style="fill:#545e69; stroke:none;" d="M284 163L285 164L284 163M232.333 164.667L232.667 165.333L232.333 164.667z"/>
<path style="fill:#7fc4bb; stroke:none;" d="M273 164L274 165L273 164z"/>
<path style="fill:#545e69; stroke:none;" d="M285 164L286 165L285 164z"/>
<path style="fill:#7fc4bb; stroke:none;" d="M274 165L275 166L274 165z"/>
<path style="fill:#545e69; stroke:none;" d="M286 165L287 166L286 165M314 165L314 168L315 168L314 165z"/>
<path style="fill:#7fc4bb; stroke:none;" d="M275 166L276 167L275 166z"/>
<path style="fill:#545e69; stroke:none;" d="M287 166L288 167L287 166z"/>
<path style="fill:#a9d1c8; stroke:none;" d="M233.333 167.667L233.667 168.333L233.333 167.667z"/>
<path style="fill:#7fc4bb; stroke:none;" d="M276 167L277 168L276 167z"/>
<path style="fill:#545e69; stroke:none;" d="M288 167L289 168L288 167z"/>
<path style="fill:#7fc4bb; stroke:none;" d="M339.333 167.667L339.667 168.333L339.333 167.667z"/>
<path style="fill:#545e69; stroke:none;" d="M208 168L208 171L209 171L208 168z"/>
<path style="fill:#7fc4bb; stroke:none;" d="M277 168L278 169L277 168z"/>
<path style="fill:#545e69; stroke:none;" d="M289 168L290 169L289 168M233.333 169.667L233.667 170.333L233.333 169.667z"/>
<path style="fill:#7fc4bb; stroke:none;" d="M278 169L279 170L278 169z"/>
<path style="fill:#545e69; stroke:none;" d="M290 169L291 170L290 169z"/>
<path style="fill:#7fc4bb; stroke:none;" d="M279 170L280 171L279 170z"/>
<path style="fill:#545e69; stroke:none;" d="M291 170L292 171L291 170M313.333 170.667L313.667 171.333L313.333 170.667M338 170L338 173L339 173L338 170z"/>
<path style="fill:#7fc4bb; stroke:none;" d="M208.333 171.667L208.667 172.333L208.333 171.667z"/>
<path style="fill:#a9d1c8; stroke:none;" d="M234 171L235 172L234 171z"/>
<path style="fill:#7fc4bb; stroke:none;" d="M280 171L281 172L280 171z"/>
<path style="fill:#545e69; stroke:none;" d="M292 171L293 172L292 171M234 172L235 173L234 172z"/>
<path style="fill:#7fc4bb; stroke:none;" d="M281 172L282 173L281 172z"/>
<path style="fill:#545e69; stroke:none;" d="M293 172L294 173L293 172M209.333 173.667L209.667 174.333L209.333 173.667z"/>
<path style="fill:#7fc4bb; stroke:none;" d="M282 173L283 174L282 173z"/>
<path style="fill:#545e69; stroke:none;" d="M294 173L295 174L294 173M312 173L313 174L312 173z"/>
<path style="fill:#7fc4bb; stroke:none;" d="M338 173L339 174L338 173z"/>
<path style="fill:#a9d1c8; stroke:none;" d="M235 174L236 175L235 174z"/>
<path style="fill:#7fc4bb; stroke:none;" d="M283 174L284 175L283 174z"/>
<path style="fill:#545e69; stroke:none;" d="M295 174L296 175L295 174z"/>
<path style="fill:#7fc4bb; stroke:none;" d="M209 175L210 176L209 175z"/>
<path style="fill:#545e69; stroke:none;" d="M235 175L236 176L235 175z"/>
<path style="fill:#7fc4bb; stroke:none;" d="M284 175L285 176L284 175z"/>
<path style="fill:#545e69; stroke:none;" d="M296 175L297 176L296 175M311.333 175.667L311.667 176.333L311.333 175.667M337 175L338 176L337 175z"/>
<path style="fill:#f5f9ef; stroke:none;" d="M257 223C246.309 219.515 238.23 211.424 228.17 207.715C220.805 205 209.771 207 202 207C198.39 207 184.864 209 183.346 204.701C181.879 200.549 188.597 200.05 191 200.005C200.992 199.817 211.006 200 221 200L210 176C200.279 176 190.64 177.008 182 181.876C174.968 185.837 168.806 191.342 164.221 198C133.466 242.663 189.401 297.173 234 268.301C239.749 264.579 244.721 259.763 248.452 254C254.729 244.304 255.612 234.085 257 223z"/>
<path style="fill:#a9d1c8; stroke:none;" d="M236 176L237 177L236 176z"/>
<path style="fill:#7fc4bb; stroke:none;" d="M285 176L286 177L285 176z"/>
<path style="fill:#545e69; stroke:none;" d="M297 176L298 177L297 176z"/>
<path style="fill:#7fc4bb; stroke:none;" d="M337 176L338 177L337 176z"/>
<path style="fill:#f5f9ef; stroke:none;" d="M338.699 177.028C334.562 180.087 332.402 189.542 329.564 194C323.387 203.702 315.034 211.367 305 216.961C300.383 219.534 289.018 221.019 288.163 227.055C282.184 269.269 340.201 287.878 368.999 266.711C390.989 250.547 395.428 217.765 379.239 196C372.086 186.383 361.687 179.734 350 177.211C346.822 176.525 341.62 174.868 338.699 177.028z"/>
<path style="fill:#545e69; stroke:none;" d="M210 177L211 178L210 177M236 177L237 178L236 177z"/>
<path style="fill:#7fc4bb; stroke:none;" d="M286 177L287 178L286 177z"/>
<path style="fill:#545e69; stroke:none;" d="M298 177L299 178L298 177M310.333 177.667L310.667 178.333L310.333 177.667z"/>
<path style="fill:#a9d1c8; stroke:none;" d="M337 177L338 178L337 177z"/>
<path style="fill:#7fc4bb; stroke:none;" d="M210 178L211 179L210 178z"/>
<path style="fill:#a9d1c8; stroke:none;" d="M237 178L238 179L237 178z"/>
<path style="fill:#7fc4bb; stroke:none;" d="M287 178L288 179L287 178z"/>
<path style="fill:#545e69; stroke:none;" d="M299 178L300 179L299 178M336 178L337 179L336 178M237 179L238 180L237 179z"/>
<path style="fill:#7fc4bb; stroke:none;" d="M288 179L289 180L288 179z"/>
<path style="fill:#545e69; stroke:none;" d="M300 179L301 180L300 179M309 179L310 180L309 179z"/>
<path style="fill:#7fc4bb; stroke:none;" d="M336 179L337 180L336 179z"/>
<path style="fill:#545e69; stroke:none;" d="M211 180L212 181L211 180z"/>
<path style="fill:#7fc4bb; stroke:none;" d="M238 180L239 181L238 180M289 180L290 181L289 180z"/>
<path style="fill:#545e69; stroke:none;" d="M301 180L302 181L301 180z"/>
<path style="fill:#a9d1c8; stroke:none;" d="M336 180L337 181L336 180z"/>
<path style="fill:#7fc4bb; stroke:none;" d="M211 181L212 182L211 181M290 181L291 182L290 181z"/>
<path style="fill:#545e69; stroke:none;" d="M302 181L303 182L302 181M308 181L309 182L308 181M335 181L336 182L335 181z"/>
<path style="fill:#7fc4bb; stroke:none;" d="M179 182L180 183L179 182z"/>
<path style="fill:#545e69; stroke:none;" d="M239 182L240 183L239 182z"/>
<path style="fill:#7fc4bb; stroke:none;" d="M291 182L292 183L291 182z"/>
<path style="fill:#545e69; stroke:none;" d="M303 182L304 183L303 182M307 182L308 183L307 182z"/>
<path style="fill:#7fc4bb; stroke:none;" d="M335 182L336 183L335 182M177 183L176 185L177 183z"/>
<path style="fill:#545e69; stroke:none;" d="M212 183L213 184L212 183z"/>
<path style="fill:#7fc4bb; stroke:none;" d="M240 183L241 184L240 183M292 183L293 184L292 183z"/>
<path style="fill:#545e69; stroke:none;" d="M304 183L305 184L304 183z"/>
<path style="fill:#f5f9ef; stroke:none;" d="M519 203C514.195 192.704 498.216 186.497 487.961 183.657C483.384 182.39 479.634 187.717 482.184 191.682C486.209 197.944 492.322 189.115 497.015 189.728C506.289 190.938 512.157 197.547 519 203z"/>
<path style="fill:#a9d1c8; stroke:none;" d="M212 184L213 185L212 184M241 184L242 185L241 184z"/>
<path style="fill:#7fc4bb; stroke:none;" d="M293 184L294 185L293 184z"/>
<path style="fill:#545e69; stroke:none;" d="M305.667 184.333L306.333 184.667L305.667 184.333M334 184L335 185L334 184z"/>
<path style="fill:#7fc4bb; stroke:none;" d="M175 185L176 186L175 185z"/>
<path style="fill:#545e69; stroke:none;" d="M213 185L214 186L213 185z"/>
<path style="fill:#7fc4bb; stroke:none;" d="M294 185L295 186L294 185z"/>
<path style="fill:#a9d1c8; stroke:none;" d="M334 185L335 186L334 185z"/>
<path style="fill:#7fc4bb; stroke:none;" d="M173 186L174 187L173 186z"/>
<path style="fill:#a9d1c8; stroke:none;" d="M213 186L214 187L213 186z"/>
<path style="fill:#545e69; stroke:none;" d="M242 186L243 187L242 186z"/>
<path style="fill:#7fc4bb; stroke:none;" d="M295 186L296 187L295 186z"/>
<path style="fill:#545e69; stroke:none;" d="M333 186L334 187L333 186M214 187L215 188L214 187M243 187L244 188L243 187z"/>
<path style="fill:#7fc4bb; stroke:none;" d="M296 187L297 188L296 187z"/>
<path style="fill:#a9d1c8; stroke:none;" d="M333 187L334 188L333 187M214 188L215 189L214 188z"/>
<path style="fill:#545e69; stroke:none;" d="M244 188L245 189L244 188z"/>
<path style="fill:#7fc4bb; stroke:none;" d="M297 188L298 189L297 188z"/>
<path style="fill:#545e69; stroke:none;" d="M332 188L333 189L332 188M215 189L216 190L215 189M245 189L246 190L245 189z"/>
<path style="fill:#7fc4bb; stroke:none;" d="M298 189L299 190L298 189z"/>
<path style="fill:#a9d1c8; stroke:none;" d="M332 189L333 190L332 189M215 190L216 191L215 190M247 190L248 191L247 190z"/>
<path style="fill:#7fc4bb; stroke:none;" d="M299 190L300 191L299 190z"/>
<path style="fill:#545e69; stroke:none;" d="M331 190L332 191L331 190M216 191L217 192L216 191z"/>
<path style="fill:#7fc4bb; stroke:none;" d="M248 191L249 192L248 191z"/>
<path style="fill:#545e69; stroke:none;" d="M299 191L300 192L299 191z"/>
<path style="fill:#a9d1c8; stroke:none;" d="M216 192L217 193L216 192z"/>
<path style="fill:#545e69; stroke:none;" d="M249 192L250 193L249 192z"/>
<path style="fill:#a9d1c8; stroke:none;" d="M297 192L298 193L297 192z"/>
<path style="fill:#7fc4bb; stroke:none;" d="M330 192L331 193L330 192M217 193L218 194L217 193z"/>
<path style="fill:#545e69; stroke:none;" d="M250 193L251 194L250 193z"/>
<path style="fill:#a9d1c8; stroke:none;" d="M251 193L252 194L251 193z"/>
<path style="fill:#545e69; stroke:none;" d="M296 193L297 194L296 193M329 193L330 194L329 193M218 194L219 195L218 194M252 194L253 195L252 194z"/>
<path style="fill:#a9d1c8; stroke:none;" d="M253 194L254 195L253 194z"/>
<path style="fill:#7fc4bb; stroke:none;" d="M294 194L295 195L294 194z"/>
<path style="fill:#a9d1c8; stroke:none;" d="M329 194L330 195L329 194M218 195L219 196L218 195z"/>
<path style="fill:#545e69; stroke:none;" d="M254 195L255 196L254 195z"/>
<path style="fill:#a9d1c8; stroke:none;" d="M292 195L293 196L292 195z"/>
<path style="fill:#545e69; stroke:none;" d="M293 195L294 196L293 195M328 195L329 196L328 195z"/>
<path style="fill:#a9d1c8; stroke:none;" d="M165 196L166 197L165 196z"/>
<path style="fill:#545e69; stroke:none;" d="M219 196L220 197L219 196M256 196L257 197L256 196z"/>
<path style="fill:#a9d1c8; stroke:none;" d="M257 196L258 197L257 196z"/>
<path style="fill:#7fc4bb; stroke:none;" d="M290 196L291 197L290 196z"/>
<path style="fill:#545e69; stroke:none;" d="M291 196L292 197L291 196M327 196L328 197L327 196z"/>
<path style="fill:#a9d1c8; stroke:none;" d="M164 197L165 198L164 197z"/>
<path style="fill:#545e69; stroke:none;" d="M220 197L221 198L220 197M258 197L259 198L258 197z"/>
<path style="fill:#7fc4bb; stroke:none;" d="M259 197L260 198L259 197z"/>
<path style="fill:#a9d1c8; stroke:none;" d="M287 197L288 198L287 197z"/>
<path style="fill:#545e69; stroke:none;" d="M288 197L289 198L288 197z"/>
<path style="fill:#a9d1c8; stroke:none;" d="M327 197L328 198L327 197M163 198L164 199L163 198z"/>
<path style="fill:#545e69; stroke:none;" d="M261 198L262 199L261 198z"/>
<path style="fill:#7fc4bb; stroke:none;" d="M262 198L263 199L262 198z"/>
<path style="fill:#a9d1c8; stroke:none;" d="M263 198L264 199L263 198M284 198L285 199L284 198z"/>
<path style="fill:#545e69; stroke:none;" d="M285.667 198.333L286.333 198.667L285.667 198.333z"/>
<path style="fill:#7fc4bb; stroke:none;" d="M326 198L327 199L326 198z"/>
<path style="fill:#a9d1c8; stroke:none;" d="M221 199L184 200L184 201L213 201L221 199z"/>
<path style="fill:#545e69; stroke:none;" d="M264.667 199.333L265.333 199.667L264.667 199.333z"/>
<path style="fill:#7fc4bb; stroke:none;" d="M266 199L267 200L266 199z"/>
<path style="fill:#a9d1c8; stroke:none;" d="M267.667 199.333L268.333 199.667L267.667 199.333M279 199L280 200L279 199z"/>
<path style="fill:#7fc4bb; stroke:none;" d="M280 199L281 200L280 199z"/>
<path style="fill:#545e69; stroke:none;" d="M281.667 199.333L282.333 199.667L281.667 199.333M325 199L326 200L325 199z"/>
<path style="fill:#a9d1c8; stroke:none;" d="M162 200L163 201L162 200z"/>
<path style="fill:#545e69; stroke:none;" d="M222 200L225 203L222 200M272 200L272 201L276 201L272 200M324 200L325 201L324 200z"/>
<path style="fill:#7fc4bb; stroke:none;" d="M228 207C221.111 197.538 205.538 201 195 201C192.443 201 183.778 199.639 183.06 203.259C182.158 207.809 190.582 206.999 193 207L228 207z"/>
<path style="fill:#a9d1c8; stroke:none;" d="M324 201L325 202L324 201M161 202L162 203L161 202M182 202L183 203L182 202M323 202L324 203L323 202M362 202L361 204L362 202z"/>
<path style="fill:#7fc4bb; stroke:none;" d="M363.299 203.176C360.163 204.706 361.001 210.207 361 213C360.996 221.999 360.939 231.001 361.001 240C361.018 242.525 361.131 249.65 365.701 247.593C368.854 246.174 367.999 240.733 368 238C368.004 228.672 368.171 219.326 367.995 210C367.95 207.605 367.432 201.159 363.299 203.176z"/>
<path style="fill:#a9d1c8; stroke:none;" d="M366 202L367 203L366 202M322 203L323 204L322 203M367 203L368 204L367 203z"/>
<path style="fill:#f5f9ef; stroke:none;" d="M519 203C522.042 213.564 525.61 222.575 523.853 233.985C523.305 237.544 520.372 239.671 519.433 243.039C518.078 247.898 519 253.99 519 259C519 263.727 518.166 269.378 519.317 273.985C520.174 277.412 523.281 279.486 523.852 283.039C525.178 291.299 524 300.633 524 309L525 309L525 279C532.41 276.751 530 266.279 530 260C530 254.689 531 248.206 529.683 243.039C528.81 239.616 525.714 237.579 525.148 233.985C523.462 223.269 527.719 211.635 519 203z"/>
<path style="fill:#a9d1c8; stroke:none;" d="M160 204L161 205L160 204M321 204L322 205L321 204M182 205L183 206L182 205z"/>
<path style="fill:#7fc4bb; stroke:none;" d="M320 205L321 206L320 205z"/>
<path style="fill:#a9d1c8; stroke:none;" d="M159 206L160 207L159 206M183 206L184 207L183 206M319 206L320 207L319 206M226 207L227 208L226 207z"/>
<path style="fill:#545e69; stroke:none;" d="M229 207L230 208L229 207z"/>
<path style="fill:#a9d1c8; stroke:none;" d="M318 207L319 208L318 207M158.333 208.667L158.667 209.333L158.333 208.667z"/>
<path style="fill:#545e69; stroke:none;" d="M230 208L231 209L230 208z"/>
<path style="fill:#a9d1c8; stroke:none;" d="M317 208L318 209L317 208z"/>
<path style="fill:#545e69; stroke:none;" d="M231 209L232 210L231 209M315 209L316 210L315 209z"/>
<path style="fill:#a9d1c8; stroke:none;" d="M316 209L317 210L316 209z"/>
<path style="fill:#7fc4bb; stroke:none;" d="M232 210L233 211L232 210z"/>
<path style="fill:#545e69; stroke:none;" d="M314 210L315 211L314 210z"/>
<path style="fill:#a9d1c8; stroke:none;" d="M157.333 211.667L157.667 212.333L157.333 211.667M233 211L234 212L233 211z"/>
<path style="fill:#545e69; stroke:none;" d="M234 211L235 212L234 211z"/>
<path style="fill:#7fc4bb; stroke:none;" d="M313 211L314 212L313 211z"/>
<path style="fill:#545e69; stroke:none;" d="M235 212L236 213L235 212M311 212L312 213L311 212z"/>
<path style="fill:#a9d1c8; stroke:none;" d="M312 212L313 213L312 212M236 213L237 214L236 213z"/>
<path style="fill:#545e69; stroke:none;" d="M310 213L311 214L310 213M238 214L239 215L238 214M308 214L309 215L308 214z"/>
<path style="fill:#a9d1c8; stroke:none;" d="M309 214L310 215L309 214M156 215L156 218L157 218L156 215M239 215L240 216L239 215z"/>
<path style="fill:#545e69; stroke:none;" d="M240 215L241 216L240 215z"/>
<path style="fill:#7fc4bb; stroke:none;" d="M307 215L308 216L307 215M241 216L242 217L241 216z"/>
<path style="fill:#545e69; stroke:none;" d="M305 216L306 217L305 216z"/>
<path style="fill:#a9d1c8; stroke:none;" d="M329.667 216.333L330.333 216.667L329.667 216.333z"/>
<path style="fill:#7fc4bb; stroke:none;" d="M243 217L244 218L243 217z"/>
<path style="fill:#545e69; stroke:none;" d="M303 217L304 218L303 217z"/>
<path style="fill:#a9d1c8; stroke:none;" d="M304 217L305 218L304 217M327 217L328 218L327 217z"/>
<path style="fill:#7fc4bb; stroke:none;" d="M328.584 218.086C324.536 220.929 326.812 238.354 327.019 242.985C327.106 244.926 327.655 249.224 330.741 247.744C335.393 245.511 333.355 226.563 332.941 222.019C332.754 219.957 331.41 216.102 328.584 218.086z"/>
<path style="fill:#a9d1c8; stroke:none;" d="M332 217L333 218L332 217z"/>
<path style="fill:#7fc4bb; stroke:none;" d="M245 218L246 219L245 218z"/>
<path style="fill:#545e69; stroke:none;" d="M246 218L247 219L246 218M301 218L302 219L301 218z"/>
<path style="fill:#a9d1c8; stroke:none;" d="M302 218L303 219L302 218z"/>
<path style="fill:#7fc4bb; stroke:none;" d="M247 219L248 220L247 219z"/>
<path style="fill:#545e69; stroke:none;" d="M248 219L249 220L248 219M298.667 219.333L299.333 219.667L298.667 219.333z"/>
<path style="fill:#a9d1c8; stroke:none;" d="M326 219L326 247L327 247L326 219M333 219L333 246L334 246L333 219M249 220L250 221L249 220z"/>
<path style="fill:#7fc4bb; stroke:none;" d="M250 220L251 221L250 220z"/>
<path style="fill:#545e69; stroke:none;" d="M251 220L252 221L251 220M296 220L297 221L296 220z"/>
<path style="fill:#a9d1c8; stroke:none;" d="M297 220L298 221L297 220M345 221L345 222L350 221L345 221M155 221L155 232L156 232L155 221M184 221L184 222L230 223L216 221L184 221M252 221L253 222L252 221z"/>
<path style="fill:#545e69; stroke:none;" d="M253 221L254 222L253 221M293 221L294 222L293 221z"/>
<path style="fill:#7fc4bb; stroke:none;" d="M294 221L295 222L294 221M351 221C343.158 221.611 342.017 240.921 346.023 246.638C350.254 252.676 350.999 240.914 351 239L351 232L351 221M183.662 223.023C180.538 225.785 186.03 227.766 188.005 227.941C198.173 228.843 208.79 228.001 219 228C221.638 228 227.13 228.955 228.914 226.416C232.064 221.929 222.99 222.004 221 222L194 222C191.241 222 185.91 221.036 183.662 223.023z"/>
<path style="fill:#a9d1c8; stroke:none;" d="M255 222L256 223L255 222z"/>
<path style="fill:#7fc4bb; stroke:none;" d="M256 222L257 223L256 222z"/>
<path style="fill:#545e69; stroke:none;" d="M257 222L258 223L257 222M289.667 222.333L290.333 222.667L289.667 222.333z"/>
<path style="fill:#a9d1c8; stroke:none;" d="M291 222L292 223L291 222M351 222L351 247L352 247L351 222z"/>
<path style="fill:#7fc4bb; stroke:none;" d="M258.667 223.333L259.333 223.667L258.667 223.333z"/>
<path style="fill:#545e69; stroke:none;" d="M260 223L260 224L263 224L260 223M285.667 223.333L286.333 223.667L285.667 223.333z"/>
<path style="fill:#7fc4bb; stroke:none;" d="M287 223L288 224L287 223z"/>
<path style="fill:#a9d1c8; stroke:none;" d="M344 223L344 246L345 246L344 223M230.333 224.667L230.667 225.333L230.333 224.667z"/>
<path style="fill:#7fc4bb; stroke:none;" d="M257 224L257 233L258 233L257 224M263 224L263 225L266 225L263 224z"/>
<path style="fill:#545e69; stroke:none;" d="M266 224L266 225L281 225L266 224z"/>
<path style="fill:#7fc4bb; stroke:none;" d="M281 224L281 225L284 225L281 224z"/>
<path style="fill:#a9d1c8; stroke:none;" d="M311 224L310 226L311 224z"/>
<path style="fill:#7fc4bb; stroke:none;" d="M312.299 225.176C307.831 227.356 308.654 250.314 314.701 247.593C319.385 245.485 318.026 222.382 312.299 225.176z"/>
<path style="fill:#a9d1c8; stroke:none;" d="M315 224L316 225L315 224M316 225L317 226L316 225M182 226L183 227L182 226M183 227L184 228L183 227z"/>
<path style="fill:#7fc4bb; stroke:none;" d="M287 231L288 232L287 231z"/>
<path style="fill:#a9d1c8; stroke:none;" d="M156.333 235.667L156.667 236.333L156.333 235.667z"/>
<path style="fill:#7fc4bb; stroke:none;" d="M256 235L256 238L257 238L256 235M288.333 237.667L288.667 238.333L288.333 237.667z"/>
<path style="fill:#a9d1c8; stroke:none;" d="M157.333 239.667L157.667 240.333L157.333 239.667z"/>
<path style="fill:#7fc4bb; stroke:none;" d="M255 239L255 242L256 242L255 239M289 241L290 242L289 241z"/>
<path style="fill:#a9d1c8; stroke:none;" d="M184 242L184 243L217 243C222.105 243 227.251 242.014 230 247C231.189 241.346 223.838 242.002 220 242L184 242M158 243L159 244L158 243M182 243L183 244L182 243z"/>
<path style="fill:#7fc4bb; stroke:none;" d="M183.662 244.023C180.538 246.785 186.03 248.766 188.005 248.941C197.846 249.814 208.119 249.001 218 249C220.883 249 226.941 250.022 228.914 247.277C232.042 242.923 222.881 243.004 221 243L194 243C191.241 243 185.91 242.036 183.662 244.023M254.333 243.667L254.667 244.333L254.333 243.667M290 244L291 245L290 244z"/>
<path style="fill:#a9d1c8; stroke:none;" d="M159.333 245.667L159.667 246.333L159.333 245.667z"/>
<path style="fill:#7fc4bb; stroke:none;" d="M253.333 245.667L253.667 246.333L253.333 245.667M291 246L292 247L291 246z"/>
<path style="fill:#a9d1c8; stroke:none;" d="M160.333 247.667L160.667 248.333L160.333 247.667M182 247L183 248L182 247M310 247L311 248L310 247M316 247L317 248L316 247M332 247L333 248L332 247M345 247L346 248L345 247M361 247L362 248L361 247M367 247L368 248L367 247M183 248L184 249L183 248M228 248L229 249L228 248z"/>
<path style="fill:#7fc4bb; stroke:none;" d="M292 248L293 249L292 248z"/>
<path style="fill:#a9d1c8; stroke:none;" d="M311.667 248.333L312.333 248.667L311.667 248.333M314.667 248.333L315.333 248.667L314.667 248.333M328 248L329 249L328 248M331 248L332 249L331 248M346 248L347 249L346 248M349 248L350 249L349 248M362.667 248.333L363.333 248.667L362.667 248.333M365.667 248.333L366.333 248.667L365.667 248.333M161 250L162 251L161 250M250 250L251 251L250 250M252 250L253 251L252 250z"/>
<path style="fill:#7fc4bb; stroke:none;" d="M293 250L294 251L293 250z"/>
<path style="fill:#a9d1c8; stroke:none;" d="M162 251L163 252L162 251M249 252L250 253L249 252M251 252L250 254L251 252z"/>
<path style="fill:#7fc4bb; stroke:none;" d="M294 252L295 253L294 252z"/>
<path style="fill:#a9d1c8; stroke:none;" d="M163 253L164 254L163 253M248 254L249 255L248 254z"/>
<path style="fill:#7fc4bb; stroke:none;" d="M295 254L297 256L295 254z"/>
<path style="fill:#a9d1c8; stroke:none;" d="M247 255L248 256L247 255M165 256L166 257L165 256M246 256L247 257L246 256M248 256L249 257L248 256z"/>
<path style="fill:#7fc4bb; stroke:none;" d="M297 256L298 257L297 256z"/>
<path style="fill:#a9d1c8; stroke:none;" d="M166 257L167 258L166 257M245 258L246 259L245 258z"/>
<path style="fill:#7fc4bb; stroke:none;" d="M298 258L307 267L298 258z"/>
<path style="fill:#a9d1c8; stroke:none;" d="M244 259L245 260L244 259M243 260L244 261L243 260M242 261L243 262L242 261M241 262L242 263L241 262M240 263L241 264L240 263M239 264L240 265L239 264M174 265L175 266L174 265M238 265L239 266L238 265M175 266L176 267L175 266M236 266L237 267L236 266M235 267L236 268L235 267z"/>
<path style="fill:#7fc4bb; stroke:none;" d="M308 267L309 268L308 267z"/>
<path style="fill:#a9d1c8; stroke:none;" d="M178 268L179 269L178 268M233 268L234 269L233 268z"/>
<path style="fill:#7fc4bb; stroke:none;" d="M309 268L310 269L309 268z"/>
<path style="fill:#a9d1c8; stroke:none;" d="M232 269L233 270L232 269z"/>
<path style="fill:#7fc4bb; stroke:none;" d="M310.667 269.333L311.333 269.667L310.667 269.333z"/>
<path style="fill:#a9d1c8; stroke:none;" d="M181 270L182 271L181 270M230 270L231 271L230 270z"/>
<path style="fill:#7fc4bb; stroke:none;" d="M312 270L313 271L312 270z"/>
<path style="fill:#a9d1c8; stroke:none;" d="M183 271L184 272L183 271M228 271L229 272L228 271z"/>
<path style="fill:#7fc4bb; stroke:none;" d="M314 271L315 272L314 271z"/>
<path style="fill:#a9d1c8; stroke:none;" d="M185 272L186 273L185 272M226 272L227 273L226 272z"/>
<path style="fill:#7fc4bb; stroke:none;" d="M316 272L317 273L316 272z"/>
<path style="fill:#a9d1c8; stroke:none;" d="M187.667 273.333L188.333 273.667L187.667 273.333M223.667 273.333L224.333 273.667L223.667 273.333z"/>
<path style="fill:#7fc4bb; stroke:none;" d="M318 273L319 274L318 273z"/>
<path style="fill:#a9d1c8; stroke:none;" d="M190.667 274.333L191.333 274.667L190.667 274.333M221 274L222 275L221 274z"/>
<path style="fill:#7fc4bb; stroke:none;" d="M320.667 274.333L321.333 274.667L320.667 274.333z"/>
<path style="fill:#a9d1c8; stroke:none;" d="M194.667 275.333L195.333 275.667L194.667 275.333M217.667 275.333L218.333 275.667L217.667 275.333z"/>
<path style="fill:#7fc4bb; stroke:none;" d="M323.667 275.333L324.333 275.667L323.667 275.333M353 275L354 276L353 275z"/>
<path style="fill:#a9d1c8; stroke:none;" d="M199 276L199 277L205 277L199 276M208 276L208 277L214 277L208 276z"/>
<path style="fill:#7fc4bb; stroke:none;" d="M326 276L326 277L329 277L326 276M348.667 276.333L349.333 276.667L348.667 276.333M332 277L332 278L345 278L332 277z"/>
</svg>
