<?xml version="1.0" standalone="yes"?>
<svg xmlns="http://www.w3.org/2000/svg" width="550" height="309">
<path style="fill:#f7f8f9; stroke:none;" d="M0 0L0 95L88 95L100.91 94.686L109.01 90.7508L114.364 95.9892L109.01 100.825L101.83 96.5995L88 96L0 96L0 309L247 309C237.887 296.062 224.188 285.188 213 274L147 208C132.038 193.038 111.047 178.171 110.71 155C110.368 131.477 130.862 117.138 146 102L213 35C224.188 23.8116 237.887 12.9377 247 0L0 0z"/>
<path style="fill:#ff9d60; stroke:none;" d="M177 71C181.196 68.7381 187.583 66.9039 187 74L189 70L192 71L191 69L195 70L195 69L193 69L193 68C205.287 70.2811 218.532 69 231 69L299 69C310.967 69 330.216 65.3644 340.999 71.0501C352.567 77.1495 353 88.5177 353 100L353 141C353 146.018 351.06 153.102 352.333 157.852C353.345 161.631 357.941 160.994 361 161C366.909 161.012 381.68 159.332 384.397 166.059C386.337 170.863 386.777 187.056 381.852 189.972C375.698 193.616 362.034 191 355 191C331.427 191 308.424 190 285 190L285 191L306 193L316 193L316 194L308 194L308 195L360 195C366.038 195 376.505 193.013 381.852 196.179C387.136 199.308 387.153 220.833 381.852 223.972C373.437 228.955 352.744 225 343 225C346.959 230.62 359.366 238.105 360.013 244.996C360.632 251.587 349.994 259.006 346 263C331.32 277.68 312.951 292.034 301 309C314.304 299.628 325.494 285.506 337 274L406 205C422.458 188.542 439.099 175.075 437.961 150C437.286 135.136 426.873 124.873 417 115L376 74L326 24C318.946 16.9457 310.97 5.51263 302 1.02777C295.582 -2.18121 284.066 0 277 0C268.533 0 255.975 -2.3371 248 0.603394C240.127 3.50601 232.838 14.1616 227 20C210.733 36.2667 190.241 52.2034 177 71z"/>
<path style="fill:#f7f8f9; stroke:none;" d="M302 0C311.113 12.9377 324.812 23.8116 336 35L402 101C415.519 114.519 436.388 129.254 437.91 150C439.782 175.519 419.366 190.634 403 207L336 274C324.812 285.188 311.113 296.062 302 309L550 309L550 291L510 290L510 289L550 290L550 0L302 0z"/>
<path style="fill:#989da5; stroke:none;" d="M484 45L484 46L487 46L484 45M482 46L480 50L481 50L482 46z"/>
<path style="fill:#28303f; stroke:none;" d="M483.229 47.0324C477.82 50.2439 482.243 58.8538 487.853 55.9282C493.796 52.8287 489.325 43.4136 483.229 47.0324z"/>
<path style="fill:#989da5; stroke:none;" d="M491 49L491 53L492 53L491 49M480 53L481 54L480 53M490 54L491 55L490 54M481 55L482 56L481 55M489 55L490 56L489 55M483 56L484 57L483 56M488 56L489 57L488 56M485 57L485 122L484 156L488 156L488 155L487 128L487 57L485 57z"/>
<path style="fill:#fe6b1b; stroke:none;" d="M189 59L181 68L189 59M304 198L308 194L316 194L316 193L306 193C305.478 189.871 287.24 189.443 284.889 192.477C282.628 195.394 282.627 211.873 286.218 213.523C289.515 215.038 306.62 211.885 302.088 220.917C299.728 225.62 291.266 224 287 224L252 224C247.26 224 240.499 225.222 236.023 223.523C232.025 222.006 231.185 217.135 235.083 214.889C238.881 212.701 245.739 214 250 214L250 191L226 191C226 198.684 229.047 214.806 223.682 220.852C218.419 226.784 194.351 225.605 187.004 223.566C184.135 222.77 181.84 220.768 180.742 217.985C177.047 208.616 180 193.033 180 183L180 102C180 93.2586 178.699 84.4102 184.155 77.0039C185.71 74.8937 188.722 71.8232 186.301 69.1983C180.08 62.4534 163.714 83.2861 160 87C140.46 106.54 107.197 128.584 111.289 160C113.76 178.969 129.279 191.279 142 204L214 276C222.985 284.985 237.904 306.879 251 308.853C262.169 310.536 274.701 309 286 309C290.568 309 296.799 310.072 301 307.972C314.592 301.176 327.262 282.738 338 272C343.613 266.387 361.396 253.907 360.826 244.961C360.579 241.071 355.527 237.528 353 235C349.585 231.584 345.897 226.546 341 225.318C331.48 222.931 317.793 228.756 309.059 223.972C301.488 219.826 306.092 205.078 304 198M197 67L197 68L221 68L197 67M193 68L193 69L196 69L193 68M191.667 69.3333L192.333 69.6667L191.667 69.3333z"/>
<path style="fill:#f7f8f9; stroke:none;" d="M180 148C189.49 142.03 201.102 143.996 212 144C217.228 144.002 222.972 143.703 225.821 149.044C230.957 158.674 227 179.154 227 190L306 190C304.539 183.865 302.363 168.238 307.318 163.434C310.77 160.087 316.619 161 321 161L353 161C348.985 143.527 353 120.155 353 102C353 92.3391 354.245 81.8894 346.671 74.4684C337.939 65.9122 322.185 69 311 69L222 69C210.436 69 194.151 65.7627 185.529 75.3009C179.194 82.3098 180 91.2471 180 100L180 148z"/>
<path style="fill:#fe6b1b; stroke:none;" d="M189.667 70.3333L190.333 70.6667L189.667 70.3333M188 71L189 72L188 71z"/>
<path style="fill:#ff9d60; stroke:none;" d="M184 76L185 77L184 76M183 77L184 78L183 77M182.333 78.6667L182.667 79.3333L182.333 78.6667M181.333 80.6667L181.667 81.3333L181.333 80.6667M180.333 83.6667L180.667 84.3333L180.333 83.6667z"/>
<path style="fill:#989da5; stroke:none;" d="M107 90L108 91L107 90z"/>
<path style="fill:#28303f; stroke:none;" d="M108.055 90.9313C101.687 92.6573 104.551 102.534 110.945 100.353C117.018 98.2808 114.127 89.2854 108.055 90.9313z"/>
<path style="fill:#989da5; stroke:none;" d="M110.667 90.3333L111.333 90.6667L110.667 90.3333M105 91L106 92L105 91M104 92L105 93L104 92M114 93L115 94L114 93M103 94L69 95L0 95L0 96L68 96.2901L104 97L103 94M104 98L105 99L104 98M114 98L115 99L114 98M113 99L114 100L113 99M106 100L107 101L106 100M112 100L113 101L112 100M108 101L108 102L111 102L108 101M300.667 120.333L301.333 120.667L300.667 120.333z"/>
<path style="fill:#28303f; stroke:none;" d="M295 123L295 124C305.77 122.646 307.841 126.025 304 136C308.911 132.143 310.719 127.135 311 121C305.097 119.908 300.414 120.283 295 123z"/>
<path style="fill:#989da5; stroke:none;" d="M308.667 120.333L309.333 120.667L308.667 120.333M297 121L298 122L297 121M223 122L224 123L223 122z"/>
<path style="fill:#28303f; stroke:none;" d="M224 122C234.356 139.898 265.365 141.527 283 137.575C289.743 136.064 299.237 133.153 303 127C291.123 128.754 280.294 133.709 268 133.946C252.266 134.249 238.115 127.877 224 122z"/>
<path style="fill:#989da5; stroke:none;" d="M225 122L226 123L225 122M295 122L296 123L295 122M227 123L228 124L227 123M298 123L298 124L305 124L298 123M225 124L226 125L225 124M229 124L230 125L229 124M306 124L307 125L306 124M226 125L227 126L226 125M231 125L232 126L231 125M227 126L228 127L227 126M233.667 126.333L234.333 126.667L233.667 126.333M301.667 126.333L302.333 126.667L301.667 126.333M310.333 126.667L310.667 127.333L310.333 126.667M236 127L237 128L236 127M298.667 127.333L299.333 127.667L298.667 127.333z"/>
<path style="fill:#ff9d60; stroke:none;" d="M119 128L120 129L119 128z"/>
<path style="fill:#989da5; stroke:none;" d="M230 128L231 129L230 128M238.667 128.333L239.333 128.667L238.667 128.333M296 128L297 129L296 128M306.333 128.667L306.667 129.333L306.333 128.667z"/>
<path style="fill:#ff9d60; stroke:none;" d="M118 129L119 130L118 129z"/>
<path style="fill:#989da5; stroke:none;" d="M241.667 129.333L242.333 129.667L241.667 129.333M292.667 129.333L293.333 129.667L292.667 129.333M301 129L302 130L301 129M309 129L310 130L309 129M233 130L234 131L233 130M245.667 130.333L246.333 130.667L245.667 130.333M289.667 130.333L290.333 130.667L289.667 130.333M300 130L301 131L300 130z"/>
<path style="fill:#ff9d60; stroke:none;" d="M117 131L118 132L117 131z"/>
<path style="fill:#989da5; stroke:none;" d="M235 131L236 132L235 131M249.667 131.333L250.333 131.667L249.667 131.333M285.667 131.333L286.333 131.667L285.667 131.333M298 131L299 132L298 131M305.333 131.667L305.667 132.333L305.333 131.667M308 131L309 132L308 131z"/>
<path style="fill:#ff9d60; stroke:none;" d="M116 132L117 133L116 132z"/>
<path style="fill:#989da5; stroke:none;" d="M254 132L254 133L257 133L254 132M278 132L278 133L282 133L278 132M296 132L297 133L296 132M238.667 133.333L239.333 133.667L238.667 133.333M262 133L262 134L273 134L262 133M294 133L295 134L294 133M307 133L308 134L307 133z"/>
<path style="fill:#ff9d60; stroke:none;" d="M115 134L116 135L115 134z"/>
<path style="fill:#989da5; stroke:none;" d="M241 134L242 135L241 134M292 134L293 135L292 134M304 134L305 135L304 134M306 134L307 135L306 134M243 135L244 136L243 135M290 135L291 136L290 135M305 135L306 136L305 135z"/>
<path style="fill:#ff9d60; stroke:none;" d="M114 136L115 137L114 136z"/>
<path style="fill:#989da5; stroke:none;" d="M246 136L247 137L246 136M287 136L288 137L287 136M249.667 137.333L250.333 137.667L249.667 137.333M283.667 137.333L284.333 137.667L283.667 137.333z"/>
<path style="fill:#ff9d60; stroke:none;" d="M113.333 138.667L113.667 139.333L113.333 138.667z"/>
<path style="fill:#989da5; stroke:none;" d="M253.667 138.333L254.333 138.667L253.667 138.333M278 138L278 139L281 139L278 138M258 139L258 140L265 140L258 139M269 139L269 140L275 140L269 139z"/>
<path style="fill:#ff9d60; stroke:none;" d="M112.333 141.667L112.667 142.333L112.333 141.667z"/>
<path style="fill:#989da5; stroke:none;" d="M180 150L181 150L187 145C183.282 144.249 181.512 146.859 180 150z"/>
<path style="fill:#28303f; stroke:none;" d="M187.004 144.573C175.585 147.894 180 170.813 180 180C180 190.338 176.069 210.813 181.179 219.891C183.056 223.225 186.482 223.874 190 223.985C198.686 224.257 212.853 226.529 220.981 223.397C230.159 219.86 226 195.111 226 187C226 176.994 229.854 156.88 224.821 148.133C220.67 140.92 194.187 142.483 187.004 144.573z"/>
<path style="fill:#989da5; stroke:none;" d="M220.667 144.333L221.333 144.667L220.667 144.333z"/>
<path style="fill:#ff9d60; stroke:none;" d="M111 145L111 148L112 148L111 145z"/>
<path style="fill:#989da5; stroke:none;" d="M223 145L224 146L223 145M224 146L225 147L224 146M225.333 147.667L225.667 148.333L225.333 147.667M226 149L226 191L227 191C227 179.043 230.611 159.988 226 149z"/>
<path style="fill:#ff9d60; stroke:none;" d="M110 153L110 156L111 156L110 153z"/>
<path style="fill:#989da5; stroke:none;" d="M482 156L480 159L482 156z"/>
<path style="fill:#28303f; stroke:none;" d="M483.148 157.032C478.044 159.948 480 170.093 480 175L480 226C480 230.312 479.451 243.859 487.853 239.727C492.996 237.197 491 226.661 491 222L491 170C491 165.567 491.706 152.144 483.148 157.032z"/>
<path style="fill:#989da5; stroke:none;" d="M489 156L490 157L489 156M490 157L491 158L490 157M491 159L491 237L492 237L492 183L491 159z"/>
<path style="fill:#ff9d60; stroke:none;" d="M111 161L111 164L112 164L111 161z"/>
<path style="fill:#989da5; stroke:none;" d="M202 161L202 162L206 162L202 161M309 161L309 162L353 162C341.537 157.19 321.48 161 309 161z"/>
<path style="fill:#fe6b1b; stroke:none;" d="M353 161L353 162L374 162L353 161z"/>
<path style="fill:#989da5; stroke:none;" d="M199 162L200 163L199 162z"/>
<path style="fill:#f7f8f9; stroke:none;" d="M200.001 162.653C185.09 167.328 193.242 189.032 207.996 184.347C222.384 179.778 213.994 158.266 200.001 162.653z"/>
<path style="fill:#989da5; stroke:none;" d="M208 162L209 163L208 162M307 162L305 165L307 162z"/>
<path style="fill:#28303f; stroke:none;" d="M308.148 163.028C302.596 166.315 302.853 187.891 309.059 190.397C313.773 192.3 320.982 191 326 191L364 191C368.982 191 378.289 192.765 382.566 189.821C387.092 186.706 386.936 165.155 381.772 162.742C377.268 160.639 369.873 162 365 162L326 162C321.012 162 312.576 160.406 308.148 163.028z"/>
<path style="fill:#989da5; stroke:none;" d="M382 162L383 163L382 162M197 163L198 164L197 163M210 163L211 164L210 163M195 164L196 165L195 164M211 164L212 165L211 164M384 164L385 165L384 164M194 165L195 166L194 165M212 165L213 166L212 165z"/>
<path style="fill:#ff9d60; stroke:none;" d="M112 166L113 167L112 166z"/>
<path style="fill:#989da5; stroke:none;" d="M213 166L214 167L213 166M192 168L193 169L192 168z"/>
<path style="fill:#ff9d60; stroke:none;" d="M113 169L114 170L113 169z"/>
<path style="fill:#989da5; stroke:none;" d="M201 169L200 178L201 178L201 170L204 171L201 169z"/>
<path style="fill:#28303f; stroke:none;" d="M201 170L201 178L208 175L208 173L201 170z"/>
<path style="fill:#989da5; stroke:none;" d="M215.333 170.667L215.667 171.333L215.333 170.667z"/>
<path style="fill:#ff9d60; stroke:none;" d="M114 171L115 172L114 171z"/>
<path style="fill:#989da5; stroke:none;" d="M191 171L191 176L192 176L191 171M205 171L206 172L205 171M207 172L208 173L207 172M208.333 173.667L208.667 174.333L208.333 173.667M318.603 174.046C315.447 176.437 319.215 181.365 322.397 178.954C325.553 176.563 321.785 171.635 318.603 174.046z"/>
<path style="fill:#ff9d60; stroke:none;" d="M115 174L116 175L115 174z"/>
<path style="fill:#989da5; stroke:none;" d="M330 175L330 176L374 175C364.422 170.981 339.943 172.061 330 175z"/>
<path style="fill:#ff9d60; stroke:none;" d="M116 175L117 176L116 175z"/>
<path style="fill:#989da5; stroke:none;" d="M206 175L207 176L206 175z"/>
<path style="fill:#f7f8f9; stroke:none;" d="M330 176L330 177L375 178L375 175L330 176z"/>
<path style="fill:#989da5; stroke:none;" d="M215.333 176.667L215.667 177.333L215.333 176.667z"/>
<path style="fill:#ff9d60; stroke:none;" d="M117 177L118 178L117 177z"/>
<path style="fill:#989da5; stroke:none;" d="M203 177L204 178L203 177M330 177L331 178L330 177M192 178L193 179L192 178M331 178L331 179L374 179C362.774 174.29 343.219 178 331 178M214 179L215 180L214 179z"/>
<path style="fill:#ff9d60; stroke:none;" d="M119 180L120 181L119 180z"/>
<path style="fill:#989da5; stroke:none;" d="M193 180L194 181L193 180z"/>
<path style="fill:#ff9d60; stroke:none;" d="M120 181L121 182L120 181z"/>
<path style="fill:#989da5; stroke:none;" d="M194 181L195 182L194 181z"/>
<path style="fill:#ff9d60; stroke:none;" d="M121 182L122 183L121 182z"/>
<path style="fill:#989da5; stroke:none;" d="M195 182L196 183L195 182M196 183L197 184L196 183M210 183L211 184L210 183M198 184L199 185L198 184M208.667 184.333L209.333 184.667L208.667 184.333M200 185L200 186L207 186L200 185M305 188L306 189L305 188M384 188L385 189L384 188M306 189L307 190L306 189z"/>
<path style="fill:#ff9d60; stroke:none;" d="M227 190L227 191L250 191L227 190z"/>
<path style="fill:#989da5; stroke:none;" d="M250 190L250 191L285 191L250 190M307 190L308 191L307 190M382 190L383 191L382 190z"/>
<path style="fill:#28303f; stroke:none;" d="M250 191L250 214C245.619 214 239.22 212.825 235.148 214.603C230.802 216.502 231.764 222.503 236.059 223.682C250.249 227.579 270.255 224 285 224C289.363 224 300.366 226.029 302.377 220.853C306.202 211.008 289.073 215.866 285.603 212.397C281.707 208.5 283.85 195.831 285 191L250 191z"/>
<path style="fill:#fe6b1b; stroke:none;" d="M309 191L309 192L322 192L309 191z"/>
<path style="fill:#ff9d60; stroke:none;" d="M285 192L286 193L285 192M306 195L305 197L306 195z"/>
<path style="fill:#28303f; stroke:none;" d="M309.059 195.742C302.846 198.342 302.505 220.631 308.148 223.972C312.576 226.594 321.012 225 326 225L365 225C369.756 225 377.622 226.477 381.852 223.972C387.495 220.631 387.154 198.342 380.941 195.742C375.689 193.544 367.61 195 362 195L326 195C320.926 195 313.82 193.75 309.059 195.742z"/>
<path style="fill:#989da5; stroke:none;" d="M381 195L382 196L381 195z"/>
<path style="fill:#fe6b1b; stroke:none;" d="M383 196L384 197L383 196M384 197L385 198L384 197z"/>
<path style="fill:#ff9d60; stroke:none;" d="M304 198L305 199L304 198z"/>
<path style="fill:#989da5; stroke:none;" d="M193 202L214 201C209.629 197.688 196.202 197.062 193 202z"/>
<path style="fill:#f7f8f9; stroke:none;" d="M194 200L194 201L213 201L194 200z"/>
<path style="fill:#989da5; stroke:none;" d="M319.299 207.176C315.791 208.894 317.757 214.924 321.701 213.338C325.355 211.868 322.968 205.379 319.299 207.176z"/>
<path style="fill:#f7f8f9; stroke:none;" d="M330 209L330 211C341.259 214.328 363.741 214.328 375 211L375 209C363.741 205.672 341.259 205.672 330 209z"/>
<path style="fill:#989da5; stroke:none;" d="M374 208L375 209L374 208M330 211L331 212L330 211M374 211L375 212L374 211M331 212L331 213L374 213C362.774 208.29 343.219 212 331 212M200 214L200 216L207 216L207 214L200 214z"/>
<path style="fill:#fe6b1b; stroke:none;" d="M384 222L385 223L384 222z"/>
<path style="fill:#989da5; stroke:none;" d="M383 223L384 224L383 223z"/>
<path style="fill:#fe6b1b; stroke:none;" d="M382 224L383 225L382 224M378 230L359 250C364.875 245.861 376.28 237.094 378 230z"/>
<path style="fill:#989da5; stroke:none;" d="M480 237L481 238L480 237M490 238L491 239L490 238M489 239L490 240L489 239M483.667 240.333L484.333 240.667L483.667 240.333M487 240L488 241L487 240M485 241L486 267L487 267C486.706 259.676 489.522 246.969 485 241M487 267L487 270L488 270L487 267M488.333 270.667L488.667 271.333L488.333 270.667M489.333 272.667L489.667 273.333L489.333 272.667M490 274L492 277L490 274M492 277L498 283L492 277M498 283L501 285L498 283M501 285L501 286L507 288L507 287L501 285M507 288L507 289L510 289L507 288M510 289L510 290L550 291C539.974 286.793 521.06 289.228 510 289z"/>
<path style="fill:#ff9d60; stroke:none;" d="M244 305L245 306L244 305M245 306L246 307L245 306M246 307L247 308L246 307M247 308L248 309L247 308z"/>
</svg>
