<?xml version="1.0" standalone="yes"?>
<svg xmlns="http://www.w3.org/2000/svg" width="800" height="450">
<path style="fill:#238ce7; stroke:none;" d="M0 0L0 138L128 138C134.156 138 141.946 139.277 147.91 137.682C152.145 136.55 154.278 131.456 159 131.457C163.036 131.457 167.722 135.827 167.338 139.999C166.991 143.774 162.766 147.543 159 147.543C154.02 147.543 152.553 142.375 148.625 140.603C143.274 138.189 133.81 140 128 140L0 140L0 450L649 450C638.596 435.231 622.776 422.776 610 410C604.455 404.455 595.689 399.328 600 391L593 392L596 393L596 392C592.242 385.777 602.609 374.297 597 369L597 368C601.763 360.689 596.594 351.705 596.054 343.985C594.636 323.732 591.522 302.297 593 282L592 282L592 284L591 284L588 212L587 212L586 363L585 363C582.909 355.551 572.551 345.049 565 343L566 345L563 344L564 346L563 346C554.439 343.469 543.901 345 535 345L479 345C470.949 345 456.248 347.819 449.108 343.821C440.017 338.731 440.613 304.018 451.015 300.653C460.486 297.589 474.081 300 484 300L554 300L554 299L516 299L516 298L523 298L523 297C521.04 296.347 520.446 296 523 296L523 295L493 295L493 294L562 294L562 293L413 293C413 300.382 409.423 320.582 414.028 326.397C419.015 332.693 445.062 321.192 440.562 337.96C438.194 346.782 423.786 344 417 344L362 344C354.947 344 344.651 345.894 338.005 343.397C331.267 340.865 330.24 331.753 336.954 328.508C343.112 325.533 353.364 327.543 360 328L361 293L324 292C324 303.983 328.516 327.66 321.991 337.956C318.616 343.28 312.763 343.971 307 343.999C294.094 344.062 264.113 349.57 255.653 337.957C252.107 333.09 253 326.678 253 321L253 287L253 166C253 149.65 249.036 128.982 261.093 116.004C278.171 97.6222 311.198 104 334 104L334 103L317 103L317 102L326 102L282 57L264 40.777L249 44L251 41L249 45L246 44L247 46L246 46L243 42L248 41L248 40C239.918 41.5851 236.39 36.3904 231 31C222.732 22.7324 209.495 3.19989 198 0.317902C184.046 -3.18063 165.405 0 151 0L49 0L48 90L47 90L47 0L46 0L46 5L45 5L45 0L44 0L44 4L43 4L42 0L41 3C30.9123 -3.65829 11.8066 0 0 0z"/>
<path style="fill:#3cb0f3; stroke:none;" d="M37 0L37 1L41 3L37 0M42 0L43 4L44 4L42 0M45 0L45 5L46 5L45 0M47 0L47 90L48 90L49 0L47 0M200 0C208.339 11.8381 220.764 21.7648 231 32C236.476 37.476 239.906 42.4703 248 40L248 41L243 42L247 46L246 44L249 45L251 41L249 44L264 41.3279L283 59L326 102L317 102L317 103L334 103L334 104L285 104L285 105L450 105C470.834 105 497.715 99.654 511.699 119.004C520.126 130.665 518 146.426 518 160L518 248L549 248C553.318 248 559.011 247.075 562.956 249.179C571.801 253.897 570.935 286.997 562.956 292.258C557.623 295.773 548.117 294 542 294L493 294L493 295L523 295L523 296C520.471 296.506 520.471 296.494 523 297L523 298L516 298L516 299C527.821 299 540.257 297.9 552 299.285C555.69 299.721 560.767 299.383 563.891 301.603C572.482 307.709 568.732 335.243 566 344C572.871 345.926 582.038 356.649 585 363L586 363L587 212L588 212L591 284L592 284L592 282L593 282L596.054 344.961L597 368L597 369L596 392L596 393L593 392L594 395L600 391C594.837 398.298 601.826 402.826 607 408L640 441C644.536 445.534 650.357 453.025 657 448C664.207 452.798 667.629 439.09 669.254 434C674.901 416.313 674 395.404 674 377L675 377L675 408L676 408L676 400L677 400L712 435L728 449.142L752 450L752 424L800 424L800 423L744 424L744 423L746 423L746 422L741 421L737 422L738 420L735 421L733 420L733 418L731 419L731 417L729 418L726 416L725 411L729 413C731.413 417.251 735.243 418.645 740 418L744 419L751 420L751 421L748 421L748 422L800 422L800 421L752 421L753 260L754 260L761 370L763 369C763.007 380.155 765.834 390.958 767.155 402C767.721 406.725 767.087 412.025 772 414L772 407L773 407C773.02 412.538 773.5 415.798 779 418L779 419L773 419L773 420L800 420L800 0L200 0z"/>
<path style="fill:#e9d78b; stroke:none;" d="M707 83C707 128.386 711 175.803 706.941 220.985C706.297 228.158 698.123 229.477 698.004 238C697.532 271.814 694.348 308.415 698.109 342C698.797 348.149 704.292 348.443 706.397 353.224C709.007 359.153 707 369.563 707 376L708 376C708 369.188 706.598 360.641 708.318 354.039C709.546 349.323 714.309 347.204 714.891 342C717.726 316.679 715 289.493 715 264C715 254.361 719.609 230.339 708 227L708 105C708 99.174 706.77 91.7415 708.318 86.1042C709.997 79.9886 721.12 72.8321 709.956 67.1937C699.267 61.7953 692.846 81.4095 707 83z"/>
<path style="fill:#f9fafb; stroke:none;" d="M706 83L706 226L707 226L707 126C707 113.794 710.707 94.2177 706 83z"/>
<path style="fill:#3cb0f3; stroke:none;" d="M277 105L277 106L280 106L277 105z"/>
<path style="fill:#e9d78b; stroke:none;" d="M280 105L281 106L280 105z"/>
<path style="fill:#f9fafb; stroke:none;" d="M253 211C276.988 207.457 322.689 198.139 337.468 224C341.876 231.715 341 240.464 341 249L341 292L435 292C432.343 285.488 431.003 280.066 431 273C430.998 266.979 430.495 260.77 432.549 255C443.593 223.969 491.335 234 517 234L517 152C517 138.11 518.696 124.686 507.96 114.043C494.209 100.412 469.652 105 452 105L316 105C298.168 105 275.109 100.849 261.619 115.289C252.574 124.97 253 137.623 253 150L253 211z"/>
<path style="fill:#e9d78b; stroke:none;" d="M490.667 105.333L491.333 105.667L490.667 105.333z"/>
<path style="fill:#3cb0f3; stroke:none;" d="M274 106L275 107L274 106z"/>
<path style="fill:#e9d78b; stroke:none;" d="M275 106L276 107L275 106M495 106L496 107L495 106z"/>
<path style="fill:#3cb0f3; stroke:none;" d="M271 107L272 108L271 107z"/>
<path style="fill:#e9d78b; stroke:none;" d="M272 107L273 108L272 107z"/>
<path style="fill:#3cb0f3; stroke:none;" d="M269 108L270 109L269 108z"/>
<path style="fill:#e9d78b; stroke:none;" d="M270 108L271 109L270 108M500 108L501 109L500 108z"/>
<path style="fill:#3cb0f3; stroke:none;" d="M268 109L269 110L268 109M266 110L267 111L266 110M265 111L266 112L265 111z"/>
<path style="fill:#e9d78b; stroke:none;" d="M264 112L265 113L264 112M263 113L264 114L263 113M507 113L508 114L507 113M508 114L509 115L508 114M261 115L262 116L261 115M260 116L261 117L260 116z"/>
<path style="fill:#3cb0f3; stroke:none;" d="M259 117L260 118L259 117M258 118L259 119L258 118z"/>
<path style="fill:#e9d78b; stroke:none;" d="M512 119L513 120L512 119z"/>
<path style="fill:#3cb0f3; stroke:none;" d="M257 120L258 121L257 120M256 121L257 122L256 121z"/>
<path style="fill:#e9d78b; stroke:none;" d="M256 122L257 123L256 122z"/>
<path style="fill:#3cb0f3; stroke:none;" d="M255.333 123.667L255.667 124.333L255.333 123.667z"/>
<path style="fill:#e9d78b; stroke:none;" d="M515 125L516 126L515 125z"/>
<path style="fill:#3cb0f3; stroke:none;" d="M254 126L255 127L254 126z"/>
<path style="fill:#e9d78b; stroke:none;" d="M254 127L255 128L254 127M516 128L517 129L516 128z"/>
<path style="fill:#3cb0f3; stroke:none;" d="M253 129L253 132L254 132L253 129M156 131L157 132L156 131z"/>
<path style="fill:#e9d78b; stroke:none;" d="M157.015 131.696C146.582 134.452 151.668 149.492 161.956 146.566C171.196 143.937 166.265 129.252 157.015 131.696z"/>
<path style="fill:#3cb0f3; stroke:none;" d="M161 131L162 132L161 131M154 132L155 133L154 132M163 132L164 133L163 132z"/>
<path style="fill:#e9d78b; stroke:none;" d="M253.333 132.667L253.667 133.333L253.333 132.667M517 134L517 234L472 234C461.162 234 451.032 233.395 442.015 240.529C430.784 249.414 430.979 262.032 431 275C431.008 279.769 430.771 286.852 434.652 290.397C437.578 293.069 443.346 292 447 292C444.102 286.234 444 281.354 444 275C444 267.908 441.676 255.827 447.394 250.434C451.889 246.195 461.316 248 467 248L518 248L518 169L517 134z"/>
<path style="fill:#3cb0f3; stroke:none;" d="M151 135L152 136L151 135M166 135L167 136L166 135M150 137C135.854 141.181 116.757 138 102 138L0 138L0 139L115 139L142 139L150 137M167 137L167 142L168 142L167 137z"/>
<path style="fill:#f9fafb; stroke:none;" d="M0 139L0 140L151 140C139.306 135.093 118.73 139 106 139L0 139z"/>
<path style="fill:#3cb0f3; stroke:none;" d="M150.333 140.667L150.667 141.333L150.333 140.667M151 143L152 144L151 143M166 143L167 144L166 143M152 144L153 145L152 144M153 145L154 146L153 145M154 146L155 147L154 146M163 146L164 147L163 146M156 147L156 148L162 148L156 147z"/>
<path style="fill:#e9d78b; stroke:none;" d="M440.667 184.333L441.333 184.667L440.667 184.333z"/>
<path style="fill:#3cb0f3; stroke:none;" d="M442.667 184.333L443.333 184.667L442.667 184.333z"/>
<path style="fill:#238ce7; stroke:none;" d="M444.667 184.333L445.333 184.667L444.667 184.333z"/>
<path style="fill:#3cb0f3; stroke:none;" d="M446.667 184.333L447.333 184.667L446.667 184.333z"/>
<path style="fill:#e9d78b; stroke:none;" d="M448.667 184.333L449.333 184.667L448.667 184.333M435 185L436 186L435 185z"/>
<path style="fill:#3cb0f3; stroke:none;" d="M436 185L437 186L436 185z"/>
<path style="fill:#238ce7; stroke:none;" d="M437 185L438 186L437 185z"/>
<path style="fill:#283040; stroke:none;" d="M429 189L429 190C433.987 189.997 445.06 186.898 447.356 193.133C449.085 197.828 444.803 204.334 444 209C448.334 205.874 459.166 191.544 452.397 186.179C446.842 181.777 434.229 186.056 429 189z"/>
<path style="fill:#3cb0f3; stroke:none;" d="M452 185L453 186L452 185M433 186L434 187L433 186z"/>
<path style="fill:#283040; stroke:none;" d="M320 187C323.591 194.087 332.288 198.602 339 202.421C361.25 215.078 388.451 217.592 413 211.116C422.422 208.63 437.449 204.313 442 195C427.203 195.759 413.278 204.291 398 204.961C378.56 205.813 360.35 203.092 342 196.655C334.422 193.997 327.711 189.221 320 187z"/>
<path style="fill:#3cb0f3; stroke:none;" d="M322 187L323 188L322 187z"/>
<path style="fill:#e9d78b; stroke:none;" d="M431 187L432 188L431 187M454 187L454 192L455 192L454 187z"/>
<path style="fill:#3cb0f3; stroke:none;" d="M324 188L325 189L324 188z"/>
<path style="fill:#e9d78b; stroke:none;" d="M429 188L430 189L429 188M320 189L321 190L320 189M326 189L327 190L326 189z"/>
<path style="fill:#238ce7; stroke:none;" d="M438.667 189.333L439.333 189.667L438.667 189.333z"/>
<path style="fill:#3cb0f3; stroke:none;" d="M440 189L440 190L443 190L440 189z"/>
<path style="fill:#238ce7; stroke:none;" d="M443 189L444 190L443 189z"/>
<path style="fill:#e9d78b; stroke:none;" d="M328 190L329 191L328 190M429 190L430 191L429 190z"/>
<path style="fill:#3cb0f3; stroke:none;" d="M430 190L431 191L430 190z"/>
<path style="fill:#e9d78b; stroke:none;" d="M431.667 190.333L432.333 190.667L431.667 190.333M446 190L447 191L446 190z"/>
<path style="fill:#238ce7; stroke:none;" d="M323 191L324 192L323 191z"/>
<path style="fill:#e9d78b; stroke:none;" d="M330 191L331 192L330 191M447 191L448 192L447 191z"/>
<path style="fill:#3cb0f3; stroke:none;" d="M324 192L325 193L324 192z"/>
<path style="fill:#e9d78b; stroke:none;" d="M332 192L333 193L332 192M325 193L326 194L325 193z"/>
<path style="fill:#3cb0f3; stroke:none;" d="M334 193L335 194L334 193z"/>
<path style="fill:#e9d78b; stroke:none;" d="M326 194L327 195L326 194z"/>
<path style="fill:#238ce7; stroke:none;" d="M336 194L337 195L336 194z"/>
<path style="fill:#e9d78b; stroke:none;" d="M337 194L338 195L337 194M438 194L439 195L438 194z"/>
<path style="fill:#238ce7; stroke:none;" d="M439.667 194.333L440.333 194.667L439.667 194.333z"/>
<path style="fill:#e9d78b; stroke:none;" d="M441 194L442 195L441 194M447.333 194.667L447.667 195.333L447.333 194.667z"/>
<path style="fill:#3cb0f3; stroke:none;" d="M453 194L454 195L453 194z"/>
<path style="fill:#238ce7; stroke:none;" d="M328 195L329 196L328 195M338 195L339 196L338 195z"/>
<path style="fill:#e9d78b; stroke:none;" d="M339 195L340 196L339 195M435 195L436 196L435 195z"/>
<path style="fill:#3cb0f3; stroke:none;" d="M436 195L437 196L436 195z"/>
<path style="fill:#e9d78b; stroke:none;" d="M453 195L454 196L453 195M329 196L330 197L329 196z"/>
<path style="fill:#238ce7; stroke:none;" d="M341 196L342 197L341 196z"/>
<path style="fill:#e9d78b; stroke:none;" d="M342 196L343 197L342 196M433 196L434 197L433 196z"/>
<path style="fill:#238ce7; stroke:none;" d="M434 196L435 197L434 196z"/>
<path style="fill:#e9d78b; stroke:none;" d="M442 196L443 197L442 196z"/>
<path style="fill:#3cb0f3; stroke:none;" d="M447 196L448 197L447 196z"/>
<path style="fill:#e9d78b; stroke:none;" d="M330 197L331 198L330 197z"/>
<path style="fill:#3cb0f3; stroke:none;" d="M344 197L345 198L344 197z"/>
<path style="fill:#e9d78b; stroke:none;" d="M430 197L431 198L430 197z"/>
<path style="fill:#3cb0f3; stroke:none;" d="M431 197L432 198L431 197z"/>
<path style="fill:#238ce7; stroke:none;" d="M441 197L442 198L441 197M447 197L448 198L447 197M452 197L453 198L452 197z"/>
<path style="fill:#3cb0f3; stroke:none;" d="M332 198L333 199L332 198z"/>
<path style="fill:#e9d78b; stroke:none;" d="M347.667 198.333L348.333 198.667L347.667 198.333M427 198L428 199L427 198z"/>
<path style="fill:#3cb0f3; stroke:none;" d="M428 198L429 199L428 198M440 198L441 199L440 198z"/>
<path style="fill:#e9d78b; stroke:none;" d="M452 198L453 199L452 198M333 199L334 200L333 199z"/>
<path style="fill:#3cb0f3; stroke:none;" d="M350 199L351 200L350 199z"/>
<path style="fill:#e9d78b; stroke:none;" d="M351 199L352 200L351 199M424 199L425 200L424 199z"/>
<path style="fill:#238ce7; stroke:none;" d="M425 199L426 200L425 199z"/>
<path style="fill:#e9d78b; stroke:none;" d="M439 199L440 200L439 199M446 199L447 200L446 199z"/>
<path style="fill:#3cb0f3; stroke:none;" d="M335 200L336 201L335 200z"/>
<path style="fill:#238ce7; stroke:none;" d="M353 200L354 201L353 200z"/>
<path style="fill:#e9d78b; stroke:none;" d="M354.667 200.333L355.333 200.667L354.667 200.333M420.667 200.333L421.333 200.667L420.667 200.333z"/>
<path style="fill:#238ce7; stroke:none;" d="M422 200L423 201L422 200z"/>
<path style="fill:#3cb0f3; stroke:none;" d="M437 200L438 201L437 200z"/>
<path style="fill:#238ce7; stroke:none;" d="M446 200L447 201L446 200z"/>
<path style="fill:#e9d78b; stroke:none;" d="M451 200L452 201L451 200z"/>
<path style="fill:#238ce7; stroke:none;" d="M337 201L338 202L337 201M357 201L358 202L357 201z"/>
<path style="fill:#e9d78b; stroke:none;" d="M358.667 201.333L359.333 201.667L358.667 201.333M416.667 201.333L417.333 201.667L416.667 201.333z"/>
<path style="fill:#238ce7; stroke:none;" d="M418 201L419 202L418 201z"/>
<path style="fill:#e9d78b; stroke:none;" d="M436 201L437 202L436 201M338 202L339 203L338 202z"/>
<path style="fill:#238ce7; stroke:none;" d="M339 202L340 203L339 202M361 202L362 203L361 202z"/>
<path style="fill:#3cb0f3; stroke:none;" d="M362 202L363 203L362 202z"/>
<path style="fill:#e9d78b; stroke:none;" d="M363.667 202.333L364.333 202.667L363.667 202.333M411.667 202.333L412.333 202.667L411.667 202.333z"/>
<path style="fill:#3cb0f3; stroke:none;" d="M413 202L414 203L413 202z"/>
<path style="fill:#238ce7; stroke:none;" d="M414 202L415 203L414 202z"/>
<path style="fill:#e9d78b; stroke:none;" d="M434 202L435 203L434 202M445 202L446 203L445 202M450 202L451 203L450 202M340 203L341 204L340 203z"/>
<path style="fill:#238ce7; stroke:none;" d="M367 203L368 204L367 203z"/>
<path style="fill:#3cb0f3; stroke:none;" d="M368 203L369 204L368 203z"/>
<path style="fill:#e9d78b; stroke:none;" d="M369.667 203.333L370.333 203.667L369.667 203.333M405 203L405 204L408 204L405 203z"/>
<path style="fill:#238ce7; stroke:none;" d="M408 203L409 204L408 203z"/>
<path style="fill:#3cb0f3; stroke:none;" d="M432 203L433 204L432 203z"/>
<path style="fill:#238ce7; stroke:none;" d="M445 203L446 204L445 203z"/>
<path style="fill:#e9d78b; stroke:none;" d="M342 204L343 205L342 204z"/>
<path style="fill:#238ce7; stroke:none;" d="M374.667 204.333L375.333 204.667L374.667 204.333z"/>
<path style="fill:#3cb0f3; stroke:none;" d="M376 204L377 205L376 204z"/>
<path style="fill:#e9d78b; stroke:none;" d="M377 204L377 205L383 205L377 204M395 204L395 205L399 205L395 204z"/>
<path style="fill:#3cb0f3; stroke:none;" d="M399.667 204.333L400.333 204.667L399.667 204.333z"/>
<path style="fill:#238ce7; stroke:none;" d="M401.667 204.333L402.333 204.667L401.667 204.333z"/>
<path style="fill:#3cb0f3; stroke:none;" d="M430 204L431 205L430 204z"/>
<path style="fill:#e9d78b; stroke:none;" d="M449 204L450 205L449 204M344 205L345 206L344 205z"/>
<path style="fill:#3cb0f3; stroke:none;" d="M428 205L429 206L428 205M444 205L445 206L444 205M448 205L449 206L448 205z"/>
<path style="fill:#e9d78b; stroke:none;" d="M346 206L347 207L346 206z"/>
<path style="fill:#238ce7; stroke:none;" d="M347 206L348 207L347 206z"/>
<path style="fill:#e9d78b; stroke:none;" d="M426 206L427 207L426 206z"/>
<path style="fill:#3cb0f3; stroke:none;" d="M447 206L448 207L447 206z"/>
<path style="fill:#e9d78b; stroke:none;" d="M348 207L349 208L348 207z"/>
<path style="fill:#3cb0f3; stroke:none;" d="M349 207L350 208L349 207z"/>
<path style="fill:#238ce7; stroke:none;" d="M423 207L424 208L423 207z"/>
<path style="fill:#e9d78b; stroke:none;" d="M424 207L425 208L424 207M443.333 207.667L443.667 208.333L443.333 207.667z"/>
<path style="fill:#238ce7; stroke:none;" d="M446 207L447 208L446 207z"/>
<path style="fill:#e9d78b; stroke:none;" d="M253 211L253 229L254 229C256.558 225.454 259.565 222.413 264 221.394C277.418 218.311 298.333 219.456 312 221.185C316.929 221.809 321.225 224.452 323.427 229.004C331.813 246.333 319.933 270.715 325.318 288.852C326.828 293.94 336.901 292 341 292L341 249C341 240.569 341.977 231.762 338.004 224C325.231 199.05 275.417 205.814 253 211z"/>
<path style="fill:#3cb0f3; stroke:none;" d="M351 208L352 209L351 208M421 208L422 209L421 208z"/>
<path style="fill:#e9d78b; stroke:none;" d="M422 208L423 209L422 208z"/>
<path style="fill:#3cb0f3; stroke:none;" d="M445 208L446 209L445 208z"/>
<path style="fill:#e9d78b; stroke:none;" d="M353.667 209.333L354.333 209.667L353.667 209.333z"/>
<path style="fill:#3cb0f3; stroke:none;" d="M418 209L419 210L418 209z"/>
<path style="fill:#e9d78b; stroke:none;" d="M419 209L420 210L419 209z"/>
<path style="fill:#3cb0f3; stroke:none;" d="M357 210L358 211L357 210z"/>
<path style="fill:#238ce7; stroke:none;" d="M358 210L359 211L358 210M415 210L416 211L415 210z"/>
<path style="fill:#e9d78b; stroke:none;" d="M416 210L417 211L416 210M359.667 211.333L360.333 211.667L359.667 211.333z"/>
<path style="fill:#238ce7; stroke:none;" d="M361 211L362 212L361 211M411 211L412 212L411 211z"/>
<path style="fill:#e9d78b; stroke:none;" d="M412.667 211.333L413.333 211.667L412.667 211.333M364 212L365 213L364 212z"/>
<path style="fill:#3cb0f3; stroke:none;" d="M365 212L366 213L365 212z"/>
<path style="fill:#238ce7; stroke:none;" d="M366 212L367 213L366 212M407 212L408 213L407 212z"/>
<path style="fill:#e9d78b; stroke:none;" d="M408.667 212.333L409.333 212.667L408.667 212.333M368.667 213.333L369.333 213.667L368.667 213.333z"/>
<path style="fill:#3cb0f3; stroke:none;" d="M370 213L371 214L370 213z"/>
<path style="fill:#238ce7; stroke:none;" d="M371 213L372 214L371 213M401 213L402 214L401 213z"/>
<path style="fill:#3cb0f3; stroke:none;" d="M402 213L403 214L402 213z"/>
<path style="fill:#e9d78b; stroke:none;" d="M403.667 213.333L404.333 213.667L403.667 213.333M374 214L374 215L377 215L374 214z"/>
<path style="fill:#3cb0f3; stroke:none;" d="M377.667 214.333L378.333 214.667L377.667 214.333z"/>
<path style="fill:#238ce7; stroke:none;" d="M379 214L379 215L383 215L379 214M391 214L391 215L394 215L391 214z"/>
<path style="fill:#3cb0f3; stroke:none;" d="M394.667 214.333L395.333 214.667L394.667 214.333z"/>
<path style="fill:#e9d78b; stroke:none;" d="M396 214L396 215L399 215L396 214z"/>
<path style="fill:#3cb0f3; stroke:none;" d="M262 221L263 222L262 221z"/>
<path style="fill:#238ce7; stroke:none;" d="M263.667 221.333L264.333 221.667L263.667 221.333z"/>
<path style="fill:#283040; stroke:none;" d="M265 221.443C259.353 222.402 254.957 225.173 253.533 231.001C249.564 247.25 253 268.27 253 285L253 321C253 326.442 251.961 333.131 255.009 337.957C258.478 343.449 264.094 343.99 270 344C284.059 344.023 300.166 346.173 314 343.671C322.971 342.048 323.997 334.741 324 327L324 282L324 244C324 238.799 325.263 231.604 322.258 227.044C318.88 221.919 312.643 221.071 307 221.004C293.506 220.842 278.311 219.183 265 221.443z"/>
<path style="fill:#238ce7; stroke:none;" d="M313.667 221.333L314.333 221.667L313.667 221.333M317 222L318 223L317 222M258 223L259 224L258 223z"/>
<path style="fill:#3cb0f3; stroke:none;" d="M319 223L320 224L319 223z"/>
<path style="fill:#238ce7; stroke:none;" d="M320 224L321 225L320 224M321 225L322 226L321 225z"/>
<path style="fill:#3cb0f3; stroke:none;" d="M322 226L323 227L322 226z"/>
<path style="fill:#238ce7; stroke:none;" d="M518 226L518 233L519 233L518 226z"/>
<path style="fill:#3cb0f3; stroke:none;" d="M254 227L255 228L254 227M323 228L324 229L323 228M253 229L254 230L253 229M324 231L324 275C324 279.125 322.338 288 325.028 291.397C328.853 296.227 350.059 293 356 293L448 293L448 292L325 292L325 251L324 231M285 248L286 249L285 248z"/>
<path style="fill:#e9d78b; stroke:none;" d="M286.667 248.333L287.333 248.667L286.667 248.333z"/>
<path style="fill:#f9fafb; stroke:none;" d="M288 248.635C264.306 250.538 267.502 287.122 291 284.8C314.38 282.49 311.539 246.745 288 248.635z"/>
<path style="fill:#e9d78b; stroke:none;" d="M290 248L290 249L293 249L290 248z"/>
<path style="fill:#238ce7; stroke:none;" d="M293 248L294 249L293 248z"/>
<path style="fill:#3cb0f3; stroke:none;" d="M449 248L450 249L449 248z"/>
<path style="fill:#238ce7; stroke:none;" d="M450 248L451 249L450 248z"/>
<path style="fill:#283040; stroke:none;" d="M451.005 248.573C440.96 251.509 444.986 272.781 445 281C445.007 285.117 444.589 290.314 449.109 292.258C455.96 295.204 467.61 293 475 293L534 293C542.173 293 555.329 295.51 562.891 292.258C567.084 290.455 566.979 285.892 566.999 282C567.041 274.126 570.873 252.293 561.981 248.742C553.646 245.415 539.923 248 531 248L477 248C468.982 248 458.738 246.312 451.005 248.573z"/>
<path style="fill:#238ce7; stroke:none;" d="M562 248L563 249L562 248z"/>
<path style="fill:#3cb0f3; stroke:none;" d="M282 249L283 250L282 249z"/>
<path style="fill:#e9d78b; stroke:none;" d="M283 249L284 250L283 249M295 249L296 250L295 249z"/>
<path style="fill:#3cb0f3; stroke:none;" d="M296 249L297 250L296 249M447 249L448 250L447 249z"/>
<path style="fill:#238ce7; stroke:none;" d="M564 249L565 250L564 249z"/>
<path style="fill:#e9d78b; stroke:none;" d="M280 250L281 251L280 250z"/>
<path style="fill:#3cb0f3; stroke:none;" d="M298 250L299 251L298 250M446 250L447 251L446 250z"/>
<path style="fill:#238ce7; stroke:none;" d="M565 250L566 251L565 250M278 251L279 252L278 251M300 251L301 252L300 251M566 251L567 252L566 251z"/>
<path style="fill:#e9d78b; stroke:none;" d="M277 252L278 253L277 252z"/>
<path style="fill:#3cb0f3; stroke:none;" d="M301 252L302 253L301 252z"/>
<path style="fill:#e9d78b; stroke:none;" d="M276 253L277 254L276 253M302 253L303 254L302 253z"/>
<path style="fill:#238ce7; stroke:none;" d="M567 253L567 288L568 288L567 253z"/>
<path style="fill:#e9d78b; stroke:none;" d="M275 254L276 255L275 254z"/>
<path style="fill:#3cb0f3; stroke:none;" d="M303 254L304 255L303 254z"/>
<path style="fill:#238ce7; stroke:none;" d="M444 254L444 287L445 287L444 254z"/>
<path style="fill:#3cb0f3; stroke:none;" d="M274 255L275 256L274 255M304 255L305 256L304 255z"/>
<path style="fill:#238ce7; stroke:none;" d="M273 256L274 257L273 256z"/>
<path style="fill:#e9d78b; stroke:none;" d="M273 257L274 258L273 257M305 257L306 258L305 257z"/>
<path style="fill:#238ce7; stroke:none;" d="M272 258L273 259L272 258M306 258L307 259L306 258z"/>
<path style="fill:#e9d78b; stroke:none;" d="M272 259L273 260L272 259M285 259L286 260L285 259z"/>
<path style="fill:#238ce7; stroke:none;" d="M286 259L287 260L286 259z"/>
<path style="fill:#e9d78b; stroke:none;" d="M287 259L288 260L287 259M306 259L307 260L306 259z"/>
<path style="fill:#238ce7; stroke:none;" d="M271 260L272 261L271 260z"/>
<path style="fill:#283040; stroke:none;" d="M285 260L286 273L297 267L285 260z"/>
<path style="fill:#238ce7; stroke:none;" d="M288 260L289 261L288 260z"/>
<path style="fill:#e9d78b; stroke:none;" d="M289 260L290 261L289 260z"/>
<path style="fill:#238ce7; stroke:none;" d="M753 260L752 421L800 421L800 420L773 420L773 419L779 419L779 418C774.23 415.15 773.064 412.453 773 407L772 407L772 414C767.324 411.131 767.762 406.068 767.155 401C765.877 390.318 763.03 379.784 763 369L761 370L756.005 309.999L754.015 279L753 260z"/>
<path style="fill:#3cb0f3; stroke:none;" d="M271 261L272 262L271 261M290 261L291 262L290 261M307 261L308 262L307 261z"/>
<path style="fill:#e9d78b; stroke:none;" d="M271 262L272 263L271 262M292 262L293 263L292 262M307.333 262.667L307.667 263.333L307.333 262.667z"/>
<path style="fill:#238ce7; stroke:none;" d="M293 263L294 264L293 263z"/>
<path style="fill:#e9d78b; stroke:none;" d="M294 263L295 264L294 263z"/>
<path style="fill:#3cb0f3; stroke:none;" d="M295 264L296 265L295 264z"/>
<path style="fill:#238ce7; stroke:none;" d="M270 265L270 268L271 268L270 265M296 265L297 266L296 265M466 265L467 266L466 265z"/>
<path style="fill:#3cb0f3; stroke:none;" d="M467 265L467 266L470 266L467 265z"/>
<path style="fill:#238ce7; stroke:none;" d="M470 265L471 266L470 265z"/>
<path style="fill:#3cb0f3; stroke:none;" d="M465 266L466 267L465 266z"/>
<path style="fill:#e9d78b; stroke:none;" d="M466.228 266.762C460.721 269.062 464.327 277.314 469.894 275.353C476.1 273.166 472.064 264.324 466.228 266.762z"/>
<path style="fill:#3cb0f3; stroke:none;" d="M471 266L472 267L471 266M296 267L297 268L296 267M472 267L473 268L472 267z"/>
<path style="fill:#238ce7; stroke:none;" d="M485 267L486 268L485 267z"/>
<path style="fill:#3cb0f3; stroke:none;" d="M486 267L486 268L549 268L529 267L486 267z"/>
<path style="fill:#238ce7; stroke:none;" d="M549 267L550 268L549 267z"/>
<path style="fill:#e9d78b; stroke:none;" d="M295 268L296 269L295 268z"/>
<path style="fill:#3cb0f3; stroke:none;" d="M463 268L464 269L463 268z"/>
<path style="fill:#238ce7; stroke:none;" d="M473 268L474 269L473 268z"/>
<path style="fill:#e9d78b; stroke:none;" d="M484 268L485 269L484 268z"/>
<path style="fill:#f9fafb; stroke:none;" d="M485.623 269.023C480.22 273.445 492.241 273.999 494 274L536 274C539.488 274 547.767 275.483 550.248 272.416C554.343 267.355 539.85 268 538 268L500 268C496.334 268 488.632 266.56 485.623 269.023z"/>
<path style="fill:#e9d78b; stroke:none;" d="M550 268L551 269L550 268z"/>
<path style="fill:#3cb0f3; stroke:none;" d="M293 269L294 270L293 269M473 269L474 270L473 269M483 269L484 270L483 269z"/>
<path style="fill:#e9d78b; stroke:none;" d="M551 269L552 270L551 269M271.333 270.667L271.667 271.333L271.333 270.667z"/>
<path style="fill:#238ce7; stroke:none;" d="M291 270L292 271L291 270z"/>
<path style="fill:#e9d78b; stroke:none;" d="M307 270L308 271L307 270z"/>
<path style="fill:#238ce7; stroke:none;" d="M462 270L463 271L462 270z"/>
<path style="fill:#e9d78b; stroke:none;" d="M483.333 270.667L483.667 271.333L483.333 270.667M290 271L291 272L290 271z"/>
<path style="fill:#3cb0f3; stroke:none;" d="M307 271L308 272L307 271z"/>
<path style="fill:#238ce7; stroke:none;" d="M271 272L272 273L271 272M285 272L286 273L285 272z"/>
<path style="fill:#3cb0f3; stroke:none;" d="M288 272L289 273L288 272z"/>
<path style="fill:#238ce7; stroke:none;" d="M307 272L308 273L307 272z"/>
<path style="fill:#3cb0f3; stroke:none;" d="M473 272L474 273L473 272M483 272L484 273L483 272z"/>
<path style="fill:#e9d78b; stroke:none;" d="M551 272L552 273L551 272M286.667 273.333L287.333 273.667L286.667 273.333M306 273L307 274L306 273z"/>
<path style="fill:#3cb0f3; stroke:none;" d="M463 273L464 274L463 273z"/>
<path style="fill:#238ce7; stroke:none;" d="M473 273L474 274L473 273z"/>
<path style="fill:#e9d78b; stroke:none;" d="M484 273L485 274L484 273M550 273L551 274L550 273M272 274L273 275L272 274z"/>
<path style="fill:#238ce7; stroke:none;" d="M306 274L307 275L306 274z"/>
<path style="fill:#3cb0f3; stroke:none;" d="M472 274L473 275L472 274z"/>
<path style="fill:#238ce7; stroke:none;" d="M486 274L487 275L486 274M548 274L549 275L548 274z"/>
<path style="fill:#e9d78b; stroke:none;" d="M305 275L306 276L305 275z"/>
<path style="fill:#3cb0f3; stroke:none;" d="M465 275L466 276L465 275M471 275L472 276L471 275M273 276L274 277L273 276z"/>
<path style="fill:#238ce7; stroke:none;" d="M305 276L306 277L305 276M467 276L467 277L470 277L467 276z"/>
<path style="fill:#e9d78b; stroke:none;" d="M274 277L275 278L274 277M304 277L305 278L304 277z"/>
<path style="fill:#238ce7; stroke:none;" d="M592 277L593 278L592 277z"/>
<path style="fill:#e9d78b; stroke:none;" d="M275 278L276 279L275 278M303 278L304 279L303 278M302 279L303 280L302 279z"/>
<path style="fill:#238ce7; stroke:none;" d="M592 279L593 280L592 279z"/>
<path style="fill:#e9d78b; stroke:none;" d="M277 280L278 281L277 280M301 280L302 281L301 280M278 281L279 282L278 281M300 281L301 282L300 281z"/>
<path style="fill:#238ce7; stroke:none;" d="M279 282L280 283L279 282z"/>
<path style="fill:#e9d78b; stroke:none;" d="M298 282L299 283L298 282z"/>
<path style="fill:#238ce7; stroke:none;" d="M299 282L300 283L299 282M281 283L282 284L281 283z"/>
<path style="fill:#e9d78b; stroke:none;" d="M282 283L283 284L282 283M296 283L297 284L296 283z"/>
<path style="fill:#238ce7; stroke:none;" d="M297 283L298 284L297 283z"/>
<path style="fill:#3cb0f3; stroke:none;" d="M284 284L285 285L284 284z"/>
<path style="fill:#e9d78b; stroke:none;" d="M285 284L286 285L285 284M293 284L294 285L293 284z"/>
<path style="fill:#3cb0f3; stroke:none;" d="M294 284L295 285L294 284M444 287L445 288L444 287z"/>
<path style="fill:#238ce7; stroke:none;" d="M445 289L446 290L445 289M566 289L567 290L566 289z"/>
<path style="fill:#f9fafb; stroke:none;" d="M325 291L326 292L325 291z"/>
<path style="fill:#238ce7; stroke:none;" d="M563 292L564 293L563 292z"/>
<path style="fill:#283040; stroke:none;" d="M361 293L360 328C353.402 327.27 342.219 325.221 336.069 328.458C330.254 331.52 330.938 341.053 337.019 343.397C343.847 346.028 354.728 344 362 344L417 344C423.299 344 438.199 346.866 440.566 338.906C446.091 320.331 419.28 333.554 414.028 325.682C409.598 319.044 413 300.914 413 293L361 293M450.044 300.653C440.337 303.894 443.426 326.909 444.093 335C444.391 338.606 445.466 342.7 449.108 344.258C455.977 347.196 467.596 345 475 345L534 345C542.173 345 555.329 347.51 562.891 344.258C567.084 342.455 566.979 337.892 566.999 334C567.041 326.126 570.873 304.293 561.981 300.742C553.893 297.513 540.655 300 532 300L476 300C468.147 300 457.539 298.15 450.044 300.653z"/>
<path style="fill:#238ce7; stroke:none;" d="M562.667 300.333L563.333 300.667L562.667 300.333M564 301L565 302L564 301M565 302L566 303L565 302M566 303L567 304L566 303M567 305L567 341L568 341C568 330.613 571.011 314.56 567 305z"/>
<path style="fill:#3cb0f3; stroke:none;" d="M274 306L275 307L274 306z"/>
<path style="fill:#e9d78b; stroke:none;" d="M275 306L275 307C282.846 307 297.63 304.174 304 309C304.59 305.424 299.661 306.006 297 306L275 306z"/>
<path style="fill:#f9fafb; stroke:none;" d="M274 307L274 309L304 309L304 307L274 307z"/>
<path style="fill:#238ce7; stroke:none;" d="M275 309L275 310L304 310L275 309M757 311L758 312L757 311M757 315L758 316L757 315M466 317L467 318L466 317z"/>
<path style="fill:#3cb0f3; stroke:none;" d="M467 317L468 318L467 317z"/>
<path style="fill:#e9d78b; stroke:none;" d="M468.029 318.006C461.629 318.1 462.66 328.188 468.961 327.534C475.025 326.905 473.801 317.921 468.029 318.006z"/>
<path style="fill:#3cb0f3; stroke:none;" d="M469 317L470 318L469 317z"/>
<path style="fill:#238ce7; stroke:none;" d="M470 317L471 318L470 317M464 318L465 319L464 318z"/>
<path style="fill:#3cb0f3; stroke:none;" d="M471 318L472 319L471 318M472 319L473 320L472 319z"/>
<path style="fill:#238ce7; stroke:none;" d="M485 319L486 320L485 319z"/>
<path style="fill:#e9d78b; stroke:none;" d="M486 319L486 320L549 320L529 319L486 319z"/>
<path style="fill:#3cb0f3; stroke:none;" d="M549 319L550 320L549 319M463 320L464 321L463 320z"/>
<path style="fill:#238ce7; stroke:none;" d="M473 320L474 321L473 320z"/>
<path style="fill:#e9d78b; stroke:none;" d="M484 320L483 322L484 320z"/>
<path style="fill:#f9fafb; stroke:none;" d="M485.427 321.023C480.125 325.025 491.202 325.996 493 326L535 326C538.806 326 547.488 327.585 550.288 324.416C554.929 319.163 539.903 320 538 320L500 320C496.169 320 488.651 318.589 485.427 321.023z"/>
<path style="fill:#3cb0f3; stroke:none;" d="M473 321L474 322L473 321z"/>
<path style="fill:#e9d78b; stroke:none;" d="M551 321L552 322L551 321z"/>
<path style="fill:#238ce7; stroke:none;" d="M462 322L463 323L462 322z"/>
<path style="fill:#e9d78b; stroke:none;" d="M483 323L484 324L483 323z"/>
<path style="fill:#3cb0f3; stroke:none;" d="M473 324L474 325L473 324z"/>
<path style="fill:#238ce7; stroke:none;" d="M483 324L484 325L483 324z"/>
<path style="fill:#3cb0f3; stroke:none;" d="M551 324L552 325L551 324z"/>
<path style="fill:#238ce7; stroke:none;" d="M463 325L464 326L463 325M473 325L474 326L473 325z"/>
<path style="fill:#3cb0f3; stroke:none;" d="M484 325L485 326L484 325z"/>
<path style="fill:#e9d78b; stroke:none;" d="M550 325L551 326L550 325z"/>
<path style="fill:#3cb0f3; stroke:none;" d="M464 326L465 327L464 326z"/>
<path style="fill:#238ce7; stroke:none;" d="M472 326L473 327L472 326z"/>
<path style="fill:#3cb0f3; stroke:none;" d="M465 327L466 328L465 327z"/>
<path style="fill:#238ce7; stroke:none;" d="M471 327L472 328L471 327M467 328L467 329L470 329L467 328M283 329L284 330L283 329z"/>
<path style="fill:#e9d78b; stroke:none;" d="M284 329L284 331L294 331L294 329L284 329z"/>
<path style="fill:#238ce7; stroke:none;" d="M294.333 329.667L294.667 330.333L294.333 329.667z"/>
<path style="fill:#3cb0f3; stroke:none;" d="M283 330L284 331L283 330z"/>
<path style="fill:#238ce7; stroke:none;" d="M284 331L284 332L294 332L284 331M566 341L567 342L566 341M568 341L569 342L568 341z"/>
<path style="fill:#3cb0f3; stroke:none;" d="M564.667 344.333L565.333 344.667L564.667 344.333M562.667 345.333L563.333 345.667L562.667 345.333z"/>
<path style="fill:#238ce7; stroke:none;" d="M597 347L598 348L597 347z"/>
<path style="fill:#3cb0f3; stroke:none;" d="M596.333 350.667L596.667 351.333L596.333 350.667z"/>
<path style="fill:#238ce7; stroke:none;" d="M705 351L705 375L706 375L705 351z"/>
<path style="fill:#f9fafb; stroke:none;" d="M706 351C706 372.022 702.874 399.241 724 412C717.001 402.054 709.679 394.532 707.464 382C705.749 372.3 709.804 360.064 706 351z"/>
<path style="fill:#238ce7; stroke:none;" d="M708 351L708 376L709 376L708 351z"/>
<path style="fill:#3cb0f3; stroke:none;" d="M596.333 356.667L596.667 357.333L596.333 356.667M584 363L584 367L585 367L584 363z"/>
<path style="fill:#238ce7; stroke:none;" d="M762 367L763 368L762 367z"/>
<path style="fill:#3cb0f3; stroke:none;" d="M583 368L584 369L583 368M582 371L583 372L582 371M761 371L761 374L762 374L761 371M581 374L582 375L581 374z"/>
<path style="fill:#238ce7; stroke:none;" d="M704 375L704 379L705 379L704 375z"/>
<path style="fill:#3cb0f3; stroke:none;" d="M761.333 375.667L761.667 376.333L761.333 375.667z"/>
<path style="fill:#238ce7; stroke:none;" d="M674 377C674 403.143 672.354 425.847 662 450L728 450L728 449C710.3 435.514 691.566 416.84 677 400L676 400L676 408L675 408L674 377M708 380L708 383L709 383L708 380M705 382L705 386L706 386L705 382z"/>
<path style="fill:#e9d78b; stroke:none;" d="M707 382L708 383L707 382M706 383L707 384L706 383z"/>
<path style="fill:#238ce7; stroke:none;" d="M709.333 386.667L709.667 387.333L709.333 386.667M706.333 387.667L706.667 388.333L706.333 387.667z"/>
<path style="fill:#e9d78b; stroke:none;" d="M707 387L708 388L707 387z"/>
<path style="fill:#238ce7; stroke:none;" d="M596.333 389.667L596.667 390.333L596.333 389.667M710.333 389.667L710.667 390.333L710.333 389.667M707.333 390.667L707.667 391.333L707.333 390.667z"/>
<path style="fill:#e9d78b; stroke:none;" d="M709 390L710 391L709 390z"/>
<path style="fill:#238ce7; stroke:none;" d="M711 392L714 399L715 399L711 392M708.333 393.667L708.667 394.333L708.333 393.667z"/>
<path style="fill:#3cb0f3; stroke:none;" d="M711 394L712 395L711 394z"/>
<path style="fill:#238ce7; stroke:none;" d="M709 396L711 400L712 400L709 396z"/>
<path style="fill:#3cb0f3; stroke:none;" d="M710 396L711 397L710 396M712 396L713 397L712 396M711 398L712 399L711 398M713 398L714 399L713 398z"/>
<path style="fill:#e9d78b; stroke:none;" d="M712 399L713 400L712 399M714 400L715 401L714 400z"/>
<path style="fill:#238ce7; stroke:none;" d="M715 400L717 402L715 400M712 401L713 402L712 401z"/>
<path style="fill:#3cb0f3; stroke:none;" d="M715 401L716 402L715 401z"/>
<path style="fill:#e9d78b; stroke:none;" d="M716 403L717 404L716 403z"/>
<path style="fill:#238ce7; stroke:none;" d="M717 403L725 411L717 403M714 404L718 408L714 404z"/>
<path style="fill:#3cb0f3; stroke:none;" d="M715 404L716 405L715 404M717 404L718 405L717 404M716 405L717 406L716 405M718 405L719 406L718 405z"/>
<path style="fill:#e9d78b; stroke:none;" d="M717 406L718 407L717 406z"/>
<path style="fill:#3cb0f3; stroke:none;" d="M719 406L720 407L719 406z"/>
<path style="fill:#e9d78b; stroke:none;" d="M718 407L719 408L718 407z"/>
<path style="fill:#3cb0f3; stroke:none;" d="M720 407L721 408L720 407M721 408L722 409L721 408M675 409L676 410L675 409M722 409L723 410L722 409z"/>
<path style="fill:#e9d78b; stroke:none;" d="M721 410L723 412L721 410z"/>
<path style="fill:#3cb0f3; stroke:none;" d="M723 410L724 411L723 410z"/>
<path style="fill:#238ce7; stroke:none;" d="M721 411L722 412L721 411M725 411L726 412L725 411M722 412L723 413L722 412z"/>
<path style="fill:#f9fafb; stroke:none;" d="M724 412L724 413C746.011 427.788 774.683 423 800 423L800 422L745 420.985L724 412z"/>
<path style="fill:#238ce7; stroke:none;" d="M727 412L728 413L727 412M723 413L724 414L723 413M728 413L729 414L728 413M724 414L725 415L724 414z"/>
<path style="fill:#e9d78b; stroke:none;" d="M726 414L727 415L726 414M728 414L729 415L728 414z"/>
<path style="fill:#238ce7; stroke:none;" d="M730 414L731 415L730 414M726 415L727 416L726 415M732 415L733 416L732 415M727 416L728 417L727 416z"/>
<path style="fill:#e9d78b; stroke:none;" d="M729 416L730 417L729 416z"/>
<path style="fill:#238ce7; stroke:none;" d="M734 416L735 417L734 416M729 417L730 418L729 417M736.667 417.333L737.333 417.667L736.667 417.333M731 418L732 419L731 418z"/>
<path style="fill:#e9d78b; stroke:none;" d="M733 418L734 419L733 418z"/>
<path style="fill:#238ce7; stroke:none;" d="M738.667 418.333L739.333 418.667L738.667 418.333M733 419L734 420L733 419z"/>
<path style="fill:#e9d78b; stroke:none;" d="M735 419L736 420L735 419z"/>
<path style="fill:#238ce7; stroke:none;" d="M742.667 419.333L743.333 419.667L742.667 419.333z"/>
<path style="fill:#3cb0f3; stroke:none;" d="M768 419L768 420L772 420L768 419z"/>
<path style="fill:#238ce7; stroke:none;" d="M735 420L736 421L735 420z"/>
<path style="fill:#e9d78b; stroke:none;" d="M742 420L743 421L742 420z"/>
<path style="fill:#238ce7; stroke:none;" d="M746 420L746 421L751 421L746 420M737.667 421.333L738.333 421.667L737.667 421.333z"/>
<path style="fill:#e9d78b; stroke:none;" d="M741 421L742 422L741 421M747 421L748 422L747 421z"/>
<path style="fill:#238ce7; stroke:none;" d="M740 422L740 423L743 423L740 422z"/>
<path style="fill:#e9d78b; stroke:none;" d="M746 422L747 423L746 422z"/>
<path style="fill:#238ce7; stroke:none;" d="M744 423L744 424L747 424L744 423M752 424L752 450L800 450C800 444.79 801.89 435.017 798.972 430.529C794.762 424.055 783.497 426 777 426L777 425L800 425C787.586 419.791 765.526 424 752 424z"/>
<path style="fill:#3cb0f3; stroke:none;" d="M777 425L777 426L800 430L800 425L777 425z"/>
<path style="fill:#238ce7; stroke:none;" d="M657 448L656 450L658 450L657 448z"/>
</svg>
