<?xml version="1.0" standalone="yes"?>
<svg xmlns="http://www.w3.org/2000/svg" width="800" height="450">
<path style="fill:#2f9ded; stroke:none;" d="M0 0L0 139L151 139C153.658 131.365 165.909 128.51 166.663 139.003C167.473 150.278 154.357 147.128 151 140L0 140L0 450L800 450L800 423C776.685 423 745.301 428.861 726 413C749.203 425.209 774.473 422 800 422L800 0L0 0z"/>
<path style="fill:#f5e087; stroke:none;" d="M704.015 66.7577C694.094 70.3493 698.888 85.9009 708.985 82.8171C719.312 79.663 713.928 63.1691 704.015 66.7577M339 72L340 73L339 72z"/>
<path style="fill:#fcfdfe; stroke:none;" d="M340 72.4684C332.092 73.9888 325.36 80.0817 323.529 88C321.659 96.0927 323 105.722 323 114L323 165C323 174.68 321.431 185.428 329.105 192.812C338.981 202.314 356.48 199 369 199L445 199C456.971 199 471.317 201.153 483 198.471C490.781 196.684 497.58 190.922 499.468 183C505.017 159.705 498.452 131.906 500.09 108C500.82 97.3357 501.821 85.4132 492.816 77.5293C482.619 68.6027 464.519 72 452 72L378 72C365.825 72 351.969 70.1673 340 72.4684z"/>
<path style="fill:#f5e087; stroke:none;" d="M482.667 72.3333L483.333 72.6667L482.667 72.3333M486 73L487 74L486 73M488 74L489 75L488 74M332 75L333 76L332 75M490 75L491 76L490 75M491 76L492 77L491 76M328 78L329 79L328 78M495 80L496 81L495 80M496 81L497 82L496 81M325 82L326 83L325 82M497 83L498 84L497 83z"/>
<path style="fill:#fcfdfe; stroke:none;" d="M706 83L706 226L707 226C707 191.283 708 156.724 708 122C708 112.226 711.947 90.8493 706 83z"/>
<path style="fill:#f5e087; stroke:none;" d="M324 84L325 85L324 84M323 87L324 88L323 87M499 88L500 89L499 88M322 92L322 179L323 179L323 119L322 92M500 93L501 94L500 93M500 95L501 96L500 95M500 104L500 179L501 179L501 127L500 104M457 122L457 123L466 123L457 122M453 123L454 124L453 123z"/>
<path style="fill:#5f6773; stroke:none;" d="M454 123L454 124L457 124L454 123z"/>
<path style="fill:#243142; stroke:none;" d="M448 127L448 128C464.016 124.187 463.974 131.145 461 144C464.901 140.987 473.249 129.891 468.357 124.742C463.718 119.859 452.618 124.401 448 127z"/>
<path style="fill:#5f6773; stroke:none;" d="M467 123L468 124L467 123z"/>
<path style="fill:#f5e087; stroke:none;" d="M468 123L469 124L468 123z"/>
<path style="fill:#5f6773; stroke:none;" d="M451.667 124.333L452.333 124.667L451.667 124.333M469 124L470 125L469 124z"/>
<path style="fill:#f5e087; stroke:none;" d="M350 125L351 126L350 125z"/>
<path style="fill:#243142; stroke:none;" d="M351 125C367.863 148.738 408.122 153.139 434 145.703C442.162 143.358 454.684 139.869 459 132C445.526 133.184 432.904 139.958 419 140.91C393.48 142.658 374.137 133.42 351 125z"/>
<path style="fill:#5f6773; stroke:none;" d="M353 125L354 126L353 125z"/>
<path style="fill:#f5e087; stroke:none;" d="M449 125L450 126L449 125z"/>
<path style="fill:#5f6773; stroke:none;" d="M450 125L451 126L450 125M351 126L353 128L351 126M354 126L355 127L354 126z"/>
<path style="fill:#f5e087; stroke:none;" d="M355 126L356 127L355 126z"/>
<path style="fill:#5f6773; stroke:none;" d="M448 126L449 127L448 126z"/>
<path style="fill:#f5e087; stroke:none;" d="M351 127L352 128L351 127z"/>
<path style="fill:#5f6773; stroke:none;" d="M356 127L357 128L356 127z"/>
<path style="fill:#f5e087; stroke:none;" d="M357 127L358 128L357 127M447 127L448 128L447 127z"/>
<path style="fill:#5f6773; stroke:none;" d="M449 127L449 128L454 128L449 127z"/>
<path style="fill:#f5e087; stroke:none;" d="M454 127L454 128L461 128L454 127z"/>
<path style="fill:#5f6773; stroke:none;" d="M461.667 127.333L462.333 127.667L461.667 127.333M353 128L354 129L353 128M358 128L359 129L358 128z"/>
<path style="fill:#f5e087; stroke:none;" d="M359 128L360 129L359 128M463 128L464 129L463 128z"/>
<path style="fill:#5f6773; stroke:none;" d="M469 128L469 131L470 131L469 128M354 129L355 130L354 129M360 129L361 130L360 129z"/>
<path style="fill:#f5e087; stroke:none;" d="M361 129L362 130L361 129z"/>
<path style="fill:#5f6773; stroke:none;" d="M464 129L464 133L465 133L464 129z"/>
<path style="fill:#f5e087; stroke:none;" d="M355 130L356 131L355 130z"/>
<path style="fill:#5f6773; stroke:none;" d="M362 130L363 131L362 130z"/>
<path style="fill:#2f9ded; stroke:none;" d="M363 130L364 131L363 130z"/>
<path style="fill:#f5e087; stroke:none;" d="M157.015 131.696C147.148 134.303 151.148 149.126 160.985 146.963C171.01 144.758 166.914 129.081 157.015 131.696M356 131L357 132L356 131z"/>
<path style="fill:#5f6773; stroke:none;" d="M365 131L366 132L365 131z"/>
<path style="fill:#f5e087; stroke:none;" d="M455 131L456 132L455 131z"/>
<path style="fill:#5f6773; stroke:none;" d="M456.667 131.333L457.333 131.667L456.667 131.333z"/>
<path style="fill:#f5e087; stroke:none;" d="M458 131L459 132L458 131M469 131L470 132L469 131z"/>
<path style="fill:#5f6773; stroke:none;" d="M358 132L359 133L358 132M367 132L368 133L367 132z"/>
<path style="fill:#f5e087; stroke:none;" d="M368 132L369 133L368 132M453 132L454 133L453 132z"/>
<path style="fill:#5f6773; stroke:none;" d="M454 132L455 133L454 132z"/>
<path style="fill:#f5e087; stroke:none;" d="M359 133L360 134L359 133z"/>
<path style="fill:#5f6773; stroke:none;" d="M370 133L371 134L370 133z"/>
<path style="fill:#f5e087; stroke:none;" d="M371 133L372 134L371 133M450 133L451 134L450 133z"/>
<path style="fill:#5f6773; stroke:none;" d="M451 133L452 134L451 133z"/>
<path style="fill:#f5e087; stroke:none;" d="M463.333 133.667L463.667 134.333L463.333 133.667z"/>
<path style="fill:#5f6773; stroke:none;" d="M468 133L469 134L468 133z"/>
<path style="fill:#f5e087; stroke:none;" d="M360 134L361 135L360 134z"/>
<path style="fill:#5f6773; stroke:none;" d="M361 134L362 135L361 134M372.667 134.333L373.333 134.667L372.667 134.333z"/>
<path style="fill:#f5e087; stroke:none;" d="M374 134L375 135L374 134M447 134L448 135L447 134z"/>
<path style="fill:#5f6773; stroke:none;" d="M448.667 134.333L449.333 134.667L448.667 134.333z"/>
<path style="fill:#f5e087; stroke:none;" d="M458 134L459 135L458 134M468 134L469 135L468 134z"/>
<path style="fill:#5f6773; stroke:none;" d="M362 135L363 136L362 135M375.667 135.333L376.333 135.667L375.667 135.333z"/>
<path style="fill:#f5e087; stroke:none;" d="M377 135L378 136L377 135M444 135L445 136L444 135z"/>
<path style="fill:#5f6773; stroke:none;" d="M445.667 135.333L446.333 135.667L445.667 135.333M456 135L457 136L456 135z"/>
<path style="fill:#f5e087; stroke:none;" d="M457 135L458 136L457 135z"/>
<path style="fill:#5f6773; stroke:none;" d="M463 135L464 136L463 135z"/>
<path style="fill:#f5e087; stroke:none;" d="M363 136L364 137L363 136z"/>
<path style="fill:#5f6773; stroke:none;" d="M364 136L365 137L364 136M379 136L380 137L379 136z"/>
<path style="fill:#f5e087; stroke:none;" d="M380 136L381 137L380 136M441 136L442 137L441 136z"/>
<path style="fill:#5f6773; stroke:none;" d="M442.667 136.333L443.333 136.667L442.667 136.333z"/>
<path style="fill:#f5e087; stroke:none;" d="M455 136L456 137L455 136z"/>
<path style="fill:#5f6773; stroke:none;" d="M467 136L468 137L467 136z"/>
<path style="fill:#f5e087; stroke:none;" d="M365 137L366 138L365 137z"/>
<path style="fill:#5f6773; stroke:none;" d="M366 137L367 138L366 137M382.667 137.333L383.333 137.667L382.667 137.333z"/>
<path style="fill:#f5e087; stroke:none;" d="M384.667 137.333L385.333 137.667L384.667 137.333M436.667 137.333L437.333 137.667L436.667 137.333z"/>
<path style="fill:#5f6773; stroke:none;" d="M438.667 137.333L439.333 137.667L438.667 137.333M453 137L454 138L453 137z"/>
<path style="fill:#f5e087; stroke:none;" d="M454 137L455 138L454 137M462 137L463 138L462 137M467 137L468 138L467 137z"/>
<path style="fill:#2f9ded; stroke:none;" d="M367 138L368 139L367 138z"/>
<path style="fill:#5f6773; stroke:none;" d="M387 138L388 139L387 138z"/>
<path style="fill:#2f9ded; stroke:none;" d="M388 138L389 139L388 138z"/>
<path style="fill:#f5e087; stroke:none;" d="M389.667 138.333L390.333 138.667L389.667 138.333M431.667 138.333L432.333 138.667L431.667 138.333z"/>
<path style="fill:#5f6773; stroke:none;" d="M433 138L433 139L436 139L433 138M451 138L452 139L451 138z"/>
<path style="fill:#f5e087; stroke:none;" d="M452 138L453 139L452 138z"/>
<path style="fill:#5f6773; stroke:none;" d="M462 138L463 139L462 138M466 138L467 139L466 138z"/>
<path style="fill:#fcfdfe; stroke:none;" d="M0 139L0 140L151 140C139.306 135.093 118.73 139 106 139L0 139z"/>
<path style="fill:#5f6773; stroke:none;" d="M369 139L370 140L369 139M391 139L391 140L395 140L391 139z"/>
<path style="fill:#f5e087; stroke:none;" d="M395.667 139.333L396.333 139.667L395.667 139.333M425.667 139.333L426.333 139.667L425.667 139.333z"/>
<path style="fill:#5f6773; stroke:none;" d="M427 139L427 140L431 140L427 139z"/>
<path style="fill:#f5e087; stroke:none;" d="M450 139L451 140L450 139z"/>
<path style="fill:#5f6773; stroke:none;" d="M465 139L466 140L465 139z"/>
<path style="fill:#f5e087; stroke:none;" d="M370 140L371 141L370 140z"/>
<path style="fill:#5f6773; stroke:none;" d="M371 140L372 141L371 140M399 140L399 141L404 141L399 140z"/>
<path style="fill:#f5e087; stroke:none;" d="M404 140L404 141L418 141L404 140z"/>
<path style="fill:#5f6773; stroke:none;" d="M418 140L418 141L423 141L418 140M448 140L449 141L448 140z"/>
<path style="fill:#f5e087; stroke:none;" d="M461 140L462 141L461 140M465 140L466 141L465 140z"/>
<path style="fill:#5f6773; stroke:none;" d="M373.667 141.333L374.333 141.667L373.667 141.333M445.667 141.333L446.333 141.667L445.667 141.333M461 141L462 142L461 141M464 141L465 142L464 141z"/>
<path style="fill:#f5e087; stroke:none;" d="M375 142L376 143L375 142z"/>
<path style="fill:#5f6773; stroke:none;" d="M376 142L377 143L376 142M443 142L444 143L443 142z"/>
<path style="fill:#f5e087; stroke:none;" d="M444 142L445 143L444 142M460 142L461 143L460 142z"/>
<path style="fill:#5f6773; stroke:none;" d="M463 142L464 143L463 142z"/>
<path style="fill:#f5e087; stroke:none;" d="M377 143L378 144L377 143z"/>
<path style="fill:#5f6773; stroke:none;" d="M378 143L379 144L378 143M440.667 143.333L441.333 143.667L440.667 143.333z"/>
<path style="fill:#f5e087; stroke:none;" d="M442 143L443 144L442 143z"/>
<path style="fill:#5f6773; stroke:none;" d="M460 143L461 144L460 143M462 143L463 144L462 143z"/>
<path style="fill:#f5e087; stroke:none;" d="M380 144L381 145L380 144z"/>
<path style="fill:#5f6773; stroke:none;" d="M381 144L382 145L381 144M438 144L439 145L438 144z"/>
<path style="fill:#f5e087; stroke:none;" d="M439 144L440 145L439 144M460.667 144.333L461.333 144.667L460.667 144.333M383 145L384 146L383 145z"/>
<path style="fill:#5f6773; stroke:none;" d="M384 145L385 146L384 145M434.667 145.333L435.333 145.667L434.667 145.333z"/>
<path style="fill:#f5e087; stroke:none;" d="M436 145L437 146L436 145M386 146L387 147L386 146z"/>
<path style="fill:#5f6773; stroke:none;" d="M387.667 146.333L388.333 146.667L387.667 146.333M431 146L432 147L431 146z"/>
<path style="fill:#f5e087; stroke:none;" d="M432.667 146.333L433.333 146.667L432.667 146.333M390 147L391 148L390 147z"/>
<path style="fill:#5f6773; stroke:none;" d="M391 147L391 148L394 148L391 147M426.667 147.333L427.333 147.667L426.667 147.333z"/>
<path style="fill:#f5e087; stroke:none;" d="M428.667 147.333L429.333 147.667L428.667 147.333M395.667 148.333L396.333 148.667L395.667 148.333z"/>
<path style="fill:#5f6773; stroke:none;" d="M397 148L397 149L401 149L397 148M419 148L419 149L423 149L419 148z"/>
<path style="fill:#f5e087; stroke:none;" d="M423.667 148.333L424.333 148.667L423.667 148.333M402 149L402 150L418 150L402 149z"/>
<path style="fill:#5f6773; stroke:none;" d="M298 150L298 151L302 151L298 150M520 150L518 153L520 150z"/>
<path style="fill:#243142; stroke:none;" d="M521.147 151.137C516.225 153.488 520.061 160.842 524.685 157.953C528.648 155.477 525.518 149.049 521.147 151.137z"/>
<path style="fill:#5f6773; stroke:none;" d="M524 150L525 151L524 150z"/>
<path style="fill:#243142; stroke:none;" d="M297.448 152.032C293.128 155.036 298.506 161.459 302.552 158.214C306.775 154.826 301.58 149.16 297.448 152.032z"/>
<path style="fill:#5f6773; stroke:none;" d="M295 153L296 154L295 153M304 153L305 154L304 153M295 156L296 157L295 156M304 156L305 157L304 156M518 156L519 157L518 156M526 157L527 158L526 157M525 158L526 159L525 158M298 159L299 160L298 159M301 159L302 160L301 159M522 159L523 160L522 159M531 166L532 167L531 166M289 167L290 168L289 167z"/>
<path style="fill:#243142; stroke:none;" d="M290.143 167.89C285.105 169.275 287.939 177.029 292.856 175.338C297.621 173.699 294.663 166.648 290.143 167.89z"/>
<path style="fill:#5f6773; stroke:none;" d="M293 167L294 168L293 167z"/>
<path style="fill:#243142; stroke:none;" d="M529.438 168.047C525.36 170.702 529.541 177.085 533.682 174.762C538.171 172.245 533.744 165.243 529.438 168.047z"/>
<path style="fill:#5f6773; stroke:none;" d="M534 167L535 168L534 167M294 168L295 169L294 168M535 168L536 169L535 168M295 169L296 170L295 169M527 169L528 170L527 169M286.333 171.667L286.667 172.333L286.333 171.667M536 171L537 172L536 171M287 174L288 175L287 174M528 174L529 175L528 174M288 175L289 176L288 175M533 175L534 176L533 175M290 176L290 177L293 177L290 176z"/>
<path style="fill:#f5e087; stroke:none;" d="M707 176C707 190.091 710.474 209.352 706.682 222.892C705.216 228.129 698.814 228.704 698.109 235C694.348 268.585 697.532 305.186 698.004 339C698.119 347.226 703.684 347.063 706.397 353.224C709.007 359.153 707 369.563 707 376L708 376L708.318 354.039L714.956 341L715 274L714.772 234.001L708.148 221.985L707 176M323 183L324 184L323 183M499 183L500 184L499 183z"/>
<path style="fill:#5f6773; stroke:none;" d="M536.667 184.333L537.333 184.667L536.667 184.333z"/>
<path style="fill:#243142; stroke:none;" d="M538.089 185.006C532.948 185.087 533.846 193.095 538.961 192.534C543.998 191.982 542.815 184.932 538.089 185.006z"/>
<path style="fill:#5f6773; stroke:none;" d="M539 184L540 185L539 184M282 185L281 187L282 185z"/>
<path style="fill:#243142; stroke:none;" d="M283.24 186.086C278.375 188.684 283.137 195.722 287.552 192.802C291.49 190.197 287.263 183.938 283.24 186.086z"/>
<path style="fill:#5f6773; stroke:none;" d="M287 185L288 186L287 185M541 185L542 186L541 185M288 186L289 187L288 186z"/>
<path style="fill:#f5e087; stroke:none;" d="M324 186L325 187L324 186M498 186L499 187L498 186z"/>
<path style="fill:#5f6773; stroke:none;" d="M534 186L535 187L534 186M542 186L543 187L542 186M280 188L281 189L280 188M289 188L290 189L289 188z"/>
<path style="fill:#f5e087; stroke:none;" d="M496 189L497 190L496 189z"/>
<path style="fill:#5f6773; stroke:none;" d="M280 190L281 191L280 190M289 191L290 192L289 191M534 191L535 192L534 191M281 192L282 193L281 192M535 192L536 193L535 192M282 193L283 194L282 193M287 193L288 194L287 193M537 193L537 194L540 194L537 193M284 194L285 195L284 194z"/>
<path style="fill:#f5e087; stroke:none;" d="M332 195L333 196L332 195M490 195L491 196L490 195M488 196L489 197L488 196M336 197L337 198L336 197M486 197L487 198L486 197M339 198L340 199L339 198M483 198L484 199L483 198z"/>
<path style="fill:#5f6773; stroke:none;" d="M398 199L397 201L398 199z"/>
<path style="fill:#f5e087; stroke:none;" d="M399.667 199.333L400.333 199.667L399.667 199.333M402 199C405.83 204.101 418.782 207.069 425 208L425 199L402 199z"/>
<path style="fill:#243142; stroke:none;" d="M398 200L398 221C393.721 221 388.268 220.094 384.148 221.318C381.26 222.176 380.316 225.914 383.319 227.397C386.669 229.051 392.353 228 396 228L425 228C428.113 228 441.971 229.817 441.079 224.09C440.31 219.152 428.475 221 425 221C425 217.783 425.998 212.43 423.972 209.699C419.887 204.192 404.452 201.493 398 200z"/>
<path style="fill:#5f6773; stroke:none;" d="M400.667 200.333L401.333 200.667L400.667 200.333M403.667 201.333L404.333 201.667L403.667 201.333M406.667 202.333L407.333 202.667L406.667 202.333M542 202L543 203L542 202M280 203L281 204L280 203z"/>
<path style="fill:#243142; stroke:none;" d="M281.039 204.006C276.099 204.082 276.146 212.133 281.039 212.133C286.514 212.133 286.599 203.921 281.039 204.006z"/>
<path style="fill:#5f6773; stroke:none;" d="M282 203L283 204L282 203M409.667 203.333L410.333 203.667L409.667 203.333z"/>
<path style="fill:#243142; stroke:none;" d="M540.321 204.047C536.057 206.711 540.277 213.435 544.569 210.777C548.99 208.039 544.752 201.279 540.321 204.047z"/>
<path style="fill:#5f6773; stroke:none;" d="M284 204L285 205L284 204M412.667 204.333L413.333 204.667L412.667 204.333M415.667 205.333L416.333 205.667L415.667 205.333M418 206L419 207L418 206M276.333 207.667L276.667 208.333L276.333 207.667M420.667 207.333L421.333 207.667L420.667 207.333M423.667 208.333L424.333 208.667L423.667 208.333M538 209L539 210L538 209M546 209L547 210L546 209M285 210L286 211L285 210M284 211L285 212L284 211M540 211L541 212L540 211M544 211L545 212L544 211M279 212L280 213L279 212M282 212L283 213L282 212M385 220L385 221L388 221L385 220M395 220L396 221L395 220M397 220L398 221L397 220M440 221L441 222L440 221M543.667 221.333L544.333 221.667L543.667 221.333M278 222L279 223L278 222z"/>
<path style="fill:#243142; stroke:none;" d="M279.133 222.971C274.488 224.113 275.93 231.594 280.91 230.623C286.195 229.594 284.077 221.755 279.133 222.971z"/>
<path style="fill:#5f6773; stroke:none;" d="M281 222L282 223L281 222M441 222L442 223L441 222z"/>
<path style="fill:#243142; stroke:none;" d="M541.448 223.032C537.452 225.797 541.359 232.519 545.687 229.928C550.334 227.147 546.21 219.737 541.448 223.032z"/>
<path style="fill:#5f6773; stroke:none;" d="M283 223L284 224L283 223M380.333 223.667L380.667 224.333L380.333 223.667M539 224L540 225L539 224M275 225L275 229L276 229L275 225M284 225L285 226L284 225M548 225L548 228L549 228L548 225M441 226L442 227L441 226M440 227L441 228L440 227M539.333 227.667L539.667 228.333L539.333 227.667M284 228L285 229L284 228M547 229L548 230L547 229M541 230L542 231L541 230M546 230L547 231L546 230M278 231L278 232L282 232L278 231z"/>
<path style="fill:#f5e087; stroke:none;" d="M519 243L519 244L552 244L519 243M495 244L496 245L495 244z"/>
<path style="fill:#fcfdfe; stroke:none;" d="M496 244.653C488.205 247.102 487.011 253.87 487 261L487 305L487 339C487 344.108 486.046 350.405 489.009 354.895C492.612 360.353 499.067 360.99 505 361C520.272 361.026 541.411 364.772 556 360.196C564.785 357.44 565.997 350.009 566 342L566 299L566 266C566 260.812 566.897 254.644 563.991 250.043C560.293 244.189 554.209 244.002 548 244C532.548 243.994 510.737 240.023 496 244.653z"/>
<path style="fill:#f5e087; stroke:none;" d="M557 244L558 245L557 244M493 245L494 246L493 245M559 245L560 246L559 245M564 250L565 251L564 250M287.667 251.333L288.333 251.667L287.667 251.333z"/>
<path style="fill:#fcfdfe; stroke:none;" d="M289 251.468C274.816 254.223 279 274.281 279 285C279 294.328 274.695 318.064 284.188 323.543C288.809 326.21 295.872 325 301 325C304.829 325 309.274 325.592 312.999 324.566C324.925 321.283 321 301.251 321 292C321 282.383 324.645 263.119 318.297 255.228C313.042 248.696 296.393 250.033 289 251.468z"/>
<path style="fill:#f5e087; stroke:none;" d="M311.667 251.333L312.333 251.667L311.667 251.333M487 252L488 253L487 252M565 252L566 253L565 252M280 256L281 257L280 256M319 256L320 257L319 256M486 256L486 348L487 348L487 284L486 256M279 259L280 260L279 259M320 259L321 260L320 259M288 287L291 289L291 288L288 287M306 287L309 289L309 288L306 287z"/>
<path style="fill:#5f6773; stroke:none;" d="M307 287L307 288L310 288L307 287M289 288L290 289L289 288z"/>
<path style="fill:#243142; stroke:none;" d="M309 288L310 289L309 288z"/>
<path style="fill:#f5e087; stroke:none;" d="M310 288L311 289L310 288z"/>
<path style="fill:#5f6773; stroke:none;" d="M290 289L290 290L293 291L290 289z"/>
<path style="fill:#f5e087; stroke:none;" d="M293 289L294 290L293 289M304 289L305 290L304 289z"/>
<path style="fill:#5f6773; stroke:none;" d="M305 291L308 289L305 291z"/>
<path style="fill:#fcfdfe; stroke:none;" d="M308 289L309 290L308 289z"/>
<path style="fill:#5f6773; stroke:none;" d="M309 289L310 290L309 289z"/>
<path style="fill:#f5e087; stroke:none;" d="M291 290L292 291L291 290z"/>
<path style="fill:#243142; stroke:none;" d="M293.667 290.333L294.333 290.667L293.667 290.333z"/>
<path style="fill:#5f6773; stroke:none;" d="M294 291L294 292L304 292L294 291z"/>
<path style="fill:#243142; stroke:none;" d="M303.667 290.333L304.333 290.667L303.667 290.333z"/>
<path style="fill:#f5e087; stroke:none;" d="M308.667 290.333L309.333 290.667L308.667 290.333M293 291L294 292L293 291z"/>
<path style="fill:#243142; stroke:none;" d="M296 291L296 292L302 292L296 291z"/>
<path style="fill:#f5e087; stroke:none;" d="M304 291L305 292L304 291M548 299L548 300L552 300L548 299M499 300L500 301L499 300M544 300L543 302L544 300z"/>
<path style="fill:#5f6773; stroke:none;" d="M545 300L546 301L545 300z"/>
<path style="fill:#243142; stroke:none;" d="M544 301L544 302C548.745 301.928 550.834 303.012 550 308L551 308L553 300L544 301z"/>
<path style="fill:#f5e087; stroke:none;" d="M553 300L554 301L553 300z"/>
<path style="fill:#5f6773; stroke:none;" d="M499 301L499 302L502 302L502 301L499 301z"/>
<path style="fill:#243142; stroke:none;" d="M500 301L501 302L500 301z"/>
<path style="fill:#5f6773; stroke:none;" d="M547.667 301.333L548.333 301.667L547.667 301.333M553.333 301.667L553.667 302.333L553.333 301.667z"/>
<path style="fill:#243142; stroke:none;" d="M501 302L501 303C515.536 312.579 532.728 313.691 548 305L548 304C529.616 308.253 518.976 307.139 501 302z"/>
<path style="fill:#5f6773; stroke:none;" d="M503 302L504 303L503 302z"/>
<path style="fill:#f5e087; stroke:none;" d="M550 302L550 305L551 305L550 302M501 303L502 304L501 303z"/>
<path style="fill:#5f6773; stroke:none;" d="M505 303L506 304L505 303z"/>
<path style="fill:#f5e087; stroke:none;" d="M506 303L507 304L506 303M547.667 303.333L548.333 303.667L547.667 303.333M553 303L554 304L553 303M502 304L503 305L502 304z"/>
<path style="fill:#5f6773; stroke:none;" d="M503 304L504 305L503 304M507.667 304.333L508.333 304.667L507.667 304.333z"/>
<path style="fill:#f5e087; stroke:none;" d="M509 304L510 305L509 304M544 304L545 305L544 304z"/>
<path style="fill:#5f6773; stroke:none;" d="M545 304L546 305L545 304M548 304L549 305L548 304z"/>
<path style="fill:#f5e087; stroke:none;" d="M504 305L505 306L504 305z"/>
<path style="fill:#5f6773; stroke:none;" d="M510.667 305.333L511.333 305.667L510.667 305.333z"/>
<path style="fill:#f5e087; stroke:none;" d="M512 305L513 306L512 305M540.667 305.333L541.333 305.667L540.667 305.333z"/>
<path style="fill:#5f6773; stroke:none;" d="M542 305L543 306L542 305z"/>
<path style="fill:#f5e087; stroke:none;" d="M547 305L548 306L547 305z"/>
<path style="fill:#5f6773; stroke:none;" d="M550.333 305.667L550.667 306.333L550.333 305.667M552 305L553 306L552 305M506 306L507 307L506 306M513 306L513 307L516 307L513 306z"/>
<path style="fill:#f5e087; stroke:none;" d="M516.667 306.333L517.333 306.667L516.667 306.333M536.667 306.333L537.333 306.667L536.667 306.333z"/>
<path style="fill:#5f6773; stroke:none;" d="M538.667 306.333L539.333 306.667L538.667 306.333M545 306L546 307L545 306z"/>
<path style="fill:#f5e087; stroke:none;" d="M546 306L547 307L546 306M552 306L553 307L552 306M507 307L508 308L507 307z"/>
<path style="fill:#5f6773; stroke:none;" d="M508 307L509 308L508 307M519 307L519 308L524 308L519 307z"/>
<path style="fill:#f5e087; stroke:none;" d="M524 307L524 308L530 308L524 307z"/>
<path style="fill:#2f9ded; stroke:none;" d="M530 307L531 308L530 307z"/>
<path style="fill:#5f6773; stroke:none;" d="M531 307L531 308L535 308L531 307M543 307L544 308L543 307z"/>
<path style="fill:#f5e087; stroke:none;" d="M544 307L545 308L544 307M549 307L550 308L549 307z"/>
<path style="fill:#5f6773; stroke:none;" d="M551 307L552 308L551 307M510.667 308.333L511.333 308.667L510.667 308.333M540.667 308.333L541.333 308.667L540.667 308.333z"/>
<path style="fill:#f5e087; stroke:none;" d="M542 308L543 309L542 308z"/>
<path style="fill:#5f6773; stroke:none;" d="M549.667 308.333L550.333 308.667L549.667 308.333z"/>
<path style="fill:#f5e087; stroke:none;" d="M512 309L513 310L512 309z"/>
<path style="fill:#5f6773; stroke:none;" d="M513 309L514 310L513 309M538 309L539 310L538 309z"/>
<path style="fill:#f5e087; stroke:none;" d="M539 309L540 310L539 309M549 309L550 310L549 309M515 310L516 311L515 310z"/>
<path style="fill:#5f6773; stroke:none;" d="M516 310L516 311L519 311L516 310M533 310L533 311L536 311L533 310z"/>
<path style="fill:#f5e087; stroke:none;" d="M536 310L537 311L536 310M519 311L519 312L523 312L519 311z"/>
<path style="fill:#5f6773; stroke:none;" d="M523 311L523 312L528 312L523 311z"/>
<path style="fill:#f5e087; stroke:none;" d="M528 311L528 312L532 312L528 311M279 317L280 318L279 317M320 317L321 318L320 317M296 320L296 321L303 322L303 321L297 321L297 320L303 320L296 320z"/>
<path style="fill:#243142; stroke:none;" d="M297 320L297 321L303 321L297 320z"/>
<path style="fill:#2f9ded; stroke:none;" d="M303 320L304 321L303 320z"/>
<path style="fill:#f5e087; stroke:none;" d="M281 321L282 322L281 321M318 321L319 322L318 321M317 322L318 323L317 322M285 324L286 325L285 324M314 324L315 325L314 324z"/>
<path style="fill:#5f6773; stroke:none;" d="M339.667 333.333L340.333 333.667L339.667 333.333z"/>
<path style="fill:#243142; stroke:none;" d="M337.448 335.032C333.152 338.026 338.484 344.832 342.552 341.377C346.678 337.872 341.68 332.083 337.448 335.032z"/>
<path style="fill:#5f6773; stroke:none;" d="M335 336L336 337L335 336M344 336L345 337L344 336M335 339L336 340L335 339M344 339L345 340L344 339M336 341L337 342L336 341M343 341L344 342L343 341M337 342L338 343L337 342M342 342L343 343L342 342M355 342L356 343L355 342z"/>
<path style="fill:#243142; stroke:none;" d="M356.039 343.086C350.551 344.205 352.648 352.29 357.857 351.029C362.557 349.892 360.999 342.075 356.039 343.086z"/>
<path style="fill:#5f6773; stroke:none;" d="M357.667 342.333L358.333 342.667L357.667 342.333M465 342L466 343L465 342z"/>
<path style="fill:#243142; stroke:none;" d="M466.039 342.971C460.656 344.21 462.574 352.33 467.776 351.029C472.362 349.882 471.051 341.817 466.039 342.971z"/>
<path style="fill:#5f6773; stroke:none;" d="M468 342L469 343L468 342M353 343L354 344L353 343M463 343L464 344L463 343M462 344L463 345L462 344M361.333 346.667L361.667 347.333L361.333 346.667M373 348L373 349L376 349L373 348M371 349L372 350L371 349z"/>
<path style="fill:#243142; stroke:none;" d="M372.318 350.047C367.838 352.818 372.238 359.417 376.682 356.777C381.179 354.105 376.719 347.324 372.318 350.047z"/>
<path style="fill:#5f6773; stroke:none;" d="M377 349L378 350L377 349M446 349L445 351L446 349z"/>
<path style="fill:#243142; stroke:none;" d="M447.243 350.086C442.842 352.417 446.396 359.213 450.771 356.914C455.329 354.518 451.677 347.739 447.243 350.086z"/>
<path style="fill:#5f6773; stroke:none;" d="M451 349L452 350L451 349M470 349L471 350L470 349M353 350L354 351L353 350M378 350L379 351L378 350M452 350L453 351L452 350M463 350L464 351L463 350M355 351L356 352L355 351M358 351L359 352L358 351M465 351L466 352L465 351M468 351L469 352L468 351z"/>
<path style="fill:#f5e087; stroke:none;" d="M565 351L566 352L565 351z"/>
<path style="fill:#fcfdfe; stroke:none;" d="M706 351C706 371.144 703.733 402.609 726 413C719.333 403.536 711.221 396.941 708.669 385C706.422 374.49 710.04 360.629 706 351z"/>
<path style="fill:#5f6773; stroke:none;" d="M391 352L391 353L395 353L391 352M444 352L445 353L444 352z"/>
<path style="fill:#243142; stroke:none;" d="M390.448 354.032C386.152 357.026 391.484 363.832 395.552 360.377C399.678 356.872 394.68 351.083 390.448 354.032M428.434 354.047C424.049 356.854 428.154 363.762 432.682 360.953C437.07 358.231 432.841 351.226 428.434 354.047M410.144 355.137C405.101 357.525 408.804 364.519 413.683 362.377C418.1 360.438 414.714 352.972 410.144 355.137z"/>
<path style="fill:#5f6773; stroke:none;" d="M413 354L414 355L413 354M444 354L445 355L444 354M453 354L454 355L453 354M388 355L389 356L388 355M397 355L398 356L397 355M408 355L409 356L408 355M426 355L427 356L426 355M523 357L529 356L523 357z"/>
<path style="fill:#f5e087; stroke:none;" d="M529.333 355.667L529.667 356.333L529.333 355.667M563 355L564 356L563 355z"/>
<path style="fill:#5f6773; stroke:none;" d="M445 356L446 357L445 356M452 356L453 357L452 356z"/>
<path style="fill:#243142; stroke:none;" d="M524 356L524 357L529 357L524 356z"/>
<path style="fill:#f5e087; stroke:none;" d="M562 356L563 357L562 356z"/>
<path style="fill:#5f6773; stroke:none;" d="M372 357L373 358L372 357M376 357L377 358L376 357M435 357L436 358L435 357M446 357L447 358L446 357M451 357L452 358L451 357z"/>
<path style="fill:#f5e087; stroke:none;" d="M561 357L562 358L561 357z"/>
<path style="fill:#5f6773; stroke:none;" d="M388 358L389 359L388 358M397 358L398 359L397 358M416.333 358.667L416.667 359.333L416.333 358.667z"/>
<path style="fill:#f5e087; stroke:none;" d="M492 358L493 359L492 358M494 359L495 360L494 359M558 359L559 360L558 359z"/>
<path style="fill:#5f6773; stroke:none;" d="M389 360L390 361L389 360M396 360L397 361L396 360z"/>
<path style="fill:#f5e087; stroke:none;" d="M555 360L556 361L555 360z"/>
<path style="fill:#5f6773; stroke:none;" d="M408 362L409 363L408 362M430 362L431 363L430 362M410 363L410 364L413 364L410 363z"/>
<path style="fill:#f5e087; stroke:none;" d="M706.333 378.667L706.667 379.333L706.333 378.667M708 384L709 385L708 384M707 385L708 386L707 385M709 388L710 389L709 388M708 389L709 390L708 389M710 391L711 392L710 391M710 394L711 395L710 394M711 396L712 397L711 396M712 398L713 399L712 398M714 399L715 400L714 399M716 402L717 403L716 402M716 404L717 405L716 404z"/>
<path style="fill:#fcfdfe; stroke:none;" d="M726 413L726 414C747.121 427.929 775.82 423 800 423L800 422L748 421.384L726 413z"/>
<path style="fill:#f5e087; stroke:none;" d="M728 415L729 416L728 415M743 420L744 421L743 420M748 421L749 422L748 421M746 422L747 423L746 422z"/>
</svg>
