<?xml version="1.0" standalone="yes"?>
<svg xmlns="http://www.w3.org/2000/svg" width="800" height="450">
<path style="fill:#c2ecc8; stroke:none;" d="M0 0L0 352C22.4648 336.175 37.1542 305.156 64 296L19.8449 337.424L0.599537 358.09L0 386L0 450L800 450L800 0L727 0L697 1.02777L682 15L649 47C656.389 27.7905 679.373 16.5052 691 0L38 0L38 116L37 116L37 0L0 0z"/>
<path style="fill:#fefefe; stroke:none;" d="M37 0L37 116L38 116L38 35L37 0z"/>
<path style="fill:#a4a4a4; stroke:none;" d="M649 47L666.286 31.2708L697 0C689.68 0.237488 685.925 5.07556 681 10C671.014 19.9852 652.379 32.7478 649 47M644 30L645 31L644 30M641 32L642 33L641 32M567 34L568 35L567 34M638 34C622.289 43.1682 607.471 43.3607 590 43L590 44C607.79 45.4041 623.199 44.2209 639 35L638 34M569 35L569 36L589 43L589 42L569 35M296 111L261 111L261 112L297 112C297.013 131.151 318.946 130.878 319 112L485 112C485.054 130.848 506.946 130.951 507 112L539 112L539 111L508 111C508 102.905 510.344 90.3913 506.682 83.0046C502.363 74.2927 489.637 74.2926 485.318 83.0046C481.656 90.3913 484 102.905 484 111L320 111C320 102.565 322.438 89.5224 317.91 82.044C313.454 74.683 301.73 74.2805 297.457 82.0941C293.45 89.4217 296 102.825 296 111M256 112L257 113L256 112z"/>
<path style="fill:#7e988d; stroke:none;" d="M257.667 112.333L258.333 112.667L257.667 112.333z"/>
<path style="fill:#283040; stroke:none;" d="M233 154L267 155L337 155L566 155C566 148.166 566.875 140.653 565.073 134C557.982 107.825 528.876 112 508 112C507.594 130.956 484.406 130.956 484 112L320 112C319.134 130.895 296.174 131.272 296 112C274.586 112 246.175 106.759 235.88 131C232.76 138.344 234.815 146.376 233 154z"/>
<path style="fill:#7e988d; stroke:none;" d="M296 112L296 120L297 120L296 112M319 112L319 118L320 118L319 112M484 112L484 119L485 119L484 112M507 112L507 119L508 119L507 112M541.667 112.333L542.333 112.667L541.667 112.333z"/>
<path style="fill:#a4a4a4; stroke:none;" d="M543 112L544 113L543 112M253 113L254 114L253 113z"/>
<path style="fill:#7e988d; stroke:none;" d="M254 113L255 114L254 113M545 113L546 114L545 113z"/>
<path style="fill:#a4a4a4; stroke:none;" d="M546 113L547 114L546 113z"/>
<path style="fill:#7e988d; stroke:none;" d="M251 114L252 115L251 114M548 114L549 115L548 114M249 115L250 116L249 115M550 115L551 116L550 115z"/>
<path style="fill:#a4a4a4; stroke:none;" d="M38 116L39 117L38 116M247 116L248 117L247 116M552 116L553 117L552 116z"/>
<path style="fill:#7e988d; stroke:none;" d="M35 117L34 119L35 117z"/>
<path style="fill:#283040; stroke:none;" d="M36.3071 118.086C33.125 119.946 35.1822 125.271 38.7755 123.744C42.7356 122.06 40.1923 115.815 36.3071 118.086z"/>
<path style="fill:#a4a4a4; stroke:none;" d="M40 117L41 118L40 117z"/>
<path style="fill:#7e988d; stroke:none;" d="M246 117L247 118L246 117M553 117L554 118L553 117z"/>
<path style="fill:#a4a4a4; stroke:none;" d="M41 118L42 119L41 118z"/>
<path style="fill:#7e988d; stroke:none;" d="M554 118L555 119L554 118M41 119L42 120L41 119z"/>
<path style="fill:#a4a4a4; stroke:none;" d="M243 119L244 120L243 119M556 119L557 120L556 119M33.3333 120.667L33.6667 121.333L33.3333 120.667M242 120L243 121L242 120z"/>
<path style="fill:#7e988d; stroke:none;" d="M318 120L319 121L318 120M485.333 120.667L485.667 121.333L485.333 120.667M506.333 120.667L506.667 121.333L506.333 120.667z"/>
<path style="fill:#a4a4a4; stroke:none;" d="M557 120L558 121L557 120z"/>
<path style="fill:#7e988d; stroke:none;" d="M41.3333 121.667L41.6667 122.333L41.3333 121.667z"/>
<path style="fill:#a4a4a4; stroke:none;" d="M241 121L242 122L241 121z"/>
<path style="fill:#7e988d; stroke:none;" d="M297 121L298 122L297 121z"/>
<path style="fill:#a4a4a4; stroke:none;" d="M558 121L559 122L558 121M240 122L241 123L240 122z"/>
<path style="fill:#7e988d; stroke:none;" d="M317 122L318 123L317 122M486 122L487 123L486 122M505 122L506 123L505 122z"/>
<path style="fill:#a4a4a4; stroke:none;" d="M34 123L35 124L34 123z"/>
<path style="fill:#7e988d; stroke:none;" d="M40 123L41 124L40 123M316 123L317 124L316 123M487 123L488 124L487 123M504 123L505 124L504 123M559 123L560 124L559 123z"/>
<path style="fill:#a4a4a4; stroke:none;" d="M35 124L36 125L35 124z"/>
<path style="fill:#7e988d; stroke:none;" d="M36 124L37 125L36 124M39 124L40 125L39 124M239 124L240 125L239 124M299 124L300 125L299 124M315 124L316 125L315 124M488 124L489 125L488 124M503 124L504 125L503 124M560 124L561 125L560 124M238 125L239 126L238 125M301 125L302 126L301 125M314 125L315 126L314 125M489 125L490 126L489 125M502 125L503 126L502 125z"/>
<path style="fill:#a4a4a4; stroke:none;" d="M561 125L562 126L561 125z"/>
<path style="fill:#7e988d; stroke:none;" d="M302.667 126.333L303.333 126.667L302.667 126.333M311.667 126.333L312.333 126.667L311.667 126.333M491.667 126.333L492.333 126.667L491.667 126.333M500 126L501 127L500 126M237 127L238 128L237 127M562 127L563 128L562 127z"/>
<path style="fill:#a4a4a4; stroke:none;" d="M236 128L237 129L236 128z"/>
<path style="fill:#7e988d; stroke:none;" d="M236 129L237 130L236 129M563 129L564 130L563 129z"/>
<path style="fill:#a4a4a4; stroke:none;" d="M235 130L236 131L235 130z"/>
<path style="fill:#7e988d; stroke:none;" d="M235 131L236 132L235 131M564 131L565 132L564 131z"/>
<path style="fill:#a4a4a4; stroke:none;" d="M234 133L235 134L234 133M565 133L566 134L565 133z"/>
<path style="fill:#7e988d; stroke:none;" d="M234 134L235 135L234 134M565.333 134.667L565.667 135.333L565.333 134.667z"/>
<path style="fill:#a4a4a4; stroke:none;" d="M233 137L234 138L233 137M566.333 137.667L566.667 138.333L566.333 137.667z"/>
<path style="fill:#7e988d; stroke:none;" d="M233 138L233 153L234 153L233 138M566 139L566 155L567 155L566 139M233 154L234 155L233 154z"/>
<path style="fill:#fefefe; stroke:none;" d="M233 155L233 301C233 318.58 227.865 345.906 238.638 361C253.299 381.541 287.103 375 309 375L488 375C508.228 375 541.092 381.218 556.96 365.907C569.913 353.408 567 334.386 567 318L567 205L567 169C567 165.684 568.351 158.368 565.397 156.028C560.991 152.538 547.467 155 542 155L479 155L233 155z"/>
<path style="fill:#c2ecc8; stroke:none;" d="M309 174L309 175L320 175L309 174M304.667 175.333L305.333 175.667L304.667 175.333z"/>
<path style="fill:#a4a4a4; stroke:none;" d="M306 175.465C251.255 185.335 268.851 269.917 323 259.739C378.204 249.364 360.876 165.57 306 175.465z"/>
<path style="fill:#c2ecc8; stroke:none;" d="M324.667 175.333L325.333 175.667L324.667 175.333M301 176L302 177L301 176M327.667 176.333L328.333 176.667L327.667 176.333M298 177L299 178L298 177M330.667 177.333L331.333 177.667L330.667 177.333M296 178L297 179L296 178M333 178L334 179L333 178M294 179L295 180L294 179M335 179L336 180L335 179M292 180L293 181L292 180M338 181L339 182L338 181M289 182L290 183L289 182M341 183L342 184L341 183M342 184L343 185L342 184M285 185L286 186L285 185M343 185L344 186L343 185M284 186L285 187L284 186M344 186L345 187L344 186M283 187L284 188L283 187M313 187L313 188L316 188L313 187M345 187L346 188L345 187M282 188L283 189L282 188z"/>
<path style="fill:#fefefe; stroke:none;" d="M312.698 189.047C308.178 192.21 309.369 200.609 305.49 204.566C301.905 208.223 295.6 206.817 291.005 207.019C288.92 207.111 285.636 207.296 285.636 210.133C285.636 217.124 297.692 218.365 299.071 225.015C299.996 229.472 291.616 240.979 297.322 243.839C302.935 246.652 309.189 235.518 315 235.733C320.217 235.926 327.225 246.941 332.397 243.713C337.508 240.523 329.893 229.453 330.502 225.09C331.155 220.419 337.66 217.712 340.887 214.985C342.663 213.485 345.099 210.985 343.149 208.6C339.476 204.109 329.904 208.861 325.133 205.397C321.685 202.892 318.928 184.688 312.698 189.047z"/>
<path style="fill:#c2ecc8; stroke:none;" d="M317 188L318 189L317 188M346 188L347 189L346 188M311 189L312 190L311 189M347 189L348 190L347 189M318 190L319 191L318 190M348 190L349 191L348 190M280 191L281 192L280 191M310.333 191.667L310.667 192.333L310.333 191.667M279 192L280 193L279 192M319 193L320 194L319 193M350 193L351 194L350 193M309.333 194.667L309.667 195.333L309.333 194.667M351 194L352 195L351 194M277 195L278 196L277 195M320 196L321 197L320 196M352 196L353 197L352 196M276 197L277 198L276 197M308.333 197.667L308.667 198.333L308.333 197.667M353 198L354 199L353 198M275 199L276 200L275 199M321.333 199.667L321.667 200.333L321.333 199.667M307.333 200.667L307.667 201.333L307.333 200.667M354 200L355 201L354 200M274 201L275 202L274 201M322.333 202.667L322.667 203.333L322.333 202.667M355 203L356 204L355 203M273 204L274 205L273 204M306 204L307 205L306 204M305 205L306 206L305 205M287 206L287 207L304 207L287 206M325 206L325 207L342 207L325 206M356 206L357 207L356 206M272.333 207.667L272.667 208.333L272.333 207.667M343 207L344 208L343 207M344.333 208.667L344.667 209.333L344.333 208.667M408.667 209.333L409.333 209.667L408.667 209.333M503.667 209.333L504.333 209.667L503.667 209.333M284 210L285 211L284 210M357 210L357 213L358 213L357 210M405 210L404 212L405 210z"/>
<path style="fill:#a4a4a4; stroke:none;" d="M406.109 210.862C397.957 214.449 403.237 227.694 411.956 224.393C421.211 220.889 415.054 206.925 406.109 210.862z"/>
<path style="fill:#c2ecc8; stroke:none;" d="M412 210L413 211L412 210M500 210L501 211L500 210z"/>
<path style="fill:#a4a4a4; stroke:none;" d="M501.044 210.746C491.802 214.376 497.895 227.929 506.945 224.257C515.712 220.699 509.814 207.301 501.044 210.746z"/>
<path style="fill:#c2ecc8; stroke:none;" d="M507 210L508 211L507 210M344 211L345 212L344 211M414 211L415 212L414 211M498 211L499 212L498 211M285 212L286 213L285 212M415 212L416 213L415 212M271 213L271 222L272 222L271 213M286 213L287 214L286 213M402 213L403 214L402 213M510 213L511 214L510 213M341 214L342 215L341 214M416 214L417 215L416 214M496 214L497 215L496 214M289 215L290 216L289 215M340 215L341 216L340 215M401 215L401 220L402 220L401 215M511.333 215.667L511.667 216.333L511.333 215.667M290 216L291 217L290 216M338 216L339 217L338 216M337 217L338 218L337 217M293 218L294 219L293 218M294 219L295 220L294 219M334 219L335 220L334 219M511 219L512 220L511 219M296 220L297 221L296 220M333 220L334 221L333 220M416 220L417 221L416 220M496 220L497 221L496 220M297 221L298 222L297 221M402 221L403 222L402 221M298 222L299 223L298 222M330 222L331 223L330 222M357 222L357 225L358 225L357 222M415 222L416 223L415 222M497 222L498 223L497 222M299 223L299 227L300 227L299 223M414 223L415 224L414 223M498 223L499 224L498 223M405 224L406 225L405 224M413 224L414 225L413 224M507 224L508 225L507 224M407 225L407 226L411 226L407 225M502 225L502 226L506 226L502 225M272.333 226.667L272.667 227.333L272.333 226.667M330 227L331 228L330 227M298.333 228.667L298.667 229.333L298.333 228.667M356.333 228.667L356.667 229.333L356.333 228.667M273 230L274 231L273 230M331 230L332 231L331 230M297.333 231.667L297.667 232.333L297.333 231.667M355.333 231.667L355.667 232.333L355.333 231.667M274 233L275 234L274 233M332 233L333 234L332 233M296.333 234.667L296.667 235.333L296.333 234.667M354 234L355 235L354 234M275 235L276 236L275 235M312 235L313 236L312 235M316 235L317 236L316 235M311 236L312 237L311 236M318 236L319 237L318 236M333 236L334 237L333 236M353 236L354 237L353 236M276 237L277 238L276 237M295.333 237.667L295.667 238.333L295.333 237.667M319 237L320 238L319 237M308 238L309 239L308 238M352 238L353 239L352 238M277 239L278 240L277 239M322 239L323 240L322 239M334 239L334 243L335 243L334 239M305 240L306 241L305 240M323 240L324 241L323 240M351 240L352 241L351 240M278 241L279 242L278 241M304 241L305 242L304 241M350 241L351 242L350 241M279 242L280 243L279 242M326 242L327 243L326 242M295 243L296 244L295 243M301 243L302 244L301 243M327 243L328 244L327 243M349 243L350 244L349 243M296 244L297 245L296 244M300 244L301 245L300 244M329 244L330 245L329 244M332 244L333 245L332 244M348 244L349 245L348 244M281 245L282 246L281 245M347 245L348 246L347 245M282 246L283 247L282 246M283 247L284 248L283 247M284 248L285 249L284 248M285 249L286 250L285 249M286 250L287 251L286 250M342 250L343 251L342 250z"/>
<path style="fill:#a4a4a4; stroke:none;" d="M783 250L784 251L783 250z"/>
<path style="fill:#c2ecc8; stroke:none;" d="M341 251L342 252L341 251z"/>
<path style="fill:#a4a4a4; stroke:none;" d="M785 251L786 252L785 251z"/>
<path style="fill:#c2ecc8; stroke:none;" d="M289 252L290 253L289 252M340 252L341 253L340 252z"/>
<path style="fill:#a4a4a4; stroke:none;" d="M787 252L790 254L790 253L787 252z"/>
<path style="fill:#c2ecc8; stroke:none;" d="M290 253L291 254L290 253M338 253L339 254L338 253M292 254L293 255L292 254M337 254L338 255L337 254z"/>
<path style="fill:#a4a4a4; stroke:none;" d="M791 254L791 255L799 257L799 256L791 254z"/>
<path style="fill:#c2ecc8; stroke:none;" d="M293 255L294 256L293 255M335 255L336 256L335 255M295 256L296 257L295 256M333 256L334 257L333 256M297.667 257.333L298.333 257.667L297.667 257.333M331 257L332 258L331 257z"/>
<path style="fill:#a4a4a4; stroke:none;" d="M799 257L800 258L799 257z"/>
<path style="fill:#c2ecc8; stroke:none;" d="M300 258L301 259L300 258M328 258L329 259L328 258M303.667 259.333L304.333 259.667L303.667 259.333M324.667 259.333L325.333 259.667L324.667 259.333M308 260L308 261L312 261L308 260M318 260L318 261L322 261L318 260z"/>
<path style="fill:#a4a4a4; stroke:none;" d="M758 271L759 272L758 271z"/>
<path style="fill:#7e988d; stroke:none;" d="M759 271L759 272L762 272L759 271M757 272L758 273L757 272z"/>
<path style="fill:#283040; stroke:none;" d="M758.603 273.046C755.816 275.159 758.481 279.815 761.697 277.914C765.385 275.735 761.948 270.512 758.603 273.046z"/>
<path style="fill:#a4a4a4; stroke:none;" d="M763 272L764 273L763 272M756 273L757 274L756 273z"/>
<path style="fill:#7e988d; stroke:none;" d="M756 274L756 277L757 277L756 274z"/>
<path style="fill:#a4a4a4; stroke:none;" d="M764 274L765 275L764 274z"/>
<path style="fill:#7e988d; stroke:none;" d="M764 275L765 276L764 275z"/>
<path style="fill:#a4a4a4; stroke:none;" d="M764 276L765 277L764 276z"/>
<path style="fill:#7e988d; stroke:none;" d="M763 277L764 278L763 277z"/>
<path style="fill:#a4a4a4; stroke:none;" d="M757 278L758 279L757 278z"/>
<path style="fill:#7e988d; stroke:none;" d="M762 278L763 279L762 278z"/>
<path style="fill:#a4a4a4; stroke:none;" d="M759 279L759 280L762 280L759 279z"/>
<path style="fill:#fefefe; stroke:none;" d="M760 280L760 300L761 300L760 280z"/>
<path style="fill:#a4a4a4; stroke:none;" d="M0 357C15.022 347.969 27.5994 330.392 40.0247 318.025C47.6609 310.426 57.3746 304.504 64 296C44.026 300.747 27.9079 324.092 14 338C8.54883 343.451 0.616231 348.826 0 357M758 300L759 301L758 300z"/>
<path style="fill:#7e988d; stroke:none;" d="M759 300L759 301L762 301L759 300M757 301L758 302L757 301z"/>
<path style="fill:#283040; stroke:none;" d="M758.599 302.047C755.391 304.439 757 313.476 757 317L757 359C757 361.586 755.615 375.21 761.701 371.863C765.62 369.709 764 360.689 764 357L764 313C764 310.555 764.627 297.552 758.599 302.047z"/>
<path style="fill:#a4a4a4; stroke:none;" d="M763 301L764 302L763 301M756 302L757 303L756 302z"/>
<path style="fill:#7e988d; stroke:none;" d="M756 303L756 371L757 371L757 324L756 303z"/>
<path style="fill:#a4a4a4; stroke:none;" d="M764 303L765 304L764 303z"/>
<path style="fill:#c2ecc8; stroke:none;" d="M311 304L312 305L311 304z"/>
<path style="fill:#a4a4a4; stroke:none;" d="M312.044 304.758C302.79 308.219 308.903 322.053 317.891 318.257C326.068 314.803 320.385 301.638 312.044 304.758z"/>
<path style="fill:#c2ecc8; stroke:none;" d="M317 304L318 305L317 304M406 304L407 305L406 304z"/>
<path style="fill:#a4a4a4; stroke:none;" d="M407.019 304.758C398.132 308.016 402.784 321.865 411.956 318.393C420.629 315.109 415.772 301.549 407.019 304.758z"/>
<path style="fill:#c2ecc8; stroke:none;" d="M412 304L413 305L412 304M500 304L501 305L500 304z"/>
<path style="fill:#a4a4a4; stroke:none;" d="M501.044 304.747C491.78 308.354 497.932 321.924 506.945 318.396C515.762 314.945 509.77 301.349 501.044 304.747z"/>
<path style="fill:#c2ecc8; stroke:none;" d="M507 304L508 305L507 304z"/>
<path style="fill:#7e988d; stroke:none;" d="M764 304L764 370L765 370L765 325L764 304z"/>
<path style="fill:#c2ecc8; stroke:none;" d="M309 305L310 306L309 305M319 305L320 306L319 305M404 305L405 306L404 305M414 305L415 306L414 305M508 305L509 306L508 305M308 306L309 307L308 306M320 306L321 307L320 306M403 306L404 307L403 306M415 306L416 307L415 306M321 307L322 308L321 307M402 307L403 308L402 307M510 307L511 308L510 307M307 308L308 309L307 308M416 308L417 309L416 308M496 308L497 309L496 308M322 309L322 314L323 314L322 309M401 309L401 314L402 314L401 309M511.333 309.667L511.667 310.333L511.333 309.667M511.333 313.667L511.667 314.333L511.333 313.667M307.333 314.667L307.667 315.333L307.333 314.667M416.333 314.667L416.667 315.333L416.333 314.667M496 314L497 315L496 314M321 315L322 316L321 315M402 315L403 316L402 315M308 316L309 317L308 316M415 316L416 317L415 316M497 316L498 317L497 316M309 317L310 318L309 317M414 317L415 318L414 317M498 317L499 318L498 317M509 317L510 318L509 317M310 318L311 319L310 318M318 318L319 319L318 318M405 318L406 319L405 318M413 318L414 319L413 318M499 318L500 319L499 318M312 319L312 320L317 320L312 319M407 319L407 320L412 320L407 319M501 319L501 320L506 320L501 319z"/>
<path style="fill:#a4a4a4; stroke:none;" d="M764 370L765 371L764 370z"/>
<path style="fill:#7e988d; stroke:none;" d="M763 371L764 372L763 371M758 372L759 373L758 372M762 372L763 373L762 372z"/>
<path style="fill:#fefefe; stroke:none;" d="M760 374L760 391L761 391L760 374M759 393L759 396L760 396L759 393M758.333 397.667L758.667 398.333L758.333 397.667M757 400L744 418C749.102 414.406 758.142 406.986 757 400M742 418L734 422L734 423L743 419L742 418z"/>
<path style="fill:#a4a4a4; stroke:none;" d="M314 421L315 422L314 421z"/>
<path style="fill:#283040; stroke:none;" d="M315.303 422.176C311.997 423.824 314.16 429.255 317.701 428.11C321.442 426.899 318.897 420.385 315.303 422.176z"/>
<path style="fill:#7e988d; stroke:none;" d="M318 421L319 422L318 421M313 422L314 423L313 422M319 422L320 423L319 422M320 423L320 427L321 427L320 423z"/>
<path style="fill:#fefefe; stroke:none;" d="M730 423L730 424L733 424L730 423z"/>
<path style="fill:#a4a4a4; stroke:none;" d="M312.333 424.667L312.667 425.333L312.333 424.667z"/>
<path style="fill:#fefefe; stroke:none;" d="M321 424L321 425L729 425L693 424L610 424L321 424z"/>
<path style="fill:#7e988d; stroke:none;" d="M313 427L314 428L313 427M314 428L315 429L314 428M318 428L319 429L318 428z"/>
</svg>
