<?xml version="1.0" standalone="yes"?>
<svg xmlns="http://www.w3.org/2000/svg" width="800" height="450">
<path style="fill:#a9d3ca; stroke:none;" d="M0 0L0 140L59 140L59 141L0 141L0 142L123 142C128.625 142 137.535 143.688 142.741 141.397C146.374 139.797 147.588 134.889 152.001 134.466C155.873 134.095 159.821 138.293 160.033 142C160.268 146.092 156.17 150.463 152.003 150.003C147.742 149.532 146.371 145.114 142.791 143.603C137.473 141.358 128.712 143 123 143L0 143L0 144L67 144L67 145L0 145L0 146C18.799 146.002 38.8363 162.896 55 171.861C59.9722 174.619 70.2082 183.265 76 182.176C85.5505 180.38 96.402 164.598 103 158L84.2068 180L91 189L110 208L190 288L191 288C199.808 279.192 215.4 268.955 217.671 256C220.447 240.172 209.139 231.139 199 221C179.163 201.163 159.848 180.848 140 161C163.365 177.458 183.045 202.391 204 221.91C215.744 232.85 228.247 242.731 229 260L230 260L230 258L231 258C230.526 261.523 227.896 267.318 230.618 270.343C234.591 274.76 244.511 270.348 250 271.761C259.338 274.164 265.438 281.438 272 288L273 288L316 227L331 208C326.054 187.225 330 161.357 330 140C330 130.511 328.316 118.829 332.572 110C338.522 97.6547 354.363 86.6369 364 77C373.366 67.634 386.166 48.2792 401 49.108C410.102 49.6166 416.024 57.0242 422 63C436.126 77.126 455.255 91.3547 466.297 108C470.573 114.446 470 122.639 470 130L470 171C470 225.957 469 280.975 469 336L331 337L331 338L350 338.638L362.039 343.942L422 344L422 345C401.25 345 376.187 348.806 356 344L355 346L355 347C376.205 343.466 400.947 346 423 346C428.571 346 442.238 343.403 447 346C452.953 349.247 450 367.788 450 374C450 376.774 451.719 379.485 451 382C450.467 383.865 449.894 382.224 449 382L447 384L448 386L447 386L443 386L444 384L441 385L442 383L439 384L440 382L437 383L438 381L435 382L436 380L433 381L434 379L431 380L432 378L429 379L430 377L429 377L424 378L425 381L423 380L424 383L420 386L423 386L425 381C455.758 393.806 485.005 414.008 514 430.424C524.654 436.456 536.384 445.515 548 449.301C554.513 451.424 563.205 450 570 450L614 450L762 450C762 437.222 763.96 422.685 761.852 410.093C761.149 405.893 756.755 404.019 755.514 399.985C753.692 394.066 755 386.154 755 380C755 371.996 753.785 362.88 755.228 355.001C756.055 350.486 760.508 348.85 761.682 344.791C768.551 321.044 758.208 290.887 736 279.81C729.748 276.692 722.845 275.866 716 275C712.828 282.057 700.339 286.622 699.828 275C699.124 258.992 714.822 272.979 719.054 273.891C737.492 277.866 753.016 286.501 760.546 305C765.804 317.914 761.898 330.743 764.148 343.896C764.978 348.749 770.294 350.665 770.891 356C772.26 368.226 773.845 388.153 770.566 399.996C769.421 404.134 764.865 405.916 764.148 410.104C762 422.661 764 437.249 764 450L800 450L800 0L0 0z"/>
<path style="fill:#f2f7ea; stroke:none;" d="M331 336L469 336C469 280.639 470 225.295 470 170C470 152.566 475.217 124.92 467.431 109C464.197 102.386 457.134 97.1337 452 92L422 62C415.577 55.5772 409.73 49.0293 400 49.0293C390.27 49.0293 384.423 55.5772 378 62L348 92C342.884 97.1161 335.759 102.386 332.572 109C324.84 125.042 330 152.506 330 170C330 225.295 331 280.639 331 336M0 142C12.6453 147.306 35.2234 143 49 143L112 143C120.879 143 132.365 141.052 140.957 143.318C145.158 144.426 146.689 149.243 151.015 150.253C156.727 151.587 161.861 145.443 160.063 140.005C155.619 126.558 146.687 140.138 140.946 141.682C135.555 143.132 128.562 142 123 142L0 142z"/>
<path style="fill:#81c5bc; stroke:none;" d="M0 140L0 141L59 141L40 140L0 140z"/>
<path style="fill:#a9d3ca; stroke:none;" d="M386 140L386 141L393 141L386 140M411 140L411 141L418 141L411 140M383 141L384 142L383 141z"/>
<path style="fill:#81c5bc; stroke:none;" d="M384 141.653C359.801 149.252 378.604 175.021 387.91 185C392.695 190.13 397.933 197.324 406 194.258C411.141 192.304 414.783 186.973 418.285 183C427.461 172.593 439.576 158.01 425.895 145.214C417.244 137.122 411.056 144.325 402 144.083C395.558 143.911 391.043 139.441 384 141.653z"/>
<path style="fill:#a9d3ca; stroke:none;" d="M395 141L396 142L395 141M408 141L409 142L408 141M420 141L421 142L420 141M381 142L382 143L381 142M397 142L398 143L397 142M406 142L407 143L406 142M422 142L423 143L422 142M379 143L380 144L379 143M399 143L400 144L399 143M405 143L406 144L405 143M424 143L425 144L424 143z"/>
<path style="fill:#81c5bc; stroke:none;" d="M0 144L0 145L67 145L46 144L0 144z"/>
<path style="fill:#a9d3ca; stroke:none;" d="M378 144L379 145L378 144M400 144L401 145L400 144M403 144L404 145L403 144M425 144L426 145L425 144z"/>
<path style="fill:#81c5bc; stroke:none;" d="M633 144C614.9 162.1 578.163 184.927 589 214L590 214C586.249 193.785 607.607 172.906 622 161L633 144z"/>
<path style="fill:#a9d3ca; stroke:none;" d="M377 145L378 146L377 145M426 145L427 146L426 145z"/>
<path style="fill:#81c5bc; stroke:none;" d="M0 146L0 450L548 450L548 449L468 403.999L425 381L423 386L421 385C418.701 388.939 416.669 393.027 414.424 397L409.421 406C396.451 428.457 388.236 385.067 378.671 378.697C372.158 374.359 364.755 385.769 358.059 384.184C353.58 383.123 354.007 377.522 354 374C353.979 363.701 355.277 353.917 356 344C375.157 349.662 401.983 345 422 345L422 344L362.039 343.856L350.999 338.638L331 338L331 337L449 337L449 336L371 336L330 335L314 337L276 337L276 336L278 336L278 335L272 336L273 334L269 334L264 327L262 324L260 325L261 322L259 323L259 322L260 318C256.454 318.709 257.24 310.31 260 311L259 307L261 308L260 305L262 302L264 299L267 298L267 294L269 292L274 287L252 272.044L231.357 270.307L231 258L230 258L230 260L229 260C228.64 242.655 216.801 232.903 205 221.91C191.198 209.054 177.801 195.766 164 182.91C156.47 175.896 149.404 165.385 140 161C155.576 183.112 179.839 202.839 199 222C208.433 231.433 220.918 240.983 217.471 256C214.349 269.598 198.689 277.084 191 288L190 288L163 260L112 209L92 189L85.0556 180L103 158C94.5858 163.927 86.2406 179.199 76 181.569C70.4191 182.86 59.853 173.94 55 171.309C38.2945 162.252 19.3796 146 0 146z"/>
<path style="fill:#a9d3ca; stroke:none;" d="M376 146L377 147L376 146M427 146L428 147L427 146M428 147L429 148L428 147M375 148L376 149L375 148M374 149L375 150L374 149M429 149L430 150L429 149M373.333 151.667L373.667 152.333L373.333 151.667M430 151L431 152L430 151z"/>
<path style="fill:#81c5bc; stroke:none;" d="M123 152L124 153L123 152M109 154L110 155L109 154z"/>
<path style="fill:#a9d3ca; stroke:none;" d="M372 154L372 157L373 157L372 154M431 154L432 155L431 154z"/>
<path style="fill:#81c5bc; stroke:none;" d="M107 155L108 156L107 155M105 156L104 158L105 156M134 156L140 161L134 156z"/>
<path style="fill:#a9d3ca; stroke:none;" d="M432 159L433 160L432 159M372 162L372 165L373 165L372 162M431.333 164.667L431.667 165.333L431.333 164.667M373 167L374 168L373 167M430 167L431 168L430 167M374 169L375 170L374 169M429 169L430 170L429 169M428 171L429 172L428 171M376 172L377 173L376 172M427 172L428 173L427 172z"/>
<path style="fill:#81c5bc; stroke:none;" d="M581 172L571 180L571 181L581 172z"/>
<path style="fill:#a9d3ca; stroke:none;" d="M377 173L378 174L377 173M378 174L379 175L378 174M423 177L424 178L423 177M422 178L423 179L422 178M421 179L422 180L421 179M383 180L384 181L383 180M420 180L421 181L420 180M384 181L385 182L384 181M419 181L420 182L419 181z"/>
<path style="fill:#81c5bc; stroke:none;" d="M565 182L565 183L570 182L565 182z"/>
<path style="fill:#a9d3ca; stroke:none;" d="M385 182L386 183L385 182M418 182L419 183L418 182M386 183L387 184L386 183M417 183L418 184L417 183M387 184L388 185L387 184M388 185L389 186L388 185M389 186L390 187L389 186M390 187L391 188L390 187M413 188L414 189L413 188M412 189L413 190L412 189M411 190L412 191L411 190M410 191L411 192L410 191M409 192L410 193L409 192M396 193L397 194L396 193M408 193L409 194L408 193M397 194L398 195L397 194M406 194L407 195L406 194M400 195L400 196L404 196L400 195z"/>
<path style="fill:#81c5bc; stroke:none;" d="M329 207L331 209L329 207M470 207L471 208L470 207z"/>
<path style="fill:#272f3f; stroke:none;" d="M329 208C312.637 237.362 289.977 264.44 270.72 292C262.788 303.352 253.019 319.071 267.043 330.606C273.364 335.805 281.354 335 289 335L330 335L330 246C330 235.104 333.208 218.028 329 208M470 208L470 335L513 335C521.004 335 528.842 335.238 534.786 328.895C545.853 317.085 537.357 303.659 529.975 293C516.547 273.61 503.046 254.253 489.424 235C483.143 226.121 477.523 215.854 470 208z"/>
<path style="fill:#506a73; stroke:none;" d="M328 209L329 210L328 209z"/>
<path style="fill:#a9d3ca; stroke:none;" d="M330 209L330 231L331 231L330 209z"/>
<path style="fill:#506a73; stroke:none;" d="M471 209L472 210L471 209z"/>
<path style="fill:#81c5bc; stroke:none;" d="M327 210L328 211L327 210M472 210L473 211L472 210M326 211L327 212L326 211M473 211L474 212L473 211z"/>
<path style="fill:#506a73; stroke:none;" d="M326 212L327 213L326 212M473 212L474 213L473 212M325 213L326 214L325 213M474 213L475 214L474 213z"/>
<path style="fill:#81c5bc; stroke:none;" d="M324 214L325 215L324 214M475 214L476 215L475 214z"/>
<path style="fill:#506a73; stroke:none;" d="M324 215L325 216L324 215M475 215L476 216L475 215z"/>
<path style="fill:#81c5bc; stroke:none;" d="M590 215L591 216L590 215z"/>
<path style="fill:#506a73; stroke:none;" d="M323 216L324 217L323 216M476 216L477 217L476 216z"/>
<path style="fill:#81c5bc; stroke:none;" d="M322 217L323 218L322 217M477 217L478 218L477 217z"/>
<path style="fill:#506a73; stroke:none;" d="M321 219L322 220L321 219M478 219L479 220L478 219z"/>
<path style="fill:#81c5bc; stroke:none;" d="M320 220L321 221L320 220M479 220L480 221L479 220M319 221L320 222L319 221M480 221L481 222L480 221z"/>
<path style="fill:#506a73; stroke:none;" d="M319 222L320 223L319 222M480 222L481 223L480 222M318 223L319 224L318 223M481 223L482 224L481 223z"/>
<path style="fill:#81c5bc; stroke:none;" d="M317 224L318 225L317 224M482 224L483 225L482 224z"/>
<path style="fill:#506a73; stroke:none;" d="M317 225L318 226L317 225M482 225L483 226L482 225M316 226L317 227L316 226M483 226L484 227L483 226z"/>
<path style="fill:#81c5bc; stroke:none;" d="M315 227L316 228L315 227M484 227L485 228L484 227z"/>
<path style="fill:#506a73; stroke:none;" d="M315 228L316 229L315 228M314 229L315 230L314 229M485 229L486 230L485 229z"/>
<path style="fill:#81c5bc; stroke:none;" d="M313 230L314 231L313 230M486 230L487 231L486 230M312 231L313 232L312 231M330 231L331 232L330 231M487 231L488 232L487 231z"/>
<path style="fill:#506a73; stroke:none;" d="M312 232L313 233L312 232z"/>
<path style="fill:#a9d3ca; stroke:none;" d="M330 232L330 270L331 270C331 259.089 334.211 242.036 330 232z"/>
<path style="fill:#506a73; stroke:none;" d="M487 232L488 233L487 232M311 233L312 234L311 233M488 233L489 234L488 233z"/>
<path style="fill:#81c5bc; stroke:none;" d="M310 234L311 235L310 234M489 234L490 235L489 234z"/>
<path style="fill:#506a73; stroke:none;" d="M310 235L311 236L310 235M489 235L490 236L489 235M309 236L310 237L309 236M490 236L491 237L490 236z"/>
<path style="fill:#81c5bc; stroke:none;" d="M308 237L309 238L308 237M491 237L492 238L491 237z"/>
<path style="fill:#506a73; stroke:none;" d="M308 238L309 239L308 238M307 239L308 240L307 239M492 239L493 240L492 239z"/>
<path style="fill:#81c5bc; stroke:none;" d="M306 240L307 241L306 240M493 240L494 241L493 240M305 241L306 242L305 241z"/>
<path style="fill:#506a73; stroke:none;" d="M305 242L306 243L305 242M494 242L495 243L494 242M304 243L305 244L304 243M495 243L496 244L495 243z"/>
<path style="fill:#81c5bc; stroke:none;" d="M303 244L304 245L303 244M496 244L497 245L496 244z"/>
<path style="fill:#506a73; stroke:none;" d="M303 245L304 246L303 245M496 245L497 246L496 245M302 246L303 247L302 246M497 246L498 247L497 246z"/>
<path style="fill:#81c5bc; stroke:none;" d="M301 247L302 248L301 247M498 247L499 248L498 247z"/>
<path style="fill:#506a73; stroke:none;" d="M301 248L302 249L301 248M300 249L301 250L300 249M499 249L500 250L499 249z"/>
<path style="fill:#81c5bc; stroke:none;" d="M299 250L300 251L299 250M500 250L501 251L500 250M298 251L299 252L298 251z"/>
<path style="fill:#506a73; stroke:none;" d="M298 252L299 253L298 252M501 252L502 253L501 252M297 253L298 254L297 253M502 253L503 254L502 253z"/>
<path style="fill:#81c5bc; stroke:none;" d="M296 254L297 255L296 254M503 254L504 255L503 254z"/>
<path style="fill:#506a73; stroke:none;" d="M296 255L297 256L296 255M503 255L504 256L503 255M295 256L296 257L295 256M504 256L505 257L504 256z"/>
<path style="fill:#81c5bc; stroke:none;" d="M294 257L295 258L294 257M505 257L506 258L505 257z"/>
<path style="fill:#506a73; stroke:none;" d="M294 258L295 259L294 258M505 258L506 259L505 258M293 259L294 260L293 259M506 259L507 260L506 259z"/>
<path style="fill:#81c5bc; stroke:none;" d="M292 260L293 261L292 260M507 260L508 261L507 260M291 261L292 262L291 261z"/>
<path style="fill:#506a73; stroke:none;" d="M291 262L292 263L291 262M508 262L509 263L508 262M290 263L291 264L290 263M509 263L510 264L509 263z"/>
<path style="fill:#81c5bc; stroke:none;" d="M289 264L290 265L289 264M510 264L511 265L510 264z"/>
<path style="fill:#506a73; stroke:none;" d="M289 265L290 266L289 265M510 265L511 266L510 265M288 266L289 267L288 266M511 266L512 267L511 266z"/>
<path style="fill:#f2f7ea; stroke:none;" d="M716 275C723.35 276.369 730.352 277.13 737 280.876C759.216 293.392 765.798 318.941 761.852 342.957C761.143 347.269 756.601 348.866 755.434 353.015C753.267 360.715 755 371.024 755 379C755 385.697 753.49 394.537 755.514 400.96C756.787 405 761.154 406.728 761.852 411.04C763.849 423.381 762 437.49 762 450L764 450C764 437.506 762.124 423.363 764.148 411.043C764.857 406.731 769.399 405.134 770.566 400.985C774.024 388.696 772.318 367.704 770.891 355.001C770.293 349.677 764.96 347.898 764.148 342.957C761.849 328.963 766.011 315.538 759.677 302C749.408 280.052 729.165 279.081 711.871 267.861C706.24 264.208 698.357 269.245 699.539 275.999C701.424 286.778 713.584 282.96 716 275z"/>
<path style="fill:#81c5bc; stroke:none;" d="M287 267L288 268L287 267M512 267L513 268L512 267z"/>
<path style="fill:#506a73; stroke:none;" d="M287 268L288 269L287 268M512 268L513 269L512 268M286 269L287 270L286 269M513 269L514 270L513 269z"/>
<path style="fill:#81c5bc; stroke:none;" d="M283 270L284 271L283 270M285 270L286 271L285 270M330 270L331 271L330 270M514 270L515 271L514 270M284 271L285 272L284 271z"/>
<path style="fill:#a9d3ca; stroke:none;" d="M330 271L330 335L331 335L331 291L330 271z"/>
<path style="fill:#506a73; stroke:none;" d="M284 272L285 273L284 272M515 272L516 273L515 272z"/>
<path style="fill:#81c5bc; stroke:none;" d="M281 273L282 274L281 273M283 273L284 274L283 273M516 273L517 274L516 273z"/>
<path style="fill:#a9d3ca; stroke:none;" d="M230 274L231 275L230 274z"/>
<path style="fill:#81c5bc; stroke:none;" d="M282 274L283 275L282 274M517 274L518 275L517 274z"/>
<path style="fill:#506a73; stroke:none;" d="M282 275L283 276L282 275M517 275L518 276L517 275z"/>
<path style="fill:#81c5bc; stroke:none;" d="M279 276L278 278L279 276z"/>
<path style="fill:#506a73; stroke:none;" d="M281 276L282 277L281 276M518 276L519 277L518 276z"/>
<path style="fill:#81c5bc; stroke:none;" d="M280 277L279 279L280 277M519 277L520 278L519 277z"/>
<path style="fill:#506a73; stroke:none;" d="M280 278L281 279L280 278M519 278L520 279L519 278z"/>
<path style="fill:#81c5bc; stroke:none;" d="M277 279L276 281L277 279z"/>
<path style="fill:#506a73; stroke:none;" d="M279 279L280 280L279 279M520 279L521 280L520 279z"/>
<path style="fill:#81c5bc; stroke:none;" d="M278 280L279 281L278 280M521 280L522 281L521 280M277 281L278 282L277 281M275 282L273 285L275 282z"/>
<path style="fill:#506a73; stroke:none;" d="M277 282L278 283L277 282M522 282L523 283L522 282z"/>
<path style="fill:#81c5bc; stroke:none;" d="M276 283L277 284L276 283M523 283L524 284L523 283M275 284L276 285L275 284M524 284L525 285L524 284z"/>
<path style="fill:#506a73; stroke:none;" d="M275 285L276 286L275 285M524 285L525 286L524 285z"/>
<path style="fill:#81c5bc; stroke:none;" d="M272 286L273 287L272 286z"/>
<path style="fill:#506a73; stroke:none;" d="M274 286L275 287L274 286M525 286L526 287L525 286z"/>
<path style="fill:#81c5bc; stroke:none;" d="M526 287L527 288L526 287z"/>
<path style="fill:#506a73; stroke:none;" d="M273 288L274 289L273 288M526 288L527 289L526 288M272 289L273 290L272 289M527 289L528 290L527 289z"/>
<path style="fill:#a9d3ca; stroke:none;" d="M270 290L271 291L270 290z"/>
<path style="fill:#81c5bc; stroke:none;" d="M528 290L529 291L528 290z"/>
<path style="fill:#a9d3ca; stroke:none;" d="M269 292L270 293L269 292z"/>
<path style="fill:#506a73; stroke:none;" d="M270 292L271 293L270 292M529 292L530 293L529 292z"/>
<path style="fill:#a9d3ca; stroke:none;" d="M268 293L269 294L268 293z"/>
<path style="fill:#81c5bc; stroke:none;" d="M530 293L531 294L530 293z"/>
<path style="fill:#a9d3ca; stroke:none;" d="M267 294L266 297L267 294z"/>
<path style="fill:#81c5bc; stroke:none;" d="M531 294L532 295L531 294z"/>
<path style="fill:#506a73; stroke:none;" d="M268 295L269 296L268 295M531 295L532 296L531 295M267 296L268 297L267 296M532 296L533 297L532 296z"/>
<path style="fill:#a9d3ca; stroke:none;" d="M265 297L266 298L265 297z"/>
<path style="fill:#81c5bc; stroke:none;" d="M533 297L534 298L533 297z"/>
<path style="fill:#506a73; stroke:none;" d="M266 298L267 299L266 298M533 298L534 299L533 298z"/>
<path style="fill:#a9d3ca; stroke:none;" d="M264 299L265 300L264 299z"/>
<path style="fill:#506a73; stroke:none;" d="M265 299L266 300L265 299M534 299L535 300L534 299z"/>
<path style="fill:#a9d3ca; stroke:none;" d="M263 300L264 301L263 300z"/>
<path style="fill:#81c5bc; stroke:none;" d="M535 300L536 301L535 300z"/>
<path style="fill:#506a73; stroke:none;" d="M264 301L265 302L264 301z"/>
<path style="fill:#a9d3ca; stroke:none;" d="M262 302L263 303L262 302z"/>
<path style="fill:#506a73; stroke:none;" d="M263 302L264 303L263 302M536 302L537 303L536 302z"/>
<path style="fill:#a9d3ca; stroke:none;" d="M261 303L262 304L261 303z"/>
<path style="fill:#81c5bc; stroke:none;" d="M537 303L538 304L537 303z"/>
<path style="fill:#a9d3ca; stroke:none;" d="M260 305L261 306L260 305z"/>
<path style="fill:#506a73; stroke:none;" d="M261 305L262 306L261 305M538 305L539 306L538 305z"/>
<path style="fill:#a9d3ca; stroke:none;" d="M259.333 307.667L259.667 308.333L259.333 307.667z"/>
<path style="fill:#81c5bc; stroke:none;" d="M539 307L540 308L539 307z"/>
<path style="fill:#506a73; stroke:none;" d="M260 308L261 309L260 308M539 308L540 309L539 308z"/>
<path style="fill:#a9d3ca; stroke:none;" d="M258 310L258 319L259 319L258 310z"/>
<path style="fill:#81c5bc; stroke:none;" d="M540 310L541 311L540 310z"/>
<path style="fill:#506a73; stroke:none;" d="M259 311L259 318L260 318L259 311M540 311L540 318L541 318L540 311z"/>
<path style="fill:#81c5bc; stroke:none;" d="M540.333 318.667L540.667 319.333L540.333 318.667z"/>
<path style="fill:#506a73; stroke:none;" d="M260.333 320.667L260.667 321.333L260.333 320.667M539.333 320.667L539.667 321.333L539.333 320.667z"/>
<path style="fill:#a9d3ca; stroke:none;" d="M259.333 321.667L259.667 322.333L259.333 321.667z"/>
<path style="fill:#81c5bc; stroke:none;" d="M539 322L540 323L539 322z"/>
<path style="fill:#a9d3ca; stroke:none;" d="M260.333 323.667L260.667 324.333L260.333 323.667z"/>
<path style="fill:#506a73; stroke:none;" d="M261 323L262 324L261 323M538 323L539 324L538 323z"/>
<path style="fill:#81c5bc; stroke:none;" d="M538 324L539 325L538 324z"/>
<path style="fill:#a9d3ca; stroke:none;" d="M261 325L262 326L261 325z"/>
<path style="fill:#506a73; stroke:none;" d="M262 325L263 326L262 325M537 325L538 326L537 325z"/>
<path style="fill:#81c5bc; stroke:none;" d="M537 326L538 327L537 326z"/>
<path style="fill:#a9d3ca; stroke:none;" d="M262 327L263 328L262 327z"/>
<path style="fill:#81c5bc; stroke:none;" d="M536 327L537 328L536 327z"/>
<path style="fill:#a9d3ca; stroke:none;" d="M263 328L266 331L263 328z"/>
<path style="fill:#506a73; stroke:none;" d="M264 328L265 329L264 328M535 328L536 329L535 328M265 329L266 330L265 329M534 329L535 330L534 329z"/>
<path style="fill:#81c5bc; stroke:none;" d="M533 330L534 331L533 330z"/>
<path style="fill:#a9d3ca; stroke:none;" d="M266 331L268 333L266 331z"/>
<path style="fill:#81c5bc; stroke:none;" d="M532 331L533 332L532 331z"/>
<path style="fill:#506a73; stroke:none;" d="M269 332L270 333L269 332M530 332L531 333L530 332z"/>
<path style="fill:#81c5bc; stroke:none;" d="M531 332L532 333L531 332z"/>
<path style="fill:#a9d3ca; stroke:none;" d="M269 333L270 334L269 333z"/>
<path style="fill:#506a73; stroke:none;" d="M271 333L272 334L271 333M528 333L529 334L528 333z"/>
<path style="fill:#81c5bc; stroke:none;" d="M529 333L530 334L529 333z"/>
<path style="fill:#a9d3ca; stroke:none;" d="M271 334L272 335L271 334z"/>
<path style="fill:#506a73; stroke:none;" d="M273.667 334.333L274.333 334.667L273.667 334.333M525.667 334.333L526.333 334.667L525.667 334.333z"/>
<path style="fill:#81c5bc; stroke:none;" d="M527 334L528 335L527 334z"/>
<path style="fill:#a9d3ca; stroke:none;" d="M272.667 335.333L273.333 335.667L272.667 335.333z"/>
<path style="fill:#506a73; stroke:none;" d="M278 335L278 336L330 336L313 335L278 335M470 335L470 336L522 336L505 335L470 335z"/>
<path style="fill:#81c5bc; stroke:none;" d="M522 335L522 336L525 336L522 335z"/>
<path style="fill:#a9d3ca; stroke:none;" d="M276 336L276 337L330 337L312 336L276 336z"/>
<path style="fill:#81c5bc; stroke:none;" d="M460 336L461 337L460 336z"/>
<path style="fill:#f2f7ea; stroke:none;" d="M357.279 346.742C350.43 350.041 354.401 368.976 354.795 375C355 378.145 353.941 383.154 358.113 384.184C365.517 386.01 373.674 372.393 380.363 380.152C386.609 387.398 390.78 398.539 395.255 406.999C396.827 409.971 399.469 415.76 403.802 413.712C412.66 409.525 417.59 388.925 423.244 381.059C430.225 371.348 444.703 391.459 449.258 381.771C452.396 375.096 450.098 362.312 449.996 355C449.958 352.283 450.094 348.768 447.566 347.028C442.924 343.833 431.477 346 426 346L378 346C372.18 346 362.603 344.178 357.279 346.742z"/>
<path style="fill:#a9d3ca; stroke:none;" d="M354.333 348.667L354.667 349.333L354.333 348.667z"/>
<path style="fill:#81c5bc; stroke:none;" d="M450 348L451 349L450 348z"/>
<path style="fill:#a9d3ca; stroke:none;" d="M352 350L352 355L353 355L352 350M354 372L354 380L355 380L354 372M374.667 377.333L375.333 377.667L374.667 377.333M378 377L379 378L378 377z"/>
<path style="fill:#81c5bc; stroke:none;" d="M427 377L428 378L427 377z"/>
<path style="fill:#a9d3ca; stroke:none;" d="M372 378L373 379L372 378M379 378L380 379L379 378z"/>
<path style="fill:#81c5bc; stroke:none;" d="M425 378L426 379L425 378M429.667 378.333L430.333 378.667L429.667 378.333M450 378L450 383L451 383L450 378z"/>
<path style="fill:#a9d3ca; stroke:none;" d="M370 379L371 380L370 379M380.333 379.667L380.667 380.333L380.333 379.667z"/>
<path style="fill:#81c5bc; stroke:none;" d="M424.333 379.667L424.667 380.333L424.333 379.667M431.667 379.333L432.333 379.667L431.667 379.333z"/>
<path style="fill:#a9d3ca; stroke:none;" d="M368 380L369 381L368 380z"/>
<path style="fill:#81c5bc; stroke:none;" d="M433.667 380.333L434.333 380.667L433.667 380.333z"/>
<path style="fill:#a9d3ca; stroke:none;" d="M354.333 381.667L354.667 382.333L354.333 381.667M366 381L367 382L366 381M381 381L382 382L381 381z"/>
<path style="fill:#81c5bc; stroke:none;" d="M423.333 381.667L423.667 382.333L423.333 381.667M435.667 381.333L436.333 381.667L435.667 381.333z"/>
<path style="fill:#a9d3ca; stroke:none;" d="M364 382L365 383L364 382z"/>
<path style="fill:#81c5bc; stroke:none;" d="M437.667 382.333L438.333 382.667L437.667 382.333z"/>
<path style="fill:#a9d3ca; stroke:none;" d="M355 383L356 384L355 383M362 383L363 384L362 383M382 383L383 384L382 383z"/>
<path style="fill:#81c5bc; stroke:none;" d="M422.333 383.667L422.667 384.333L422.333 383.667M439.667 383.333L440.333 383.667L439.667 383.333M449 383L450 384L449 383z"/>
<path style="fill:#a9d3ca; stroke:none;" d="M356 384L357 385L356 384M360 384L361 385L360 384z"/>
<path style="fill:#81c5bc; stroke:none;" d="M441.667 384.333L442.333 384.667L441.667 384.333M448 384L449 385L448 384z"/>
<path style="fill:#a9d3ca; stroke:none;" d="M383 385L384 386L383 385z"/>
<path style="fill:#81c5bc; stroke:none;" d="M443.667 385.333L444.333 385.667L443.667 385.333M446.667 385.333L447.333 385.667L446.667 385.333z"/>
<path style="fill:#a9d3ca; stroke:none;" d="M384 387L385 388L384 387M419 387L420 388L419 387M385 389L386 390L385 389M418 389L419 390L418 389M386.333 390.667L386.667 391.333L386.333 390.667M417 391L418 392L417 391M387 392L388 393L387 392M416.333 392.667L416.667 393.333L416.333 392.667M388 394L389 395L388 394M415.333 394.667L415.667 395.333L415.333 394.667M389 396L390 397L389 396M414 396L415 397L414 396M390 398L391 399L390 398M413 398L414 399L413 398M391 400L392 401L391 400M412 400L413 401L412 400M392.333 401.667L392.667 402.333L392.333 401.667M411 402L412 403L411 402M393 403L394 404L393 403M410 404L411 405L410 404M394 405L395 406L394 405M409 405L410 406L409 405M395 407L396 408L395 407M408 407L409 408L408 407M396 409L397 410L396 409M407 409L408 410L407 409M397 411L398 412L397 411M406 411L407 412L406 411M398 412L399 413L398 412M400 414L401 415L400 414M403 414L404 415L403 414z"/>
</svg>
