<?xml version="1.0" standalone="yes"?>
<svg xmlns="http://www.w3.org/2000/svg" width="800" height="450">
<path style="fill:#b69de9; stroke:none;" d="M0 0L0 104C0 115.561 -4.68325 133.97 9 138L9 139L1 139L1 140L42 140L42 141L0 141L0 142L121 142C127.15 142 137.058 143.89 142.741 141.397C146.054 139.943 147.295 135.869 151.005 134.851C153.902 134.056 156.768 135.823 158.446 138.109C164.879 146.874 149.335 155.451 145 143L0 143L0 144L48 144L48 145L12 145L12 146C28.8221 146.002 45.7878 159.2 60 167.603C64.7501 170.412 74.3642 178.43 80 177.897C84.0519 177.514 87.7903 172.261 91 170C88.0911 173.572 78.1224 181.093 79.3457 186C80.2143 189.484 84.5789 192.578 87 195L108 216L185 293L186 293C201.185 279.734 228.405 260.018 214.521 237C210.135 229.729 202.959 223.959 197 218C205.285 223.836 220.599 235.902 223 246L224 246L224 222L225 222L225 280L226 280L226 147C226 127.163 222.42 105.186 239.09 90.6188C252.129 79.2236 268.743 80 285 80L368 80L482 80C499.019 80 519.973 76.5717 535 86.2469C564.069 104.963 554 152.357 554 182C554 193.501 555.661 206.821 553 218C561.89 220.628 571.514 216.978 578.442 225.185C584.33 232.16 582 244.51 582 253L582 323C582 337.887 588.306 368.037 568 371.671C551.652 374.596 532.613 372.001 516 372C508.44 372 501.553 371.628 496.649 364.96C491.811 358.38 493 349.678 493 342C493 325.277 494.08 308.704 493.999 292C493.922 276.052 492.999 260.021 493 244C493.001 234.829 493.683 225.384 503 221L503 220C490.955 220 479.056 221 467 221C461.781 221 454.732 219.817 450.214 223.009C445.623 226.253 446.002 232.014 446 237C445.996 247.702 440.924 276.717 451.044 283.142C460.462 289.121 482.054 285 493 285L493 313L422 313C426.662 325.792 424 342.49 424 356C431.881 356 446.96 353.099 453.852 357.179C458.148 359.723 458.993 373.096 454.682 375.972C451.713 377.954 446.389 377 443 377L416 377L416 378L437 378C440.234 383.703 448.449 386.403 454 389.579C467.6 397.359 481.519 404.632 495 412.603C508.181 420.398 521.843 427.37 535 435.201C543.11 440.028 552.766 447.342 562 449.582C581.127 454.222 606.289 450 626 450L762 450C762 437.179 763.912 422.688 761.852 410.043C761.17 405.86 756.938 403.97 755.653 399.985C753.558 393.491 755 384.769 755 378C755 370.591 753.45 361.169 755.434 354.004C756.579 349.866 761.135 348.084 761.852 343.896C765.843 320.562 760.195 292.907 738 280.901C731.022 277.127 723.625 276.417 716 275C712.796 282.127 700.631 286.587 699.967 275C699.035 258.74 714.842 273.051 719.054 273.867C737.215 277.382 752.456 286.125 760.127 304C765.851 317.338 761.815 330.256 764.148 343.896C764.978 348.749 770.294 350.665 770.891 356C772.26 368.226 773.845 388.153 770.566 399.996C769.421 404.134 764.865 405.916 764.148 410.104C762 422.661 764 437.249 764 450L800 450L800 266L800 209C800 200.696 801.75 190.141 799.686 182.09C797.761 174.581 787.273 167.273 782 162L736 116C728.661 108.661 716.761 100.729 717.388 89C718.133 75.0543 729.027 66.5377 737.911 57C755.117 38.5272 776.495 20.5911 791 0C777.794 0.00143433 771.947 9.25784 763 17.9854C749.671 30.9875 736.182 43.8169 723 57C713.473 66.5281 704.545 76.6134 708.49 91C711.136 100.651 719.191 107.191 726 114L764 152C750.695 145.78 733.095 137.74 721.714 128.556C713.311 121.773 707.196 111.955 698 106.133C690.318 101.271 675.975 105.929 670.693 98.6096C666.334 92.5693 668.084 81.2719 663.536 74C650.53 53.2049 626.419 37.0309 609.001 19.9854C602.413 13.5381 595.077 2.54782 586 0C604.468 26.218 636.705 42.9042 653.867 70C661.031 81.312 657.227 101.738 643 106L643 109L639 111L564 36C555.393 27.3927 543.372 9.55161 532 5.13657C525.39 2.5704 522.486 13.4028 516 12.0016C507.379 10.139 500.876 1.71869 492 0.224548C479.035 -1.95792 464.151 0 451 0L367 0L0 0z"/>
<path style="fill:#ede5f7; stroke:none;" d="M494 0L494 1C499.929 4.04651 511.318 13.5538 518 12.8982C523.218 12.3862 526.236 3.24347 532 5.83179C543.53 11.0097 555.062 28.0616 564 37L638 111L639 111L643 109L644 108L643 106C657.449 103.533 660.537 81.967 655.001 71C650.124 61.3404 639.56 53.5595 632 46C617.811 31.8113 604.051 14.3448 588 2.3179C581.587 -2.48734 568.673 0 561 0L494 0M589 0C606.979 25.524 636.012 44.7264 657.561 67.2855C661.658 71.5743 666.409 77.7098 667.891 83.5756C668.974 87.8614 667.794 96.0614 670.618 99.3619C676.359 106.071 689.351 101.292 697 106.133C705.861 111.743 712.054 121.076 719.985 127.828C730.616 136.877 750.715 147.794 764 152C753.854 137.597 738.458 125.458 726 113C719.473 106.473 711.608 100.13 708.775 91C704.136 76.0504 715.37 65.6295 725 56C742.978 38.0221 766.382 20.7516 781 0C775.911 0 768.654 -1.31027 764.001 1.02777C757.189 4.45007 751.869 13.431 746.83 19C736.462 30.4594 725.509 41.408 715.286 53C704.823 64.8625 690.666 78.0146 673.999 68.4676C663.246 62.3083 655.469 49.7943 646.982 41C638.761 32.4828 628.826 24.6898 622 15L653 46C659.495 52.4953 665.807 59.5827 675 62.0725C699.734 68.7713 719.411 35.6109 735 21.0895C742.213 14.3704 750.285 8.11365 756 0L589 0z"/>
<path style="fill:#b69de9; stroke:none;" d="M607 0L608 1L607 0M622 15C626.493 24.634 637.556 32.5114 644.999 40C654.811 49.8711 664.834 67.2979 679 70.8812C695.542 75.0655 705.997 64.2472 716.17 53C731.909 35.5975 750.504 19.2349 764 0C753.242 0.0379944 748.365 8.04941 741 14.9105C729.417 25.7001 718.201 36.7989 707 48C700.522 54.4782 694.687 61.8191 685 62.8256C659.053 65.5218 640.583 28.0906 622 15z"/>
<path style="fill:#ede5f7; stroke:none;" d="M800 180L800 0C782.78 0.0133057 765.273 25.6858 754.576 38C742.693 51.6786 719.954 66.8456 717.416 85.8302C715.641 99.1076 725.53 106.533 734 115L778 159C784.768 165.768 791.661 175.303 800 180z"/>
<path style="fill:#b69de9; stroke:none;" d="M608 1L622 15L608 1z"/>
<path style="fill:#ede5f7; stroke:none;" d="M493 313L493 285C482.153 285 460.023 289.188 451.044 282.486C440.983 274.976 445.941 247.415 446.001 236C446.027 230.993 446.539 226.028 451.105 223.009C458.609 218.047 473.335 221.198 482 220.985C506.01 220.397 529.884 219 554 219C552.236 191.601 554 163.478 554 136C554 120.388 555.382 105.336 543.907 93.0038C526.749 74.5645 497.762 80 475 80L303 80C280.375 80 249.93 74.8549 234.043 95.0394C222.264 110.006 226 131.173 226 149C226 191.88 221.595 237.39 226.174 280C227.667 293.9 237.971 306.22 251 310.91C259.863 314.1 269.739 313 279 313L327 313L493 313M675 103L676 104L675 103M672 104L671 106L672 104M669 106L670 107L669 106M641 109L631 120L641 109z"/>
<path style="fill:#b69de9; stroke:none;" d="M262 122L262 123L518 123L494 122L442 122L262 122M259 123L260 124L259 123z"/>
<path style="fill:#606673; stroke:none;" d="M260 123L261 124L260 123z"/>
<path style="fill:#262f3f; stroke:none;" d="M261.044 123.742C254.919 126.238 256 133.629 256 139L256 185C256 190.208 254.235 199.618 260.189 202.258C265.047 204.412 272.776 203 278 203L318 203L457 203L501 203C506.28 203 515.16 204.68 519.867 201.972C525.133 198.942 524 191.094 524 186L524 140C524 134.691 524.985 126.258 518.942 123.742C513.433 121.449 504.886 123 499 123L454 123L318 123L279 123C273.615 123 266.108 121.679 261.044 123.742z"/>
<path style="fill:#606673; stroke:none;" d="M519 123L520 124L519 123z"/>
<path style="fill:#6f7fdf; stroke:none;" d="M258 124L259 125L258 124z"/>
<path style="fill:#b69de9; stroke:none;" d="M521 124L522 125L521 124z"/>
<path style="fill:#606673; stroke:none;" d="M257 125L258 126L257 125z"/>
<path style="fill:#b69de9; stroke:none;" d="M522 125L523 126L522 125M256 126L257 127L256 126z"/>
<path style="fill:#606673; stroke:none;" d="M256 127L257 128L256 127z"/>
<path style="fill:#b69de9; stroke:none;" d="M523 127L524 128L523 127z"/>
<path style="fill:#606673; stroke:none;" d="M523.333 128.667L523.667 129.333L523.333 128.667z"/>
<path style="fill:#b69de9; stroke:none;" d="M255 129L255 198L256 198L256 151L255 129z"/>
<path style="fill:#ede5f7; stroke:none;" d="M724 131L738 145L724 131z"/>
<path style="fill:#6f7fdf; stroke:none;" d="M0 134L0 141L42 141L42 140L1 140L1 139L9 139L9 138L0 134z"/>
<path style="fill:#ede5f7; stroke:none;" d="M0 142L0 143L145 143C147.767 156.393 165.401 147.902 159.127 138.109C152.704 128.082 146.931 140.074 140.946 141.682C135.266 143.208 127.862 142 122 142L0 142z"/>
<path style="fill:#6f7fdf; stroke:none;" d="M43.6667 140.333L44.3333 140.667L43.6667 140.333z"/>
<path style="fill:#606673; stroke:none;" d="M453 143L453 144L462 144L453 143z"/>
<path style="fill:#6f7fdf; stroke:none;" d="M0 144L0 450L561 450L561 449C532.475 434.344 504.959 417.558 477 401.861C464.826 395.026 446.101 388.624 437 378C410.444 379.71 382.73 377 356 377C347.113 377 331.196 380.072 323.189 376.062C317.294 373.109 319 364.403 319 359L322 356L355 357L354 320L353 320L353 332C340.158 325.243 328.902 316 314 316L314 315L350 315L350 314L280 314C260.432 314 240.774 312.46 230.324 293C219.726 273.263 225 243.753 225 222L224 222L224 246L223 246C221.708 236.334 205.539 221.982 197 218C202.117 225.264 209.903 230.344 214.521 238C228.784 261.646 198.414 277.605 186 293L185 293L158 265L107 214L87 194L80.0556 185L91 170C87.3072 171.722 83.9978 176.58 80 177.154C74.428 177.955 64.6817 169.745 60 167.012C45.3817 158.478 29.253 146 12 146L12 145L48 145C35.5856 139.791 13.5265 144 0 144M50 144L50 145L53 145L50 144z"/>
<path style="fill:#606673; stroke:none;" d="M447.667 144.333L448.333 144.667L447.667 144.333z"/>
<path style="fill:#b69de9; stroke:none;" d="M449.667 144.333L450.333 144.667L449.667 144.333z"/>
<path style="fill:#ede5f7; stroke:none;" d="M438 151C443.679 150.756 457.664 146.709 460.357 154.109C462.496 159.985 456.876 168.151 456 174C461.918 170.782 473.499 153.37 467.382 146.564C461.549 140.074 441.84 144.251 438 151z"/>
<path style="fill:#b69de9; stroke:none;" d="M463.667 144.333L464.333 144.667L463.667 144.333z"/>
<path style="fill:#606673; stroke:none;" d="M465 144L466 145L465 144M444 145L445 146L444 145z"/>
<path style="fill:#b69de9; stroke:none;" d="M445 145L446 146L445 145M467 145L468 146L467 145z"/>
<path style="fill:#606673; stroke:none;" d="M303 146L304 147L303 146z"/>
<path style="fill:#6f7fdf; stroke:none;" d="M442 146L443 147L442 146M468 146L469 147L468 146z"/>
<path style="fill:#ede5f7; stroke:none;" d="M302 147C306.432 156.308 319.094 162.783 328 167.247C354.747 180.653 383.782 184.048 413 177.789C423.648 175.509 434.592 171.487 444 165.988C448.28 163.487 452.787 161.453 452 156C442.505 158.25 433.557 162.533 424 164.765C400.457 170.261 375.66 170.794 352 165.576C334.422 161.699 319.013 150.893 302 147z"/>
<path style="fill:#606673; stroke:none;" d="M305 147L306 148L305 147M440 147L441 148L440 147M301 148L302 149L301 148z"/>
<path style="fill:#b69de9; stroke:none;" d="M306 148L307 149L306 148z"/>
<path style="fill:#606673; stroke:none;" d="M307 148L308 149L307 148M438 148L439 149L438 148z"/>
<path style="fill:#b69de9; stroke:none;" d="M302 149L303 150L302 149M308 149L309 150L308 149z"/>
<path style="fill:#606673; stroke:none;" d="M309 149L310 150L309 149M437.333 149.667L437.667 150.333L437.333 149.667z"/>
<path style="fill:#6f7fdf; stroke:none;" d="M303 150L304 151L303 150z"/>
<path style="fill:#b69de9; stroke:none;" d="M310 150L311 151L310 150M443 150L443 151L447 151L443 150z"/>
<path style="fill:#6f7fdf; stroke:none;" d="M447 150L448 151L447 150z"/>
<path style="fill:#606673; stroke:none;" d="M448 150L448 151L456 151L448 150z"/>
<path style="fill:#6f7fdf; stroke:none;" d="M456 150L457 151L456 150z"/>
<path style="fill:#b69de9; stroke:none;" d="M457 150L458 151L457 150z"/>
<path style="fill:#606673; stroke:none;" d="M304 151L305 152L304 151z"/>
<path style="fill:#b69de9; stroke:none;" d="M312 151L313 152L312 151z"/>
<path style="fill:#606673; stroke:none;" d="M439 151L440 152L439 151M459 151L460 152L459 151z"/>
<path style="fill:#b69de9; stroke:none;" d="M468.333 151.667L468.667 152.333L468.333 151.667z"/>
<path style="fill:#606673; stroke:none;" d="M305 152L306 153L305 152z"/>
<path style="fill:#b69de9; stroke:none;" d="M314 152L315 153L314 152z"/>
<path style="fill:#606673; stroke:none;" d="M460 152L460 157L461 157L460 152z"/>
<path style="fill:#ede5f7; stroke:none;" d="M764 152L765 153L764 152z"/>
<path style="fill:#b69de9; stroke:none;" d="M307 153L308 154L307 153M316 153L317 154L316 153z"/>
<path style="fill:#606673; stroke:none;" d="M317 153L318 154L317 153z"/>
<path style="fill:#6f7fdf; stroke:none;" d="M468 153L469 154L468 153z"/>
<path style="fill:#b69de9; stroke:none;" d="M308 154L309 155L308 154M318 154L319 155L318 154z"/>
<path style="fill:#606673; stroke:none;" d="M319 154L320 155L319 154M468 154L469 155L468 154z"/>
<path style="fill:#6f7fdf; stroke:none;" d="M309 155L310 156L309 155z"/>
<path style="fill:#606673; stroke:none;" d="M321 155L322 156L321 155M451 155L452 156L451 155M310 156L311 157L310 156z"/>
<path style="fill:#6f7fdf; stroke:none;" d="M323 156L324 157L323 156z"/>
<path style="fill:#606673; stroke:none;" d="M448 156L449 157L448 156z"/>
<path style="fill:#b69de9; stroke:none;" d="M449 156L450 157L449 156M452 156L453 157L452 156M467.333 156.667L467.667 157.333L467.333 156.667z"/>
<path style="fill:#606673; stroke:none;" d="M311 157L312 158L311 157z"/>
<path style="fill:#b69de9; stroke:none;" d="M312 157L313 158L312 157M325 157L326 158L325 157z"/>
<path style="fill:#606673; stroke:none;" d="M326 157L327 158L326 157M445 157L446 158L445 157z"/>
<path style="fill:#b69de9; stroke:none;" d="M446 157L447 158L446 157M453.333 157.667L453.667 158.333L453.333 157.667z"/>
<path style="fill:#6f7fdf; stroke:none;" d="M460 157L461 158L460 157M313 158L314 159L313 158z"/>
<path style="fill:#b69de9; stroke:none;" d="M328 158L329 159L328 158z"/>
<path style="fill:#606673; stroke:none;" d="M329 158L330 159L329 158M443 158L444 159L443 158z"/>
<path style="fill:#b69de9; stroke:none;" d="M444 158L445 159L444 158M460 158L461 159L460 158z"/>
<path style="fill:#606673; stroke:none;" d="M467 158L468 159L467 158M314 159L315 160L314 159z"/>
<path style="fill:#6f7fdf; stroke:none;" d="M331 159L332 160L331 159z"/>
<path style="fill:#606673; stroke:none;" d="M440 159L441 160L440 159z"/>
<path style="fill:#b69de9; stroke:none;" d="M441 159L442 160L441 159z"/>
<path style="fill:#606673; stroke:none;" d="M453 159L454 160L453 159z"/>
<path style="fill:#6f7fdf; stroke:none;" d="M100 160L91 170L100 160M316 160L317 161L316 160z"/>
<path style="fill:#b69de9; stroke:none;" d="M333 160L334 161L333 160z"/>
<path style="fill:#606673; stroke:none;" d="M334 160L335 161L334 160M437 160L438 161L437 160z"/>
<path style="fill:#b69de9; stroke:none;" d="M438 160L439 161L438 160z"/>
<path style="fill:#6f7fdf; stroke:none;" d="M452 160L453 161L452 160z"/>
<path style="fill:#606673; stroke:none;" d="M459 160L460 161L459 160z"/>
<path style="fill:#6f7fdf; stroke:none;" d="M466 160L467 161L466 160z"/>
<path style="fill:#606673; stroke:none;" d="M317 161L318 162L317 161z"/>
<path style="fill:#b69de9; stroke:none;" d="M336 161L337 162L336 161z"/>
<path style="fill:#6f7fdf; stroke:none;" d="M337 161L338 162L337 161z"/>
<path style="fill:#606673; stroke:none;" d="M338 161L339 162L338 161M434 161L435 162L434 161z"/>
<path style="fill:#b69de9; stroke:none;" d="M435 161L436 162L435 161z"/>
<path style="fill:#606673; stroke:none;" d="M451 161L452 162L451 161z"/>
<path style="fill:#6f7fdf; stroke:none;" d="M459 161L460 162L459 161z"/>
<path style="fill:#606673; stroke:none;" d="M466 161L467 162L466 161z"/>
<path style="fill:#6f7fdf; stroke:none;" d="M141 162L169 191L197 218L169 189L141 162z"/>
<path style="fill:#b69de9; stroke:none;" d="M319 162L320 163L319 162M340 162L341 163L340 162z"/>
<path style="fill:#606673; stroke:none;" d="M341 162L342 163L341 162M431 162L432 163L431 162z"/>
<path style="fill:#b69de9; stroke:none;" d="M432 162L433 163L432 162z"/>
<path style="fill:#6f7fdf; stroke:none;" d="M449 162L450 163L449 162z"/>
<path style="fill:#b69de9; stroke:none;" d="M459 162L460 163L459 162M465 162L466 163L465 162z"/>
<path style="fill:#606673; stroke:none;" d="M320 163L321 164L320 163z"/>
<path style="fill:#b69de9; stroke:none;" d="M343 163L344 164L343 163z"/>
<path style="fill:#606673; stroke:none;" d="M344.667 163.333L345.333 163.667L344.667 163.333M427 163L428 164L427 163z"/>
<path style="fill:#6f7fdf; stroke:none;" d="M428 163L429 164L428 163z"/>
<path style="fill:#606673; stroke:none;" d="M448 163L449 164L448 163M465 163L466 164L465 163M322 164L323 165L322 164z"/>
<path style="fill:#b69de9; stroke:none;" d="M347 164L348 165L347 164z"/>
<path style="fill:#6f7fdf; stroke:none;" d="M348 164L349 165L348 164z"/>
<path style="fill:#606673; stroke:none;" d="M349 164L350 165L349 164M423 164L424 165L423 164z"/>
<path style="fill:#b69de9; stroke:none;" d="M424.667 164.333L425.333 164.667L424.667 164.333z"/>
<path style="fill:#6f7fdf; stroke:none;" d="M446 164L447 165L446 164z"/>
<path style="fill:#606673; stroke:none;" d="M458 164L459 165L458 164z"/>
<path style="fill:#b69de9; stroke:none;" d="M464 164L465 165L464 164M324 165L325 166L324 165M351 165L352 166L351 165z"/>
<path style="fill:#6f7fdf; stroke:none;" d="M352 165L353 166L352 165z"/>
<path style="fill:#606673; stroke:none;" d="M353 165L354 166L353 165M418.667 165.333L419.333 165.667L418.667 165.333z"/>
<path style="fill:#b69de9; stroke:none;" d="M420 165L421 166L420 165M444 165L445 166L444 165z"/>
<path style="fill:#606673; stroke:none;" d="M445 165L446 166L445 165z"/>
<path style="fill:#b69de9; stroke:none;" d="M458 165L459 166L458 165z"/>
<path style="fill:#606673; stroke:none;" d="M464 165L465 166L464 165M325 166L326 167L325 166z"/>
<path style="fill:#b69de9; stroke:none;" d="M326 166L327 167L326 166M356.667 166.333L357.333 166.667L356.667 166.333z"/>
<path style="fill:#606673; stroke:none;" d="M358.667 166.333L359.333 166.667L358.667 166.333M413 166L414 167L413 166z"/>
<path style="fill:#6f7fdf; stroke:none;" d="M414 166L415 167L414 166z"/>
<path style="fill:#b69de9; stroke:none;" d="M415 166L416 167L415 166z"/>
<path style="fill:#606673; stroke:none;" d="M443 166L444 167L443 166M457 166L458 167L457 166z"/>
<path style="fill:#b69de9; stroke:none;" d="M463 166L464 167L463 166z"/>
<path style="fill:#606673; stroke:none;" d="M327 167L328 168L327 167z"/>
<path style="fill:#b69de9; stroke:none;" d="M328 167L329 168L328 167M362.667 167.333L363.333 167.667L362.667 167.333z"/>
<path style="fill:#606673; stroke:none;" d="M364 167L364 168L367 168L364 167M406.667 167.333L407.333 167.667L406.667 167.333z"/>
<path style="fill:#6f7fdf; stroke:none;" d="M408 167L409 168L408 167z"/>
<path style="fill:#b69de9; stroke:none;" d="M409.667 167.333L410.333 167.667L409.667 167.333z"/>
<path style="fill:#606673; stroke:none;" d="M441 167L442 168L441 167z"/>
<path style="fill:#6f7fdf; stroke:none;" d="M457 167L458 168L457 167z"/>
<path style="fill:#606673; stroke:none;" d="M329 168L330 169L329 168z"/>
<path style="fill:#b69de9; stroke:none;" d="M330 168L331 169L330 168M370 168L370 169L373 169L370 168z"/>
<path style="fill:#6f7fdf; stroke:none;" d="M373 168L374 169L373 168z"/>
<path style="fill:#606673; stroke:none;" d="M374 168L374 169L381 169L374 168M394 168L394 169L399 169L394 168z"/>
<path style="fill:#6f7fdf; stroke:none;" d="M399 168L400 169L399 168z"/>
<path style="fill:#b69de9; stroke:none;" d="M400 168L400 169L403 169L400 168z"/>
<path style="fill:#6f7fdf; stroke:none;" d="M439 168L440 169L439 168z"/>
<path style="fill:#606673; stroke:none;" d="M462 168L463 169L462 168M331 169L332 170L331 169z"/>
<path style="fill:#b69de9; stroke:none;" d="M332 169L333 170L332 169z"/>
<path style="fill:#6f7fdf; stroke:none;" d="M437 169L438 170L437 169z"/>
<path style="fill:#606673; stroke:none;" d="M456 169L457 170L456 169z"/>
<path style="fill:#b69de9; stroke:none;" d="M461 169L462 170L461 169z"/>
<path style="fill:#606673; stroke:none;" d="M333 170L334 171L333 170z"/>
<path style="fill:#b69de9; stroke:none;" d="M334 170L335 171L334 170M434 170L435 171L434 170z"/>
<path style="fill:#606673; stroke:none;" d="M435 170L436 171L435 170z"/>
<path style="fill:#b69de9; stroke:none;" d="M456 170L457 171L456 170z"/>
<path style="fill:#6f7fdf; stroke:none;" d="M336 171L337 172L336 171z"/>
<path style="fill:#b69de9; stroke:none;" d="M432 171L433 172L432 171z"/>
<path style="fill:#606673; stroke:none;" d="M433 171L434 172L433 171M338 172L339 173L338 172z"/>
<path style="fill:#b69de9; stroke:none;" d="M339 172L340 173L339 172z"/>
<path style="fill:#6f7fdf; stroke:none;" d="M430 172L431 173L430 172M455.333 172.667L455.667 173.333L455.333 172.667z"/>
<path style="fill:#606673; stroke:none;" d="M340 173L341 174L340 173z"/>
<path style="fill:#b69de9; stroke:none;" d="M341 173L342 174L341 173M427 173L428 174L427 173z"/>
<path style="fill:#606673; stroke:none;" d="M428 173L429 174L428 173z"/>
<path style="fill:#b69de9; stroke:none;" d="M457 173L458 174L457 173z"/>
<path style="fill:#606673; stroke:none;" d="M343 174L344 175L343 174z"/>
<path style="fill:#b69de9; stroke:none;" d="M344 174L345 175L344 174M424 174L425 175L424 174z"/>
<path style="fill:#606673; stroke:none;" d="M425 174L426 175L425 174M456 174L457 175L456 174M346 175L347 176L346 175z"/>
<path style="fill:#b69de9; stroke:none;" d="M347 175L348 176L347 175M421 175L422 176L421 175z"/>
<path style="fill:#606673; stroke:none;" d="M422 175L423 176L422 175M349 176L350 177L349 176z"/>
<path style="fill:#6f7fdf; stroke:none;" d="M350 176L351 177L350 176M418 176L419 177L418 176z"/>
<path style="fill:#606673; stroke:none;" d="M419 176L420 177L419 176M353 177L354 178L353 177z"/>
<path style="fill:#b69de9; stroke:none;" d="M354 177L355 178L354 177M414 177L415 178L414 177z"/>
<path style="fill:#606673; stroke:none;" d="M415 177L416 178L415 177M357 178L358 179L357 178z"/>
<path style="fill:#6f7fdf; stroke:none;" d="M358 178L359 179L358 178z"/>
<path style="fill:#b69de9; stroke:none;" d="M359 178L360 179L359 178M409 178L410 179L409 178z"/>
<path style="fill:#6f7fdf; stroke:none;" d="M410 178L411 179L410 178z"/>
<path style="fill:#606673; stroke:none;" d="M411 178L412 179L411 178M361.667 179.333L362.333 179.667L361.667 179.333z"/>
<path style="fill:#6f7fdf; stroke:none;" d="M363 179L364 180L363 179z"/>
<path style="fill:#b69de9; stroke:none;" d="M364.667 179.333L365.333 179.667L364.667 179.333M404 179L405 180L404 179z"/>
<path style="fill:#6f7fdf; stroke:none;" d="M405 179L406 180L405 179z"/>
<path style="fill:#606673; stroke:none;" d="M406 179L407 180L406 179M368.667 180.333L369.333 180.667L368.667 180.333z"/>
<path style="fill:#6f7fdf; stroke:none;" d="M370 180L371 181L370 180z"/>
<path style="fill:#b69de9; stroke:none;" d="M371.667 180.333L372.333 180.667L371.667 180.333M395 180L395 181L398 181L395 180z"/>
<path style="fill:#6f7fdf; stroke:none;" d="M398 180L399 181L398 180z"/>
<path style="fill:#606673; stroke:none;" d="M399.667 180.333L400.333 180.667L399.667 180.333M377 181L377 182L392 182L377 181M523 197L524 198L523 197z"/>
<path style="fill:#6f7fdf; stroke:none;" d="M523 198L524 199L523 198M256 199L257 200L256 199z"/>
<path style="fill:#606673; stroke:none;" d="M257 200L258 201L257 200z"/>
<path style="fill:#6f7fdf; stroke:none;" d="M522 200L523 201L522 200z"/>
<path style="fill:#606673; stroke:none;" d="M521 201L522 202L521 201M259 202L260 203L259 202z"/>
<path style="fill:#b69de9; stroke:none;" d="M520 202L521 203L520 202z"/>
<path style="fill:#6f7fdf; stroke:none;" d="M261 203L262 204L261 203z"/>
<path style="fill:#606673; stroke:none;" d="M262 203L262 204L518 204L494 203L442 203L262 203z"/>
<path style="fill:#b69de9; stroke:none;" d="M518 203L519 204L518 203M505.667 219.333L506.333 219.667L505.667 219.333z"/>
<path style="fill:#6f7fdf; stroke:none;" d="M507 219L508 220L507 219z"/>
<path style="fill:#606673; stroke:none;" d="M508 219L508 220L568 220L549 219L508 219z"/>
<path style="fill:#6f7fdf; stroke:none;" d="M568.667 219.333L569.333 219.667L568.667 219.333z"/>
<path style="fill:#606673; stroke:none;" d="M503 220L504 221L503 220z"/>
<path style="fill:#262f3f; stroke:none;" d="M504 220.653C495.547 223.308 494.012 231.278 494 239L494 291L494 341C494 348.079 492.359 357.627 496.09 363.985C500.016 370.678 507.078 370.997 514 371C531.008 371.007 555.896 375.621 571.999 370.146C580.387 367.294 581.961 358.822 581.999 351C582.083 333.668 582 316.333 582 299L582 249C582 241.59 583.223 232.607 578.995 226.043C574.815 219.555 567.811 220 561 220C544.105 220 520.104 215.595 504 220.653z"/>
<path style="fill:#606673; stroke:none;" d="M572 220L573 221L572 220z"/>
<path style="fill:#b69de9; stroke:none;" d="M260.015 221.742C255.778 223.413 253.727 227.715 253.185 232C251.751 243.335 252.996 255.576 253 267C253.002 271.974 252.655 277.745 256.419 281.606C260.859 286.16 268.24 285 274 285L310 285C315.288 285 322.006 286.071 326.985 283.991C331.206 282.227 333.261 278.376 333.815 274C335.25 262.666 334.004 250.424 334 239C333.998 233.928 334.273 228.248 330.581 224.228C326.332 219.601 318.658 221 313 221L277 221C271.835 221 264.896 219.818 260.015 221.742M357.004 221.573C351.603 223.144 349.961 227.91 349.289 233C347.837 244.009 348.947 255.9 349.001 267C349.024 271.809 349.076 277.856 352.572 281.606C356.865 286.212 364.333 285 370 285L406 285C411.286 285 417.981 286.056 422.995 284.106C427.379 282.403 429.513 278.506 429.906 274C430.938 262.177 430.005 249.869 430 238C429.998 232.753 430.304 227.143 425.867 223.434C421.284 219.602 413.556 221 408 221C392.639 221 371.75 217.283 357.004 221.573z"/>
<path style="fill:#6f7fdf; stroke:none;" d="M500 221L501 222L500 221z"/>
<path style="fill:#606673; stroke:none;" d="M501 221L502 222L501 221M574 221L575 222L574 221M499 222L500 223L499 222M498 223L499 224L498 223z"/>
<path style="fill:#6f7fdf; stroke:none;" d="M577 223L578 224L577 223z"/>
<path style="fill:#606673; stroke:none;" d="M497 224L498 225L497 224z"/>
<path style="fill:#6f7fdf; stroke:none;" d="M578 224L579 225L578 224z"/>
<path style="fill:#606673; stroke:none;" d="M496 225L497 226L496 225M579 226L580 227L579 226M495 227L496 228L495 227z"/>
<path style="fill:#6f7fdf; stroke:none;" d="M580 227L581 228L580 227z"/>
<path style="fill:#606673; stroke:none;" d="M580 228L581 229L580 228M494.333 229.667L494.667 230.333L494.333 229.667z"/>
<path style="fill:#6f7fdf; stroke:none;" d="M581 230L582 231L581 230z"/>
<path style="fill:#606673; stroke:none;" d="M581.333 231.667L581.667 232.333L581.333 231.667z"/>
<path style="fill:#6f7fdf; stroke:none;" d="M493 233L493 285L494 285L494 250L493 233z"/>
<path style="fill:#606673; stroke:none;" d="M513 248L514 249L513 248z"/>
<path style="fill:#b69de9; stroke:none;" d="M514 248L515 249L514 248z"/>
<path style="fill:#ede5f7; stroke:none;" d="M515.015 248.653C504.335 252.11 509 278.928 509 288C509 292.01 508.161 297.356 510.742 300.772C513.792 304.807 519.551 304 524 304C535.549 304.001 551.977 307.001 562.957 303.347C566.802 302.068 568.509 298.849 568.895 294.999C569.913 284.861 569.001 274.19 569 264C569 259.714 569.643 254.691 566.566 251.228C563.111 247.339 557.698 248 553 248C541.653 247.999 525.834 245.151 515.015 248.653z"/>
<path style="fill:#6f7fdf; stroke:none;" d="M563 248L564 249L563 248z"/>
<path style="fill:#606673; stroke:none;" d="M564 248L565 249L564 248z"/>
<path style="fill:#b69de9; stroke:none;" d="M512 249L513 250L512 249M565 249L566 250L565 249M566 250L567 251L566 250M567 251L568 252L567 251z"/>
<path style="fill:#6f7fdf; stroke:none;" d="M509 252L510 253L509 252z"/>
<path style="fill:#606673; stroke:none;" d="M568 252L569 253L568 252z"/>
<path style="fill:#b69de9; stroke:none;" d="M568 253L569 254L568 253z"/>
<path style="fill:#606673; stroke:none;" d="M508 254L508 298L509 298C509 285.52 512.81 265.463 508 254M569 256L569 296L570 296C570 284.566 573.411 266.512 569 256z"/>
<path style="fill:#ede5f7; stroke:none;" d="M716 275C723.63 276.821 731.012 277.418 738 281.465C758.143 293.129 767.862 321.39 761.682 343.896C760.556 347.998 756.054 349.532 755.228 354.004C753.775 361.874 755 371.003 755 379C755 385.723 753.519 394.522 755.653 400.957C756.977 404.951 761.168 406.703 761.852 411.015C763.813 423.39 762 437.463 762 450L764 450C764 437.506 762.124 423.363 764.148 411.043C764.857 406.731 769.399 405.134 770.566 400.985C774.024 388.696 772.318 367.704 770.891 355.001C770.293 349.677 764.96 347.898 764.148 342.957C761.684 327.957 765.942 314.414 758.73 300C749.226 281.007 735.022 280.467 718.129 273.397C715.138 272.145 713.847 268.787 710.946 267.322C705.238 264.438 698.495 269.721 699.677 275.999C701.694 286.706 713.562 283.031 716 275z"/>
<path style="fill:#b69de9; stroke:none;" d="M226.333 282.667L226.667 283.333L226.333 282.667M227 286L228 287L227 286M228 289L229 290L228 289M229 291L230 292L229 291M230 293L231 294L230 293M231 295L232 296L231 295M232 296L233 297L232 296M233 298L234 299L233 298M568 298L569 299L568 298M234 299L235 300L234 299M509 299L510 300L509 299z"/>
<path style="fill:#606673; stroke:none;" d="M568 299L569 300L568 299z"/>
<path style="fill:#b69de9; stroke:none;" d="M235 300L236 301L235 300M567 300L568 301L567 300M236 301L237 302L236 301z"/>
<path style="fill:#606673; stroke:none;" d="M510 301L511 302L510 301z"/>
<path style="fill:#b69de9; stroke:none;" d="M237 302L238 303L237 302z"/>
<path style="fill:#606673; stroke:none;" d="M511 302L512 303L511 302z"/>
<path style="fill:#b69de9; stroke:none;" d="M565 302L566 303L565 302M238 303L239 304L238 303z"/>
<path style="fill:#6f7fdf; stroke:none;" d="M513 303L514 304L513 303z"/>
<path style="fill:#b69de9; stroke:none;" d="M563 303L564 304L563 303z"/>
<path style="fill:#606673; stroke:none;" d="M564 303L565 304L564 303z"/>
<path style="fill:#b69de9; stroke:none;" d="M239 304L240 305L239 304z"/>
<path style="fill:#606673; stroke:none;" d="M516 304L516 305L562 305C550.061 299.99 529.003 304 516 304z"/>
<path style="fill:#b69de9; stroke:none;" d="M240 305L241 306L240 305M242 306L243 307L242 306M243 307L244 308L243 307M245 308L246 309L245 308M247 309L248 310L247 309M249 310L250 311L249 310M251.667 311.333L252.333 311.667L251.667 311.333M255.667 312.333L256.333 312.667L255.667 312.333M260 313L260 314L350 314L350 315L314 315L314 316C329.196 316.002 339.276 327.006 353 332L353 320L354 320L354 356L355 356C355 342.655 351.909 325.118 358 313L260 313z"/>
<path style="fill:#606673; stroke:none;" d="M358 313L359 314L358 313z"/>
<path style="fill:#262f3f; stroke:none;" d="M356 357C348.086 357 329.956 353.598 323.318 358.028C319.292 360.714 319.542 374.385 324.148 376.397C331.508 379.61 345.002 377 353 377L421 377C429.093 377 447.891 380.504 454.682 375.972C458.708 373.286 458.458 359.615 453.852 357.603C446.246 354.283 432.28 357 424 357C424 343.479 427.195 325.343 421 313L375 313L357.858 314.742L356 327L356 357z"/>
<path style="fill:#606673; stroke:none;" d="M419 313L420 314L419 313M421 313L422 314L421 313z"/>
<path style="fill:#6f7fdf; stroke:none;" d="M493 313L493 359L494 359C494 345.997 498.01 324.939 493 313z"/>
<path style="fill:#606673; stroke:none;" d="M512 313L512 314L515 314L512 313z"/>
<path style="fill:#6f7fdf; stroke:none;" d="M515 313L516 314L515 313z"/>
<path style="fill:#b69de9; stroke:none;" d="M516 313.468C506.851 315.243 501.52 327.47 512.043 331.991C516.461 333.889 522.302 333 527 333C537.686 333 551.709 335.398 561.999 332.427C571.06 329.811 571.952 317.676 562.985 314.264C551.607 309.935 527.907 311.159 516 313.468z"/>
<path style="fill:#6f7fdf; stroke:none;" d="M560 313L561 314L560 313z"/>
<path style="fill:#606673; stroke:none;" d="M561.667 313.333L562.333 313.667L561.667 313.333z"/>
<path style="fill:#6f7fdf; stroke:none;" d="M354 314L355 315L354 314M422 314L423 315L422 314z"/>
<path style="fill:#606673; stroke:none;" d="M510 314L511 315L510 314z"/>
<path style="fill:#6f7fdf; stroke:none;" d="M511 314L512 315L511 314M564 314L565 315L564 314M356 315L357 316L356 315z"/>
<path style="fill:#606673; stroke:none;" d="M422 315L423 316L422 315M509 315L510 316L509 315M566 315L567 316L566 315M356 316L357 317L356 316z"/>
<path style="fill:#6f7fdf; stroke:none;" d="M423 316L424 317L423 316z"/>
<path style="fill:#606673; stroke:none;" d="M508 316L509 317L508 316M567 316L568 317L567 316z"/>
<path style="fill:#6f7fdf; stroke:none;" d="M355 317L355 320L356 320L355 317z"/>
<path style="fill:#606673; stroke:none;" d="M423 317L423 320L424 320L423 317M507 317L508 318L507 317z"/>
<path style="fill:#6f7fdf; stroke:none;" d="M568 318L569 319L568 318z"/>
<path style="fill:#606673; stroke:none;" d="M506 319L507 320L506 319M569.333 319.667L569.667 320.333L569.333 319.667M355 320L355 357L356 357C356 346.351 359.111 329.798 355 320z"/>
<path style="fill:#6f7fdf; stroke:none;" d="M569 321L570 322L569 321z"/>
<path style="fill:#606673; stroke:none;" d="M505 322L505 325L506 325L505 322z"/>
<path style="fill:#6f7fdf; stroke:none;" d="M569 325L570 326L569 325M506 326L507 327L506 326z"/>
<path style="fill:#606673; stroke:none;" d="M569 326L570 327L569 326M506 327L507 328L506 327z"/>
<path style="fill:#6f7fdf; stroke:none;" d="M507 328L508 329L507 328z"/>
<path style="fill:#606673; stroke:none;" d="M568 328L569 329L568 328z"/>
<path style="fill:#6f7fdf; stroke:none;" d="M567 329L568 330L567 329M566 330L567 331L566 330M510 331L511 332L510 331z"/>
<path style="fill:#606673; stroke:none;" d="M565 331L566 332L565 331M511.667 332.333L512.333 332.667L511.667 332.333z"/>
<path style="fill:#6f7fdf; stroke:none;" d="M562 332L563 333L562 332z"/>
<path style="fill:#606673; stroke:none;" d="M563 332L564 333L563 332z"/>
<path style="fill:#b69de9; stroke:none;" d="M324 355L324 356L330 356L324 355M331.667 355.333L332.333 355.667L331.667 355.333M322 356L323 357L322 356z"/>
<path style="fill:#6f7fdf; stroke:none;" d="M424 356L424 357L454 357L424 356z"/>
<path style="fill:#606673; stroke:none;" d="M533 356L532 359L533 359L533 356z"/>
<path style="fill:#6f7fdf; stroke:none;" d="M534 356L534 357L545 357L534 356z"/>
<path style="fill:#606673; stroke:none;" d="M545 356L547 358L545 356M322 357L323 358L322 357M455 357L456 358L455 357z"/>
<path style="fill:#b69de9; stroke:none;" d="M533 357L533 360L546 360L546 357L533 357z"/>
<path style="fill:#606673; stroke:none;" d="M321 358L322 359L321 358z"/>
<path style="fill:#6f7fdf; stroke:none;" d="M456 358L457 359L456 358M546 358L547 359L546 358z"/>
<path style="fill:#606673; stroke:none;" d="M581.333 358.667L581.667 359.333L581.333 358.667z"/>
<path style="fill:#b69de9; stroke:none;" d="M319 359L319 374L320 374L319 359z"/>
<path style="fill:#606673; stroke:none;" d="M546 359L547 360L546 359M320 360L320 374L321 374L320 360M494 360L495 361L494 360M534 360L534 361L545 361L534 360z"/>
<path style="fill:#6f7fdf; stroke:none;" d="M581 360L582 361L581 360M494 361L495 362L494 361z"/>
<path style="fill:#606673; stroke:none;" d="M580 362L581 363L580 362M495 363L496 364L495 363z"/>
<path style="fill:#6f7fdf; stroke:none;" d="M580 363L581 364L580 363z"/>
<path style="fill:#606673; stroke:none;" d="M579 364L580 365L579 364z"/>
<path style="fill:#6f7fdf; stroke:none;" d="M496 365L497 366L496 365z"/>
<path style="fill:#606673; stroke:none;" d="M497 366L498 367L497 366z"/>
<path style="fill:#6f7fdf; stroke:none;" d="M578 366L579 367L578 366z"/>
<path style="fill:#606673; stroke:none;" d="M498 367L499 368L498 367z"/>
<path style="fill:#6f7fdf; stroke:none;" d="M577 367L578 368L577 367M499 368L500 369L499 368z"/>
<path style="fill:#606673; stroke:none;" d="M575 368L576 369L575 368M501 369L502 370L501 369z"/>
<path style="fill:#6f7fdf; stroke:none;" d="M574 369L575 370L574 369M502 370L503 371L502 370z"/>
<path style="fill:#606673; stroke:none;" d="M503.667 370.333L504.333 370.667L503.667 370.333M571 370L572 371L571 370z"/>
<path style="fill:#6f7fdf; stroke:none;" d="M572 370L573 371L572 370M505 371L505 372L570 372L549 371L505 371z"/>
<path style="fill:#606673; stroke:none;" d="M321 375L322 376L321 375z"/>
<path style="fill:#6f7fdf; stroke:none;" d="M456 375L457 376L456 375z"/>
<path style="fill:#606673; stroke:none;" d="M322 376L323 377L322 376z"/>
<path style="fill:#6f7fdf; stroke:none;" d="M455 376L456 377L455 376z"/>
<path style="fill:#606673; stroke:none;" d="M34 443L29 449L34 443M28 449L29 450L28 449z"/>
</svg>
